<svg width="390" height="264" viewBox="0 0 390 264" fill="none" xmlns="http://www.w3.org/2000/svg">
<path d="M289.738 146.989C289.738 146.989 283.839 143.715 283.402 151.13C282.965 158.546 281.871 206.783 281.871 206.783" stroke="#263238" stroke-width="2" stroke-linecap="round" stroke-linejoin="round"/>
<path d="M280.32 151.787C280.32 151.787 285.12 162.481 282.945 206.127" stroke="#263238" stroke-width="2" stroke-linecap="round" stroke-linejoin="round"/>
<path d="M285.067 148.48C285.067 148.48 282.807 149.918 281.525 148.273C280.243 146.629 282.394 143.59 280.498 142.296C278.602 141.002 275.323 142.977 275.323 142.977C275.323 142.977 277.843 143.715 277.762 145.091C277.68 146.466 276.466 147.008 276.322 146.385C276.178 145.762 274.954 142.756 272.904 144.017C272.315 144.366 271.802 144.83 271.397 145.382C270.992 145.934 270.703 146.562 270.547 147.228C270.547 147.228 275.314 146.72 275.602 148.513C275.89 150.306 273.648 148.202 271.68 148.086C269.712 147.971 267.917 148.259 268.047 149.448C268.09 150.5 268.027 151.553 267.859 152.592C268.936 151.697 270.298 151.217 271.699 151.241C273.864 151.365 273.783 152.741 271.815 152.626C269.847 152.511 268.157 154.38 268.157 154.38C268.157 154.38 269.952 157.443 272.232 158.958C274.512 160.473 275.333 159.917 275.592 158.762C275.851 157.606 275.247 154.601 276.624 154.682C278.002 154.764 274.344 159.874 276.101 160.176C277.858 160.478 279.274 159.965 279.735 158.81L280.215 157.654C280.215 157.654 279.6 154.663 279.869 153.494C280.138 152.324 280.459 153.527 280.771 154.932C281.083 156.336 281.28 159.696 281.88 159.533C282.48 159.37 284.405 156.921 284.856 155.962C285.307 155.004 282.322 152.065 282.355 151.476C282.389 150.886 284.693 152.008 285.053 152.621C285.314 153.088 285.549 153.568 285.759 154.059C285.759 154.059 287.199 153.158 287.16 150.397C287.122 147.636 285.067 148.48 285.067 148.48Z" fill="white"/>
<path opacity="0.3" d="M285.067 148.48C285.067 148.48 282.807 149.918 281.525 148.273C280.243 146.629 282.394 143.59 280.498 142.296C278.602 141.002 275.323 142.977 275.323 142.977C275.323 142.977 277.843 143.715 277.762 145.091C277.68 146.466 276.466 147.008 276.322 146.385C276.178 145.762 274.954 142.756 272.904 144.017C272.315 144.366 271.802 144.83 271.397 145.382C270.992 145.934 270.703 146.562 270.547 147.228C270.547 147.228 275.314 146.72 275.602 148.513C275.89 150.306 273.648 148.202 271.68 148.086C269.712 147.971 267.917 148.259 268.047 149.448C268.09 150.5 268.027 151.553 267.859 152.592C268.936 151.697 270.298 151.217 271.699 151.241C273.864 151.365 273.783 152.741 271.815 152.626C269.847 152.511 268.157 154.38 268.157 154.38C268.157 154.38 269.952 157.443 272.232 158.958C274.512 160.473 275.333 159.917 275.592 158.762C275.851 157.606 275.247 154.601 276.624 154.682C278.002 154.764 274.344 159.874 276.101 160.176C277.858 160.478 279.274 159.965 279.735 158.81L280.215 157.654C280.215 157.654 279.6 154.663 279.869 153.494C280.138 152.324 280.459 153.527 280.771 154.932C281.083 156.336 281.28 159.696 281.88 159.533C282.48 159.37 284.405 156.921 284.856 155.962C285.307 155.004 282.322 152.065 282.355 151.476C282.389 150.886 284.693 152.008 285.053 152.621C285.314 153.088 285.549 153.568 285.759 154.059C285.759 154.059 287.199 153.158 287.16 150.397C287.122 147.636 285.067 148.48 285.067 148.48Z" fill="#263238"/>
<path d="M273.624 154.956C275.098 153.139 277.262 150.68 279.082 149.505" stroke="#263238" stroke-linecap="round" stroke-linejoin="round"/>
<path d="M271.915 157.17C271.915 157.17 272.294 156.643 272.909 155.857" stroke="#263238" stroke-linecap="round" stroke-linejoin="round"/>
<path d="M280.042 149.956C280.042 149.956 282.23 153.043 282.634 156.221" stroke="#263238" stroke-linecap="round" stroke-linejoin="round"/>
<path d="M277.565 151.782C277.565 151.782 278.179 151.428 277.949 155.354" stroke="#263238" stroke-linecap="round" stroke-linejoin="round"/>
<path d="M279.163 148.12C279.163 148.12 280.411 147.008 279.753 144.803" stroke="#263238" stroke-linecap="round" stroke-linejoin="round"/>
<path d="M277.474 150.004L276.581 148.374" stroke="#263238" stroke-linecap="round" stroke-linejoin="round"/>
<path d="M275.597 151.667C275.597 151.667 272.765 149.529 270.994 149.424" stroke="#263238" stroke-linecap="round" stroke-linejoin="round"/>
<path d="M293.112 142.655C293.112 142.655 293.021 145.896 290.486 146.054C287.952 146.212 286.387 141.999 283.795 143.01C281.203 144.022 280.953 148.647 280.953 148.647C280.953 148.647 283.411 146.629 284.736 147.65C286.061 148.671 285.753 150.239 285.038 149.99C284.323 149.74 280.469 148.882 280.339 151.787C280.285 152.615 280.4 153.444 280.677 154.226C280.953 155.008 281.385 155.726 281.947 156.336C281.947 156.336 284.688 151.226 286.685 152.156C288.681 153.086 285.038 153.896 283.579 155.785C282.12 157.674 281.179 159.663 282.47 160.348C283.554 161.021 284.567 161.802 285.494 162.678C285.494 162.678 285.149 160.003 286.752 157.928C288.355 155.852 289.675 156.868 288.221 158.757C286.766 160.646 287.486 163.608 287.486 163.608C287.486 163.608 291.777 163.905 294.849 162.649C297.921 161.393 297.941 160.209 296.952 159.145C295.963 158.081 292.545 156.657 293.563 155.334C294.581 154.011 297.211 161.154 298.713 159.601C300.216 158.047 300.662 156.288 299.822 155.037L298.977 153.786C298.977 153.786 295.56 152.348 294.571 151.298C293.582 150.248 295.008 150.728 296.625 151.37C298.243 152.012 301.742 154.107 301.992 153.398C302.241 152.688 301.094 149.084 300.441 147.991C299.789 146.898 294.806 147.866 294.24 147.43C293.673 146.994 296.366 145.455 297.225 145.512C298.085 145.57 299.145 145.776 299.145 145.776C299.145 145.776 299.222 143.729 296.429 141.879C293.635 140.029 293.112 142.655 293.112 142.655Z" fill="white"/>
<path opacity="0.2" d="M293.112 142.655C293.112 142.655 293.021 145.896 290.486 146.054C287.952 146.212 286.387 141.999 283.795 143.01C281.203 144.022 280.953 148.647 280.953 148.647C280.953 148.647 283.411 146.629 284.736 147.65C286.061 148.671 285.753 150.239 285.038 149.99C284.323 149.74 280.469 148.882 280.339 151.787C280.285 152.615 280.4 153.444 280.677 154.226C280.953 155.008 281.385 155.726 281.947 156.336C281.947 156.336 284.688 151.226 286.685 152.156C288.681 153.086 285.038 153.896 283.579 155.785C282.12 157.674 281.179 159.663 282.47 160.348C283.554 161.021 284.567 161.802 285.494 162.678C285.494 162.678 285.149 160.003 286.752 157.928C288.355 155.852 289.675 156.868 288.221 158.757C286.766 160.646 287.486 163.608 287.486 163.608C287.486 163.608 291.777 163.905 294.849 162.649C297.921 161.393 297.941 160.209 296.952 159.145C295.963 158.081 292.545 156.657 293.563 155.334C294.581 154.011 297.211 161.154 298.713 159.601C300.216 158.047 300.662 156.288 299.822 155.037L298.977 153.786C298.977 153.786 295.56 152.348 294.571 151.298C293.582 150.248 295.008 150.728 296.625 151.37C298.243 152.012 301.742 154.107 301.992 153.398C302.241 152.688 301.094 149.084 300.441 147.991C299.789 146.898 294.806 147.866 294.24 147.43C293.673 146.994 296.366 145.455 297.225 145.512C298.085 145.57 299.145 145.776 299.145 145.776C299.145 145.776 299.222 143.729 296.429 141.879C293.635 140.029 293.112 142.655 293.112 142.655Z" fill="#263238"/>
<path d="M291.801 158.512C290.985 155.799 289.997 151.955 290.064 149.338" stroke="#263238" stroke-linecap="round" stroke-linejoin="round"/>
<path d="M292.858 161.724C292.858 161.724 292.589 160.991 292.219 159.84" stroke="#263238" stroke-linecap="round" stroke-linejoin="round"/>
<path d="M291.168 148.686C291.168 148.686 295.752 148.604 299.213 150.363" stroke="#263238" stroke-linecap="round" stroke-linejoin="round"/>
<path d="M291.312 152.405C291.312 152.405 291.37 151.552 295.152 154.462" stroke="#263238" stroke-linecap="round" stroke-linejoin="round"/>
<path d="M288.739 148.321C288.739 148.321 288.48 146.313 285.816 145.469" stroke="#263238" stroke-linecap="round" stroke-linejoin="round"/>
<path d="M289.464 151.289L287.223 151.068" stroke="#263238" stroke-linecap="round" stroke-linejoin="round"/>
<path d="M289.853 154.294C289.853 154.294 285.778 155.675 284.467 157.372" stroke="#263238" stroke-linecap="round" stroke-linejoin="round"/>
<path d="M265.92 164.226C265.92 164.226 278.813 172.74 278.592 205.69" stroke="#263238" stroke-width="2" stroke-linecap="round" stroke-linejoin="round"/>
<path d="M281.818 161.978C281.818 161.978 281.405 165.707 278.458 165.655C275.511 165.602 274.109 160.583 271.027 161.508C267.946 162.434 267.211 167.74 267.211 167.74C267.211 167.74 270.24 165.645 271.675 166.944C273.111 168.243 272.602 170.026 271.8 169.672C270.999 169.317 266.635 167.965 266.208 171.306C266.069 172.257 266.125 173.226 266.373 174.155C266.62 175.084 267.054 175.953 267.648 176.709C267.648 176.709 271.296 171.067 273.509 172.327C275.722 173.588 271.445 174.182 269.583 176.225C267.72 178.267 266.458 180.476 267.869 181.387C269.059 182.264 270.156 183.26 271.143 184.359C271.143 184.359 270.994 181.239 273.063 178.995C275.131 176.752 276.538 178.036 274.68 180.088C272.823 182.14 273.375 185.62 273.375 185.62C273.375 185.62 278.304 186.368 281.967 185.217C285.629 184.067 285.759 182.696 284.717 181.382C283.675 180.069 279.869 178.094 281.17 176.665C282.471 175.237 284.827 183.722 286.709 182.073C288.591 180.424 289.272 178.434 288.418 176.91L287.52 175.386C287.52 175.386 283.714 173.415 282.672 172.097C281.631 170.779 283.229 171.484 285.034 172.375C286.839 173.267 290.683 176.018 291.034 175.218C291.384 174.417 290.4 170.17 289.771 168.833C289.143 167.495 283.282 168.162 282.667 167.606C282.053 167.05 285.312 165.525 286.296 165.688C287.029 165.81 287.755 165.97 288.471 166.168C288.471 166.168 288.749 163.809 285.701 161.412C282.653 159.016 281.818 161.978 281.818 161.978Z" fill="white"/>
<path opacity="0.3" d="M281.818 161.978C281.818 161.978 281.405 165.707 278.458 165.655C275.511 165.602 274.109 160.583 271.027 161.508C267.946 162.434 267.211 167.74 267.211 167.74C267.211 167.74 270.24 165.645 271.675 166.944C273.111 168.243 272.602 170.026 271.8 169.672C270.999 169.317 266.635 167.965 266.208 171.306C266.069 172.257 266.125 173.226 266.373 174.155C266.62 175.084 267.054 175.953 267.648 176.709C267.648 176.709 271.296 171.067 273.509 172.327C275.722 173.588 271.445 174.182 269.583 176.225C267.72 178.267 266.458 180.476 267.869 181.387C269.059 182.264 270.156 183.26 271.143 184.359C271.143 184.359 270.994 181.239 273.063 178.995C275.131 176.752 276.538 178.036 274.68 180.088C272.823 182.14 273.375 185.62 273.375 185.62C273.375 185.62 278.304 186.368 281.967 185.217C285.629 184.067 285.759 182.696 284.717 181.382C283.675 180.069 279.869 178.094 281.17 176.665C282.471 175.237 284.827 183.722 286.709 182.073C288.591 180.424 289.272 178.434 288.418 176.91L287.52 175.386C287.52 175.386 283.714 173.415 282.672 172.097C281.631 170.779 283.229 171.484 285.034 172.375C286.839 173.267 290.683 176.018 291.034 175.218C291.384 174.417 290.4 170.17 289.771 168.833C289.143 167.495 283.282 168.162 282.667 167.606C282.053 167.05 285.312 165.525 286.296 165.688C287.029 165.81 287.755 165.97 288.471 166.168C288.471 166.168 288.749 163.809 285.701 161.412C282.653 159.016 281.818 161.978 281.818 161.978Z" fill="#263238"/>
<path d="M278.813 180.15C278.121 176.948 277.349 172.418 277.665 169.403" stroke="#263238" stroke-linecap="round" stroke-linejoin="round"/>
<path d="M279.725 183.956C279.725 183.956 279.485 183.084 279.163 181.723" stroke="#263238" stroke-linecap="round" stroke-linejoin="round"/>
<path d="M279.005 168.732C279.005 168.732 284.285 169.073 288.125 171.431" stroke="#263238" stroke-linecap="round" stroke-linejoin="round"/>
<path d="M278.818 173.046C278.818 173.046 278.967 172.088 283.056 175.779" stroke="#263238" stroke-linecap="round" stroke-linejoin="round"/>
<path d="M276.235 168.104C276.235 168.104 276.125 165.765 273.134 164.538" stroke="#263238" stroke-linecap="round" stroke-linejoin="round"/>
<path d="M276.792 171.594L274.229 171.129" stroke="#263238" stroke-linecap="round" stroke-linejoin="round"/>
<path d="M276.96 175.103C276.96 175.103 272.126 176.306 270.451 178.142" stroke="#263238" stroke-linecap="round" stroke-linejoin="round"/>
<path d="M270.946 190.198C270.946 190.198 279.25 196.525 280.123 205.911L278.4 174.484" stroke="#263238" stroke-width="2" stroke-linecap="round" stroke-linejoin="round"/>
<path d="M291.048 185.615C280.123 183.65 280.123 205.911 280.123 205.911" stroke="#263238" stroke-width="2" stroke-linecap="round" stroke-linejoin="round"/>
<path d="M281.434 205.69C281.434 205.69 275.098 159.644 293.434 159.644" stroke="#263238" stroke-width="2" stroke-linecap="round" stroke-linejoin="round"/>
<path d="M286.887 184.287C285.394 182.614 282.221 182.614 280.359 186.9C278.496 191.185 280.172 190.437 280.172 190.437C280.172 190.437 283.714 189.32 285.931 188.573C288.149 187.825 291.154 185.965 291.341 187.087C291.528 188.208 289.848 189.32 287.794 189.694C285.74 190.068 280.335 191.554 280.892 192.676C281.448 193.798 282.759 197.143 282.759 197.143C284.353 195.793 286.036 194.549 287.794 193.419C290.223 191.928 291.716 192.489 290.41 194.162C289.104 195.835 285.37 197.704 286.119 199.938C286.868 202.172 291.36 204.971 291.36 204.971C291.36 204.971 291.917 200.312 293.227 198.821C294.538 197.33 294.533 199.008 294.159 201.616C293.971 202.726 293.846 203.847 293.784 204.971L299.007 206.831C299.861 205.533 300.795 204.289 301.805 203.107L302.765 202.177C302.765 202.177 298.661 198.634 298.474 196.424C298.287 194.215 301.272 196.424 302.203 196.798C303.135 197.172 304.627 199.775 304.627 199.775C304.627 199.775 305.563 195.495 305.751 194.023L305.938 192.532C305.938 192.532 302.016 191.041 300.523 191.041C299.031 191.041 298.287 192.158 298.287 190.667C298.287 189.177 299.779 188.247 301.459 188.434C302.98 188.685 304.478 189.058 305.938 189.551C305.938 189.551 307.056 188.616 306.682 185.821C306.307 183.027 305.376 183.027 303.139 183.774C300.903 184.522 299.405 186.171 297.725 186.171C296.045 186.171 296.981 184.124 298.099 183.563C299.218 183.003 302.016 181.886 302.578 181.699C303.139 181.512 299.592 178.904 297.725 178.535C295.858 178.166 293.444 179.494 293.621 181.33C293.976 185.222 288.379 185.989 286.887 184.287Z" fill="white"/>
<path d="M298.896 203.471C298.954 204.032 298.992 204.597 299.012 205.158" stroke="#263238" stroke-linecap="round" stroke-linejoin="round"/>
<path d="M295.147 190.097C296.787 193.788 297.967 197.666 298.661 201.645" stroke="#263238" stroke-linecap="round" stroke-linejoin="round"/>
<path d="M294.475 188.601C293.553 186.617 292.857 185.409 292.857 185.409C293.866 184.923 294.703 184.142 295.257 183.17C295.695 182.289 296.334 181.524 297.125 180.937" stroke="#263238" stroke-linecap="round" stroke-linejoin="round"/>
<path d="M286.325 191.741C286.325 191.741 293.045 188.947 293.045 189.507" stroke="#263238" stroke-linecap="round" stroke-linejoin="round"/>
<path d="M296.774 188.204C296.774 188.204 299.76 186.713 302.371 186.713" stroke="#263238" stroke-linecap="round" stroke-linejoin="round"/>
<path d="M295.68 192.7C294.386 193.762 293.198 194.946 292.133 196.237C291.043 197.521 290.162 198.967 289.521 200.523" stroke="#263238" stroke-linecap="round" stroke-linejoin="round"/>
<path d="M297.706 193.419C297.706 193.419 301.627 192.302 303.677 194.162" stroke="#263238" stroke-linecap="round" stroke-linejoin="round"/>
<path d="M304.8 168.253C302.77 167.054 300.523 167.026 299.419 165.76C298.315 164.495 300.48 163.843 301.637 164.322C302.794 164.801 305.477 166.177 305.981 166.479C306.485 166.781 306.139 162.395 305.199 160.727C304.258 159.059 301.68 158.115 300.399 159.461C297.687 162.309 293.453 158.575 293.741 156.35C294.029 154.126 291.951 151.734 287.501 153.139C283.051 154.543 284.703 155.315 284.703 155.315C284.703 155.315 287.871 157.256 289.906 158.46C291.941 159.663 295.301 160.689 294.576 161.561C293.851 162.433 291.907 161.901 290.28 160.602C288.653 159.303 283.983 156.197 283.503 157.352C283.023 158.508 281.343 161.667 281.343 161.667C283.41 161.983 285.455 162.436 287.463 163.023C290.179 163.872 290.736 165.362 288.615 165.477C286.493 165.592 282.634 164.001 281.415 166.029C280.195 168.056 281.035 173.267 281.035 173.267C281.035 173.267 284.923 170.635 286.906 170.645C288.888 170.654 287.621 171.752 285.403 173.181C284.443 173.769 283.515 174.409 282.624 175.098L284.64 180.261C286.182 180.052 287.736 179.941 289.291 179.93L290.607 180.021C290.607 180.021 290.607 174.604 292.162 172.998C293.717 171.393 293.995 175.108 294.327 176.057C294.658 177.006 293.664 179.839 293.664 179.839C293.664 179.839 297.504 177.734 298.762 176.9L300.015 176.061C300.015 176.061 298.575 172.131 297.615 171.004C296.655 169.878 295.306 170.046 296.429 169.087C297.552 168.128 299.242 168.608 300.202 170.012C301.006 171.324 301.704 172.698 302.29 174.12C302.29 174.12 303.73 174.355 305.597 172.241C307.464 170.127 306.835 169.446 304.8 168.253ZM287.146 174.216C285.653 173.473 289.195 171.982 289.195 171.982C290.506 171.786 288.639 174.964 287.151 174.206L287.146 174.216ZM289.656 167.261C289.023 166.944 290.928 166.302 290.928 166.302C293.693 166.815 290.299 167.572 289.661 167.251L289.656 167.261Z" fill="white"/>
<path d="M287.107 178.003C286.72 178.415 286.322 178.813 285.912 179.197" stroke="#263238" stroke-linecap="round" stroke-linejoin="round"/>
<path d="M294.763 166.407C293.049 170.064 290.89 173.497 288.336 176.627" stroke="#263238" stroke-linecap="round" stroke-linejoin="round"/>
<path d="M295.455 164.921C296.352 162.922 296.808 161.604 296.808 161.604C297.839 162.059 298.985 162.186 300.091 161.969C301.044 161.72 302.043 161.7 303.005 161.911" stroke="#263238" stroke-linecap="round" stroke-linejoin="round"/>
<path d="M293.832 164.418C294.254 164.054 287.741 160.818 287.741 160.818" stroke="#263238" stroke-linecap="round" stroke-linejoin="round"/>
<path d="M297.264 166.393C297.264 166.393 300.351 167.668 302.064 169.638" stroke="#263238" stroke-linecap="round" stroke-linejoin="round"/>
<path d="M293.151 168.478C291.498 168.202 289.824 168.084 288.149 168.128C286.466 168.147 284.796 168.43 283.2 168.967" stroke="#263238" stroke-linecap="round" stroke-linejoin="round"/>
<path d="M293.933 170.515C293.933 170.515 297.345 172.74 297.293 175.505" stroke="#263238" stroke-linecap="round" stroke-linejoin="round"/>
<path d="M275.813 194.061C274.181 193.103 272.371 193.074 271.493 192.053C270.615 191.032 272.343 190.519 273.274 190.907C274.205 191.295 276.36 192.398 276.773 192.638C277.186 192.877 276.898 189.354 276.139 188.026C275.381 186.698 273.307 185.922 272.299 187.01C270.115 189.297 266.707 186.296 266.943 184.503C267.178 182.71 265.503 180.788 261.907 181.919C258.312 183.051 259.656 183.674 259.656 183.674C259.656 183.674 262.205 185.236 263.842 186.2C265.479 187.163 268.162 187.993 267.6 188.697C267.039 189.402 265.455 188.971 264.144 187.921C262.834 186.871 259.075 184.374 258.687 185.304C258.298 186.233 256.954 188.798 256.954 188.798C258.618 189.052 260.263 189.415 261.879 189.886C264.063 190.572 264.509 191.775 262.8 191.866C261.091 191.957 258 190.677 257.04 192.307C256.08 193.937 256.738 198.131 256.738 198.131C256.738 198.131 259.867 196.017 261.461 196.022C263.055 196.027 262.037 196.913 260.256 198.064C259.481 198.535 258.733 199.049 258.015 199.603L259.637 203.759C260.878 203.59 262.129 203.5 263.381 203.49L264.442 203.567C264.442 203.567 264.442 199.205 265.695 197.915C266.947 196.626 267.168 199.612 267.432 200.374C267.696 201.137 266.899 203.418 266.899 203.418C266.899 203.418 270 201.726 271.003 201.05L272.011 200.379C272.011 200.379 270.85 197.215 270.063 196.309C269.275 195.404 268.2 195.538 269.103 194.752C270.005 193.965 271.363 194.382 272.136 195.499C272.784 196.556 273.348 197.662 273.821 198.807C273.821 198.807 274.978 198.994 276.48 197.292C277.983 195.59 277.44 195.025 275.813 194.061ZM261.605 198.855C260.405 198.256 263.256 197.057 263.256 197.057C264.307 196.909 262.805 199.459 261.6 198.86L261.605 198.855ZM263.631 193.256C263.117 193.002 264.653 192.489 264.653 192.489C266.88 192.92 264.139 193.52 263.631 193.261V193.256Z" fill="white"/>
<path d="M261.6 201.913C261.288 202.244 260.967 202.565 260.64 202.872" stroke="#263238" stroke-linecap="round" stroke-linejoin="round"/>
<path d="M267.734 192.585C266.352 195.526 264.614 198.287 262.56 200.806" stroke="#263238" stroke-linecap="round" stroke-linejoin="round"/>
<path d="M268.291 191.386C269.011 189.781 269.381 188.716 269.381 188.716C270.21 189.082 271.131 189.184 272.021 189.009C272.787 188.809 273.589 188.793 274.363 188.961" stroke="#263238" stroke-linecap="round" stroke-linejoin="round"/>
<path d="M262.08 188.098C262.08 188.098 267.326 190.701 266.986 190.974" stroke="#263238" stroke-linecap="round" stroke-linejoin="round"/>
<path d="M269.76 192.57C269.76 192.57 272.242 193.596 273.6 195.178" stroke="#263238" stroke-linecap="round" stroke-linejoin="round"/>
<path d="M266.434 194.248C265.105 194.024 263.758 193.929 262.411 193.965C261.056 193.981 259.712 194.209 258.427 194.641" stroke="#263238" stroke-linecap="round" stroke-linejoin="round"/>
<path d="M267.062 195.888C267.062 195.888 269.813 197.676 269.76 199.905" stroke="#263238" stroke-linecap="round" stroke-linejoin="round"/>
<path d="M269.15 163.296C269.15 163.296 267.096 164.787 265.79 163.296C264.485 161.806 266.352 158.824 264.48 157.707C262.608 156.59 259.632 158.637 259.632 158.637C259.632 158.637 262.056 159.198 262.056 160.502C262.056 161.806 260.938 162.362 260.75 161.806C260.563 161.25 259.258 158.45 257.39 159.754C256.852 160.116 256.393 160.584 256.04 161.128C255.688 161.673 255.45 162.283 255.341 162.922C255.341 162.922 259.814 162.175 260.189 163.852C260.563 165.53 258.322 163.665 256.459 163.665C254.597 163.665 252.912 164.039 253.099 165.156C253.201 166.148 253.201 167.147 253.099 168.138C254.066 167.234 255.324 166.705 256.646 166.647C258.696 166.647 258.696 167.951 256.834 167.951C254.971 167.951 253.474 169.816 253.474 169.816C253.474 169.816 255.341 172.61 257.578 173.914C259.814 175.218 260.563 174.662 260.75 173.54C260.938 172.418 260.189 169.629 261.494 169.629C262.8 169.629 259.632 174.662 261.307 174.844C262.982 175.026 264.293 174.475 264.667 173.353L265.042 172.236C265.042 172.236 264.293 169.442 264.48 168.325C264.667 167.208 265.042 168.325 265.411 169.629C265.781 170.932 266.16 174.101 266.717 173.914C267.274 173.727 268.958 171.306 269.333 170.376C269.707 169.446 266.717 166.834 266.717 166.278C266.717 165.722 268.958 166.647 269.333 167.208C269.603 167.63 269.851 168.065 270.077 168.512C270.077 168.512 271.382 167.582 271.195 164.969C271.008 162.357 269.15 163.296 269.15 163.296Z" fill="white"/>
<path d="M258.72 170.05C260.011 168.253 261.922 165.808 263.578 164.6" stroke="#263238" stroke-linecap="round" stroke-linejoin="round"/>
<path d="M257.208 172.236C257.208 172.236 257.539 171.719 258.072 170.942" stroke="#263238" stroke-linecap="round" stroke-linejoin="round"/>
<path d="M264.48 164.969C264.48 164.969 266.717 167.764 267.278 170.746" stroke="#263238" stroke-linecap="round" stroke-linejoin="round"/>
<path d="M262.248 166.815C262.248 166.815 262.805 166.441 262.805 170.17" stroke="#263238" stroke-linecap="round" stroke-linejoin="round"/>
<path d="M263.554 163.296C263.554 163.296 264.672 162.175 263.923 160.128" stroke="#263238" stroke-linecap="round" stroke-linejoin="round"/>
<path d="M262.061 165.156L261.125 163.665" stroke="#263238" stroke-linecap="round" stroke-linejoin="round"/>
<path d="M260.381 166.815C260.381 166.815 257.582 164.95 255.902 164.95" stroke="#263238" stroke-linecap="round" stroke-linejoin="round"/>
<path d="M287.99 205.034H273.566V225.766H287.99V205.034Z" fill="#263238" stroke="#263238" stroke-width="2" stroke-linecap="round" stroke-linejoin="round"/>
<path d="M158.074 45.7208C158.074 45.7208 158.247 39.5946 158.031 34.3265C157.814 29.0585 158.252 17.7649 158.252 17.7649" stroke="#263238" stroke-miterlimit="10"/>
<path d="M158.151 24.4086L155.755 22.5248" stroke="#263238" stroke-miterlimit="10"/>
<path d="M158.122 25.7029L158.976 24.3271" stroke="#263238" stroke-miterlimit="10"/>
<path d="M157.93 31.1531L160.056 29.3939" stroke="#263238" stroke-miterlimit="10"/>
<path d="M158.251 20.0801L157.128 19.0591" stroke="#263238" stroke-miterlimit="10"/>
<path d="M157.91 32.1071L156.504 30.6019" stroke="#263238" stroke-miterlimit="10"/>
<path d="M158.031 38.0223L155.107 35.3571" stroke="#263238" stroke-miterlimit="10"/>
<path d="M158.107 41.3059C158.852 41.0174 159.577 40.6795 160.277 40.2944" stroke="#263238" stroke-miterlimit="10"/>
<path d="M156.48 25.353C155.304 24.447 151.359 24.6052 150.6 26.4891C149.842 28.373 152.256 31.4456 154.56 31.2299C155.467 31.1436 155.861 31.0813 156.216 30.5732L152.976 27.4095L156.485 30.228C156.584 30.0446 156.664 29.8519 156.725 29.6528C156.763 29.5138 156.802 29.3604 156.831 29.2022C157.075 28.0758 157.589 26.2015 156.48 25.353Z" fill="white"/>
<path d="M164.117 23.1671V23.2342C163.8 24.6387 162.197 25.4345 160.839 25.3146C160.65 25.2987 160.464 25.2649 160.282 25.2139C159.964 25.7158 159.768 26.2844 159.708 26.875C159.648 27.4656 159.726 28.0621 159.936 28.6174C159.993 28.7761 160.069 28.9274 160.162 29.0679C160.56 28.742 164.823 25.1085 164.823 25.1085L160.397 29.3651C161.732 30.8032 164.861 30.5971 165.951 27.9558C167.04 25.3146 165.653 23.5458 164.117 23.1671Z" fill="white"/>
<path d="M161.947 18.2538C159.653 17.7744 157.598 18.7907 157.627 21.1826C157.64 21.71 157.761 22.2291 157.982 22.7081C158.203 23.1871 158.52 23.6157 158.914 23.9677L161.28 20.7464L159.293 24.2601C159.738 24.5634 160.254 24.7481 160.79 24.797C162.144 24.912 163.752 24.1163 164.069 22.7118C164.4 21.1443 164.242 18.7571 161.947 18.2538Z" fill="white"/>
<path d="M159.269 9.93701C159.269 9.93701 159.034 10.0089 157.565 10.7232C156.705 11.1967 156.068 11.9909 155.792 12.9323C155.517 13.8736 155.626 14.8855 156.096 15.7468C156.503 16.5514 157.207 17.1667 158.059 17.4629L158.65 11.7633L158.4 17.5396C158.512 17.551 158.624 17.551 158.736 17.5396C159.696 17.4437 161.198 16.3028 161.342 13.9684C161.486 11.6339 159.269 9.93701 159.269 9.93701Z" fill="white"/>
<path d="M152.563 15.1188L156.994 18.6564C157.038 18.5006 157.052 18.3381 157.037 18.177C156.831 16.1542 154.81 14.9797 153.475 14.5579C152.141 14.1361 151.215 14.8887 152.074 16.8253C152.933 18.7618 155.184 19.7014 156.187 19.409C156.426 19.3503 156.64 19.2198 156.802 19.0351L152.563 15.1188Z" fill="white"/>
<path d="M155.611 19.6535C154.932 19.6046 154.273 19.4023 153.683 19.0618C153.094 18.7214 152.589 18.2517 152.208 17.6881C151.737 17.6435 151.268 17.7846 150.9 18.0811C150.532 18.3776 150.295 18.806 150.24 19.2748C149.789 21.3839 151.315 23.589 153.518 23.3205C154.21 23.2845 154.867 23.0042 155.371 22.5296L151.435 18.9392L155.649 22.1461C155.732 21.9981 155.784 21.8352 155.803 21.6668C155.939 20.9914 155.872 20.291 155.611 19.6535Z" fill="white"/>
<path d="M155.587 31.3833C155.229 31.5363 154.848 31.6271 154.459 31.6517C153.019 31.7859 151.551 30.6594 150.821 29.3364C150.392 29.3654 149.986 29.5369 149.667 29.8237C149.347 30.1104 149.134 30.4959 149.059 30.9183C148.623 33.387 150.912 36.6418 153.226 36.1241C153.827 36.0071 154.384 35.7249 154.834 35.3092L149.784 30.4581L155.127 34.9928C155.432 34.6016 155.629 34.1371 155.698 33.6458C155.951 32.9051 155.911 32.0959 155.587 31.3833Z" fill="white"/>
<path d="M165.749 36.4308C164.05 34.4655 162.029 36.2247 162.029 36.2247C162.029 36.2247 160.791 36.6321 160.32 38.3866C160.176 38.9189 160.198 39.4824 160.383 40.002L165.49 37.03L160.507 40.28C160.987 41.162 161.986 41.7181 163.387 41.3106C165.624 40.6971 167.443 38.4105 165.749 36.4308Z" fill="white"/>
<path d="M161.515 43.8704H154.445V54.3251H161.515V43.8704Z" fill="#263238"/>
<path d="M239.554 54.2388H146.299V226.437H239.554V54.2388Z" fill="white" stroke="#263238" stroke-miterlimit="10"/>
<path d="M226.401 56.4198H148.238V223.815H226.401V56.4198Z" fill="#263238" stroke="#263238" stroke-linecap="round" stroke-linejoin="round"/>
<path d="M226.401 82.3816H148.238V84.8503H226.401V82.3816Z" fill="white" stroke="#263238" stroke-miterlimit="10"/>
<path d="M226.401 110.922H148.238V113.391H226.401V110.922Z" fill="white" stroke="#263238" stroke-miterlimit="10"/>
<path d="M201.211 56.4486H199.55V82.3768H201.211V56.4486Z" fill="white" stroke="#263238" stroke-miterlimit="10"/>
<path d="M174.638 56.4486H172.978V82.3768H174.638V56.4486Z" fill="white" stroke="#263238" stroke-miterlimit="10"/>
<path d="M201.211 113.42H199.55V139.348H201.211V113.42Z" fill="white" stroke="#263238" stroke-miterlimit="10"/>
<path d="M174.638 113.42H172.978V139.348H174.638V113.42Z" fill="white" stroke="#263238" stroke-miterlimit="10"/>
<path d="M187.795 84.9893H186.134V110.917H187.795V84.9893Z" fill="white" stroke="#263238" stroke-miterlimit="10"/>
<path d="M226.401 139.353H148.238V141.821H226.401V139.353Z" fill="white" stroke="#263238" stroke-miterlimit="10"/>
<path d="M226.401 167.797H148.238V224.687H226.401V167.797Z" fill="white" stroke="#263238" stroke-miterlimit="10"/>
<path d="M187.795 141.865H186.134V167.793H187.795V141.865Z" fill="white" stroke="#263238" stroke-miterlimit="10"/>
<path d="M228.317 54.2244V226.398L239.558 226.437V54.2244H228.317Z" fill="#263238" stroke="#263238" stroke-linecap="round" stroke-linejoin="round"/>
<path d="M206.376 58.4618H202.363V82.3192H206.376V58.4618Z" fill="white" stroke="#263238" stroke-miterlimit="10"/>
<path d="M206.376 77.1949H202.363V79.1507H206.376V77.1949Z" fill="white" stroke="#263238" stroke-miterlimit="10"/>
<path d="M206.376 60.8826H202.363V62.8383H206.376V60.8826Z" fill="white" stroke="#263238" stroke-miterlimit="10"/>
<path d="M210.48 58.4618H206.467V82.3192H210.48V58.4618Z" fill="white" stroke="#263238" stroke-miterlimit="10"/>
<path d="M210.48 77.1949H206.467V79.1507H210.48V77.1949Z" fill="white" stroke="#263238" stroke-miterlimit="10"/>
<path d="M210.48 60.8826H206.467V62.8383H210.48V60.8826Z" fill="white" stroke="#263238" stroke-miterlimit="10"/>
<path d="M214.589 58.4618H210.576V82.3192H214.589V58.4618Z" fill="white" stroke="#263238" stroke-miterlimit="10"/>
<path d="M214.589 77.1949H210.576V79.1507H214.589V77.1949Z" fill="white" stroke="#263238" stroke-miterlimit="10"/>
<path d="M214.589 60.8826H210.576V62.8383H214.589V60.8826Z" fill="white" stroke="#263238" stroke-miterlimit="10"/>
<path d="M218.693 58.4618H214.68V82.3192H218.693V58.4618Z" fill="white" stroke="#263238" stroke-miterlimit="10"/>
<path d="M225.379 58.4618H218.659V82.3192H225.379V58.4618Z" fill="white" stroke="#263238" stroke-miterlimit="10"/>
<path d="M218.693 77.1949H214.68V79.1507H218.693V77.1949Z" fill="white" stroke="#263238" stroke-miterlimit="10"/>
<path d="M218.693 60.8826H214.68V62.8383H218.693V60.8826Z" fill="white" stroke="#263238" stroke-miterlimit="10"/>
<path d="M179.53 58.4618H175.517V82.3192H179.53V58.4618Z" fill="white" stroke="#263238" stroke-miterlimit="10"/>
<path d="M179.53 77.1949H175.517V79.1507H179.53V77.1949Z" fill="white" stroke="#263238" stroke-miterlimit="10"/>
<path d="M179.53 60.8826H175.517V62.8383H179.53V60.8826Z" fill="white" stroke="#263238" stroke-miterlimit="10"/>
<path d="M183.634 58.4618H179.621V82.3192H183.634V58.4618Z" fill="white" stroke="#263238" stroke-miterlimit="10"/>
<path d="M183.634 77.1949H179.621V79.1507H183.634V77.1949Z" fill="white" stroke="#263238" stroke-miterlimit="10"/>
<path d="M183.634 60.8826H179.621V62.8383H183.634V60.8826Z" fill="white" stroke="#263238" stroke-miterlimit="10"/>
<path d="M187.742 58.4618H183.729V82.3192H187.742V58.4618Z" fill="white" stroke="#263238" stroke-miterlimit="10"/>
<path d="M187.742 77.1949H183.729V79.1507H187.742V77.1949Z" fill="white" stroke="#263238" stroke-miterlimit="10"/>
<path d="M187.742 60.8826H183.729V62.8383H187.742V60.8826Z" fill="white" stroke="#263238" stroke-miterlimit="10"/>
<path d="M191.846 58.4618H187.833V82.3192H191.846V58.4618Z" fill="white" stroke="#263238" stroke-miterlimit="10"/>
<path d="M198.533 58.4618H191.813V82.3192H198.533V58.4618Z" fill="white" stroke="#263238" stroke-miterlimit="10"/>
<path d="M191.846 77.1949H187.833V79.1507H191.846V77.1949Z" fill="white" stroke="#263238" stroke-miterlimit="10"/>
<path d="M191.846 60.8826H187.833V62.8383H191.846V60.8826Z" fill="white" stroke="#263238" stroke-miterlimit="10"/>
<path d="M179.53 115.519H175.517V139.377H179.53V115.519Z" fill="white" stroke="#263238" stroke-miterlimit="10"/>
<path d="M179.53 134.252H175.517V136.208H179.53V134.252Z" fill="white" stroke="#263238" stroke-miterlimit="10"/>
<path d="M179.53 117.945H175.517V119.901H179.53V117.945Z" fill="white" stroke="#263238" stroke-miterlimit="10"/>
<path d="M183.634 115.519H179.621V139.377H183.634V115.519Z" fill="white" stroke="#263238" stroke-miterlimit="10"/>
<path d="M183.634 134.252H179.621V136.208H183.634V134.252Z" fill="white" stroke="#263238" stroke-miterlimit="10"/>
<path d="M183.634 117.945H179.621V119.901H183.634V117.945Z" fill="white" stroke="#263238" stroke-miterlimit="10"/>
<path d="M187.742 115.519H183.729V139.377H187.742V115.519Z" fill="white" stroke="#263238" stroke-miterlimit="10"/>
<path d="M187.742 134.252H183.729V136.208H187.742V134.252Z" fill="white" stroke="#263238" stroke-miterlimit="10"/>
<path d="M187.742 117.945H183.729V119.901H187.742V117.945Z" fill="white" stroke="#263238" stroke-miterlimit="10"/>
<path d="M191.846 115.519H187.833V139.377H191.846V115.519Z" fill="white" stroke="#263238" stroke-miterlimit="10"/>
<path d="M198.533 115.519H191.813V139.377H198.533V115.519Z" fill="white" stroke="#263238" stroke-miterlimit="10"/>
<path d="M191.846 134.252H187.833V136.208H191.846V134.252Z" fill="white" stroke="#263238" stroke-miterlimit="10"/>
<path d="M191.846 117.945H187.833V119.901H191.846V117.945Z" fill="white" stroke="#263238" stroke-miterlimit="10"/>
<path d="M206.03 115.519H202.018V139.377H206.03V115.519Z" fill="white" stroke="#263238" stroke-miterlimit="10"/>
<path d="M206.03 134.252H202.018V136.208H206.03V134.252Z" fill="white" stroke="#263238" stroke-miterlimit="10"/>
<path d="M206.03 117.945H202.018V119.901H206.03V117.945Z" fill="white" stroke="#263238" stroke-miterlimit="10"/>
<path d="M210.139 115.519H206.126V139.377H210.139V115.519Z" fill="white" stroke="#263238" stroke-miterlimit="10"/>
<path d="M210.139 134.252H206.126V136.208H210.139V134.252Z" fill="white" stroke="#263238" stroke-miterlimit="10"/>
<path d="M210.139 117.945H206.126V119.901H210.139V117.945Z" fill="white" stroke="#263238" stroke-miterlimit="10"/>
<path d="M214.243 115.519H210.23V139.377H214.243V115.519Z" fill="white" stroke="#263238" stroke-miterlimit="10"/>
<path d="M214.243 134.252H210.23V136.208H214.243V134.252Z" fill="white" stroke="#263238" stroke-miterlimit="10"/>
<path d="M214.243 117.945H210.23V119.901H214.243V117.945Z" fill="white" stroke="#263238" stroke-miterlimit="10"/>
<path d="M218.352 115.519H214.339V139.377H218.352V115.519Z" fill="white" stroke="#263238" stroke-miterlimit="10"/>
<path d="M225.033 115.519H218.313V139.377H225.033V115.519Z" fill="white" stroke="#263238" stroke-miterlimit="10"/>
<path d="M218.352 134.252H214.339V136.208H218.352V134.252Z" fill="white" stroke="#263238" stroke-miterlimit="10"/>
<path d="M218.352 117.945H214.339V119.901H218.352V117.945Z" fill="white" stroke="#263238" stroke-miterlimit="10"/>
<path d="M153.197 115.519H149.184V139.377H153.197V115.519Z" fill="white" stroke="#263238" stroke-miterlimit="10"/>
<path d="M153.197 134.252H149.184V136.208H153.197V134.252Z" fill="white" stroke="#263238" stroke-miterlimit="10"/>
<path d="M153.197 117.945H149.184V119.901H153.197V117.945Z" fill="white" stroke="#263238" stroke-miterlimit="10"/>
<path d="M157.306 115.519H153.293V139.377H157.306V115.519Z" fill="white" stroke="#263238" stroke-miterlimit="10"/>
<path d="M157.306 134.252H153.293V136.208H157.306V134.252Z" fill="white" stroke="#263238" stroke-miterlimit="10"/>
<path d="M157.306 117.945H153.293V119.901H157.306V117.945Z" fill="white" stroke="#263238" stroke-miterlimit="10"/>
<path d="M161.41 115.519H157.397V139.377H161.41V115.519Z" fill="white" stroke="#263238" stroke-miterlimit="10"/>
<path d="M161.41 134.252H157.397V136.208H161.41V134.252Z" fill="white" stroke="#263238" stroke-miterlimit="10"/>
<path d="M161.41 117.945H157.397V119.901H161.41V117.945Z" fill="white" stroke="#263238" stroke-miterlimit="10"/>
<path d="M165.519 115.519H161.506V139.377H165.519V115.519Z" fill="white" stroke="#263238" stroke-miterlimit="10"/>
<path d="M172.2 115.519H165.48V139.377H172.2V115.519Z" fill="white" stroke="#263238" stroke-miterlimit="10"/>
<path d="M165.519 134.252H161.506V136.208H165.519V134.252Z" fill="white" stroke="#263238" stroke-miterlimit="10"/>
<path d="M165.519 117.945H161.506V119.901H165.519V117.945Z" fill="white" stroke="#263238" stroke-miterlimit="10"/>
<path d="M152.683 58.4618H148.67V82.3192H152.683V58.4618Z" fill="white" stroke="#263238" stroke-miterlimit="10"/>
<path d="M152.683 77.1949H148.67V79.1507H152.683V77.1949Z" fill="white" stroke="#263238" stroke-miterlimit="10"/>
<path d="M152.683 60.8826H148.67V62.8383H152.683V60.8826Z" fill="white" stroke="#263238" stroke-miterlimit="10"/>
<path d="M156.787 58.4618H152.774V82.3192H156.787V58.4618Z" fill="white" stroke="#263238" stroke-miterlimit="10"/>
<path d="M156.787 77.1949H152.774V79.1507H156.787V77.1949Z" fill="white" stroke="#263238" stroke-miterlimit="10"/>
<path d="M156.787 60.8826H152.774V62.8383H156.787V60.8826Z" fill="white" stroke="#263238" stroke-miterlimit="10"/>
<path d="M160.896 58.4618H156.883V82.3192H160.896V58.4618Z" fill="white" stroke="#263238" stroke-miterlimit="10"/>
<path d="M160.896 77.1949H156.883V79.1507H160.896V77.1949Z" fill="white" stroke="#263238" stroke-miterlimit="10"/>
<path d="M160.896 60.8826H156.883V62.8383H160.896V60.8826Z" fill="white" stroke="#263238" stroke-miterlimit="10"/>
<path d="M165 58.4618H160.987V82.3192H165V58.4618Z" fill="white" stroke="#263238" stroke-miterlimit="10"/>
<path d="M171.686 58.4618H164.966V82.3192H171.686V58.4618Z" fill="white" stroke="#263238" stroke-miterlimit="10"/>
<path d="M165 77.1949H160.987V79.1507H165V77.1949Z" fill="white" stroke="#263238" stroke-miterlimit="10"/>
<path d="M165 60.8826H160.987V62.8383H165V60.8826Z" fill="white" stroke="#263238" stroke-miterlimit="10"/>
<path d="M164.559 86.8923H160.546V110.75H164.559V86.8923Z" fill="white" stroke="#263238" stroke-miterlimit="10"/>
<path d="M164.559 105.625H160.546V107.581H164.559V105.625Z" fill="white" stroke="#263238" stroke-miterlimit="10"/>
<path d="M164.559 89.3177H160.546V91.2735H164.559V89.3177Z" fill="white" stroke="#263238" stroke-miterlimit="10"/>
<path d="M160.599 86.8923H156.586V110.75H160.599V86.8923Z" fill="white" stroke="#263238" stroke-miterlimit="10"/>
<path d="M160.599 105.625H156.586V107.581H160.599V105.625Z" fill="white" stroke="#263238" stroke-miterlimit="10"/>
<path d="M160.599 89.3177H156.586V91.2735H160.599V89.3177Z" fill="white" stroke="#263238" stroke-miterlimit="10"/>
<path d="M156.638 86.8923H152.625V110.75H156.638V86.8923Z" fill="white" stroke="#263238" stroke-miterlimit="10"/>
<path d="M156.638 105.625H152.625V107.581H156.638V105.625Z" fill="white" stroke="#263238" stroke-miterlimit="10"/>
<path d="M156.638 89.3177H152.625V91.2735H156.638V89.3177Z" fill="white" stroke="#263238" stroke-miterlimit="10"/>
<path d="M152.683 86.8923H148.67V110.75H152.683V86.8923Z" fill="white" stroke="#263238" stroke-miterlimit="10"/>
<path d="M152.683 105.625H148.67V107.581H152.683V105.625Z" fill="white" stroke="#263238" stroke-miterlimit="10"/>
<path d="M152.683 89.3177H148.67V91.2735H152.683V89.3177Z" fill="white" stroke="#263238" stroke-miterlimit="10"/>
<path d="M168.663 86.8923H164.65V110.75H168.663V86.8923Z" fill="white" stroke="#263238" stroke-miterlimit="10"/>
<path d="M168.663 105.625H164.65V107.581H168.663V105.625Z" fill="white" stroke="#263238" stroke-miterlimit="10"/>
<path d="M168.663 89.3177H164.65V91.2735H168.663V89.3177Z" fill="white" stroke="#263238" stroke-miterlimit="10"/>
<path d="M172.767 86.8923H168.754V110.75H172.767V86.8923Z" fill="white" stroke="#263238" stroke-miterlimit="10"/>
<path d="M172.767 105.625H168.754V107.581H172.767V105.625Z" fill="white" stroke="#263238" stroke-miterlimit="10"/>
<path d="M172.767 89.3177H168.754V91.2735H172.767V89.3177Z" fill="white" stroke="#263238" stroke-miterlimit="10"/>
<path d="M176.875 86.8923H172.862V110.75H176.875V86.8923Z" fill="white" stroke="#263238" stroke-miterlimit="10"/>
<path d="M183.562 86.8923H176.842V110.75H183.562V86.8923Z" fill="white" stroke="#263238" stroke-miterlimit="10"/>
<path d="M176.875 105.625H172.862V107.581H176.875V105.625Z" fill="white" stroke="#263238" stroke-miterlimit="10"/>
<path d="M176.875 89.3177H172.862V91.2735H176.875V89.3177Z" fill="white" stroke="#263238" stroke-miterlimit="10"/>
<path d="M193.089 86.8923H189.077V110.75H193.089V86.8923Z" fill="white" stroke="#263238" stroke-miterlimit="10"/>
<path d="M193.089 105.625H189.077V107.581H193.089V105.625Z" fill="white" stroke="#263238" stroke-miterlimit="10"/>
<path d="M193.089 89.3177H189.077V91.2735H193.089V89.3177Z" fill="white" stroke="#263238" stroke-miterlimit="10"/>
<path d="M197.198 86.8923H193.186V110.75H197.198V86.8923Z" fill="white" stroke="#263238" stroke-miterlimit="10"/>
<path d="M197.198 105.625H193.186V107.581H197.198V105.625Z" fill="white" stroke="#263238" stroke-miterlimit="10"/>
<path d="M197.198 89.3177H193.186V91.2735H197.198V89.3177Z" fill="white" stroke="#263238" stroke-miterlimit="10"/>
<path d="M205.414 86.8864L201.673 88.4637L211.081 110.716L214.822 109.139L205.414 86.8864Z" fill="white" stroke="#263238" stroke-miterlimit="10"/>
<path d="M212.802 104.357L209.061 105.935L209.832 107.759L213.573 106.181L212.802 104.357Z" fill="white" stroke="#263238" stroke-miterlimit="10"/>
<path d="M206.372 89.1479L202.631 90.7252L203.402 92.5491L207.143 90.9717L206.372 89.1479Z" fill="white" stroke="#263238" stroke-miterlimit="10"/>
<path d="M211.085 110.707H219.461L223.229 109.139L214.824 109.13L211.085 110.707Z" fill="white" stroke="#263238" stroke-miterlimit="10"/>
<path d="M205.416 86.8779H213.283L223.229 109.139L214.824 109.129L205.416 86.8779Z" fill="white" stroke="#263238" stroke-miterlimit="10"/>
<path d="M201.158 86.8923H197.146V110.75H201.158V86.8923Z" fill="white" stroke="#263238" stroke-miterlimit="10"/>
<path d="M201.158 105.625H197.146V107.581H201.158V105.625Z" fill="white" stroke="#263238" stroke-miterlimit="10"/>
<path d="M201.158 89.3177H197.146V91.2735H201.158V89.3177Z" fill="white" stroke="#263238" stroke-miterlimit="10"/>
<path d="M201.159 86.8923H205.416L201.672 88.455L211.085 110.707H201.159V86.8923Z" fill="white" stroke="#263238" stroke-miterlimit="10"/>
<path d="M164.559 143.849H160.546V167.706H164.559V143.849Z" fill="white" stroke="#263238" stroke-miterlimit="10"/>
<path d="M164.559 162.582H160.546V164.538H164.559V162.582Z" fill="white" stroke="#263238" stroke-miterlimit="10"/>
<path d="M164.559 146.27H160.546V148.226H164.559V146.27Z" fill="white" stroke="#263238" stroke-miterlimit="10"/>
<path d="M160.599 143.849H156.586V167.706H160.599V143.849Z" fill="white" stroke="#263238" stroke-miterlimit="10"/>
<path d="M160.599 162.582H156.586V164.538H160.599V162.582Z" fill="white" stroke="#263238" stroke-miterlimit="10"/>
<path d="M160.599 146.27H156.586V148.226H160.599V146.27Z" fill="white" stroke="#263238" stroke-miterlimit="10"/>
<path d="M156.638 143.849H152.625V167.706H156.638V143.849Z" fill="white" stroke="#263238" stroke-miterlimit="10"/>
<path d="M156.638 162.582H152.625V164.538H156.638V162.582Z" fill="white" stroke="#263238" stroke-miterlimit="10"/>
<path d="M156.638 146.27H152.625V148.226H156.638V146.27Z" fill="white" stroke="#263238" stroke-miterlimit="10"/>
<path d="M152.683 143.849H148.67V167.706H152.683V143.849Z" fill="white" stroke="#263238" stroke-miterlimit="10"/>
<path d="M152.683 162.582H148.67V164.538H152.683V162.582Z" fill="white" stroke="#263238" stroke-miterlimit="10"/>
<path d="M152.683 146.27H148.67V148.226H152.683V146.27Z" fill="white" stroke="#263238" stroke-miterlimit="10"/>
<path d="M168.663 143.849H164.65V167.706H168.663V143.849Z" fill="white" stroke="#263238" stroke-miterlimit="10"/>
<path d="M168.663 162.582H164.65V164.538H168.663V162.582Z" fill="white" stroke="#263238" stroke-miterlimit="10"/>
<path d="M168.663 146.27H164.65V148.226H168.663V146.27Z" fill="white" stroke="#263238" stroke-miterlimit="10"/>
<path d="M172.767 143.849H168.754V167.706H172.767V143.849Z" fill="white" stroke="#263238" stroke-miterlimit="10"/>
<path d="M172.767 162.582H168.754V164.538H172.767V162.582Z" fill="white" stroke="#263238" stroke-miterlimit="10"/>
<path d="M172.767 146.27H168.754V148.226H172.767V146.27Z" fill="white" stroke="#263238" stroke-miterlimit="10"/>
<path d="M176.875 143.849H172.862V167.706H176.875V143.849Z" fill="white" stroke="#263238" stroke-miterlimit="10"/>
<path d="M183.562 143.849H176.842V167.706H183.562V143.849Z" fill="white" stroke="#263238" stroke-miterlimit="10"/>
<path d="M176.875 162.582H172.862V164.538H176.875V162.582Z" fill="white" stroke="#263238" stroke-miterlimit="10"/>
<path d="M176.875 146.27H172.862V148.226H176.875V146.27Z" fill="white" stroke="#263238" stroke-miterlimit="10"/>
<path d="M193.089 143.849H189.077V167.706H193.089V143.849Z" fill="white" stroke="#263238" stroke-miterlimit="10"/>
<path d="M193.089 162.582H189.077V164.538H193.089V162.582Z" fill="white" stroke="#263238" stroke-miterlimit="10"/>
<path d="M193.089 146.27H189.077V148.226H193.089V146.27Z" fill="white" stroke="#263238" stroke-miterlimit="10"/>
<path d="M197.198 143.849H193.186V167.706H197.198V143.849Z" fill="white" stroke="#263238" stroke-miterlimit="10"/>
<path d="M197.198 162.582H193.186V164.538H197.198V162.582Z" fill="white" stroke="#263238" stroke-miterlimit="10"/>
<path d="M197.198 146.27H193.186V148.226H197.198V146.27Z" fill="white" stroke="#263238" stroke-miterlimit="10"/>
<path d="M205.411 143.84L201.67 145.418L211.078 167.67L214.819 166.093L205.411 143.84Z" fill="white" stroke="#263238" stroke-miterlimit="10"/>
<path d="M212.704 160.887L208.968 162.469L209.741 164.29L213.477 162.709L212.704 160.887Z" fill="white" stroke="#263238" stroke-width="0.99925" stroke-miterlimit="10"/>
<path d="M206.368 146.102L202.627 147.679L203.399 149.503L207.14 147.926L206.368 146.102Z" fill="white" stroke="#263238" stroke-miterlimit="10"/>
<path d="M211.085 167.663H219.461L223.229 166.096L214.824 166.081L211.085 167.663Z" fill="white" stroke="#263238" stroke-miterlimit="10"/>
<path d="M205.416 143.83H213.283L223.229 166.096L214.824 166.081L205.416 143.83Z" fill="white" stroke="#263238" stroke-miterlimit="10"/>
<path d="M201.158 143.849H197.146V167.706H201.158V143.849Z" fill="white" stroke="#263238" stroke-miterlimit="10"/>
<path d="M201.158 162.582H197.146V164.538H201.158V162.582Z" fill="white" stroke="#263238" stroke-miterlimit="10"/>
<path d="M201.158 146.27H197.146V148.226H201.158V146.27Z" fill="white" stroke="#263238" stroke-miterlimit="10"/>
<path d="M201.159 143.849H205.416L201.672 145.407L211.085 167.663H201.159V143.849Z" fill="white" stroke="#263238" stroke-miterlimit="10"/>
<path d="M186.134 167.793V223.733" stroke="#263238" stroke-miterlimit="10"/>
<path d="M148.872 174.719H226.382" stroke="#263238" stroke-miterlimit="10"/>
<path d="M164.779 179.451V189.594" stroke="#263238" stroke-width="2" stroke-miterlimit="10"/>
<path d="M168.163 179.451V189.594" stroke="#263238" stroke-width="2" stroke-miterlimit="10"/>
<path d="M203.708 179.451V189.594" stroke="#263238" stroke-width="2" stroke-miterlimit="10"/>
<path d="M207.091 179.451V189.594" stroke="#263238" stroke-width="2" stroke-miterlimit="10"/>
<path d="M247.987 55.1303V37.9312H273.034" stroke="#263238" stroke-miterlimit="10"/>
<path d="M274.877 37.9312H285.427V80.5936H247.987V57.738" stroke="#263238" stroke-miterlimit="10"/>
<path d="M271.805 74.8413H253.032V43.6833H280.378V74.8413H273.955" stroke="#263238" stroke-miterlimit="10"/>
<path d="M271.963 53.2705H261.446V65.2543H271.963V53.2705Z" stroke="#263238" stroke-miterlimit="10"/>
<path d="M288.754 75.0139V64.286H304.378" stroke="#263238" stroke-miterlimit="10"/>
<path d="M305.525 64.286H312.106V90.8949H288.754V76.6389" stroke="#263238" stroke-miterlimit="10"/>
<path d="M303.61 87.3093H291.902V67.8716H308.957V87.3093H304.949" stroke="#263238" stroke-miterlimit="10"/>
<path d="M303.71 73.8539H297.149V81.327H303.71V73.8539Z" stroke="#263238" stroke-miterlimit="10"/>
<path d="M41.1841 226.437H311.904" stroke="#263238" stroke-linecap="round" stroke-linejoin="round"/>
<path d="M60.3837 159.327C60.3837 159.327 57.5037 120.979 58.9437 116.665C60.3837 112.351 69.2637 112.591 70.9437 112.591C72.6237 112.591 107.664 112.591 112.704 114.987C117.744 117.384 118.464 176.345 118.464 176.345H62.7837L60.3837 159.327Z" fill="#263238" stroke="#263238" stroke-miterlimit="10"/>
<path d="M120.379 156.212C120.379 156.212 114.619 156.212 113.467 161.964C112.315 167.716 116.851 191.444 117.187 198.155C117.523 204.866 118.704 214.213 118.704 214.213H139.104L143.664 156.212H120.379Z" fill="#263238" stroke="#263238" stroke-miterlimit="10"/>
<path d="M143.664 156.212C143.664 156.212 137.904 156.212 136.464 161.964C135.024 167.716 138.384 191.444 138.384 198.155C138.384 204.866 139.104 214.213 139.104 214.213H146.304C146.304 214.213 147.024 196.957 147.024 194.56C147.024 192.163 149.904 167.237 148.464 162.203C147.024 157.17 145.824 156.691 143.664 156.212Z" fill="#636363" stroke="#263238" stroke-miterlimit="10"/>
<path d="M82.8236 115.107C82.8236 115.107 63.7437 122.897 63.7437 123.735C63.7437 124.574 70.2236 147.104 72.6236 150.579C75.0236 154.054 76.7036 157.889 77.4236 159.327C78.1436 160.765 81.2636 164.361 83.7836 164.361C86.3036 164.361 89.3036 161.365 97.3436 160.166C105.384 158.968 112.584 159.088 114.024 158.009C115.464 156.931 113.664 154.054 113.424 153.455C113.184 152.856 112.224 150.699 112.224 150.699C112.224 150.699 120.024 157.17 123.144 157.41C126.264 157.65 128.544 156.092 129.024 154.054C129.504 152.017 127.704 147.104 126.504 144.467C125.304 141.831 119.664 137.637 117.144 134.401C114.624 131.165 111.384 127.331 109.104 124.694C107.117 122.373 104.664 120.495 101.904 119.182C99.7436 118.223 94.2236 115.826 90.7436 115.467C87.2636 115.107 82.8236 115.107 82.8236 115.107Z" fill="white" stroke="#263238" stroke-miterlimit="10"/>
<path d="M120.22 143.188C120.22 143.188 117.504 150.699 118.464 152.617C119.424 154.534 121.982 155.171 121.982 155.171" stroke="#263238" stroke-miterlimit="10"/>
<path d="M79.9438 117.624L95.7839 132.963L98.1839 121.458" stroke="#263238" stroke-miterlimit="10"/>
<path d="M120.984 144.108C120.984 144.108 124.824 146.864 126.144 145.906C127.464 144.947 127.104 143.149 126.264 141.232C125.424 139.314 122.664 138.236 121.584 139.075C120.504 139.914 120.144 143.269 120.984 144.108Z" fill="white" stroke="#263238" stroke-miterlimit="10"/>
<path d="M81.624 110.074L82.224 117.264L94.944 129.727L96.864 120.859L97.704 117.144C97.704 117.144 89.424 115.706 86.784 113.909C84.144 112.111 81.624 110.074 81.624 110.074Z" fill="white" stroke="#263238" stroke-miterlimit="10"/>
<path d="M97.704 117.144C97.704 117.144 89.424 115.706 86.784 113.909C84.144 112.111 81.624 110.074 81.624 110.074L82.224 117.264L85.44 120.413C87.9408 121.118 90.432 121.458 92.1264 120.807C94.0066 120.124 95.8035 119.231 97.4832 118.146L97.704 117.144Z" fill="#263238" stroke="#263238" stroke-miterlimit="10"/>
<path d="M77.8222 104.523C77.8222 104.523 75.5806 94.2936 75.5806 92.5391C75.5806 90.7847 81.6622 81.8304 89.9806 83.2684C98.299 84.7065 102.941 89.5 103.262 90.9381C103.584 92.3762 102.302 95.2523 102.302 95.2523C102.555 96.0854 102.716 96.9438 102.782 97.812C102.782 98.7707 101.342 102.922 101.342 102.922L100.862 98.6077C100.862 98.6077 96.8638 99.7294 94.6222 99.7294C92.3806 99.7294 88.5406 98.2914 88.5406 98.2914C88.5406 98.2914 89.3422 100.846 88.5406 102.126C87.739 103.406 85.3438 104.523 85.3438 104.523C85.3438 104.523 85.0222 107.078 84.0622 107.078C82.8779 107.018 81.7009 106.858 80.5438 106.599C79.9006 106.44 77.8222 104.523 77.8222 104.523Z" fill="#263238" stroke="#263238" stroke-miterlimit="10"/>
<path d="M81.5038 105.64C81.5038 105.64 81.1822 101.805 77.9806 102.764C74.779 103.723 76.8622 107.236 78.6238 108.995C80.3854 110.755 80.8606 109.475 80.8606 109.475C80.8606 109.475 81.3406 113.151 83.7406 115.227C86.1406 117.303 89.8222 121.137 93.6622 120.658C97.5022 120.179 100.224 115.385 100.704 111.872C101.184 108.358 101.501 100.046 101.501 99.0872C101.385 98.0059 101.171 96.9374 100.862 95.8947C100.862 95.8947 97.5022 98.2914 94.4638 97.6491C91.4254 97.0068 88.2238 95.7317 86.7838 95.7317C85.3438 95.7317 85.6606 97.8121 86.1406 98.4496C86.6206 99.0872 87.9022 100.367 86.4622 101.168C85.0222 101.968 83.1022 102.764 83.1022 102.764V106.119L81.5038 105.64Z" fill="white" stroke="#263238" stroke-miterlimit="10"/>
<path d="M96.811 103.895L96.0238 112.557L92.083 111.416" stroke="#263238" stroke-miterlimit="10"/>
<path d="M93.4845 112.116C93.4845 112.116 91.5645 112.116 90.5085 112.207C89.8742 112.312 89.2297 112.341 88.5885 112.293C88.1517 112.207 87.6285 111.857 88.5021 112.73C89.3757 113.602 92.0061 114.647 93.4077 114.829C94.8093 115.011 95.7741 114.565 96.8205 113.87C97.8669 113.175 98.7405 112.471 98.2221 112.298C97.4998 112.17 96.7669 112.11 96.0333 112.121V112.562L93.4845 112.116Z" fill="#263238" stroke="#263238" stroke-miterlimit="10"/>
<path d="M90.7245 106.867C91.04 106.867 91.2957 106.339 91.2957 105.688C91.2957 105.036 91.04 104.509 90.7245 104.509C90.409 104.509 90.1533 105.036 90.1533 105.688C90.1533 106.339 90.409 106.867 90.7245 106.867Z" fill="#263238"/>
<path d="M99.2641 105.515C99.2641 106.167 99.0097 106.694 98.6977 106.694C98.3857 106.694 98.1265 106.167 98.1265 105.515C98.1265 104.863 98.3809 104.331 98.6977 104.331C99.0145 104.331 99.2641 104.863 99.2641 105.515Z" fill="#263238"/>
<path d="M88.5791 103.895C88.5791 103.895 90.9455 102.232 92.8703 102.936" stroke="#263238" stroke-miterlimit="10"/>
<path d="M97.2524 103.023C97.2524 103.023 99.7052 101.882 100.756 102.932" stroke="#263238" stroke-miterlimit="10"/>
<path d="M92.2605 107.854C92.2605 107.854 91.7325 108.468 89.9805 108.991" stroke="#263238" stroke-miterlimit="10"/>
<path d="M97.0752 107.481C97.5935 107.838 98.1527 108.133 98.7408 108.358" stroke="#263238" stroke-miterlimit="10"/>
<path d="M104.544 130.207L105.384 128.05C105.384 128.05 106.464 129.128 109.344 129.128C112.224 129.128 116.904 131.165 116.904 131.165L117.264 131.765C117.264 131.765 118.104 129.248 119.664 128.769C121.224 128.289 123.744 126.612 124.104 126.132L124.464 125.653L126.144 127.091L118.704 136.918L104.784 131.525L104.544 130.207Z" fill="white" stroke="#263238" stroke-miterlimit="10"/>
<path d="M104.664 129.368L101.064 148.422L113.544 151.298L118.104 132.843L104.664 129.368Z" fill="white" stroke="#263238" stroke-miterlimit="10"/>
<path d="M118.104 132.843L126.144 127.091L121.344 145.546L113.544 151.298L118.104 132.843Z" fill="white" stroke="#263238" stroke-miterlimit="10"/>
<path d="M89.1841 144.947L94.6225 142.708C94.6225 142.708 99.4225 137.598 99.9025 137.119C100.382 136.64 105.182 136.16 105.182 136.16L110.462 139.674C110.462 139.674 111.422 140.474 110.462 140.791C109.502 141.107 107.424 140.153 107.424 140.153L105.341 138.873L104.064 139.516L106.781 141.75C106.781 141.75 107.582 143.83 107.582 144.947C107.568 145.664 107.404 146.371 107.102 147.022L105.504 149.261L100.704 146.864C100.704 146.864 97.8241 148.94 97.1809 149.261C96.5377 149.582 90.4609 149.103 90.4609 149.103L89.1841 144.947Z" fill="white" stroke="#263238" stroke-miterlimit="10"/>
<path d="M100.661 139.348L102.36 139.027L103.819 139.429" stroke="#263238" stroke-miterlimit="10"/>
<path d="M99.043 142.502C99.043 142.502 102.845 141.448 103.089 141.448C103.334 141.448 106.166 144.357 106.166 144.357L106.488 147.511" stroke="#263238" stroke-miterlimit="10"/>
<path d="M99.2061 144.52L102.278 144.602L105.11 146.462C105.397 147.366 105.53 148.312 105.504 149.261" stroke="#263238" stroke-miterlimit="10"/>
<path d="M67.1038 121.458C67.1038 121.458 63.5806 121.938 63.1006 124.972C62.6206 128.006 59.4238 153.575 60.3838 156.451C61.3438 159.327 79.1038 154.376 79.7422 154.055C80.3806 153.733 90.4606 150.699 90.6238 150.061C90.787 149.424 91.1038 144.146 89.6638 143.83C88.2238 143.514 74.4622 143.988 74.4622 143.988L72.5422 127.369" fill="white"/>
<path d="M67.1038 121.458C67.1038 121.458 63.5806 121.938 63.1006 124.972C62.6206 128.006 59.4238 153.575 60.3838 156.451C61.3438 159.327 79.1038 154.376 79.7422 154.055C80.3806 153.733 90.4606 150.699 90.6238 150.061C90.787 149.424 91.1038 144.146 89.6638 143.83C88.2238 143.514 74.4622 143.988 74.4622 143.988L72.5422 127.369" stroke="#263238" stroke-miterlimit="10"/>
<path d="M74.4621 143.988L65.9805 145.426" stroke="#263238" stroke-miterlimit="10"/>
<path d="M64.3823 143.509L71.7407 144.467" stroke="#263238" stroke-miterlimit="10"/>
<path d="M123.984 135C123.984 135 120.744 138.356 120.864 139.195C120.984 140.033 122.664 138.715 123.024 138.356C123.384 137.996 125.064 137.038 125.064 136.079C125.064 135.12 124.704 134.042 123.984 135Z" fill="white" stroke="#263238" stroke-miterlimit="10"/>
<path d="M124.344 137.037C124.344 137.037 125.304 137.996 125.304 138.835C125.304 139.674 123.264 142.43 122.304 142.43C121.344 142.43 122.064 140.513 122.544 139.674C123.024 138.835 124.344 137.037 124.344 137.037Z" fill="white" stroke="#263238" stroke-miterlimit="10"/>
<path d="M125.304 138.835C125.304 138.835 126.504 139.195 126.504 140.273C126.504 141.352 124.224 143.149 123.624 143.269C123.024 143.389 123.144 142.31 123.624 141.472C124.104 140.633 125.304 138.835 125.304 138.835Z" fill="white" stroke="#263238" stroke-miterlimit="10"/>
<path d="M126.504 140.273C126.75 140.88 126.833 141.541 126.744 142.19C126.624 143.389 124.824 144.108 124.224 144.108C123.624 144.108 123.624 143.269 123.624 143.269C124.64 142.325 125.601 141.325 126.504 140.273Z" fill="white" stroke="#263238" stroke-miterlimit="10"/>
<path d="M88.7614 226.437H86.4814L85.3438 211.337H89.9038L88.7614 226.437Z" fill="white" stroke="#263238" stroke-miterlimit="10"/>
<path d="M67.8815 226.437H65.6015L64.4639 211.337H69.0239L67.8815 226.437Z" fill="white" stroke="#263238" stroke-miterlimit="10"/>
<path d="M143.241 226.437H140.961L139.824 211.337H144.384L143.241 226.437Z" fill="white" stroke="#263238" stroke-miterlimit="10"/>
<path d="M122.361 226.437H120.081L118.944 211.337H123.504L122.361 226.437Z" fill="white" stroke="#263238" stroke-miterlimit="10"/>
<path d="M140.064 182.447H85.584V214.084H140.064V182.447Z" fill="#263238" stroke="#263238" stroke-miterlimit="10"/>
<path d="M179.582 177.385C179.582 177.385 185.342 174.988 186.624 174.029C187.905 173.07 189.662 175.146 188.86 177.385C188.059 179.623 185.98 183.616 182.784 185.534C179.587 187.451 177.024 189.047 176.38 189.685C175.737 190.322 175.9 192.724 173.184 193.683C170.467 194.641 167.102 192.724 165.182 189.685C163.262 186.646 161.98 184.575 161.98 184.575C161.98 184.575 162.144 182.336 165.34 181.219C168.537 180.103 173.98 179.618 173.98 179.618L179.582 177.385Z" fill="white" stroke="#263238" stroke-miterlimit="10"/>
<path d="M114.024 158.009C114.024 158.009 117.821 157.089 118.781 157.568C119.741 158.048 122.942 161.087 122.942 161.087C122.942 161.087 142.301 161.403 143.741 162.045C145.181 162.688 160.061 174.029 163.262 175.625C166.464 177.222 169.181 178.66 169.181 178.66L166.781 189.206V190.164L166.944 191.765C166.944 191.765 158.621 189.206 156.542 188.726C154.464 188.247 145.824 183.774 145.022 183.774C144.221 183.774 137.664 181.857 137.664 181.857C137.664 181.857 136.704 181.219 126.302 180.261C115.901 179.302 104.222 178.18 100.061 178.022C95.8991 177.864 90.4607 177.543 88.3823 176.742C86.3039 175.942 82.6223 170.353 81.9839 166.997C81.3455 163.642 88.0607 160.765 90.9407 159.486C93.8207 158.206 104.544 156.609 106.464 156.609C108.384 156.609 114.024 158.009 114.024 158.009Z" fill="white" stroke="#263238" stroke-miterlimit="10"/>
<path d="M117.662 162.683L114.46 167.318L118.78 164.442" fill="white"/>
<path d="M117.662 162.683L114.46 167.318L118.78 164.442" stroke="#263238" stroke-miterlimit="10"/>
<path d="M166.781 176.584C166.781 176.584 171.422 172.907 172.382 171.791C173.342 170.674 176.544 164.6 177.182 162.683C177.821 160.765 179.424 159.807 180.542 161.245C181.661 162.683 182.462 165.559 183.101 166.839C183.739 168.119 182.784 174.345 180.864 176.426C178.944 178.506 176.289 183.544 175.742 184.575C174.302 187.288 172.061 187.609 170.621 187.767C169.181 187.926 165.662 184.096 165.662 184.096L166.781 176.584Z" fill="white" stroke="#263238" stroke-miterlimit="10"/>
<path d="M95.5822 165.88C95.5822 165.88 100.382 164.921 104.702 165.401C109.022 165.88 117.821 168.593 121.502 169.552C125.184 170.511 131.741 170.99 134.784 172.112C137.827 173.233 145.824 174.667 151.901 174.667C157.977 174.667 167.261 175.467 167.261 175.467C167.261 175.467 165.984 184.733 166.301 186.492C166.616 187.908 167.045 189.296 167.582 190.644C167.582 190.644 155.261 191.602 151.742 192.082C148.224 192.561 133.982 190.327 131.582 189.685C129.182 189.043 125.664 188.089 123.422 188.089C121.181 188.089 116.861 189.047 110.621 189.685C104.381 190.322 95.5822 187.609 94.4638 187.451C93.3454 187.293 89.3422 185.85 88.3822 185.212C87.4222 184.575 81.8206 174.667 83.7406 170.511C85.6606 166.355 88.0606 165.717 88.0606 165.717" fill="white"/>
<path d="M95.5822 165.88C95.5822 165.88 100.382 164.921 104.702 165.401C109.022 165.88 117.821 168.593 121.502 169.552C125.184 170.511 131.741 170.99 134.784 172.112C137.827 173.233 145.824 174.667 151.901 174.667C157.977 174.667 167.261 175.467 167.261 175.467C167.261 175.467 165.984 184.733 166.301 186.492C166.616 187.908 167.045 189.296 167.582 190.644C167.582 190.644 155.261 191.602 151.742 192.082C148.224 192.561 133.982 190.327 131.582 189.685C129.182 189.043 125.664 188.089 123.422 188.089C121.181 188.089 116.861 189.047 110.621 189.685C104.381 190.322 95.5822 187.609 94.4638 187.451C93.3454 187.293 89.3422 185.85 88.3822 185.212C87.4222 184.575 81.8206 174.667 83.7406 170.511C85.6606 166.355 88.0606 165.717 88.0606 165.717" stroke="#263238" stroke-miterlimit="10"/>
<path d="M125.016 182.001C128.102 182.614 131.371 184.484 135.792 186.214C141.691 188.52 153.499 188.309 155.02 188.52C156.542 188.731 160.406 188.52 160.406 188.52" fill="white"/>
<path d="M125.016 182.001C128.102 182.614 131.371 184.484 135.792 186.214C141.691 188.52 153.499 188.309 155.02 188.52C156.542 188.731 160.406 188.52 160.406 188.52" stroke="#263238" stroke-miterlimit="10"/>
<path d="M101.217 184.168L102.979 184.422C108.105 185.189 117.859 182.375 121.948 181.862" fill="white"/>
<path d="M101.217 184.168L102.979 184.422C108.105 185.189 117.859 182.375 121.948 181.862" stroke="#263238" stroke-miterlimit="10"/>
<path d="M96.0576 183.655C96.0576 183.655 96.9792 183.655 99.384 183.937L96.0576 183.655Z" fill="white"/>
<path d="M96.0576 183.655C96.0576 183.655 96.9792 183.655 99.384 183.937" stroke="#263238" stroke-miterlimit="10"/>
<path d="M64.9391 156.212C64.9391 156.212 59.1791 156.212 58.0271 161.964C56.8751 167.716 61.3871 191.444 61.7471 198.155C62.1071 204.866 63.2639 214.213 63.2639 214.213H83.6639L88.2239 156.212H64.9391Z" fill="#263238" stroke="#263238" stroke-miterlimit="10"/>
<path d="M88.2238 156.212C88.2238 156.212 82.4638 156.212 81.0238 161.964C79.5838 167.716 82.9438 191.444 82.9438 198.155C82.9438 204.866 83.6638 214.213 83.6638 214.213H90.8638C90.8638 214.213 91.5838 196.957 91.5838 194.56C91.5838 192.163 94.4638 167.237 93.0238 162.203C91.5838 157.17 90.3838 156.691 88.2238 156.212Z" fill="#636363" stroke="#263238" stroke-miterlimit="10"/>
<path d="M135.082 226.437H132.802L131.664 211.337H136.224L135.082 226.437Z" fill="white" stroke="#263238" stroke-miterlimit="10"/>
<path d="M154.522 226.437H152.242L151.104 211.337H155.664L154.522 226.437Z" fill="white" stroke="#263238" stroke-miterlimit="10"/>
<path d="M163.641 226.437H161.361L160.224 211.337H164.784L163.641 226.437Z" fill="white" stroke="#263238" stroke-miterlimit="10"/>
<path d="M182.841 226.437H180.561L179.424 211.337H183.984L182.841 226.437Z" fill="white" stroke="#263238" stroke-miterlimit="10"/>
<path d="M132.264 191.684H182.4C183.323 191.684 184.208 192.05 184.861 192.702C185.513 193.353 185.88 194.237 185.88 195.159V219.726H128.76V195.159C128.76 194.701 128.851 194.247 129.027 193.823C129.203 193.4 129.462 193.016 129.788 192.693C130.113 192.37 130.5 192.115 130.925 191.941C131.35 191.768 131.805 191.681 132.264 191.684Z" fill="#263238" stroke="#263238" stroke-miterlimit="10"/>
<path d="M182.424 191.684H164.184C163.261 191.684 162.376 192.05 161.723 192.702C161.071 193.353 160.704 194.237 160.704 195.159V219.726H185.904V195.159C185.903 194.238 185.536 193.354 184.883 192.703C184.231 192.052 183.347 191.685 182.424 191.684Z" fill="#636363" stroke="#263238" stroke-miterlimit="10"/>
</svg>
