<svg width="408" height="274" viewBox="0 0 408 274" fill="none" xmlns="http://www.w3.org/2000/svg">
<path d="M218.688 118.412C213.703 115.042 207.729 113.48 201.746 113.981C195.763 114.482 190.127 117.017 185.763 121.169C181.398 125.322 178.565 130.845 177.727 136.833C176.889 142.822 178.097 148.919 181.152 154.125" stroke="#263238" stroke-width="0.969642" stroke-linecap="round" stroke-linejoin="round"/>
<path d="M228.099 129.722C227.583 128.555 226.987 127.425 226.314 126.341" stroke="#263238" stroke-width="0.969642" stroke-linecap="round" stroke-linejoin="round"/>
<path d="M225.841 155.424C227.814 152.466 229.181 149.141 229.861 145.644C230.541 142.148 230.521 138.549 229.802 135.06" stroke="#263238" stroke-width="0.969642" stroke-linecap="round" stroke-linejoin="round"/>
<path d="M177.622 114.05C175.822 115.869 174.209 117.866 172.807 120.012" stroke="#263238" stroke-width="0.969642" stroke-linecap="round" stroke-linejoin="round"/>
<path d="M233.278 163.43C238.605 156.495 241.345 147.896 241.022 139.134C240.698 130.371 237.332 122.001 231.509 115.484C225.686 108.966 217.777 104.714 209.161 103.469C200.545 102.225 191.768 104.067 184.362 108.674" stroke="#263238" stroke-width="0.969642" stroke-linecap="round" stroke-linejoin="round"/>
<path d="M174.45 163.43C170.776 158.639 168.306 153.024 167.253 147.064C166.2 141.104 166.593 134.976 168.4 129.202" stroke="#263238" stroke-width="0.969642" stroke-linecap="round" stroke-linejoin="round"/>
<path d="M162.803 172.894C165.115 175.868 167.737 178.584 170.625 180.993" stroke="#263238" stroke-width="0.969642" stroke-linecap="round" stroke-linejoin="round"/>
<path d="M233.408 97.1767C224.095 90.7523 212.966 87.5428 201.689 88.0295C190.412 88.5163 179.595 92.6731 170.862 99.8765C162.129 107.08 155.949 116.942 153.25 127.982C150.552 139.023 151.479 150.647 155.894 161.112" stroke="#263238" stroke-width="0.969642" stroke-linecap="round" stroke-linejoin="round"/>
<path d="M252.557 121.535C251.155 117.894 249.354 114.422 247.188 111.184" stroke="#263238" stroke-width="0.969642" stroke-linecap="round" stroke-linejoin="round"/>
<path d="M239.958 178.489C245.057 173.589 249.114 167.697 251.883 161.17C254.652 154.642 256.075 147.616 256.066 140.518" stroke="#263238" stroke-width="0.969642" stroke-linecap="round" stroke-linejoin="round"/>
<path d="M130.995 140.518C130.995 157.956 137.125 174.831 148.297 188.151C159.47 201.472 174.964 210.376 192.032 213.287" stroke="#263238" stroke-width="0.969642" stroke-linecap="round" stroke-linejoin="round"/>
<path d="M262.752 184.429C271.676 172.265 276.676 157.632 277.074 142.512C277.472 127.391 273.249 112.512 264.978 99.8885C256.706 87.2646 244.785 77.505 230.826 71.9301C216.868 66.3553 201.546 65.2344 186.935 68.7191" stroke="#263238" stroke-width="0.969642" stroke-linecap="round" stroke-linejoin="round"/>
<path d="M130.995 140.518C130.996 123.975 136.513 107.912 146.661 94.9063C156.809 81.9002 171 72.705 186.956 68.7959" stroke="#263238" stroke-width="0.969642" stroke-linecap="round" stroke-linejoin="round"/>
<path d="M247.188 200.02C249.048 198.643 250.838 197.181 252.557 195.636" stroke="#263238" stroke-width="0.969642" stroke-linecap="round" stroke-linejoin="round"/>
<path d="M216.083 213.287C224.413 211.882 232.437 209.026 239.796 204.848" stroke="#263238" stroke-width="0.969642" stroke-linecap="round" stroke-linejoin="round"/>
<path d="M203.896 206.678C196.477 206.669 189.365 203.697 184.119 198.412C178.873 193.128 175.922 185.963 175.913 178.489V168.998C175.913 168.591 176.074 168.2 176.359 167.913C176.645 167.625 177.032 167.463 177.436 167.463H181.244C181.648 167.463 182.036 167.625 182.321 167.913C182.607 168.2 182.767 168.591 182.767 168.998C182.767 169.405 182.607 169.795 182.321 170.083C182.036 170.37 181.648 170.532 181.244 170.532H178.976V178.489C178.976 185.151 181.603 191.541 186.28 196.252C190.956 200.963 197.299 203.609 203.913 203.609C210.526 203.609 216.869 200.963 221.546 196.252C226.222 191.541 228.85 185.151 228.85 178.489V170.532H226.565C226.161 170.532 225.774 170.37 225.488 170.083C225.202 169.795 225.042 169.405 225.042 168.998C225.042 168.591 225.202 168.2 225.488 167.913C225.774 167.625 226.161 167.463 226.565 167.463H230.373C230.777 167.463 231.164 167.625 231.45 167.913C231.736 168.2 231.896 168.591 231.896 168.998V178.489C231.887 185.965 228.934 193.133 223.685 198.418C218.435 203.703 211.318 206.674 203.896 206.678Z" fill="#263238"/>
<path d="M233.403 230.264V227.195C233.403 226.792 233.325 226.393 233.172 226.02C233.02 225.648 232.795 225.309 232.512 225.024C232.229 224.739 231.893 224.513 231.523 224.359C231.153 224.205 230.757 224.126 230.356 224.127H177.436C177.036 224.126 176.639 224.205 176.269 224.359C175.899 224.513 175.563 224.739 175.28 225.024C174.997 225.309 174.773 225.648 174.62 226.02C174.467 226.393 174.389 226.792 174.39 227.195V230.264H233.403Z" fill="#263238"/>
<path d="M206.867 227.864C206.917 227.645 206.943 227.42 206.943 227.195V205.144H200.85V227.195C200.85 227.42 200.876 227.645 200.926 227.864H206.867Z" fill="#263238"/>
<path d="M222.741 140.518C222.783 137.998 222.327 135.494 221.399 133.153C220.471 130.812 219.09 128.681 217.335 126.883C215.581 125.086 213.489 123.658 211.181 122.684C208.874 121.709 206.396 121.207 203.894 121.207C201.392 121.207 198.914 121.709 196.607 122.684C194.299 123.658 192.207 125.086 190.453 126.883C188.698 128.681 187.317 130.812 186.389 133.153C185.461 135.494 185.005 137.998 185.047 140.518V178.489C185.131 183.468 187.154 188.215 190.679 191.707C194.204 195.198 198.95 197.155 203.894 197.155C208.838 197.155 213.584 195.198 217.109 191.707C220.634 188.215 222.657 183.468 222.741 178.489V140.518Z" stroke="#263238" stroke-width="0.969642" stroke-linecap="round" stroke-linejoin="round"/>
<path d="M222.741 140.518C222.783 137.998 222.327 135.494 221.399 133.153C220.471 130.812 219.09 128.681 217.335 126.883C215.581 125.086 213.489 123.658 211.181 122.684C208.874 121.709 206.396 121.207 203.894 121.207C201.392 121.207 198.914 121.709 196.607 122.684C194.299 123.658 192.207 125.086 190.453 126.883C188.698 128.681 187.317 130.812 186.389 133.153C185.461 135.494 185.005 137.998 185.047 140.518V178.489C185.131 183.468 187.154 188.215 190.679 191.707C194.204 195.198 198.95 197.155 203.894 197.155C208.838 197.155 213.584 195.198 217.109 191.707C220.634 188.215 222.657 183.468 222.741 178.489V140.518Z" fill="#E8E8E8"/>
<path d="M196.09 142.518H185.047V147.122H196.09C196.696 147.122 197.277 146.879 197.706 146.447C198.134 146.016 198.375 145.43 198.375 144.82C198.375 144.209 198.134 143.624 197.706 143.192C197.277 142.761 196.696 142.518 196.09 142.518Z" fill="white"/>
<path d="M222.741 142.518H211.703C211.097 142.518 210.516 142.761 210.088 143.192C209.659 143.624 209.418 144.209 209.418 144.82C209.418 145.43 209.659 146.016 210.088 146.447C210.516 146.879 211.097 147.122 211.703 147.122H222.741V142.518Z" fill="white"/>
<path d="M203.897 142.518C203.445 142.518 203.003 142.653 202.627 142.906C202.252 143.159 201.959 143.519 201.786 143.939C201.613 144.36 201.568 144.822 201.656 145.269C201.744 145.715 201.961 146.125 202.281 146.447C202.601 146.769 203.008 146.988 203.451 147.077C203.894 147.166 204.353 147.121 204.771 146.946C205.188 146.772 205.545 146.477 205.796 146.099C206.047 145.72 206.181 145.275 206.181 144.82C206.181 144.209 205.941 143.624 205.512 143.192C205.084 142.761 204.503 142.518 203.897 142.518Z" fill="white"/>
<path d="M203.897 151.823C203.445 151.823 203.003 151.958 202.627 152.211C202.252 152.464 201.959 152.824 201.786 153.244C201.613 153.665 201.568 154.128 201.656 154.574C201.744 155.02 201.961 155.431 202.281 155.752C202.601 156.074 203.008 156.294 203.451 156.382C203.894 156.471 204.353 156.426 204.771 156.251C205.188 156.077 205.545 155.782 205.796 155.404C206.047 155.025 206.181 154.58 206.181 154.125C206.181 153.515 205.941 152.929 205.512 152.497C205.084 152.066 204.503 151.823 203.897 151.823Z" fill="white"/>
<path d="M203.897 161.112C203.445 161.112 203.003 161.247 202.627 161.5C202.252 161.753 201.959 162.112 201.786 162.533C201.613 162.953 201.568 163.416 201.656 163.863C201.744 164.309 201.961 164.719 202.281 165.041C202.601 165.363 203.008 165.582 203.451 165.671C203.894 165.76 204.353 165.714 204.771 165.54C205.188 165.366 205.545 165.071 205.796 164.692C206.047 164.314 206.181 163.869 206.181 163.414C206.181 162.803 205.941 162.218 205.512 161.786C205.084 161.354 204.503 161.112 203.897 161.112Z" fill="white"/>
<path d="M196.09 151.823H185.047V156.427H196.09C196.696 156.427 197.277 156.184 197.706 155.752C198.134 155.321 198.375 154.735 198.375 154.125C198.375 153.515 198.134 152.929 197.706 152.497C197.277 152.066 196.696 151.823 196.09 151.823Z" fill="white"/>
<path d="M222.741 151.823H211.703C211.097 151.823 210.516 152.066 210.088 152.497C209.659 152.929 209.418 153.515 209.418 154.125C209.418 154.735 209.659 155.321 210.088 155.752C210.516 156.184 211.097 156.427 211.703 156.427H222.741V151.823Z" fill="white"/>
<path d="M196.09 161.112H185.047V165.715H196.09C196.696 165.715 197.277 165.473 197.706 165.041C198.134 164.609 198.375 164.024 198.375 163.414C198.375 162.803 198.134 162.218 197.706 161.786C197.277 161.354 196.696 161.112 196.09 161.112Z" fill="white"/>
<path d="M222.741 161.112H211.703C211.097 161.112 210.516 161.354 210.088 161.786C209.659 162.218 209.418 162.803 209.418 163.414C209.418 164.024 209.659 164.609 210.088 165.041C210.516 165.473 211.097 165.715 211.703 165.715H222.741V161.112Z" fill="white"/>
<path d="M222.741 140.518C222.783 137.998 222.327 135.494 221.399 133.153C220.471 130.812 219.09 128.681 217.335 126.883C215.581 125.086 213.489 123.658 211.181 122.684C208.874 121.709 206.396 121.207 203.894 121.207C201.392 121.207 198.914 121.709 196.607 122.684C194.299 123.658 192.207 125.086 190.453 126.883C188.698 128.681 187.317 130.812 186.389 133.153C185.461 135.494 185.005 137.998 185.047 140.518V178.489C185.131 183.468 187.154 188.215 190.679 191.707C194.204 195.198 198.95 197.155 203.894 197.155C208.838 197.155 213.584 195.198 217.109 191.707C220.634 188.215 222.657 183.468 222.741 178.489V140.518Z" stroke="#263238" stroke-width="0.969642" stroke-miterlimit="10"/>
<path d="M185.047 178.489C185.131 183.468 187.153 188.215 190.679 191.707C194.204 195.198 198.95 197.155 203.894 197.155C208.838 197.155 213.583 195.198 217.109 191.707C220.634 188.215 222.657 183.468 222.741 178.489H185.047Z" fill="#263238" stroke="#263238" stroke-width="0.969642" stroke-miterlimit="10"/>
<path d="M363.761 168.925C387.296 145.218 387.296 106.78 363.761 83.072C340.227 59.3643 302.069 59.3643 278.535 83.072C255 106.78 255 145.218 278.535 168.925C302.069 192.633 340.227 192.633 363.761 168.925Z" fill="#E8E8E8"/>
<path d="M312.506 100.881H270.406C268.285 100.881 266.565 102.614 266.565 104.75V147.16C266.565 149.297 268.285 151.029 270.406 151.029H312.506C314.627 151.029 316.347 149.297 316.347 147.16V104.75C316.347 102.614 314.627 100.881 312.506 100.881Z" fill="white"/>
<g opacity="0.1">
<path opacity="0.1" d="M271.26 151.034H287.874L298.46 100.881H281.172L270.602 150.98C270.82 151.014 271.04 151.033 271.26 151.034Z" fill="black"/>
<path opacity="0.1" d="M305.5 100.881H301.344L290.763 151.034H294.919L305.5 100.881Z" fill="black"/>
</g>
<path d="M311.652 152.284H271.26C269.688 152.281 268.182 151.652 267.07 150.533C265.958 149.415 265.33 147.899 265.325 146.316V105.611C265.328 104.026 265.954 102.507 267.066 101.386C268.179 100.266 269.687 99.6349 271.26 99.632H311.652C313.226 99.6334 314.735 100.264 315.849 101.384C316.962 102.505 317.589 104.025 317.592 105.611V146.316C317.587 147.9 316.958 149.417 315.845 150.535C314.732 151.654 313.224 152.282 311.652 152.284ZM271.26 102.136C270.345 102.136 269.467 102.502 268.819 103.154C268.171 103.805 267.807 104.689 267.805 105.611V146.316C267.805 147.239 268.169 148.125 268.817 148.779C269.464 149.432 270.343 149.8 271.26 149.801H311.652C312.106 149.801 312.556 149.711 312.975 149.536C313.394 149.361 313.776 149.104 314.096 148.78C314.417 148.457 314.672 148.072 314.845 147.649C315.018 147.227 315.107 146.774 315.106 146.316V105.611C315.106 105.154 315.017 104.702 314.843 104.28C314.67 103.858 314.415 103.475 314.094 103.152C313.773 102.829 313.392 102.573 312.973 102.399C312.554 102.225 312.105 102.136 311.652 102.136H271.26Z" fill="white" stroke="#263238" stroke-width="0.932567" stroke-miterlimit="10"/>
<path d="M371.057 100.881H328.957C326.836 100.881 325.116 102.614 325.116 104.75V147.16C325.116 149.297 326.836 151.029 328.957 151.029H371.057C373.178 151.029 374.898 149.297 374.898 147.16V104.75C374.898 102.614 373.178 100.881 371.057 100.881Z" fill="white"/>
<g opacity="0.1">
<path opacity="0.1" d="M334.157 151.034H350.771L361.352 100.881H344.069L333.472 150.98C333.698 151.015 333.928 151.034 334.157 151.034Z" fill="black"/>
<path opacity="0.1" d="M368.396 100.881H364.24L353.654 151.034H357.815L368.396 100.881Z" fill="black"/>
</g>
<path d="M370.203 152.284H329.811C328.24 152.281 326.733 151.652 325.621 150.533C324.509 149.415 323.882 147.899 323.876 146.316V105.611C323.879 104.026 324.505 102.507 325.617 101.386C326.73 100.266 328.238 99.6349 329.811 99.632H370.203C371.777 99.6334 373.287 100.264 374.4 101.384C375.514 102.505 376.141 104.025 376.144 105.611V146.316C376.138 147.9 375.51 149.417 374.396 150.535C373.283 151.654 371.775 152.282 370.203 152.284ZM329.811 102.136C328.896 102.136 328.018 102.502 327.37 103.154C326.723 103.805 326.358 104.689 326.357 105.611V146.316C326.357 147.239 326.72 148.125 327.368 148.779C328.016 149.432 328.894 149.8 329.811 149.801H370.203C370.657 149.801 371.107 149.711 371.526 149.536C371.946 149.361 372.327 149.104 372.648 148.78C372.968 148.457 373.223 148.072 373.396 147.649C373.569 147.227 373.658 146.774 373.657 146.316V105.611C373.657 105.154 373.568 104.702 373.394 104.28C373.221 103.858 372.966 103.475 372.645 103.152C372.325 102.829 371.944 102.573 371.525 102.399C371.105 102.225 370.656 102.136 370.203 102.136H329.811Z" fill="white" stroke="#263238" stroke-width="0.932567" stroke-miterlimit="10"/>
<path d="M322.777 243.022C337.748 243.022 349.884 241.223 349.884 239.005C349.884 236.786 337.748 234.988 322.777 234.988C307.806 234.988 295.669 236.786 295.669 239.005C295.669 241.223 307.806 243.022 322.777 243.022Z" fill="#E8E8E8"/>
<path d="M334.756 215.605C334.756 215.605 334.685 226.856 333.505 228.708C332.096 230.9 331.095 233.963 334.826 234.796C338.558 235.629 340.778 239.777 345.222 240.051C349.667 240.325 350.118 238.407 348.182 236.867C346.245 235.328 341.327 231.059 340.68 228.982C340.033 226.905 341.289 215.605 341.289 215.605H334.756Z" fill="white"/>
<path opacity="0.1" d="M340.696 222.137C340.936 218.822 341.289 215.605 341.289 215.605H334.761C334.761 215.605 334.761 218.482 334.571 221.567C336.593 221.928 338.642 222.119 340.696 222.137Z" fill="black"/>
<path d="M334.756 215.605C334.756 215.605 334.685 226.856 333.505 228.708C332.096 230.9 331.095 233.963 334.826 234.796C338.558 235.629 340.778 239.777 345.222 240.051C349.667 240.325 350.118 238.407 348.182 236.867C346.245 235.328 341.327 231.059 340.68 228.982C340.033 226.905 341.289 215.605 341.289 215.605H334.756Z" stroke="#263238" stroke-width="0.932567" stroke-linecap="round" stroke-linejoin="round"/>
<path d="M348.16 236.867C346.346 235.419 344.623 233.858 343.003 232.193C341.453 233.377 336.91 232.259 335.572 231.196C333.94 229.902 334.283 229.239 333.51 228.658L333.483 228.708C332.074 230.9 331.073 233.963 334.805 234.796C338.537 235.629 340.756 239.777 345.201 240.051C349.645 240.325 350.108 238.38 348.16 236.867Z" fill="#BFBFBF" stroke="#263238" stroke-width="0.932567" stroke-miterlimit="10"/>
<path d="M309.661 211.528C309.661 211.528 304.765 221.82 302.916 223.074C300.68 224.576 298.46 226.993 301.523 229.146C304.586 231.3 304.858 235.936 308.812 237.848C312.767 239.761 314.002 238.144 312.887 236.035C311.772 233.925 309.079 228.149 309.378 226.001C309.677 223.853 315.7 213.72 315.7 213.72L309.661 211.528Z" fill="white"/>
<path opacity="0.1" d="M309.661 211.528C309.661 211.528 307.91 215.222 306.109 218.449C307.563 219.901 309.237 221.109 311.07 222.028C312.947 218.367 315.7 213.737 315.7 213.737L309.661 211.528Z" fill="black"/>
<path d="M309.661 211.528C309.661 211.528 304.765 221.82 302.916 223.074C300.68 224.576 298.46 226.993 301.523 229.146C304.586 231.3 304.858 235.936 308.812 237.848C312.767 239.761 314.002 238.144 312.887 236.035C311.772 233.925 309.079 228.149 309.378 226.001C309.677 223.853 315.7 213.72 315.7 213.72L309.661 211.528Z" stroke="#263238" stroke-width="0.932567" stroke-linecap="round" stroke-linejoin="round"/>
<path d="M312.887 236.007C311.844 233.999 310.936 231.923 310.167 229.793C308.236 230.302 304.221 227.699 303.78 226.11C302.926 223.047 303.432 223.836 302.97 223.014L302.926 223.047C300.69 224.548 298.471 226.965 301.534 229.119C304.596 231.272 304.868 235.908 308.823 237.821C312.778 239.734 314.002 238.117 312.887 236.007Z" fill="#BFBFBF" stroke="#263238" stroke-width="0.932567" stroke-miterlimit="10"/>
<path d="M335.545 138.704C335.545 138.704 343.036 174.872 343.536 186.671C344.037 198.469 342.089 219.512 342.089 219.512L333.772 218.964C333.772 218.964 333.717 212.745 332.885 204.086C332.39 198.94 330.834 192.934 331.008 186.862C331.008 186.862 323.104 163.249 323.392 152.886C323.68 142.524 323.392 139.543 323.392 139.543L335.545 138.704Z" fill="#263238" stroke="#263238" stroke-width="0.932567" stroke-linecap="round" stroke-linejoin="round"/>
<path d="M315.52 138.704C315.52 138.704 307.752 145.171 312.256 158.208C314.029 163.381 320.873 187.043 320.873 187.043C318.993 189.209 317.402 191.613 316.14 194.195C313.018 200.409 310.744 210.087 306.892 215.638L312.593 219.512C312.593 219.512 331.002 196.266 332.177 188.885C333.352 181.503 327.825 151.988 327.825 151.988L326.057 139.992L315.52 138.704Z" fill="#263238" stroke="#263238" stroke-width="0.932567" stroke-linecap="round" stroke-linejoin="round"/>
<path d="M349.972 114.192C349.869 112.967 349.459 111.789 348.78 110.767C349.35 110.011 349.844 109.2 350.254 108.345C350.668 107.342 350.118 105.923 348.971 107.622C347.823 109.321 346.561 110.559 347.018 112.68C347.258 114.049 347.011 115.459 346.321 116.664L348.971 118.752L354.253 114.532L349.972 114.192Z" fill="white" stroke="#263238" stroke-width="0.932567" stroke-linecap="round" stroke-linejoin="round"/>
<path d="M352.46 103.352L348.019 104.569C347.61 104.68 347.369 105.105 347.48 105.517L350.011 114.893C350.122 115.304 350.543 115.547 350.952 115.435L355.393 114.219C355.802 114.107 356.043 113.683 355.932 113.271L353.401 103.895C353.29 103.483 352.869 103.24 352.46 103.352Z" fill="#263238" stroke="#263238" stroke-width="0.932567" stroke-linecap="round" stroke-linejoin="round"/>
<path d="M353.433 104.012L347.512 105.633L349.981 114.782L355.902 113.16L353.433 104.012Z" fill="#E8E8E8" stroke="#263238" stroke-width="0.932567" stroke-linecap="round" stroke-linejoin="round"/>
<path d="M352.245 107.178C352.173 106.896 351.993 106.654 351.744 106.506C351.495 106.358 351.198 106.316 350.918 106.389C350.638 106.461 350.398 106.643 350.251 106.894C350.104 107.145 350.062 107.444 350.135 107.726C350.205 108 350.559 109.288 350.679 109.743L352.789 109.167C352.67 108.745 352.311 107.408 352.245 107.178Z" fill="#263238"/>
<path d="M352.05 110.652C352.311 110.581 352.537 110.414 352.683 110.184C352.829 109.954 352.884 109.677 352.839 109.408L350.744 109.956C350.835 110.216 351.02 110.433 351.262 110.562C351.504 110.691 351.785 110.723 352.05 110.652Z" fill="#263238"/>
<path d="M354.019 111.792L352.648 112.17L352.365 111.129C352.755 110.976 353.075 110.683 353.264 110.307C353.453 109.931 353.497 109.497 353.388 109.09L353.235 108.542C353.233 108.531 353.228 108.52 353.221 108.51C353.214 108.5 353.205 108.492 353.195 108.486C353.185 108.48 353.174 108.476 353.162 108.474C353.15 108.472 353.138 108.473 353.127 108.477L352.898 108.537C352.886 108.54 352.875 108.545 352.866 108.553C352.856 108.561 352.849 108.57 352.843 108.581C352.837 108.592 352.834 108.604 352.833 108.616C352.832 108.628 352.834 108.64 352.838 108.652C352.841 108.664 352.846 108.675 352.853 108.684C352.86 108.694 352.868 108.702 352.879 108.709C352.889 108.715 352.9 108.719 352.912 108.72C352.924 108.722 352.936 108.721 352.947 108.718L353.083 108.679L353.208 109.145C353.26 109.338 353.274 109.54 353.249 109.739C353.224 109.937 353.16 110.129 353.061 110.303C352.962 110.477 352.831 110.629 352.673 110.751C352.516 110.874 352.337 110.964 352.145 111.017C351.953 111.069 351.753 111.083 351.556 111.058C351.358 111.032 351.168 110.968 350.996 110.868C350.823 110.769 350.672 110.636 350.55 110.478C350.428 110.319 350.339 110.138 350.287 109.945L350.156 109.479L350.292 109.447C350.315 109.439 350.335 109.423 350.347 109.402C350.359 109.38 350.363 109.355 350.358 109.331C350.354 109.32 350.349 109.308 350.342 109.299C350.334 109.289 350.325 109.281 350.314 109.275C350.304 109.268 350.292 109.265 350.28 109.263C350.268 109.261 350.255 109.262 350.243 109.266L350.02 109.326C350.009 109.329 349.997 109.335 349.988 109.342C349.978 109.35 349.97 109.359 349.964 109.37C349.958 109.381 349.954 109.392 349.952 109.405C349.951 109.417 349.952 109.429 349.955 109.441L350.107 109.989C350.218 110.396 350.473 110.747 350.824 110.975C351.176 111.204 351.598 111.294 352.011 111.228L352.289 112.269L350.918 112.641C350.894 112.648 350.872 112.659 350.853 112.674C350.833 112.689 350.817 112.708 350.805 112.729C350.793 112.75 350.785 112.774 350.782 112.799C350.779 112.823 350.781 112.848 350.787 112.872L350.836 113.052L354.296 112.104L354.247 111.924C354.241 111.9 354.23 111.877 354.215 111.858C354.2 111.838 354.182 111.822 354.16 111.81C354.139 111.797 354.116 111.79 354.091 111.787C354.067 111.784 354.042 111.785 354.019 111.792Z" fill="#263238"/>
<path d="M354.579 106.148C354.035 106.208 353.584 107.068 353.752 108.279C353.921 109.49 355.025 108.175 355.09 107.792C355.156 107.408 355.618 106.043 354.579 106.148Z" fill="white" stroke="#263238" stroke-width="0.932567" stroke-linecap="round" stroke-linejoin="round"/>
<path d="M355.776 107.956C355.631 107.954 355.487 107.984 355.356 108.046C355.224 108.107 355.108 108.197 355.015 108.31C354.923 108.422 354.857 108.554 354.822 108.696C354.787 108.838 354.784 108.986 354.813 109.129C354.916 110.307 355.145 110.033 355.145 110.033C355.15 110.518 355.248 110.998 355.433 111.447C355.705 111.967 356.423 111.178 356.423 110.707C356.423 110.236 356.347 107.759 355.776 107.956Z" fill="white" stroke="#263238" stroke-width="0.932567" stroke-linecap="round" stroke-linejoin="round"/>
<path d="M355.15 110.011C355.15 110.011 356.092 109.731 356.315 109.041L355.15 110.011Z" fill="white"/>
<path d="M355.15 110.011C355.15 110.011 356.092 109.731 356.315 109.041" stroke="#263238" stroke-width="0.932567" stroke-linecap="round" stroke-linejoin="round"/>
<path d="M346.974 114.992C347.157 114.234 347.171 113.445 347.018 112.68C346.561 110.559 347.817 109.315 348.971 107.622C350.124 105.928 350.668 107.342 350.254 108.345C349.844 109.2 349.35 110.011 348.78 110.767C349.516 111.759 349.931 112.955 349.972 114.192C349.972 114.592 349.972 115.787 349.972 115.787" fill="white"/>
<path d="M346.974 114.992C347.157 114.234 347.171 113.445 347.018 112.68C346.561 110.559 347.817 109.315 348.971 107.622C350.124 105.928 350.668 107.342 350.254 108.345C349.844 109.2 349.35 110.011 348.78 110.767C349.516 111.759 349.931 112.955 349.972 114.192C349.972 114.592 349.972 115.787 349.972 115.787" stroke="#263238" stroke-width="0.932567" stroke-linecap="round" stroke-linejoin="round"/>
<path d="M332.384 101.747C334.277 101.347 334.859 100.859 334.859 100.859C333.44 95.0999 338.531 75.7281 322.484 74.8348C306.436 73.9416 315.412 101.391 315.412 101.391L317.158 101.616L316.26 96.0972L318.349 101.753C324.529 102.427 328.489 102.301 330.981 101.983C330.643 99.4938 330.608 96.9726 330.877 94.4751C331.191 96.9349 331.695 99.3663 332.384 101.747Z" fill="#263238"/>
<path d="M322.478 75.1801C321.855 74.5567 321.041 74.1634 320.168 74.064C319.295 73.9645 318.415 74.1647 317.669 74.6321" stroke="#263238" stroke-width="0.932567" stroke-linecap="round" stroke-linejoin="round"/>
<path d="M334.701 105.259V105.084C334.669 105.161 334.636 105.215 334.701 105.259Z" fill="white" stroke="#263238" stroke-width="0.932567" stroke-linecap="round" stroke-linejoin="round"/>
<path d="M346.321 116.664L338.705 123.788L338.847 113.113C338.872 111.501 338.492 109.908 337.743 108.483C336.994 107.059 335.899 105.848 334.56 104.964L334.848 133.06C342.328 133.537 348.992 118.752 348.992 118.752C348.721 118.232 348.342 117.776 347.881 117.416C347.421 117.056 346.889 116.8 346.321 116.664Z" fill="white"/>
<path opacity="0.1" d="M337.536 129.613C336.404 129.717 336.148 127.536 336.165 125.415C335.848 126.213 335.638 127.05 335.539 127.903C335.441 130.32 335.441 132.715 335.479 134.764C343.998 130.873 344.102 127.405 346.289 123.865C344.896 125.646 339.717 129.41 337.536 129.613Z" fill="black"/>
<path d="M346.321 116.664L338.705 123.788L338.847 113.113C338.872 111.501 338.492 109.908 337.743 108.483C336.994 107.059 335.899 105.848 334.56 104.964L334.848 133.06C342.328 133.537 348.992 118.752 348.992 118.752C348.721 118.232 348.342 117.776 347.881 117.416C347.421 117.056 346.889 116.8 346.321 116.664V116.664Z" stroke="#263238" stroke-width="0.932567" stroke-linecap="round" stroke-linejoin="round"/>
<path d="M344.706 117.584L346.376 115.99L350.037 118.521L348.971 120.308L344.706 117.584Z" fill="#E8E8E8" stroke="#263238" stroke-width="0.932567" stroke-linecap="round" stroke-linejoin="round"/>
<path d="M337.568 118.368C334.5 132.068 336.024 141.072 336.024 141.072C336.024 141.072 328.62 146.36 313.056 141.877C313.056 141.877 315.885 134.792 315.123 129.388C314.661 126.062 311.56 114.105 311.56 114.105C311.56 114.105 310.091 108.877 310.766 104.657C312.066 103.808 314.851 102.783 319.774 102.421C319.856 102.144 319.912 101.86 319.943 101.572C320.099 100.178 320.134 98.7737 320.046 97.3741C319.976 95.7301 319.839 94.4204 319.839 94.4204H325.78C325.78 94.4204 325.856 95.9329 326.047 97.7084C326.15 98.7551 326.297 99.9004 326.482 100.887C326.574 101.381 326.692 101.869 326.835 102.35C332.765 103.249 334.995 104.805 335.425 106.159C337.443 112.263 338.221 115.442 337.568 118.368Z" fill="white" stroke="#263238" stroke-width="0.932567" stroke-linecap="round" stroke-linejoin="round"/>
<path d="M326.063 98.6729C325.578 99.7689 324.975 100.635 322.88 100.624C321.324 100.624 319.921 99.2374 319.763 98.7058C319.932 97.5057 319.763 97.0618 319.692 95.7028C321.693 95.6459 323.695 95.7632 325.676 96.0535C325.761 96.9327 325.89 97.807 326.063 98.6729Z" fill="#263238"/>
<path d="M330.012 86.9402C330.012 86.1292 330.012 85.6305 330.012 85.6305C329.571 83.5042 326.96 83.3947 325.758 83.4001C324.49 83.4414 323.227 83.2194 322.048 82.748C322.434 83.6784 323.073 84.4801 323.892 85.0606C319.42 84.0577 319.072 81.6794 319.241 80.3971C317.652 85.9922 315.59 86.2278 315.59 86.2278C315.59 86.2278 315.59 86.7265 315.683 87.532C315.149 87.6555 314.677 87.9691 314.354 88.4151C314.031 88.8612 313.879 89.4097 313.926 89.9597C313.92 90.5521 314.144 91.1234 314.551 91.5514C314.957 91.9795 315.514 92.2303 316.102 92.2503C316.219 92.2451 316.336 92.2285 316.45 92.201C317.396 95.9055 319.339 99.9333 323.315 99.7744C327.292 99.6154 328.913 95.4397 329.555 91.6694C329.673 91.6803 329.791 91.6803 329.909 91.6694C330.498 91.6098 331.04 91.3176 331.416 90.8565C331.792 90.3954 331.972 89.803 331.916 89.2089C331.918 88.6645 331.727 88.1372 331.379 87.7215C331.03 87.3057 330.545 87.0288 330.012 86.9402Z" fill="white" stroke="#263238" stroke-width="0.932567" stroke-linecap="round" stroke-linejoin="round"/>
<path d="M322.048 93.2148L322.733 93.7135C322.82 93.7785 322.925 93.8135 323.032 93.8135C323.14 93.8135 323.245 93.7785 323.332 93.7135L323.963 93.2258" stroke="#263238" stroke-width="0.932567" stroke-linecap="round" stroke-linejoin="round"/>
<path d="M324.659 90.0966C324.659 90.0966 325.508 88.9678 327.2 89.7624" stroke="#263238" stroke-width="0.932567" stroke-linecap="round" stroke-linejoin="round"/>
<path d="M320.96 90.0966C320.96 90.0966 320.117 88.9678 318.419 89.7624" stroke="#263238" stroke-width="0.932567" stroke-linecap="round" stroke-linejoin="round"/>
<path d="M324.692 95.2041C324.22 95.5803 323.642 95.7963 323.041 95.8209C322.44 95.8455 321.847 95.6775 321.346 95.3411" stroke="#263238" stroke-width="0.932567" stroke-linecap="round" stroke-linejoin="round"/>
<path d="M331.878 190.085C331.684 190.686 331.459 191.277 331.204 191.855" stroke="white" stroke-width="0.932567" stroke-linecap="round" stroke-linejoin="round"/>
<path d="M323.936 150.152L325.709 151.752C327.292 153.179 328.333 155.117 328.653 157.232C330.17 166.959 332.607 176.96 332.308 187.526" stroke="white" stroke-width="0.932567" stroke-linecap="round" stroke-linejoin="round"/>
<path d="M330.649 150.437L327.836 154.487L328.19 153.988" stroke="white" stroke-width="0.932567" stroke-linecap="round" stroke-linejoin="round"/>
<path d="M319.535 134.189L320.34 135.022" stroke="#263238" stroke-width="0.932567" stroke-linecap="round" stroke-linejoin="round"/>
<path d="M313.708 122.708C314.555 126.204 316.062 129.503 318.147 132.424" stroke="#263238" stroke-width="0.932567" stroke-linecap="round" stroke-linejoin="round"/>
<path d="M313.865 85.6504L313.262 85.6748L313.348 87.8377L313.951 87.8133L313.865 85.6504Z" fill="white" stroke="#263238" stroke-width="0.932567" stroke-linecap="round" stroke-linejoin="round"/>
<path d="M332.28 84.8698L331.676 84.8943L331.763 87.0571L332.366 87.0326L332.28 84.8698Z" fill="white" stroke="#263238" stroke-width="0.932567" stroke-linecap="round" stroke-linejoin="round"/>
<path d="M322.391 75.8323C319.828 75.9372 317.406 77.0382 315.633 78.9042C313.86 80.7701 312.874 83.2557 312.881 85.8388C312.882 85.8872 312.892 85.935 312.912 85.9794C312.931 86.0237 312.959 86.0637 312.994 86.0969C313.029 86.1301 313.07 86.1559 313.116 86.1728C313.161 86.1896 313.209 86.1972 313.257 86.195H313.893C313.987 86.1907 314.075 86.15 314.139 86.0814C314.203 86.0129 314.237 85.9219 314.236 85.8278C314.251 83.6118 315.113 81.4868 316.642 79.8939C318.172 78.3011 320.252 77.3629 322.45 77.274C324.648 77.1852 326.796 77.9525 328.447 79.4168C330.098 80.881 331.126 82.9296 331.318 85.1373C331.323 85.2308 331.365 85.3184 331.434 85.381C331.504 85.4435 331.595 85.4761 331.687 85.4716H332.324C332.372 85.4703 332.419 85.4591 332.462 85.4389C332.506 85.4186 332.545 85.3897 332.577 85.3538C332.609 85.3179 332.633 85.2759 332.649 85.2302C332.664 85.1845 332.67 85.1361 332.667 85.088C332.484 82.5025 331.308 80.0904 329.39 78.3627C327.472 76.635 324.962 75.7274 322.391 75.8323Z" fill="#E8E8E8" stroke="#263238" stroke-width="0.932567" stroke-linecap="round" stroke-linejoin="round"/>
<path d="M314.976 86.9731H314.835C314.425 86.9901 314.022 87.0882 313.65 87.2619C313.277 87.4356 312.942 87.6815 312.664 87.9855C312.103 88.5996 311.806 89.4132 311.84 90.2474C311.874 91.0817 312.235 91.8682 312.845 92.4339C313.455 92.9997 314.262 93.2983 315.09 93.2642H315.226L314.976 86.9731Z" fill="#E8E8E8" stroke="#263238" stroke-width="0.932567" stroke-linecap="round" stroke-linejoin="round"/>
<path d="M315.819 90.0802C315.912 92.4147 316.075 93.9162 315.275 93.9655C314.476 94.0148 314.139 92.4914 314.046 90.1295C313.954 87.7676 314.166 86.2935 314.965 86.2387C315.765 86.1839 315.727 87.7457 315.819 90.0802Z" fill="white" stroke="#263238" stroke-width="0.932567" stroke-linecap="round" stroke-linejoin="round"/>
<path d="M330.697 86.3374H330.839C331.249 86.3208 331.658 86.3858 332.043 86.5286C332.428 86.6714 332.782 86.8892 333.083 87.1695C333.385 87.4499 333.629 87.7874 333.801 88.1627C333.973 88.538 334.07 88.9438 334.086 89.3568C334.103 89.7699 334.038 90.1822 333.897 90.5702C333.755 90.9582 333.539 91.3142 333.26 91.618C332.982 91.9218 332.647 92.1674 332.274 92.3407C331.902 92.5141 331.499 92.6119 331.089 92.6284H330.947L330.697 86.3374Z" fill="#E8E8E8" stroke="#263238" stroke-width="0.932567" stroke-linecap="round" stroke-linejoin="round"/>
<path d="M330.077 89.5049C330.17 91.8394 330.132 93.3409 330.931 93.3409C331.731 93.3409 331.943 91.7791 331.851 89.4446C331.758 87.1101 331.421 85.6086 330.627 85.636C329.832 85.6634 329.985 87.1704 330.077 89.5049Z" fill="white" stroke="#263238" stroke-width="0.932567" stroke-linecap="round" stroke-linejoin="round"/>
<path d="M317.244 88.0252C317.244 88.0252 319.317 86.299 321.281 87.8608" stroke="#263238" stroke-width="0.932567" stroke-linecap="round" stroke-linejoin="round"/>
<path d="M328.619 87.68C328.619 87.68 326.443 86.1292 324.583 87.8444" stroke="#263238" stroke-width="0.932567" stroke-linecap="round" stroke-linejoin="round"/>
<path d="M318.991 101.66C318.991 101.66 320.231 104.794 324.833 105.496C324.833 105.496 322.995 109.332 320.481 107.825C317.473 106.027 316.896 102.295 316.896 102.295L318.991 101.66Z" fill="#E8E8E8" stroke="#263238" stroke-width="0.932567" stroke-linecap="round" stroke-linejoin="round"/>
<path d="M327.423 102.049C327.44 102.883 327.164 103.697 326.645 104.347C326.126 104.998 325.396 105.443 324.583 105.605C324.583 105.605 326.819 109.299 328.652 107.249C330.485 105.2 329.06 102.41 329.06 102.41L327.423 102.049Z" fill="#E8E8E8" stroke="#263238" stroke-width="0.932567" stroke-linecap="round" stroke-linejoin="round"/>
<path d="M326.4 112.926C326.4 113.035 326.368 113.141 326.308 113.231C326.249 113.321 326.164 113.391 326.064 113.433C325.965 113.474 325.855 113.485 325.75 113.464C325.644 113.443 325.547 113.391 325.471 113.314C325.395 113.237 325.343 113.14 325.322 113.033C325.301 112.927 325.312 112.817 325.353 112.717C325.395 112.617 325.464 112.531 325.554 112.471C325.643 112.411 325.748 112.378 325.856 112.378C326 112.378 326.139 112.436 326.241 112.539C326.343 112.642 326.4 112.781 326.4 112.926Z" fill="#E8E8E8" stroke="#263238" stroke-width="0.932567" stroke-linecap="round" stroke-linejoin="round"/>
<path d="M327.14 123.716C327.14 123.825 327.108 123.931 327.048 124.021C326.988 124.111 326.903 124.181 326.804 124.223C326.705 124.264 326.595 124.275 326.49 124.254C326.384 124.233 326.287 124.181 326.211 124.104C326.135 124.027 326.083 123.93 326.062 123.823C326.041 123.717 326.052 123.607 326.093 123.507C326.134 123.407 326.204 123.321 326.294 123.261C326.383 123.201 326.488 123.168 326.596 123.168C326.74 123.168 326.878 123.226 326.981 123.329C327.083 123.432 327.14 123.571 327.14 123.716Z" fill="#E8E8E8" stroke="#263238" stroke-width="0.932567" stroke-linecap="round" stroke-linejoin="round"/>
<path d="M327.836 134.764C327.836 134.873 327.804 134.979 327.744 135.069C327.685 135.159 327.6 135.229 327.5 135.27C327.401 135.312 327.291 135.323 327.186 135.302C327.08 135.281 326.983 135.228 326.907 135.152C326.831 135.075 326.779 134.977 326.759 134.871C326.738 134.765 326.748 134.655 326.789 134.554C326.831 134.454 326.9 134.369 326.99 134.309C327.079 134.248 327.184 134.216 327.292 134.216C327.436 134.216 327.575 134.274 327.677 134.377C327.779 134.479 327.836 134.619 327.836 134.764Z" fill="#E8E8E8" stroke="#263238" stroke-width="0.932567" stroke-linecap="round" stroke-linejoin="round"/>
<path d="M375.774 61.2938H265.548C265.038 61.2938 264.624 61.7109 264.624 62.2254V64.2256C264.624 64.7401 265.038 65.1572 265.548 65.1572H375.774C376.284 65.1572 376.698 64.7401 376.698 64.2256V62.2254C376.698 61.7109 376.284 61.2938 375.774 61.2938Z" fill="white"/>
<path d="M375.589 65.1572H265.733" stroke="#263238" stroke-width="0.932567" stroke-linecap="round" stroke-linejoin="round"/>
<path d="M265.733 61.2938H375.589" stroke="#263238" stroke-width="0.932567" stroke-linecap="round" stroke-linejoin="round"/>
<path d="M299.929 87.2909C299.929 87.2909 295.386 86.6498 295.142 87.8773C294.897 89.1048 295.033 91.0721 295.816 91.7133C297.296 92.9298 297.024 95.204 297.024 95.204L300.832 94.8314L300.93 92.9134C301.126 92.2877 301.476 91.7221 301.947 91.2694C303.318 89.9706 302.774 88.5294 302.54 86.7922C302.306 85.0551 301.169 85.8277 301.077 86.7265C301.049 87.5279 301.115 88.3297 301.272 89.1158L299.929 87.2909Z" fill="white" stroke="#263238" stroke-width="0.932567" stroke-linecap="round" stroke-linejoin="round"/>
<path d="M300.995 88.9788C300.995 88.9788 299.907 89.2034 299.048 90.7543L300.995 88.9788Z" fill="white"/>
<path d="M300.995 88.9788C300.995 88.9788 299.907 89.2034 299.048 90.7543" stroke="#263238" stroke-width="0.932567" stroke-linecap="round" stroke-linejoin="round"/>
<path d="M300.996 89.3843H295.49C295.109 89.3959 294.73 89.3155 294.385 89.1496C294.041 88.9837 293.741 88.7372 293.51 88.4307C293.313 88.1523 293.208 87.819 293.208 87.4772C293.208 87.1354 293.313 86.8021 293.51 86.5237L296.263 82.4521C296.501 82.1497 296.803 81.9055 297.148 81.7375C297.493 81.5696 297.871 81.4824 298.254 81.4824C298.637 81.4824 299.015 81.5696 299.36 81.7375C299.704 81.9055 300.007 82.1497 300.245 82.4521L303.003 86.5237C303.2 86.8021 303.305 87.1354 303.305 87.4772C303.305 87.819 303.2 88.1523 303.003 88.4307C302.77 88.7418 302.466 88.9912 302.116 89.1573C301.766 89.3234 301.382 89.4013 300.996 89.3843ZM294.468 86.9731C294.364 87.1184 294.308 87.2928 294.308 87.4717C294.308 87.6507 294.364 87.8251 294.468 87.9704C294.588 88.129 294.744 88.2565 294.922 88.3423C295.101 88.4281 295.298 88.4697 295.496 88.4636H300.996C301.194 88.4701 301.39 88.4287 301.569 88.3429C301.748 88.2571 301.904 88.1294 302.024 87.9704C302.128 87.8254 302.184 87.6509 302.184 87.4717C302.184 87.2926 302.128 87.1181 302.024 86.9731L299.271 82.9069C299.151 82.7444 298.994 82.6136 298.813 82.5258C298.632 82.438 298.433 82.3957 298.232 82.4027C298.032 82.3952 297.833 82.4372 297.653 82.5251C297.473 82.613 297.317 82.7441 297.198 82.9069L294.44 86.9785L294.468 86.9731Z" fill="#263238"/>
<path d="M296.594 87.3456C296.877 88.7924 296.703 89.3075 296.05 89.2308C295.397 89.154 294.739 87.3785 295.642 86.973C296.545 86.5675 297.274 86.2551 297.274 86.2551C297.563 86.0976 297.885 86.0102 298.213 85.9997C298.542 85.9893 298.868 86.0561 299.167 86.1948C300.462 85.74 300.69 86.688 300.69 86.688C300.69 86.688 301.626 89.428 300.848 89.5212C300.07 89.6143 299.428 87.236 299.428 87.236C299.428 87.236 300.402 89.8445 299.51 89.8883C298.617 89.9322 298.101 87.3566 298.101 87.3566C298.101 87.3566 298.683 89.6198 297.84 89.6965C296.996 89.7733 296.594 87.3456 296.594 87.3456Z" fill="white" stroke="#263238" stroke-width="0.932567" stroke-linecap="round" stroke-linejoin="round"/>
<path d="M298.65 64.1215H297.758V82.1123H298.65V64.1215Z" fill="white" stroke="#263238" stroke-width="0.932567" stroke-linecap="round" stroke-linejoin="round"/>
<path d="M299.145 81.8329L298.563 82.6932C298.525 82.7422 298.476 82.7819 298.421 82.8091C298.365 82.8364 298.304 82.8505 298.242 82.8505C298.181 82.8505 298.12 82.8364 298.064 82.8091C298.008 82.7819 297.96 82.7422 297.921 82.6932L297.345 81.8329C297.203 81.6301 297.383 81.3781 297.66 81.3781H298.825C299.107 81.3781 299.281 81.6521 299.145 81.8329Z" fill="white" stroke="#263238" stroke-width="0.932567" stroke-linecap="round" stroke-linejoin="round"/>
<path d="M298.721 75.7938H297.769C297.508 75.7938 297.296 76.0073 297.296 76.2706V80.26C297.296 80.5233 297.508 80.7368 297.769 80.7368H298.721C298.983 80.7368 299.194 80.5233 299.194 80.26V76.2706C299.194 76.0073 298.983 75.7938 298.721 75.7938Z" fill="white" stroke="#263238" stroke-width="0.932567" stroke-linecap="round" stroke-linejoin="round"/>
<path d="M298.721 60.6746H297.769C297.508 60.6746 297.296 60.888 297.296 61.1513V65.1408C297.296 65.4041 297.508 65.6175 297.769 65.6175H298.721C298.983 65.6175 299.194 65.4041 299.194 65.1408V61.1513C299.194 60.888 298.983 60.6746 298.721 60.6746Z" fill="white" stroke="#263238" stroke-width="0.932567" stroke-linecap="round" stroke-linejoin="round"/>
<path d="M288.053 89.3842H282.548C282.166 89.3959 281.787 89.3155 281.443 89.1496C281.098 88.9837 280.798 88.7372 280.568 88.4307C280.371 88.1523 280.265 87.819 280.265 87.4772C280.265 87.1354 280.371 86.8021 280.568 86.5237L283.32 82.4521C283.559 82.1496 283.862 81.9054 284.207 81.7374C284.552 81.5695 284.931 81.4823 285.314 81.4823C285.697 81.4823 286.076 81.5695 286.421 81.7374C286.766 81.9054 287.069 82.1496 287.308 82.4521L290.06 86.5237C290.257 86.8021 290.363 87.1354 290.363 87.4772C290.363 87.819 290.257 88.1523 290.06 88.4307C289.828 88.7418 289.523 88.9912 289.174 89.1573C288.824 89.3234 288.439 89.4013 288.053 89.3842ZM281.525 86.9731C281.422 87.1184 281.366 87.2928 281.366 87.4717C281.366 87.6507 281.422 87.8251 281.525 87.9704C281.645 88.129 281.801 88.2565 281.98 88.3423C282.159 88.4281 282.355 88.4696 282.553 88.4636H288.059C288.257 88.4696 288.455 88.4281 288.634 88.3423C288.814 88.2566 288.971 88.1291 289.092 87.9704C289.196 87.8251 289.251 87.6507 289.251 87.4717C289.251 87.2928 289.196 87.1184 289.092 86.9731L286.34 82.9069C286.22 82.7444 286.063 82.6136 285.882 82.5258C285.701 82.4379 285.501 82.3957 285.3 82.4027C285.1 82.3952 284.902 82.4372 284.721 82.5251C284.541 82.613 284.385 82.7441 284.267 82.9069L281.509 86.9785L281.525 86.9731Z" fill="#263238"/>
<path d="M285.709 64.1215H284.816V82.1123H285.709V64.1215Z" fill="white" stroke="#263238" stroke-width="0.932567" stroke-linecap="round" stroke-linejoin="round"/>
<path d="M286.204 81.8329L285.6 82.6933C285.562 82.7423 285.513 82.7819 285.457 82.8091C285.402 82.8364 285.341 82.8505 285.279 82.8505C285.217 82.8505 285.156 82.8364 285.101 82.8091C285.045 82.7819 284.996 82.7423 284.958 82.6933L284.381 81.8329C284.24 81.6301 284.42 81.3781 284.697 81.3781H285.861C286.144 81.3781 286.34 81.6521 286.204 81.8329Z" fill="white" stroke="#263238" stroke-width="0.932567" stroke-linecap="round" stroke-linejoin="round"/>
<path d="M285.78 75.7938H284.828C284.566 75.7938 284.354 76.0073 284.354 76.2706V80.26C284.354 80.5233 284.566 80.7368 284.828 80.7368H285.78C286.041 80.7368 286.253 80.5233 286.253 80.26V76.2706C286.253 76.0073 286.041 75.7938 285.78 75.7938Z" fill="white" stroke="#263238" stroke-width="0.932567" stroke-linecap="round" stroke-linejoin="round"/>
<path d="M285.78 60.6746H284.828C284.566 60.6746 284.354 60.888 284.354 61.1513V65.1408C284.354 65.4041 284.566 65.6175 284.828 65.6175H285.78C286.041 65.6175 286.253 65.4041 286.253 65.1408V61.1513C286.253 60.888 286.041 60.6746 285.78 60.6746Z" fill="white" stroke="#263238" stroke-width="0.932567" stroke-linecap="round" stroke-linejoin="round"/>
<path d="M344.14 89.3843H338.634C338.253 89.3969 337.873 89.3168 337.529 89.1508C337.184 88.9849 336.884 88.7379 336.654 88.4307C336.457 88.1523 336.352 87.819 336.352 87.4772C336.352 87.1354 336.457 86.8021 336.654 86.5237L339.407 82.4521C339.645 82.1497 339.947 81.9055 340.292 81.7375C340.637 81.5696 341.015 81.4824 341.398 81.4824C341.781 81.4824 342.159 81.5696 342.504 81.7375C342.848 81.9055 343.151 82.1497 343.389 82.4521L346.141 86.5237C346.338 86.8021 346.444 87.1354 346.444 87.4772C346.444 87.819 346.338 88.1523 346.141 88.4307C345.909 88.741 345.606 88.9899 345.257 89.156C344.908 89.3221 344.525 89.4004 344.14 89.3843ZM337.612 86.9731C337.507 87.1181 337.451 87.2926 337.451 87.4717C337.451 87.6509 337.507 87.8254 337.612 87.9704C337.731 88.1294 337.887 88.2571 338.066 88.3429C338.245 88.4287 338.442 88.4701 338.64 88.4636H344.145C344.343 88.4701 344.54 88.4287 344.719 88.3429C344.897 88.2571 345.053 88.1294 345.173 87.9704C345.278 87.8254 345.334 87.6509 345.334 87.4717C345.334 87.2926 345.278 87.1181 345.173 86.9731L342.421 82.9069C342.296 82.7494 342.138 82.6222 341.958 82.5347C341.778 82.4473 341.581 82.4019 341.381 82.4019C341.182 82.4019 340.985 82.4473 340.805 82.5347C340.625 82.6222 340.467 82.7494 340.342 82.9069L337.59 86.9785L337.612 86.9731Z" fill="#263238"/>
<path d="M341.79 64.1215H340.897V82.1123H341.79V64.1215Z" fill="white" stroke="#263238" stroke-width="0.932567" stroke-linecap="round" stroke-linejoin="round"/>
<path d="M342.285 81.8329L341.708 82.6932C341.67 82.7422 341.622 82.7819 341.566 82.8091C341.51 82.8364 341.449 82.8505 341.387 82.8505C341.326 82.8505 341.265 82.8364 341.209 82.8091C341.153 82.7819 341.105 82.7422 341.067 82.6932L340.49 81.8329C340.348 81.6301 340.528 81.3781 340.805 81.3781H341.97C342.247 81.3781 342.427 81.6521 342.285 81.8329Z" fill="white" stroke="#263238" stroke-width="0.932567" stroke-linecap="round" stroke-linejoin="round"/>
<path d="M341.866 75.7938H340.914C340.653 75.7938 340.441 76.0073 340.441 76.2706V80.26C340.441 80.5233 340.653 80.7368 340.914 80.7368H341.866C342.128 80.7368 342.339 80.5233 342.339 80.26V76.2706C342.339 76.0073 342.128 75.7938 341.866 75.7938Z" fill="white" stroke="#263238" stroke-width="0.932567" stroke-linecap="round" stroke-linejoin="round"/>
<path d="M341.866 60.6746H340.914C340.653 60.6746 340.441 60.888 340.441 61.1513V65.1408C340.441 65.4041 340.653 65.6175 340.914 65.6175H341.866C342.128 65.6175 342.339 65.4041 342.339 65.1408V61.1513C342.339 60.888 342.128 60.6746 341.866 60.6746Z" fill="white" stroke="#263238" stroke-width="0.932567" stroke-linecap="round" stroke-linejoin="round"/>
<path d="M356.473 89.3843H350.967C350.586 89.3959 350.207 89.3155 349.862 89.1496C349.518 88.9837 349.218 88.7372 348.987 88.4307C348.79 88.1523 348.685 87.819 348.685 87.4772C348.685 87.1354 348.79 86.8021 348.987 86.5237L351.74 82.4521C351.978 82.1496 352.281 81.9054 352.627 81.7374C352.972 81.5695 353.35 81.4823 353.734 81.4823C354.117 81.4823 354.495 81.5695 354.841 81.7374C355.186 81.9054 355.489 82.1496 355.727 82.4521L358.48 86.5237C358.677 86.8021 358.782 87.1354 358.782 87.4772C358.782 87.819 358.677 88.1523 358.48 88.4307C358.247 88.7418 357.943 88.9912 357.593 89.1573C357.243 89.3234 356.859 89.4013 356.473 89.3843ZM349.945 86.9731C349.841 87.1184 349.785 87.2928 349.785 87.4717C349.785 87.6507 349.841 87.8251 349.945 87.9704C350.065 88.129 350.221 88.2565 350.399 88.3423C350.578 88.4281 350.775 88.4696 350.973 88.4636H356.478C356.677 88.4696 356.874 88.4281 357.054 88.3423C357.233 88.2566 357.39 88.1291 357.512 87.9704C357.615 87.8251 357.671 87.6507 357.671 87.4717C357.671 87.2928 357.615 87.1184 357.512 86.9731L354.759 82.9069C354.639 82.7444 354.482 82.6136 354.301 82.5258C354.12 82.4379 353.921 82.3957 353.72 82.4027C353.52 82.3952 353.321 82.4372 353.141 82.5251C352.961 82.613 352.805 82.7441 352.686 82.9069L349.928 86.9785L349.945 86.9731Z" fill="#263238"/>
<path d="M354.128 64.1215H353.236V82.1123H354.128V64.1215Z" fill="white" stroke="#263238" stroke-width="0.932567" stroke-linecap="round" stroke-linejoin="round"/>
<path d="M354.623 81.8329L354.04 82.6933C354.002 82.7423 353.954 82.7819 353.898 82.8091C353.842 82.8364 353.781 82.8505 353.72 82.8505C353.658 82.8505 353.597 82.8364 353.541 82.8091C353.485 82.7819 353.437 82.7423 353.399 82.6933L352.822 81.8329C352.68 81.6301 352.86 81.3781 353.137 81.3781H354.302C354.584 81.3781 354.759 81.6521 354.623 81.8329Z" fill="white" stroke="#263238" stroke-width="0.932567" stroke-linecap="round" stroke-linejoin="round"/>
<path d="M354.198 75.7938H353.246C352.985 75.7938 352.773 76.0073 352.773 76.2706V80.26C352.773 80.5233 352.985 80.7368 353.246 80.7368H354.198C354.46 80.7368 354.671 80.5233 354.671 80.26V76.2706C354.671 76.0073 354.46 75.7938 354.198 75.7938Z" fill="white" stroke="#263238" stroke-width="0.932567" stroke-linecap="round" stroke-linejoin="round"/>
<path d="M354.198 60.6746H353.246C352.985 60.6746 352.773 60.888 352.773 61.1513V65.1408C352.773 65.4041 352.985 65.6175 353.246 65.6175H354.198C354.46 65.6175 354.671 65.4041 354.671 65.1408V61.1513C354.671 60.888 354.46 60.6746 354.198 60.6746Z" fill="white" stroke="#263238" stroke-width="0.932567" stroke-linecap="round" stroke-linejoin="round"/>
<path d="M301.42 93.9656L301.708 96.3055L295.789 96.585L296.284 94.2396L301.42 93.9656Z" fill="#E8E8E8" stroke="#263238" stroke-width="0.932567" stroke-linecap="round" stroke-linejoin="round"/>
<path d="M311.456 113.633C311.456 113.633 301.18 123.152 298.808 123.3C298.226 123.338 297.72 123.706 297.23 123.371C296.142 122.626 294.57 121.048 294.799 114.636C294.918 111.129 297.024 96.5138 297.024 96.5138L300.832 96.3439L301.757 112.784C305.021 109.375 310.694 104.652 310.7 104.652C312.473 110.362 311.456 113.633 311.456 113.633Z" fill="white" stroke="#263238" stroke-width="0.932567" stroke-linecap="round" stroke-linejoin="round"/>
<path d="M337.372 126.867C337.628 125.731 338.115 124.66 338.803 123.722L337.372 126.867Z" fill="white"/>
<path d="M337.372 126.867C337.628 125.731 338.115 124.66 338.803 123.722" stroke="#263238" stroke-width="0.932567" stroke-linecap="round" stroke-linejoin="round"/>
<path d="M300.593 116.653C300.99 116.472 301.936 114.691 301.741 111.65" stroke="#263238" stroke-width="0.932567" stroke-linecap="round" stroke-linejoin="round"/>
<path d="M304.243 77.6132V71.0646C304.245 70.7482 304.37 70.4452 304.592 70.2215C304.814 69.9978 305.115 69.8714 305.429 69.87H315.634C315.949 69.8714 316.249 69.9978 316.471 70.2215C316.694 70.4452 316.819 70.7482 316.82 71.0646V77.6132C316.82 77.9301 316.695 78.2339 316.473 78.458C316.251 78.682 315.949 78.8079 315.634 78.8079H312.082L312.365 81.3013H310.532V83.6577L308.356 79.8217H310.135L309.95 78.8134H305.424C305.268 78.8126 305.114 78.781 304.97 78.7203C304.827 78.6596 304.696 78.571 304.587 78.4596C304.477 78.3481 304.39 78.216 304.331 78.0708C304.272 77.9256 304.242 77.7701 304.243 77.6132Z" fill="white" stroke="#263238" stroke-width="0.932567" stroke-linecap="round" stroke-linejoin="round"/>
<path d="M313.088 72.1113H306.19" stroke="#263238" stroke-width="0.932567" stroke-linecap="round" stroke-linejoin="round"/>
<path d="M314.873 73.969H306.19" stroke="#263238" stroke-width="0.932567" stroke-linecap="round" stroke-linejoin="round"/>
<path d="M313.534 75.8213H306.19" stroke="#263238" stroke-width="0.932567" stroke-linecap="round" stroke-linejoin="round"/>
<path d="M77.27 239.695C91.2976 239.695 102.669 238.01 102.669 235.931C102.669 233.851 91.2976 232.166 77.27 232.166C63.2423 232.166 51.8706 233.851 51.8706 235.931C51.8706 238.01 63.2423 239.695 77.27 239.695Z" fill="#E8E8E8"/>
<path d="M75.0446 175.935C99.4737 175.935 119.277 155.986 119.277 131.378C119.277 106.769 99.4737 86.8197 75.0446 86.8197C50.6156 86.8197 30.812 106.769 30.812 131.378C30.812 155.986 50.6156 175.935 75.0446 175.935Z" fill="#E8E8E8"/>
<path d="M54.6443 160.515C54.6443 160.515 55.7703 167.091 51.9678 174.483H99.5188C99.5188 174.483 97.3428 171.036 95.0634 160.515H54.6443Z" fill="white" stroke="#263238" stroke-width="0.87381" stroke-linecap="round" stroke-linejoin="round"/>
<path d="M65.4865 162.033C62.8837 162.243 60.389 163.173 58.2773 164.72C56.1655 166.267 54.5188 168.371 53.5185 170.801C53.0072 172.05 52.4741 173.316 51.9681 174.5C49.0741 181.246 51.8104 191.06 59.2088 191.06H93.1326C99.8401 191.06 101.673 182.506 100.069 176.062C99.035 171.919 96.9515 167.759 93.3937 164.844C88.6392 160.926 74.7454 161.287 65.4865 162.033Z" fill="#263238" stroke="#263238" stroke-width="0.87381" stroke-linecap="round" stroke-linejoin="round"/>
<path d="M33.0972 154.794C33.0972 154.794 27.0152 158.498 26.814 160.515H34.2722L37.237 158.372L36.2361 160.526H38.5045C38.5045 160.526 40.9145 158.641 41.045 156.553L40.8002 154.794L36.4482 152.843L33.0972 154.794Z" fill="white" stroke="#263238" stroke-width="0.87381" stroke-linecap="round" stroke-linejoin="round"/>
<path d="M104.339 141.187C104.339 141.187 103.365 134.737 101.227 125.448C99.0896 116.16 94.9116 115.431 94.9116 115.431H94.8736C89.4336 113.074 75.2896 111.803 75.2896 111.803H74.6368C74.6368 111.803 60.4601 113.074 55.0528 115.431H55.0147C55.0147 115.431 50.7987 116.176 48.6608 125.448C46.5228 134.72 45.5436 141.187 45.5436 141.187C45.5436 141.187 41.6812 142.239 34.7289 151.051C33.6374 152.448 32.7084 153.967 31.96 155.577C31.96 155.577 37.302 153.807 41.0448 156.52C41.0448 156.52 53.3065 151.281 53.9212 145.757C53.9212 145.56 53.9702 145.341 53.9974 145.105C54.3456 153.489 54.6448 160.493 54.6448 160.493H95.238C95.238 160.493 95.5427 153.489 95.8908 145.105C95.8908 145.341 95.9398 145.56 95.9616 145.757C96.5817 151.281 110.155 157.473 110.155 157.473C113.875 151.708 119.277 154.892 119.277 154.892L104.339 141.187Z" fill="white"/>
<path opacity="0.3" d="M53.9214 145.768C53.9214 145.604 53.9649 145.417 53.9867 145.22L53.1 125.815C53.1 125.815 50.652 126.32 51.3537 132.276C52.0555 138.233 53.5297 137.208 52.7083 139.504C51.8868 141.801 48.699 139.17 47.6436 141.148C46.5883 143.127 53.5406 142.705 50.6683 147.801C47.796 152.898 41.0449 156.569 41.0449 156.569C41.0449 156.569 53.3121 151.303 53.9214 145.768Z" fill="black"/>
<g opacity="0.3">
<path opacity="0.3" d="M96.1523 145.768C96.1523 145.604 97.7517 145.889 96.1523 145.768L96.6365 129.158C96.6365 129.158 96.5168 137.192 97.3709 139.504C98.225 141.817 101.38 139.17 102.43 141.148C103.48 143.127 96.5331 142.705 99.4109 147.801C102.289 152.898 109.029 156.569 109.029 156.569C109.029 156.569 96.7725 151.303 96.1523 145.768Z" fill="black"/>
</g>
<path opacity="0.3" d="M95.5322 149.549C95.2656 155.835 95.0644 160.509 95.0644 160.509H58.5674C83.0474 160.509 95.5594 149.549 95.5594 149.549H95.5322Z" fill="black"/>
<path d="M104.339 141.187C104.339 141.187 103.365 134.737 101.227 125.448C99.0896 116.16 94.9116 115.431 94.9116 115.431H94.8736C89.4336 113.074 75.2896 111.803 75.2896 111.803H74.6368C74.6368 111.803 60.4601 113.074 55.0528 115.431H55.0147C55.0147 115.431 50.7987 116.176 48.6608 125.448C46.5228 134.72 45.5436 141.187 45.5436 141.187C45.5436 141.187 41.6812 142.239 34.7289 151.051C33.6374 152.448 32.7084 153.967 31.96 155.577V155.577C31.96 155.577 37.302 153.807 41.0448 156.52C41.0448 156.52 53.3065 151.281 53.9212 145.757C53.9212 145.56 53.9702 145.341 53.9974 145.105C54.3456 153.489 54.6448 160.493 54.6448 160.493H95.238C95.238 160.493 95.5427 153.489 95.8908 145.105C95.8908 145.341 95.9398 145.56 95.9616 145.757C96.5817 151.281 110.155 157.473 110.155 157.473C113.875 151.708 119.277 154.892 119.277 154.892L104.339 141.187Z" stroke="#263238" stroke-width="0.87381" stroke-linecap="round" stroke-linejoin="round"/>
<path d="M46.8438 141.148C48.8013 141.049 50.7199 141.724 52.1913 143.028" stroke="#263238" stroke-width="0.87381" stroke-linecap="round" stroke-linejoin="round"/>
<path d="M50.668 126.396C50.668 126.396 53.1813 126.944 53.7579 139.252L53.0017 123.097" stroke="#263238" stroke-width="0.87381" stroke-linecap="round" stroke-linejoin="round"/>
<path d="M53.7905 140.962L53.9051 143.456" stroke="#263238" stroke-width="0.87381" stroke-linecap="round" stroke-linejoin="round"/>
<path d="M103.045 141.149C101.091 141.042 99.1729 141.706 97.6973 143.001" stroke="#263238" stroke-width="0.87381" stroke-linecap="round" stroke-linejoin="round"/>
<path d="M96.7339 126.396C96.7812 125.3 96.8321 124.204 96.8867 123.108" stroke="#263238" stroke-width="0.87381" stroke-linecap="round" stroke-linejoin="round"/>
<path d="M82.5629 112.691C81.9047 116.012 78.7168 117.212 74.8762 117.212C71.0355 117.212 67.8586 116.017 67.1895 112.707H67.3418C67.7396 112.653 68.1117 112.478 68.4089 112.206C68.706 111.934 68.9144 111.578 69.0064 111.184C69.0597 111.027 69.0873 110.862 69.088 110.696V106.8H80.8384V110.696C80.837 110.94 80.8813 111.181 80.969 111.408C81.0957 111.747 81.3106 112.045 81.5911 112.27C81.8716 112.496 82.2073 112.641 82.5629 112.691Z" fill="white"/>
<path d="M80.7401 109.715C78.7926 111.644 76.622 112.844 74.5276 112.938C72.3516 113.036 69.8275 111.239 68.7993 109.474C68.8418 109.321 68.862 109.162 68.8592 109.003V107.808L80.6095 107.934V109.003C80.6095 109.255 80.9087 109.551 80.7401 109.715Z" fill="#263238"/>
<path d="M82.5629 112.691C81.9047 116.012 78.7168 117.212 74.8762 117.212C71.0355 117.212 67.8586 116.017 67.1895 112.707H67.3418C67.7396 112.653 68.1117 112.478 68.4089 112.206C68.706 111.934 68.9144 111.578 69.0064 111.184C69.0597 111.027 69.0873 110.862 69.088 110.696V106.8H80.8384V110.696C80.837 110.94 80.8813 111.181 80.969 111.408C81.0957 111.747 81.3106 112.045 81.5911 112.27C81.8716 112.496 82.2073 112.641 82.5629 112.691V112.691Z" stroke="#263238" stroke-width="0.87381" stroke-linecap="round" stroke-linejoin="round"/>
<path d="M66.2917 98.4318C66.2917 98.4318 62.2171 93.7903 62.7502 87.3951C63.2834 81 68.4949 81 68.4949 81C68.4949 81 74.7781 75.4158 81.7903 78.9121C88.8024 82.4083 88.3183 94.5301 83.1285 97.5441L66.2917 98.4318Z" fill="#263238"/>
<path d="M84.2546 95.3083C84.309 94.2452 84.3036 93.5876 84.3036 93.5876C83.8358 90.7599 80.4031 90.4749 78.8255 90.4256C72.2159 90.2009 70.4751 86.1183 70.4751 86.1183C66.4658 84.9073 65.3289 93.5876 65.3289 93.5876C65.3289 93.5876 65.3289 94.2452 65.3833 95.3083C64.6751 95.4445 64.0391 95.8327 63.5917 96.4022C63.1442 96.9717 62.9151 97.6844 62.9462 98.41C62.9462 100.142 64.1865 101.539 65.7205 101.539C65.8757 101.538 66.0304 101.524 66.183 101.495L66.901 105.572C67.037 106.487 67.8911 108.652 68.6582 109.167C70.2902 110.263 72.8742 111.825 74.8162 111.825C76.4917 111.825 78.8418 110.433 80.5772 109.485C81.5455 108.937 82.6117 106.838 82.7042 105.737L83.1558 101.616C83.4108 101.604 83.665 101.578 83.9173 101.539C85.446 101.539 86.6917 100.142 86.6917 98.41C86.7228 97.6844 86.4937 96.9717 86.0462 96.4022C85.5988 95.8327 84.9628 95.4445 84.2546 95.3083Z" fill="white" stroke="#263238" stroke-width="0.87381" stroke-linecap="round" stroke-linejoin="round"/>
<path d="M64.0125 92.6779H63.2944V95.2535H64.0125V92.6779Z" fill="white" stroke="#263238" stroke-width="0.87381" stroke-linecap="round" stroke-linejoin="round"/>
<path d="M85.952 92.6779H85.2339V95.2535H85.952V92.6779Z" fill="white" stroke="#263238" stroke-width="0.87381" stroke-linecap="round" stroke-linejoin="round"/>
<path d="M74.6203 81.4275C71.5664 81.4269 68.6313 82.6196 66.4326 84.7547C64.2339 86.8898 62.9431 89.8008 62.8319 92.8752C62.8296 92.9324 62.839 92.9895 62.8594 93.043C62.8798 93.0965 62.9108 93.1452 62.9505 93.1863C62.9902 93.2273 63.0378 93.2597 63.0903 93.2816C63.1429 93.3035 63.1993 93.3144 63.2562 93.3136H64.0178C64.1285 93.3136 64.2348 93.2701 64.314 93.1923C64.3933 93.1145 64.4393 93.0086 64.4421 92.8971C64.5632 90.2599 65.6884 87.771 67.5839 85.9478C69.4795 84.1246 71.9995 83.1073 74.6203 83.1073C77.2412 83.1073 79.7612 84.1246 81.6567 85.9478C83.5523 87.771 84.6775 90.2599 84.7986 92.8971C84.8028 93.0091 84.8499 93.115 84.9301 93.1927C85.0102 93.2703 85.1171 93.3137 85.2283 93.3136H85.9845C86.0416 93.3144 86.0983 93.3035 86.1511 93.2817C86.204 93.2598 86.2519 93.2275 86.292 93.1865C86.3321 93.1456 86.3637 93.0969 86.3847 93.0434C86.4057 92.9899 86.4157 92.9327 86.4143 92.8752C86.3016 89.8004 85.0096 86.8893 82.8101 84.7544C80.6105 82.6194 77.6748 81.4268 74.6203 81.4275Z" fill="white" stroke="#263238" stroke-width="0.87381" stroke-linecap="round" stroke-linejoin="round"/>
<path d="M65.2365 94.3274H65.0733C64.1104 94.3645 63.1991 94.7759 62.5308 95.4753C61.8626 96.1747 61.4893 97.1077 61.4893 98.0785C61.4893 99.0492 61.8626 99.9822 62.5308 100.682C63.1991 101.381 64.1104 101.792 65.0733 101.83H65.2365V94.3274Z" fill="#263238" stroke="#263238" stroke-width="0.87381" stroke-miterlimit="10"/>
<path d="M66.1229 98.0921C66.1229 100.87 66.2426 102.679 65.2906 102.679C64.3386 102.679 64.0122 100.87 64.0122 98.0921C64.0122 95.3138 64.3386 93.4999 65.2906 93.4999C66.2426 93.4999 66.1229 95.2864 66.1229 98.0921Z" fill="white" stroke="#263238" stroke-width="0.87381" stroke-linecap="round" stroke-linejoin="round"/>
<path d="M84.0098 94.3273H84.173C85.1359 94.3644 86.0472 94.7758 86.7154 95.4752C87.3837 96.1746 87.757 97.1076 87.757 98.0783C87.757 99.0491 87.3837 99.9821 86.7154 100.681C86.0472 101.381 85.1359 101.792 84.173 101.829H84.0098V94.3273Z" fill="#263238" stroke="#263238" stroke-width="0.87381" stroke-miterlimit="10"/>
<path d="M83.1176 98.0921C83.1176 100.87 83.0033 102.679 83.9553 102.679C84.9073 102.679 85.2337 100.87 85.2337 98.0921C85.2337 95.3138 84.9073 93.4999 83.9553 93.4999C83.0033 93.4999 83.1176 95.2864 83.1176 98.0921Z" fill="white" stroke="#263238" stroke-width="0.87381" stroke-linecap="round" stroke-linejoin="round"/>
<path d="M68.2554 98.7661C68.2554 98.7661 69.8058 100.69 72.7107 99.1716" stroke="#263238" stroke-width="0.87381" stroke-linecap="round" stroke-linejoin="round"/>
<path d="M72.7109 106.246C73.3522 106.716 74.1243 106.968 74.9169 106.968C75.7094 106.968 76.4816 106.716 77.1228 106.246" stroke="#263238" stroke-width="0.75" stroke-linecap="round" stroke-linejoin="round"/>
<path d="M67.8257 96.1851C67.8257 96.1851 70.6382 94.026 73.1406 96.1851" stroke="#263238" stroke-width="0.87381" stroke-linecap="round" stroke-linejoin="round"/>
<path d="M81.6381 96.2563C81.6381 96.2563 78.8256 94.0643 76.3232 96.2563" stroke="#263238" stroke-width="0.87381" stroke-linecap="round" stroke-linejoin="round"/>
<path d="M76.9597 103.221C76.9597 103.221 77.2099 104.624 74.6586 104.591C74.033 104.591 72.896 104.142 72.8579 103.221" stroke="#263238" stroke-width="0.75" stroke-linecap="round" stroke-linejoin="round"/>
<path d="M68.8652 99.2758C69.0992 99.7416 69.6268 100.279 70.8073 100.306C71.9878 100.333 72.1945 99.8621 72.2163 99.4018C71.6902 99.659 71.1095 99.7819 70.5251 99.76C69.9408 99.738 69.3708 99.5717 68.8652 99.2758Z" fill="#263238"/>
<path d="M81.2298 98.7661C81.2298 98.7661 79.6794 100.69 76.7744 99.1716" stroke="#263238" stroke-width="0.87381" stroke-linecap="round" stroke-linejoin="round"/>
<path d="M80.6211 99.2758C80.3871 99.7416 79.8595 100.279 78.679 100.306C77.4985 100.333 77.2918 99.8621 77.27 99.4018C77.796 99.6594 78.3768 99.7827 78.9612 99.7607C79.5456 99.7387 80.1157 99.5722 80.6211 99.2758Z" fill="#263238"/>
<path d="M69.8333 78.3312C69.8333 78.3312 68.4026 79.1367 68.5604 81.4274C68.5604 81.4274 68.0599 79.882 66.2212 80.5561" stroke="#263238" stroke-width="0.87381" stroke-linecap="round" stroke-linejoin="round"/>
<path d="M74.9414 118.916C76.8164 118.916 78.6455 118.332 80.1783 117.244C81.711 116.156 82.8726 114.617 83.504 112.839C83.0089 112.762 82.5193 112.696 82.0461 112.63C81.3006 113.853 80.2563 114.863 79.013 115.564C77.7696 116.265 76.3688 116.633 74.9441 116.633C73.5195 116.633 72.1186 116.265 70.8753 115.564C69.632 114.863 68.5877 113.853 67.8422 112.63C67.3689 112.696 66.8793 112.762 66.3843 112.839C67.0153 114.616 68.1761 116.154 69.7078 117.242C71.2394 118.33 73.0673 118.915 74.9414 118.916Z" fill="#263238" stroke="#263238" stroke-width="0.87381" stroke-linecap="round" stroke-linejoin="round"/>
<path d="M95.8906 145.127C96.13 139.786 96.3712 134.443 96.6141 129.098" stroke="#263238" stroke-width="0.87381" stroke-linecap="round" stroke-linejoin="round"/>
<path d="M96.07 90.5352V84.6332C96.07 84.3426 95.9553 84.0638 95.7513 83.8582C95.5473 83.6527 95.2705 83.5372 94.982 83.5372H85.8102C85.5216 83.5372 85.2449 83.6527 85.0408 83.8582C84.8368 84.0638 84.7222 84.3426 84.7222 84.6332V90.5352C84.7222 90.8259 84.8368 91.1046 85.0408 91.3102C85.2449 91.5157 85.5216 91.6312 85.8102 91.6312H89.0089L88.7532 93.878H90.3852V95.9987L92.3381 92.5409H90.7333L90.902 91.6312H94.9765C95.1199 91.6319 95.2619 91.6041 95.3946 91.5493C95.5272 91.4946 95.6478 91.414 95.7494 91.3121C95.851 91.2103 95.9316 91.0892 95.9866 90.9559C96.0417 90.8225 96.07 90.6796 96.07 90.5352Z" fill="white" stroke="#263238" stroke-width="0.87381" stroke-linecap="round" stroke-linejoin="round"/>
<path d="M86.4961 85.5813H92.714" stroke="#263238" stroke-width="0.87381" stroke-linecap="round" stroke-linejoin="round"/>
<path d="M86.4961 87.2527H94.3134" stroke="#263238" stroke-width="0.87381" stroke-linecap="round" stroke-linejoin="round"/>
<path d="M86.4961 88.9241H93.1111" stroke="#263238" stroke-width="0.87381" stroke-linecap="round" stroke-linejoin="round"/>
<path d="M124.249 157.66C124.249 159.402 121.529 160.493 118.189 160.493C114.849 160.493 112.129 159.397 112.129 157.66C112.129 155.922 114.849 154.498 118.189 154.498C121.529 154.498 124.249 155.912 124.249 157.66Z" fill="white" stroke="#263238" stroke-width="0.87381" stroke-linecap="round" stroke-linejoin="round"/>
<path d="M114.267 159.863C114.43 159.824 114.561 158.904 113.087 158.219C112.064 157.747 112.037 157.249 112.624 156.635C113.212 156.021 114.213 155.506 114.985 155.731C116.242 156.092 117.074 158.728 117.634 158.158C118.478 157.939 117.46 155.522 115.954 154.728C118.673 155.407 118.804 158.564 120.055 158.312C121.013 158.125 119.359 154.991 117.928 154.065C118.845 154.495 119.647 155.139 120.267 155.944C121.176 157.276 121.279 157.725 121.899 157.534C122.705 157.276 120.784 154.35 120.545 154.032C121.753 154.514 121.981 155.533 122.351 155.944C122.721 156.355 122.895 157.04 123.406 156.772C123.918 156.503 123.444 155.55 123.102 154.991C121.47 152.333 118.75 151.889 116.16 152.218C114.115 152.481 111.765 153.347 110.519 154.991C110.202 155.401 110.016 155.897 109.985 156.416C109.954 156.934 110.079 157.45 110.345 157.895C110.78 158.821 112.336 160.301 114.267 159.863Z" fill="white" stroke="#263238" stroke-width="0.87381" stroke-linecap="round" stroke-linejoin="round"/>
<path d="M125.838 160.515H25.7256C25.4281 160.515 25.187 160.758 25.187 161.057V161.929C25.187 162.228 25.4281 162.471 25.7256 162.471H125.838C126.135 162.471 126.376 162.228 126.376 161.929V161.057C126.376 160.758 126.135 160.515 125.838 160.515Z" fill="#BFBFBF" stroke="#263238" stroke-width="0.87381" stroke-miterlimit="10"/>
<path d="M28.6632 160.515L21.2975 137.965C21.2697 137.877 21.2625 137.784 21.2764 137.693C21.2903 137.601 21.325 137.515 21.3777 137.439C21.4304 137.364 21.4997 137.302 21.5801 137.258C21.6606 137.214 21.75 137.19 21.8415 137.186H45.1084L53.3935 160.515H28.6632Z" fill="#263238"/>
<path d="M45.7448 137.186L53.3608 159.205H73.7609V159.978C73.7609 160.123 73.7035 160.262 73.6015 160.365C73.4995 160.468 73.3611 160.526 73.2169 160.526H52.0553L44.7276 138.096C44.6951 137.995 44.6866 137.888 44.7029 137.784C44.7191 137.679 44.7596 137.58 44.8211 137.494C44.8825 137.408 44.9632 137.338 45.0566 137.289C45.15 137.24 45.2535 137.215 45.3586 137.214L45.7448 137.186Z" fill="white" stroke="#263238" stroke-width="0.87381" stroke-linecap="round" stroke-linejoin="round"/>
<path d="M34.9406 148.853C34.8687 148.47 34.6915 148.115 34.4292 147.828C34.5431 147.693 34.6859 147.585 34.847 147.513C35.0081 147.441 35.1832 147.406 35.3594 147.412C35.7706 147.43 36.1648 147.582 36.482 147.846C36.7992 148.11 37.022 148.472 37.1166 148.875C37.1669 149.05 37.1751 149.234 37.1406 149.413C37.1061 149.591 37.0299 149.759 36.9182 149.902C36.8066 150.045 36.6627 150.159 36.4985 150.235C36.3344 150.311 36.1546 150.346 35.9742 150.338C35.557 150.329 35.1565 150.171 34.8426 149.894C34.9995 149.571 35.0343 149.201 34.9406 148.853Z" fill="white"/>
<path d="M82.0787 160.515H89.5152C90.5058 159.784 91.3086 158.825 91.8566 157.719C92.4045 156.612 92.6817 155.389 92.6649 154.152V150.629C92.6649 150.495 92.6388 150.362 92.5879 150.239C92.5371 150.115 92.4625 150.003 92.3686 149.908C92.2746 149.813 92.1631 149.738 92.0403 149.687C91.9176 149.636 91.786 149.609 91.6531 149.609H79.968C79.8354 149.609 79.704 149.636 79.5816 149.687C79.4591 149.738 79.3479 149.814 79.2544 149.908C79.1609 150.003 79.0869 150.115 79.0366 150.239C78.9864 150.363 78.9609 150.495 78.9616 150.629V154.152C78.9407 155.386 79.2126 156.607 79.7548 157.714C80.297 158.821 81.0937 159.781 82.0787 160.515Z" fill="white" stroke="#263238" stroke-width="0.87381" stroke-linecap="round" stroke-linejoin="round"/>
<path d="M94.7752 151.111C94.4618 150.912 94.1027 150.799 93.7327 150.782C93.3628 150.764 92.9948 150.844 92.6645 151.013V152.284C92.9867 152.23 93.3176 152.296 93.5947 152.47C94.6446 153.084 94.4216 154.339 93.6872 155.616C93.3513 156.339 92.7736 156.921 92.0552 157.26C91.8405 157.787 91.5687 158.289 91.2446 158.756C92.6427 159.063 93.9211 157.868 94.9221 156.125C96.0971 154.076 96.4507 152.087 94.7752 151.111Z" fill="white" stroke="#263238" stroke-width="0.87381" stroke-linecap="round" stroke-linejoin="round"/>
<path d="M85.9519 144.058C86.2222 143.171 86.3561 142.247 86.349 141.318C86.349 136.167 81.54 135.559 81.54 129.706" stroke="#263238" stroke-width="0.87381" stroke-linecap="round" stroke-linejoin="round"/>
<path d="M82.541 148.601C83.4121 148.055 84.165 147.337 84.7551 146.491" stroke="#263238" stroke-width="0.87381" stroke-linecap="round" stroke-linejoin="round"/>
<path d="M85.5338 134.616C85.2643 134.113 85.1522 133.54 85.212 132.972" stroke="#263238" stroke-width="0.87381" stroke-linecap="round" stroke-linejoin="round"/>
<path d="M89.2811 141.85C89.0363 140.239 88.117 138.726 87.2085 137.351" stroke="#263238" stroke-width="0.87381" stroke-linecap="round" stroke-linejoin="round"/>
<path d="M86.4961 148.661C86.4961 148.661 88.0846 147.987 88.955 144.946" stroke="#263238" stroke-width="0.87381" stroke-linecap="round" stroke-linejoin="round"/>
<path d="M96.2121 191.044H55.4774C52.503 191.044 50.0918 193.473 50.0918 196.469V223.595C50.0918 226.591 52.503 229.02 55.4774 229.02H96.2121C99.1865 229.02 101.598 226.591 101.598 223.595V196.469C101.598 193.473 99.1865 191.044 96.2121 191.044Z" fill="white" stroke="#263238" stroke-width="0.87381" stroke-miterlimit="10"/>
<path d="M62.9678 217.172L63.5825 228.006L63.6532 228.1C64.14 228.758 64.7743 229.291 65.5045 229.655C66.2347 230.019 67.04 230.204 67.8547 230.195C68.6694 230.186 69.4704 229.983 70.1924 229.603C70.9144 229.222 71.5369 228.675 72.009 228.006L72.2375 217.172H62.9678Z" fill="white" stroke="#263238" stroke-width="0.87381" stroke-linecap="round" stroke-linejoin="round"/>
<path d="M74.2724 238.594C70.1459 239.323 65.925 239.323 61.7985 238.594C61.4133 238.21 61.082 237.775 60.8139 237.301C60.3968 236.553 60.1611 235.716 60.1261 234.859C60.0912 234.002 60.2578 233.148 60.6126 232.369L63.0987 227.902L72.9505 228.012L75.17 232.089C75.7026 233.057 75.9321 234.164 75.8282 235.265C75.7243 236.367 75.2919 237.41 74.5879 238.26C74.4886 238.376 74.3833 238.488 74.2724 238.594Z" fill="#BFBFBF" stroke="#263238" stroke-width="0.87381" stroke-miterlimit="10"/>
<path d="M71.8511 232.971C72.4605 233.242 73.0418 233.572 73.5864 233.958L71.8511 232.971Z" fill="#BFBFBF"/>
<path d="M71.8511 232.971C72.4605 233.242 73.0418 233.572 73.5864 233.958" stroke="#263238" stroke-width="0.87381" stroke-miterlimit="10"/>
<path d="M62.5601 233.958C63.6414 233.212 64.8588 232.69 66.1419 232.422C67.425 232.154 68.7481 232.145 70.0346 232.396" fill="#BFBFBF"/>
<path d="M62.5601 233.958C63.6414 233.212 64.8588 232.69 66.1419 232.422C67.425 232.154 68.7481 232.145 70.0346 232.396" stroke="#263238" stroke-width="0.87381" stroke-miterlimit="10"/>
<path d="M57.664 172.461L62.016 222.702H73.2713C73.2713 222.702 74.3865 192.014 75.0937 172.089C75.14 170.907 74.9483 169.727 74.5303 168.622C74.1123 167.516 73.4765 166.508 72.6613 165.656C71.8461 164.805 70.8683 164.128 69.7867 163.668C68.7052 163.207 67.5423 162.971 66.368 162.975C65.1624 162.971 63.9692 163.219 62.8639 163.704C61.7586 164.189 60.7653 164.9 59.947 165.792C59.1287 166.684 58.5032 167.737 58.1102 168.885C57.7172 170.033 57.5653 171.251 57.664 172.461Z" fill="#263238"/>
<path d="M68.8649 163.332C68.0454 163.089 67.1949 162.969 66.3408 162.975V162.975C65.1375 162.975 63.9473 163.226 62.8452 163.713C61.7431 164.199 60.7531 164.911 59.9378 165.802C59.1224 166.693 58.4994 167.745 58.108 168.891C57.7167 170.038 57.5655 171.253 57.664 172.461L59.2089 191.044" stroke="white" stroke-width="0.87381" stroke-linecap="round" stroke-linejoin="round"/>
<path d="M73.565 166.756C73.1192 166.118 72.5945 165.54 72.0037 165.036C72.0037 165.036 71.3237 164.488 71.019 164.312" stroke="white" stroke-width="0.87381" stroke-linecap="round" stroke-linejoin="round"/>
<path d="M74.3481 191.044C74.5712 184.824 74.9194 177.547 75.1098 172.089C75.1618 170.734 74.9011 169.385 74.3481 168.148" stroke="white" stroke-width="0.87381" stroke-linecap="round" stroke-linejoin="round"/>
<path d="M81.2788 217.172L81.8935 228.006L81.9642 228.1C82.451 228.758 83.0854 229.291 83.8155 229.655C84.5457 230.019 85.351 230.204 86.1657 230.195C86.9804 230.186 87.7814 229.983 88.5034 229.603C89.2254 229.222 89.8479 228.675 90.3201 228.006L90.5485 217.172H81.2788Z" fill="white" stroke="#263238" stroke-width="0.87381" stroke-linecap="round" stroke-linejoin="round"/>
<path d="M92.583 238.594C88.4565 239.323 84.2356 239.323 80.1091 238.594C79.7247 238.211 79.3952 237.775 79.1299 237.301C78.7107 236.554 78.4733 235.717 78.4374 234.86C78.4015 234.002 78.5679 233.149 78.9232 232.369L81.4147 227.902L91.2611 228.012L93.4806 232.089C94.0132 233.057 94.2427 234.164 94.1388 235.265C94.0349 236.367 93.6025 237.41 92.8985 238.26C92.7992 238.376 92.6939 238.488 92.583 238.594Z" fill="#BFBFBF" stroke="#263238" stroke-width="0.87381" stroke-miterlimit="10"/>
<path d="M90.1621 232.971C90.7721 233.24 91.3535 233.571 91.8975 233.958L90.1621 232.971Z" fill="#BFBFBF"/>
<path d="M90.1621 232.971C90.7721 233.24 91.3535 233.571 91.8975 233.958" stroke="#263238" stroke-width="0.87381" stroke-miterlimit="10"/>
<path d="M80.8818 233.958C81.9633 233.212 83.1807 232.69 84.4638 232.422C85.7468 232.154 87.0699 232.145 88.3564 232.396" fill="#BFBFBF"/>
<path d="M80.8818 233.958C81.9633 233.212 83.1807 232.69 84.4638 232.422C85.7468 232.154 87.0699 232.145 88.3564 232.396" stroke="#263238" stroke-width="0.87381" stroke-miterlimit="10"/>
<path d="M75.9911 172.461L80.3431 222.702H91.5985C91.5985 222.702 92.7137 192.014 93.4263 172.089C93.4689 170.904 93.2732 169.723 92.8511 168.616C92.429 167.509 91.7892 166.5 90.9701 165.649C90.151 164.798 89.1695 164.122 88.0847 163.663C86.9998 163.203 85.8339 162.969 84.6571 162.975C83.4547 162.977 82.2657 163.229 81.1649 163.716C80.0641 164.203 79.0754 164.915 78.2613 165.806C77.4471 166.697 76.825 167.749 76.4343 168.894C76.0436 170.04 75.8927 171.254 75.9911 172.461Z" fill="#263238"/>
<path d="M88.2475 163.732C87.1176 163.225 85.8936 162.968 84.6571 162.975C83.4547 162.977 82.2657 163.229 81.1649 163.716C80.0641 164.203 79.0754 164.915 78.2613 165.806C77.4471 166.697 76.825 167.749 76.4343 168.894C76.0436 170.04 75.8927 171.254 75.9911 172.461L77.6231 191.044" stroke="white" stroke-width="0.87381" stroke-linecap="round" stroke-linejoin="round"/>
<path d="M91.8762 166.756C91.4333 166.116 90.9083 165.538 90.3149 165.036" stroke="white" stroke-width="0.87381" stroke-linecap="round" stroke-linejoin="round"/>
<path d="M93.1331 191.044C93.3562 184.824 93.231 177.547 93.4269 172.088C93.4709 170.889 93.271 169.694 92.8394 168.576" stroke="white" stroke-width="0.87381" stroke-linecap="round" stroke-linejoin="round"/>
<path d="M226.44 86.951V63.5679C226.44 62.4371 225.994 61.3527 225.2 60.5532C224.407 59.7536 223.33 59.3044 222.208 59.3044H185.792C184.67 59.3044 183.593 59.7536 182.8 60.5532C182.006 61.3527 181.56 62.4371 181.56 63.5679V86.951C181.56 88.0818 182.006 89.1662 182.8 89.9657C183.593 90.7653 184.67 91.2145 185.792 91.2145H198.473L197.472 100.114H204V108.504L211.747 94.8039H205.393L206.062 91.209H222.208C223.329 91.209 224.405 90.7606 225.199 89.9622C225.992 89.1638 226.439 88.0808 226.44 86.951Z" fill="white" stroke="#263238" stroke-width="1.02547" stroke-linecap="round" stroke-linejoin="round"/>
<path d="M188.513 67.3053H213.134" stroke="#263238" stroke-width="1.02547" stroke-linecap="round" stroke-linejoin="round"/>
<path d="M188.513 73.9307H219.488" stroke="#263238" stroke-width="1.02547" stroke-linecap="round" stroke-linejoin="round"/>
<path d="M188.513 80.5559H214.723" stroke="#263238" stroke-width="1.02547" stroke-linecap="round" stroke-linejoin="round"/>
<path d="M254.255 187.076L276.254 194.463L270.798 199.965L280.982 210.224L258.982 202.837L264.439 197.335L254.255 187.076Z" fill="#E8E8E8" stroke="#263238" stroke-width="1.02547" stroke-linecap="round" stroke-linejoin="round"/>
<path d="M153.745 187.076L131.746 194.463L137.202 199.965L127.019 210.224L149.018 202.837L143.562 197.335L153.745 187.076Z" fill="#E8E8E8" stroke="#263238" stroke-width="1.02547" stroke-linecap="round" stroke-linejoin="round"/>
<path d="M203.385 17.6127L193.011 38.5134H200.736V53.0244L211.105 32.1237H203.385V17.6127Z" fill="#E8E8E8" stroke="#263238" stroke-width="1.02547" stroke-linecap="round" stroke-linejoin="round"/>
</svg>
