<svg width="390" height="264" viewBox="0 0 390 264" fill="none" xmlns="http://www.w3.org/2000/svg">
<path d="M336.457 168.717L336.001 172.793L343.952 163.527C344.903 163.627 345.858 163.677 346.814 163.679" stroke="#263238" stroke-linecap="round" stroke-linejoin="round"/>
<path d="M326.497 140.598C325.452 142.17 324.798 143.966 324.586 145.84C323.833 152.613 329.161 159.019 337.211 161.984L336.802 165.624" stroke="#263238" stroke-linecap="round" stroke-linejoin="round"/>
<path d="M329.587 137.226C329.069 137.644 328.577 138.093 328.115 138.571" stroke="#263238" stroke-linecap="round" stroke-linejoin="round"/>
<path d="M359.403 137.226C355.774 134.746 351.577 133.216 347.2 132.776C342.573 132.211 337.879 132.899 333.612 134.768" stroke="#263238" stroke-linecap="round" stroke-linejoin="round"/>
<path d="M352.346 163.131C359.94 161.565 365.695 156.725 366.366 150.447C366.857 146.055 364.795 141.821 361.109 138.571" stroke="#263238" stroke-linecap="round" stroke-linejoin="round"/>
<path d="M333.618 141.728C334.261 141.847 334.921 141.839 335.561 141.703C336.2 141.567 336.807 141.306 337.345 140.936L340.184 143.131C339.985 143.196 340.003 142.776 340.213 142.765C340.423 142.753 340.581 142.945 340.727 143.097C341.393 143.801 342.515 143.825 343.467 143.621C344.419 143.417 345.348 143.038 346.318 143.073C346.894 143.133 347.462 143.264 348.006 143.463C351.908 144.669 355.968 145.275 360.011 145.869" stroke="#263238" stroke-linecap="round" stroke-linejoin="round"/>
<path d="M330.265 145.869C330.849 145.834 334.103 145.869 334.57 145.479L335.365 146.859L336.241 146.014C336.393 146.597 336.545 147.179 336.691 147.727C337.351 147.884 337.275 146.614 337.859 146.236C338.039 146.148 338.245 146.131 338.437 146.188C338.628 146.245 338.791 146.373 338.893 146.544C339.084 146.902 339.177 147.304 339.162 147.709L343.157 148.035L343.934 148.099C344.212 147.677 344.623 147.359 345.103 147.197C344.957 148.117 346.119 148.641 347.042 148.827C351.587 149.752 356.155 150.549 360.747 151.221" stroke="#263238" stroke-linecap="round" stroke-linejoin="round"/>
<path d="M332.041 152.194C332.409 152.45 332.858 151.972 333.308 151.914C333.758 151.856 334.126 152.194 334.523 152.398C334.921 152.601 335.575 152.514 335.598 152.071C335.692 152.654 336.416 152.863 337.006 152.945L352.347 155.094" stroke="#263238" stroke-linecap="round" stroke-linejoin="round"/>
<path d="M126.772 132.299L132.918 140.546L131.685 129.754C133.154 129.042 134.559 128.206 135.885 127.255C142.183 122.712 144.718 115.403 142.41 109.515C140.792 105.403 137.001 102.608 132.211 101.449" stroke="#263238" stroke-linecap="round" stroke-linejoin="round"/>
<path d="M102.5 119.288C102.308 121.155 102.564 123.042 103.247 124.791C105.736 131.14 113.435 134.343 121.941 133.236" stroke="#263238" stroke-linecap="round" stroke-linejoin="round"/>
<path d="M103.662 114.867C103.401 115.479 103.177 116.105 102.99 116.743" stroke="#263238" stroke-linecap="round" stroke-linejoin="round"/>
<path d="M130.067 101.053C125.696 100.532 121.264 101.117 117.18 102.753C112.821 104.397 108.986 107.181 106.081 110.814" stroke="#263238" stroke-linecap="round" stroke-linejoin="round"/>
<path d="M109.329 116.981C110.585 116.591 111.636 115.72 112.249 114.559L115.755 115.188C115.603 115.333 115.427 114.955 115.609 114.844C115.79 114.733 116.017 114.844 116.193 114.902C117.116 115.217 118.115 114.722 118.862 114.098C119.61 113.475 120.253 112.701 121.135 112.293C121.674 112.078 122.237 111.93 122.811 111.85C126.831 111.117 130.704 109.765 134.565 108.42" stroke="#263238" stroke-linecap="round" stroke-linejoin="round"/>
<path d="M108.289 122.206C108.809 121.897 111.689 120.423 111.923 119.876L113.272 120.732C113.401 120.348 113.529 119.957 113.652 119.567L114.849 120.878C115.509 120.715 114.849 119.626 115.165 119.031C115.282 118.87 115.457 118.759 115.653 118.722C115.849 118.684 116.053 118.722 116.222 118.828C116.556 119.051 116.824 119.358 116.999 119.719L120.685 118.158L121.41 117.855C121.451 117.355 121.656 116.882 121.994 116.51C122.298 117.401 123.571 117.319 124.471 117.057C128.93 115.776 133.348 114.366 137.726 112.829" stroke="#263238" stroke-linecap="round" stroke-linejoin="round"/>
<path d="M112.811 126.981C113.26 127.04 113.436 126.399 113.804 126.143C114.172 125.887 114.662 126.02 115.106 126.009C115.55 125.997 116.094 125.63 115.907 125.228C116.263 125.7 117.005 125.549 117.56 125.351L132.164 120.138" stroke="#263238" stroke-linecap="round" stroke-linejoin="round"/>
<path d="M304.905 32.3815H159.246C156.41 32.3815 154.111 34.6735 154.111 37.5008V168.321C154.111 171.148 156.41 173.44 159.246 173.44H304.905C307.741 173.44 310.04 171.148 310.04 168.321V37.5008C310.04 34.6735 307.741 32.3815 304.905 32.3815Z" fill="white"/>
<path opacity="0.2" d="M310.04 109.649V168.472C310.04 169.789 309.516 171.051 308.582 171.983C307.649 172.914 306.383 173.438 305.063 173.44H159.094C157.773 173.44 156.505 172.916 155.571 171.985C154.636 171.053 154.111 169.79 154.111 168.472V156.824H154.421V164.675C154.421 165.421 154.568 166.16 154.855 166.849C155.142 167.538 155.562 168.165 156.091 168.692C156.621 169.219 157.249 169.638 157.941 169.923C158.633 170.208 159.374 170.354 160.123 170.353H301.137C301.885 170.354 302.627 170.208 303.318 169.923C304.01 169.638 304.639 169.219 305.168 168.692C305.698 168.165 306.118 167.538 306.404 166.849C306.691 166.16 306.839 165.421 306.839 164.675V118.373C306.839 117.325 306.421 116.319 305.677 115.577C304.933 114.836 303.924 114.419 302.872 114.419H154.111V109.649H310.04Z" fill="black"/>
<path d="M304.905 32.3815H159.246C156.41 32.3815 154.111 34.6735 154.111 37.5008V168.321C154.111 171.148 156.41 173.44 159.246 173.44H304.905C307.741 173.44 310.04 171.148 310.04 168.321V37.5008C310.04 34.6735 307.741 32.3815 304.905 32.3815Z" stroke="#263238" stroke-linecap="round" stroke-linejoin="round"/>
<path d="M296.464 126.399V119.661C296.464 119.333 296.4 119.009 296.275 118.706C296.149 118.403 295.965 118.128 295.733 117.896C295.501 117.665 295.225 117.481 294.921 117.356C294.617 117.231 294.292 117.167 293.963 117.168H170.188C169.525 117.168 168.889 117.43 168.42 117.898C167.951 118.365 167.688 118.999 167.688 119.661V126.399C167.688 127.06 167.424 127.694 166.955 128.162C166.486 128.629 165.85 128.892 165.187 128.892C164.523 128.892 163.885 129.155 163.415 129.623C162.945 130.092 162.681 130.728 162.681 131.39V144.687C162.681 147.753 163.903 150.693 166.078 152.861C168.252 155.029 171.202 156.247 174.277 156.247C174.771 156.247 175.245 156.443 175.595 156.791C175.944 157.14 176.141 157.612 176.141 158.105V162.089C176.141 163.559 176.727 164.97 177.769 166.009C178.812 167.049 180.227 167.633 181.702 167.633H282.449C283.924 167.633 285.339 167.049 286.382 166.009C287.425 164.97 288.011 163.559 288.011 162.089V158.105C288.011 157.612 288.207 157.14 288.556 156.791C288.906 156.443 289.38 156.247 289.874 156.247C291.397 156.247 292.905 155.948 294.312 155.367C295.718 154.786 296.997 153.935 298.074 152.861C299.15 151.788 300.005 150.513 300.587 149.111C301.17 147.708 301.47 146.205 301.47 144.687V131.39C301.47 130.729 301.207 130.094 300.738 129.626C300.269 129.157 299.633 128.893 298.97 128.892C298.306 128.892 297.669 128.629 297.2 128.162C296.73 127.695 296.465 127.061 296.464 126.399Z" fill="#263238"/>
<path d="M177.168 120.983H172.84C172.31 120.983 171.802 121.193 171.427 121.566C171.052 121.94 170.842 122.446 170.842 122.974V124.081C170.842 126.376 172.705 129.288 175.007 129.288C177.309 129.288 179.172 126.376 179.172 124.081V122.974C179.171 122.446 178.959 121.939 178.583 121.566C178.208 121.192 177.699 120.983 177.168 120.983Z" fill="white" stroke="#263238" stroke-linecap="round" stroke-linejoin="round"/>
<path d="M187.526 120.983H183.198C182.667 120.983 182.158 121.192 181.783 121.566C181.407 121.939 181.195 122.446 181.194 122.974V124.081C181.194 126.376 183.057 129.288 185.359 129.288C187.661 129.288 189.524 126.376 189.524 124.081V122.974C189.524 122.446 189.314 121.94 188.939 121.566C188.564 121.193 188.056 120.983 187.526 120.983Z" fill="white" stroke="#263238" stroke-linecap="round" stroke-linejoin="round"/>
<path d="M197.924 120.983H193.596C193.066 120.983 192.557 121.193 192.183 121.566C191.808 121.94 191.598 122.446 191.598 122.974V124.081C191.598 126.376 193.461 129.288 195.757 129.288C198.053 129.288 199.922 126.376 199.922 124.081V122.974C199.922 122.446 199.712 121.94 199.337 121.566C198.962 121.193 198.454 120.983 197.924 120.983Z" fill="white" stroke="#263238" stroke-linecap="round" stroke-linejoin="round"/>
<path d="M208.299 120.983H203.971C203.441 120.983 202.932 121.193 202.558 121.566C202.183 121.94 201.973 122.446 201.973 122.974V124.081C201.973 126.376 203.836 129.288 206.138 129.288C208.439 129.288 210.297 126.376 210.297 124.081V122.974C210.297 122.713 210.245 122.454 210.145 122.212C210.045 121.971 209.898 121.751 209.712 121.566C209.526 121.381 209.306 121.234 209.064 121.134C208.821 121.034 208.562 120.983 208.299 120.983Z" fill="white" stroke="#263238" stroke-linecap="round" stroke-linejoin="round"/>
<path d="M218.675 120.983H214.346C213.816 120.983 213.308 121.193 212.933 121.566C212.559 121.94 212.348 122.446 212.348 122.974V124.081C212.348 126.376 214.212 129.288 216.513 129.288C218.815 129.288 220.679 126.376 220.679 124.081V122.974C220.677 122.446 220.465 121.939 220.09 121.566C219.714 121.192 219.205 120.983 218.675 120.983Z" fill="white" stroke="#263238" stroke-linecap="round" stroke-linejoin="round"/>
<path d="M229.056 120.983H224.727C224.196 120.983 223.688 121.192 223.312 121.566C222.936 121.939 222.725 122.446 222.723 122.974V124.081C222.723 126.376 224.587 129.288 226.888 129.288C229.19 129.288 231.054 126.376 231.054 124.081V122.974C231.054 122.446 230.843 121.94 230.468 121.566C230.094 121.193 229.586 120.983 229.056 120.983Z" fill="white" stroke="#263238" stroke-linecap="round" stroke-linejoin="round"/>
<path d="M239.43 120.983H235.101C234.572 120.983 234.063 121.193 233.689 121.566C233.314 121.94 233.104 122.446 233.104 122.974V124.081C233.104 126.376 234.967 129.288 237.263 129.288C239.559 129.288 241.428 126.376 241.428 124.081V122.974C241.428 122.446 241.218 121.94 240.843 121.566C240.468 121.193 239.96 120.983 239.43 120.983Z" fill="white" stroke="#263238" stroke-linecap="round" stroke-linejoin="round"/>
<path d="M249.805 120.983H245.476C244.947 120.983 244.438 121.193 244.064 121.566C243.689 121.94 243.479 122.446 243.479 122.974V124.081C243.479 126.376 245.342 129.288 247.644 129.288C249.945 129.288 251.803 126.376 251.803 124.081V122.974C251.803 122.446 251.593 121.94 251.218 121.566C250.843 121.193 250.335 120.983 249.805 120.983Z" fill="white" stroke="#263238" stroke-linecap="round" stroke-linejoin="round"/>
<path d="M260.18 120.983H255.875C255.612 120.983 255.353 121.034 255.11 121.134C254.868 121.234 254.648 121.381 254.462 121.566C254.277 121.751 254.129 121.97 254.029 122.212C253.929 122.454 253.877 122.713 253.877 122.974V124.081C253.877 126.376 255.74 129.288 258.042 129.288C260.344 129.288 262.207 126.376 262.207 124.081V122.974C262.207 122.711 262.153 122.45 262.051 122.206C261.948 121.963 261.799 121.742 261.61 121.557C261.422 121.372 261.198 121.226 260.953 121.127C260.707 121.029 260.445 120.979 260.18 120.983Z" fill="white" stroke="#263238" stroke-linecap="round" stroke-linejoin="round"/>
<path d="M270.561 120.983H266.232C265.702 120.983 265.193 121.192 264.817 121.566C264.442 121.939 264.23 122.446 264.229 122.974V124.081C264.229 126.376 266.092 129.288 268.394 129.288C270.695 129.288 272.559 126.376 272.559 124.081V122.974C272.559 122.446 272.348 121.94 271.974 121.566C271.599 121.193 271.091 120.983 270.561 120.983Z" fill="white" stroke="#263238" stroke-linecap="round" stroke-linejoin="round"/>
<path d="M280.936 120.983H276.607C276.077 120.983 275.569 121.193 275.195 121.566C274.82 121.94 274.609 122.446 274.609 122.974V124.081C274.609 126.376 276.473 129.288 278.769 129.288C281.065 129.288 282.934 126.376 282.934 124.081V122.974C282.934 122.446 282.723 121.94 282.349 121.566C281.974 121.193 281.466 120.983 280.936 120.983Z" fill="white" stroke="#263238" stroke-linecap="round" stroke-linejoin="round"/>
<path d="M291.311 120.983H286.983C286.453 120.983 285.945 121.192 285.57 121.566C285.195 121.939 284.985 122.446 284.985 122.974V124.081C284.985 126.37 286.837 129.282 289.173 129.282C291.51 129.282 293.333 126.37 293.333 124.075V122.969C293.332 122.706 293.279 122.445 293.177 122.203C293.075 121.96 292.925 121.74 292.737 121.556C292.549 121.371 292.327 121.225 292.082 121.127C291.837 121.029 291.575 120.979 291.311 120.983Z" fill="white" stroke="#263238" stroke-linecap="round" stroke-linejoin="round"/>
<path d="M177.168 142.904H172.84C172.31 142.904 171.802 143.114 171.427 143.488C171.052 143.861 170.842 144.368 170.842 144.896V146.003C170.842 148.297 172.705 151.21 175.007 151.21C177.309 151.21 179.172 148.297 179.172 146.003V144.896C179.171 144.367 178.959 143.861 178.583 143.487C178.208 143.114 177.699 142.904 177.168 142.904Z" fill="white" stroke="#263238" stroke-linecap="round" stroke-linejoin="round"/>
<path d="M187.526 142.904H183.198C182.667 142.904 182.158 143.114 181.783 143.487C181.407 143.861 181.195 144.367 181.194 144.896V146.003C181.194 148.297 183.057 151.21 185.359 151.21C187.661 151.21 189.524 148.297 189.524 146.003V144.896C189.524 144.368 189.314 143.861 188.939 143.488C188.564 143.114 188.056 142.904 187.526 142.904Z" fill="white" stroke="#263238" stroke-linecap="round" stroke-linejoin="round"/>
<path d="M197.924 142.904H193.596C193.066 142.904 192.557 143.114 192.183 143.488C191.808 143.861 191.598 144.368 191.598 144.896V146.003C191.598 148.297 193.461 151.21 195.757 151.21C198.053 151.21 199.922 148.297 199.922 146.003V144.896C199.922 144.368 199.712 143.861 199.337 143.488C198.962 143.114 198.454 142.904 197.924 142.904Z" fill="white" stroke="#263238" stroke-linecap="round" stroke-linejoin="round"/>
<path d="M208.299 142.904H203.971C203.441 142.904 202.932 143.114 202.558 143.488C202.183 143.861 201.973 144.368 201.973 144.896V146.003C201.973 148.297 203.836 151.21 206.138 151.21C208.439 151.21 210.297 148.297 210.297 146.003V144.896C210.297 144.635 210.245 144.376 210.145 144.134C210.045 143.892 209.898 143.673 209.712 143.488C209.526 143.303 209.306 143.156 209.064 143.056C208.821 142.956 208.562 142.904 208.299 142.904Z" fill="white" stroke="#263238" stroke-linecap="round" stroke-linejoin="round"/>
<path d="M218.675 142.904H214.346C213.816 142.904 213.308 143.114 212.933 143.488C212.559 143.861 212.348 144.368 212.348 144.896V146.003C212.348 148.297 214.212 151.21 216.513 151.21C218.815 151.21 220.679 148.297 220.679 146.003V144.896C220.677 144.367 220.465 143.861 220.09 143.487C219.714 143.114 219.205 142.904 218.675 142.904Z" fill="white" stroke="#263238" stroke-linecap="round" stroke-linejoin="round"/>
<path d="M229.056 142.904H224.727C224.196 142.904 223.688 143.114 223.312 143.487C222.936 143.861 222.725 144.367 222.723 144.896V146.003C222.723 148.297 224.587 151.21 226.888 151.21C229.19 151.21 231.054 148.297 231.054 146.003V144.896C231.054 144.368 230.843 143.861 230.468 143.488C230.094 143.114 229.586 142.904 229.056 142.904Z" fill="white" stroke="#263238" stroke-linecap="round" stroke-linejoin="round"/>
<path d="M239.43 142.904H235.101C234.572 142.904 234.063 143.114 233.689 143.488C233.314 143.861 233.104 144.368 233.104 144.896V146.003C233.104 148.297 234.967 151.21 237.263 151.21C239.559 151.21 241.428 148.297 241.428 146.003V144.896C241.428 144.368 241.218 143.861 240.843 143.488C240.468 143.114 239.96 142.904 239.43 142.904Z" fill="white" stroke="#263238" stroke-linecap="round" stroke-linejoin="round"/>
<path d="M249.805 142.904H245.476C244.947 142.904 244.438 143.114 244.064 143.488C243.689 143.861 243.479 144.368 243.479 144.896V146.003C243.479 148.297 245.342 151.21 247.644 151.21C249.945 151.21 251.803 148.297 251.803 146.003V144.896C251.803 144.368 251.593 143.861 251.218 143.488C250.843 143.114 250.335 142.904 249.805 142.904Z" fill="white" stroke="#263238" stroke-linecap="round" stroke-linejoin="round"/>
<path d="M260.18 142.904H255.875C255.612 142.904 255.353 142.956 255.11 143.056C254.868 143.156 254.648 143.303 254.462 143.488C254.277 143.673 254.129 143.892 254.029 144.134C253.929 144.376 253.877 144.635 253.877 144.896V146.003C253.877 148.297 255.74 151.21 258.042 151.21C260.344 151.21 262.207 148.297 262.207 146.003V144.896C262.207 144.632 262.153 144.371 262.051 144.128C261.948 143.885 261.799 143.664 261.61 143.479C261.422 143.294 261.198 143.148 260.953 143.049C260.707 142.951 260.445 142.901 260.18 142.904Z" fill="white" stroke="#263238" stroke-linecap="round" stroke-linejoin="round"/>
<path d="M270.561 142.904H266.232C265.702 142.904 265.193 143.114 264.817 143.487C264.442 143.861 264.23 144.367 264.229 144.896V146.003C264.229 148.297 266.092 151.21 268.394 151.21C270.695 151.21 272.559 148.297 272.559 146.003V144.896C272.559 144.368 272.348 143.861 271.974 143.488C271.599 143.114 271.091 142.904 270.561 142.904Z" fill="white" stroke="#263238" stroke-linecap="round" stroke-linejoin="round"/>
<path d="M280.936 142.904H276.607C276.077 142.904 275.569 143.114 275.195 143.488C274.82 143.861 274.609 144.368 274.609 144.896V146.003C274.609 148.297 276.473 151.21 278.769 151.21C281.065 151.21 282.934 148.297 282.934 146.003V144.896C282.934 144.368 282.723 143.861 282.349 143.488C281.974 143.114 281.466 142.904 280.936 142.904Z" fill="white" stroke="#263238" stroke-linecap="round" stroke-linejoin="round"/>
<path d="M291.311 142.904H286.983C286.453 142.904 285.945 143.114 285.57 143.488C285.195 143.861 284.985 144.368 284.985 144.896V146.003C284.985 148.297 286.848 151.21 289.15 151.21C291.452 151.21 293.309 148.297 293.309 146.003V144.896C293.309 144.368 293.099 143.861 292.724 143.488C292.35 143.114 291.841 142.904 291.311 142.904Z" fill="white" stroke="#263238" stroke-linecap="round" stroke-linejoin="round"/>
<path d="M171.981 132.299H167.664C167.134 132.299 166.626 132.509 166.251 132.882C165.877 133.256 165.666 133.762 165.666 134.291V135.397C165.666 137.686 167.53 140.604 169.831 140.604C172.133 140.604 173.991 137.692 173.991 135.397V134.291C173.991 134.028 173.938 133.768 173.837 133.526C173.736 133.283 173.588 133.063 173.401 132.878C173.214 132.693 172.993 132.546 172.749 132.447C172.505 132.348 172.244 132.297 171.981 132.299Z" fill="white" stroke="#263238" stroke-linecap="round" stroke-linejoin="round"/>
<path d="M182.356 132.299H178.028C177.498 132.299 176.99 132.509 176.615 132.882C176.24 133.256 176.03 133.762 176.03 134.291V135.397C176.03 137.686 177.893 140.604 180.195 140.604C182.497 140.604 184.36 137.692 184.36 135.397V134.291C184.359 133.762 184.147 133.255 183.771 132.882C183.396 132.508 182.887 132.299 182.356 132.299Z" fill="white" stroke="#263238" stroke-linecap="round" stroke-linejoin="round"/>
<path d="M192.737 132.299H188.409C187.878 132.299 187.369 132.508 186.994 132.882C186.618 133.255 186.406 133.762 186.405 134.291V135.397C186.405 137.686 188.274 140.604 190.57 140.604C192.866 140.604 194.735 137.692 194.735 135.397V134.291C194.735 133.762 194.525 133.256 194.15 132.882C193.775 132.509 193.267 132.299 192.737 132.299Z" fill="white" stroke="#263238" stroke-linecap="round" stroke-linejoin="round"/>
<path d="M203.112 132.299H198.783C198.253 132.299 197.745 132.509 197.37 132.882C196.996 133.256 196.785 133.762 196.785 134.291V135.397C196.785 137.686 198.649 140.604 200.944 140.604C203.24 140.604 205.11 137.692 205.11 135.397V134.291C205.11 134.029 205.058 133.77 204.958 133.528C204.857 133.287 204.71 133.067 204.525 132.882C204.339 132.697 204.119 132.55 203.876 132.45C203.634 132.35 203.374 132.299 203.112 132.299Z" fill="white" stroke="#263238" stroke-linecap="round" stroke-linejoin="round"/>
<path d="M213.487 132.299H209.14C208.611 132.299 208.102 132.509 207.728 132.882C207.353 133.256 207.143 133.762 207.143 134.291V135.397C207.143 137.686 209.006 140.604 211.308 140.604C213.609 140.604 215.467 137.692 215.467 135.397V134.291C215.467 133.765 215.259 133.261 214.888 132.888C214.517 132.515 214.014 132.303 213.487 132.299Z" fill="white" stroke="#263238" stroke-linecap="round" stroke-linejoin="round"/>
<path d="M223.862 132.299H219.534C219.004 132.299 218.495 132.509 218.121 132.882C217.746 133.256 217.536 133.762 217.536 134.291V135.397C217.536 137.686 219.399 140.604 221.701 140.604C224.002 140.604 225.866 137.692 225.866 135.397V134.291C225.864 133.762 225.653 133.255 225.277 132.882C224.901 132.508 224.393 132.299 223.862 132.299Z" fill="white" stroke="#263238" stroke-linecap="round" stroke-linejoin="round"/>
<path d="M234.26 132.299H229.931C229.401 132.299 228.892 132.508 228.517 132.882C228.141 133.255 227.929 133.762 227.928 134.291V135.397C227.928 137.686 229.797 140.604 232.093 140.604C234.389 140.604 236.258 137.692 236.258 135.397V134.291C236.258 133.762 236.048 133.256 235.673 132.882C235.298 132.509 234.79 132.299 234.26 132.299Z" fill="white" stroke="#263238" stroke-linecap="round" stroke-linejoin="round"/>
<path d="M244.618 132.299H240.289C239.759 132.299 239.251 132.509 238.876 132.882C238.502 133.256 238.291 133.762 238.291 134.291V135.397C238.291 137.686 240.155 140.604 242.45 140.604C244.746 140.604 246.616 137.692 246.616 135.397V134.291C246.616 133.762 246.405 133.256 246.03 132.882C245.656 132.509 245.148 132.299 244.618 132.299Z" fill="white" stroke="#263238" stroke-linecap="round" stroke-linejoin="round"/>
<path d="M254.993 132.299H250.664C250.134 132.299 249.626 132.509 249.251 132.882C248.876 133.256 248.666 133.762 248.666 134.291V135.397C248.666 137.686 250.53 140.604 252.831 140.604C255.133 140.604 256.991 137.692 256.991 135.397V134.291C256.991 133.762 256.78 133.256 256.405 132.882C256.031 132.509 255.523 132.299 254.993 132.299Z" fill="white" stroke="#263238" stroke-linecap="round" stroke-linejoin="round"/>
<path d="M265.368 132.299H261.039C260.509 132.299 260.001 132.509 259.626 132.882C259.251 133.256 259.041 133.762 259.041 134.291V135.397C259.041 137.686 260.905 140.604 263.206 140.604C265.508 140.604 267.371 137.692 267.371 135.397V134.291C267.37 133.762 267.158 133.255 266.782 132.882C266.407 132.508 265.898 132.299 265.368 132.299Z" fill="white" stroke="#263238" stroke-linecap="round" stroke-linejoin="round"/>
<path d="M275.737 132.299H271.408C270.878 132.299 270.369 132.508 269.993 132.882C269.618 133.255 269.406 133.762 269.404 134.291V135.397C269.404 137.686 271.274 140.604 273.569 140.604C275.865 140.604 277.735 137.692 277.735 135.397V134.291C277.735 133.762 277.524 133.256 277.15 132.882C276.775 132.509 276.267 132.299 275.737 132.299Z" fill="white" stroke="#263238" stroke-linecap="round" stroke-linejoin="round"/>
<path d="M286.124 132.299H281.795C281.27 132.306 280.769 132.52 280.401 132.892C280.033 133.265 279.826 133.767 279.826 134.291V135.397C279.826 137.686 281.69 140.604 283.985 140.604C286.281 140.604 288.151 137.692 288.151 135.397V134.291C288.151 134.027 288.098 133.765 287.996 133.522C287.894 133.278 287.744 133.057 287.555 132.872C287.367 132.686 287.143 132.54 286.897 132.442C286.651 132.344 286.388 132.295 286.124 132.299Z" fill="white" stroke="#263238" stroke-linecap="round" stroke-linejoin="round"/>
<path d="M296.499 132.299H292.17C291.64 132.299 291.132 132.509 290.758 132.882C290.383 133.256 290.172 133.762 290.172 134.291V135.397C290.172 137.686 292.036 140.604 294.338 140.604C296.639 140.604 298.497 137.692 298.497 135.397V134.291C298.497 133.762 298.286 133.256 297.912 132.882C297.537 132.509 297.029 132.299 296.499 132.299Z" fill="white" stroke="#263238" stroke-linecap="round" stroke-linejoin="round"/>
<path d="M271.706 153.947H192.445C191.409 153.947 190.57 154.784 190.57 155.816V161.489C190.57 162.521 191.409 163.358 192.445 163.358H271.706C272.742 163.358 273.581 162.521 273.581 161.489V155.816C273.581 154.784 272.742 153.947 271.706 153.947Z" fill="white" stroke="#263238" stroke-linecap="round" stroke-linejoin="round"/>
<path d="M282.321 154.5H277.992C277.462 154.5 276.954 154.71 276.579 155.084C276.205 155.457 275.994 155.964 275.994 156.492V157.599C275.994 159.893 277.858 162.805 280.159 162.805C282.461 162.805 284.319 159.893 284.319 157.599V156.492C284.319 155.964 284.108 155.457 283.733 155.084C283.359 154.71 282.851 154.5 282.321 154.5Z" fill="white" stroke="#263238" stroke-linecap="round" stroke-linejoin="round"/>
<path d="M186.159 154.5H181.83C181.301 154.5 180.792 154.71 180.418 155.084C180.043 155.457 179.833 155.964 179.833 156.492V157.599C179.833 159.893 181.696 162.805 183.998 162.805C186.299 162.805 188.163 159.893 188.163 157.599V156.492C188.161 155.963 187.95 155.457 187.574 155.083C187.198 154.71 186.69 154.5 186.159 154.5Z" fill="white" stroke="#263238" stroke-linecap="round" stroke-linejoin="round"/>
<path opacity="0.2" d="M177.408 124.145C177.618 124.146 177.827 124.165 178.033 124.203C178.033 124.162 178.033 124.122 178.033 124.081V122.974C178.032 122.745 177.94 122.526 177.776 122.365C177.613 122.203 177.393 122.112 177.163 122.112H172.834C172.605 122.114 172.386 122.205 172.225 122.367C172.063 122.528 171.971 122.746 171.97 122.974V124.081C171.97 125.671 173.138 127.674 174.517 128.076C174.09 126.312 175.048 124.145 177.408 124.145Z" fill="black"/>
<path opacity="0.2" d="M188.017 123.848C188.149 123.839 188.282 123.839 188.414 123.848V122.951C188.413 122.723 188.321 122.505 188.159 122.343C187.998 122.182 187.779 122.091 187.55 122.089H183.221C182.991 122.089 182.771 122.18 182.608 122.341C182.445 122.503 182.352 122.722 182.351 122.951V124.058C182.351 125.805 183.735 127.989 185.271 128.135C184.565 126.329 185.493 123.848 188.017 123.848Z" fill="black"/>
<path opacity="0.2" d="M198.701 123.697H198.789V122.969C198.789 122.74 198.698 122.521 198.536 122.359C198.373 122.197 198.154 122.107 197.924 122.107H193.596C193.366 122.107 193.145 122.197 192.982 122.359C192.819 122.52 192.727 122.739 192.725 122.969V124.075C192.725 125.851 194.197 128.152 195.757 128.152C195.833 128.158 195.909 128.158 195.985 128.152C195.202 126.312 196.107 123.697 198.701 123.697Z" fill="black"/>
<path opacity="0.2" d="M208.417 123.4C208.659 123.393 208.902 123.412 209.141 123.458V122.951C209.141 122.723 209.05 122.503 208.888 122.342C208.726 122.18 208.506 122.089 208.276 122.089H203.948C203.718 122.089 203.498 122.18 203.336 122.342C203.174 122.503 203.083 122.723 203.083 122.951V124.058C203.083 125.723 204.368 127.843 205.817 128.135C204.824 126.306 205.683 123.4 208.417 123.4Z" fill="black"/>
<path opacity="0.2" d="M219.323 123.399H219.545V122.963C219.544 122.734 219.451 122.514 219.288 122.353C219.125 122.191 218.905 122.101 218.675 122.101H214.346C214.117 122.102 213.898 122.194 213.736 122.355C213.575 122.516 213.483 122.735 213.481 122.963V124.069C213.481 125.846 214.954 128.146 216.513 128.146C216.593 128.152 216.673 128.152 216.753 128.146C215.731 126.311 216.589 123.399 219.323 123.399Z" fill="black"/>
<path opacity="0.2" d="M229.785 123.458H229.92V122.951C229.918 122.723 229.827 122.505 229.665 122.343C229.503 122.182 229.284 122.091 229.055 122.089H224.726C224.497 122.089 224.276 122.18 224.113 122.341C223.95 122.503 223.857 122.722 223.856 122.951V124.058C223.856 125.834 225.328 128.135 226.888 128.135C226.983 128.143 227.079 128.143 227.174 128.135C226.216 126.3 227.086 123.458 229.785 123.458Z" fill="black"/>
<path opacity="0.2" d="M239.798 123.4C239.964 123.402 240.13 123.414 240.295 123.434V122.974C240.295 122.746 240.204 122.527 240.042 122.365C239.879 122.203 239.659 122.112 239.43 122.112H235.101C234.872 122.112 234.652 122.203 234.49 122.365C234.328 122.527 234.237 122.746 234.237 122.974V124.081C234.237 125.828 235.686 128.123 237.234 128.158C236.2 126.329 237.053 123.4 239.798 123.4Z" fill="black"/>
<path opacity="0.2" d="M250.67 123.551V122.969C250.67 122.74 250.579 122.521 250.417 122.359C250.255 122.197 250.035 122.107 249.806 122.107H245.477C245.248 122.107 245.028 122.197 244.866 122.359C244.703 122.521 244.612 122.74 244.612 122.969V124.075C244.612 125.851 246.079 128.152 247.644 128.152C247.801 128.15 247.956 128.124 248.106 128.076C247.264 126.282 248.123 123.632 250.67 123.551Z" fill="black"/>
<path opacity="0.2" d="M260.198 123.324C260.486 123.323 260.772 123.36 261.051 123.434V122.974C261.049 122.745 260.957 122.526 260.794 122.365C260.631 122.203 260.41 122.112 260.18 122.112H255.875C255.646 122.114 255.427 122.205 255.265 122.367C255.103 122.528 255.012 122.746 255.01 122.974V124.081C255.01 125.723 256.26 127.797 257.68 128.111C256.588 126.288 257.435 123.324 260.198 123.324Z" fill="black"/>
<path opacity="0.2" d="M270.806 123.324C271.014 123.325 271.221 123.344 271.426 123.382V122.974C271.424 122.746 271.332 122.528 271.171 122.367C271.009 122.205 270.79 122.114 270.561 122.112H266.232C266.002 122.112 265.782 122.203 265.619 122.365C265.456 122.526 265.363 122.745 265.362 122.974V124.081C265.362 125.828 266.764 128.047 268.283 128.158C267.184 126.329 268.026 123.324 270.806 123.324Z" fill="black"/>
<path opacity="0.2" d="M281.345 123.621C281.497 123.623 281.65 123.635 281.801 123.656V122.974C281.801 122.746 281.71 122.527 281.547 122.365C281.385 122.203 281.165 122.112 280.936 122.112H276.607C276.494 122.112 276.381 122.135 276.276 122.178C276.171 122.221 276.076 122.285 275.996 122.365C275.916 122.445 275.852 122.54 275.808 122.645C275.765 122.749 275.743 122.861 275.743 122.974V124.081C275.743 125.828 277.145 128.041 278.664 128.158C277.817 126.317 278.71 123.621 281.345 123.621Z" fill="black"/>
<path opacity="0.2" d="M292.176 123.487V122.974C292.176 122.746 292.084 122.527 291.922 122.365C291.76 122.203 291.54 122.112 291.311 122.112H286.982C286.753 122.112 286.533 122.203 286.371 122.365C286.209 122.527 286.118 122.746 286.118 122.974V124.081C286.118 125.857 287.584 128.158 289.15 128.158C289.375 128.155 289.597 128.107 289.804 128.018C288.974 126.259 289.757 123.685 292.176 123.487Z" fill="black"/>
<path opacity="0.2" d="M177.706 145.007C177.817 145.001 177.928 145.001 178.039 145.007V144.885C178.038 144.655 177.945 144.436 177.782 144.275C177.619 144.113 177.399 144.023 177.169 144.023H172.84C172.611 144.024 172.392 144.115 172.231 144.277C172.069 144.438 171.977 144.656 171.976 144.885V145.991C171.976 147.767 173.448 150.068 175.007 150.068C175.115 150.065 175.223 150.054 175.329 150.033C174.02 148.262 174.815 145.007 177.706 145.007Z" fill="black"/>
<path opacity="0.2" d="M187.871 145.007C188.053 145.007 188.235 145.023 188.414 145.053V144.902C188.413 144.674 188.321 144.456 188.159 144.294C187.998 144.133 187.779 144.042 187.55 144.04H183.221C182.991 144.04 182.771 144.131 182.608 144.292C182.445 144.454 182.352 144.673 182.351 144.902V146.009C182.351 147.785 183.823 150.085 185.382 150.085H185.511C184.173 148.292 184.962 145.007 187.871 145.007Z" fill="black"/>
<path opacity="0.2" d="M198.181 145.153C198.377 145.153 198.573 145.171 198.765 145.205V144.896C198.765 144.783 198.743 144.671 198.7 144.566C198.656 144.462 198.592 144.367 198.512 144.287C198.432 144.207 198.337 144.143 198.232 144.1C198.127 144.057 198.014 144.034 197.901 144.034H193.572C193.342 144.034 193.122 144.125 192.959 144.286C192.796 144.448 192.703 144.667 192.702 144.896V146.003C192.702 147.75 194.15 150.039 195.698 150.08C194.536 148.268 195.348 145.153 198.181 145.153Z" fill="black"/>
<path opacity="0.2" d="M208.715 145.228C208.865 145.229 209.015 145.238 209.164 145.257V144.896C209.164 144.783 209.142 144.671 209.099 144.566C209.055 144.462 208.991 144.367 208.911 144.287C208.831 144.207 208.736 144.143 208.631 144.1C208.526 144.057 208.413 144.034 208.3 144.034H203.971C203.857 144.034 203.745 144.057 203.64 144.1C203.535 144.143 203.44 144.207 203.36 144.287C203.279 144.367 203.216 144.462 203.172 144.566C203.129 144.671 203.106 144.783 203.106 144.896V146.003C203.106 147.779 204.573 150.08 206.138 150.08H206.208C205.087 148.257 205.922 145.228 208.715 145.228Z" fill="black"/>
<path opacity="0.2" d="M218.879 145.007C219.103 145.007 219.326 145.028 219.545 145.071V144.902C219.544 144.673 219.451 144.454 219.288 144.292C219.125 144.131 218.905 144.04 218.675 144.04H214.346C214.117 144.042 213.898 144.133 213.736 144.294C213.575 144.456 213.483 144.674 213.481 144.902V146.009C213.481 147.785 214.954 150.085 216.513 150.085C215.181 148.303 215.964 145.007 218.879 145.007Z" fill="black"/>
<path opacity="0.2" d="M229.411 145.077C229.582 145.078 229.752 145.092 229.92 145.118V144.896C229.918 144.668 229.827 144.45 229.665 144.288C229.503 144.127 229.284 144.036 229.055 144.034H224.726C224.497 144.034 224.276 144.125 224.113 144.286C223.95 144.448 223.857 144.667 223.856 144.896V146.003C223.856 147.779 225.328 150.08 226.888 150.08H226.999C225.737 148.274 226.543 145.077 229.411 145.077Z" fill="black"/>
<path opacity="0.2" d="M240.172 145.298H240.295V144.89C240.295 144.662 240.204 144.443 240.042 144.281C239.879 144.119 239.659 144.028 239.43 144.028H235.101C234.872 144.028 234.652 144.119 234.49 144.281C234.328 144.443 234.237 144.662 234.237 144.89V145.997C234.237 147.773 235.703 150.074 237.263 150.074C237.377 150.072 237.49 150.058 237.602 150.033C236.597 148.216 237.432 145.298 240.172 145.298Z" fill="black"/>
<path opacity="0.2" d="M250.618 145.077H250.653V144.896C250.653 144.783 250.63 144.671 250.587 144.566C250.543 144.462 250.48 144.367 250.4 144.287C250.319 144.207 250.224 144.143 250.119 144.1C250.014 144.057 249.902 144.034 249.788 144.034H245.477C245.363 144.034 245.251 144.057 245.146 144.1C245.041 144.143 244.946 144.207 244.866 144.287C244.785 144.367 244.722 144.462 244.678 144.566C244.635 144.671 244.612 144.783 244.612 144.896V146.003C244.612 147.779 246.079 150.08 247.644 150.08C247.823 150.077 248.001 150.046 248.17 149.987C246.984 148.181 247.808 145.077 250.618 145.077Z" fill="black"/>
<path opacity="0.2" d="M260.718 144.855H261.045C261.036 144.632 260.941 144.421 260.78 144.266C260.619 144.111 260.404 144.024 260.18 144.023H255.875C255.646 144.024 255.427 144.115 255.265 144.277C255.103 144.438 255.012 144.656 255.01 144.885V145.991C255.01 147.767 256.482 150.068 258.042 150.068C258.184 150.064 258.326 150.042 258.463 150.004C256.996 148.268 257.756 144.855 260.718 144.855Z" fill="black"/>
<path opacity="0.2" d="M271.408 145.007V144.902C271.406 144.674 271.315 144.456 271.153 144.294C270.991 144.133 270.772 144.042 270.543 144.04H266.215C265.985 144.04 265.764 144.131 265.601 144.292C265.438 144.454 265.346 144.673 265.344 144.902V146.009C265.344 147.785 266.816 150.085 268.376 150.085C268.575 150.082 268.773 150.047 268.96 149.981C267.739 148.175 268.546 145.007 271.408 145.007Z" fill="black"/>
<path opacity="0.2" d="M281.579 145.007H281.813V144.89C281.813 144.777 281.79 144.665 281.747 144.561C281.704 144.456 281.64 144.361 281.56 144.281C281.479 144.201 281.384 144.137 281.279 144.094C281.174 144.051 281.062 144.028 280.948 144.028H276.619C276.39 144.028 276.17 144.119 276.008 144.281C275.846 144.443 275.755 144.662 275.755 144.89V145.997C275.755 147.773 277.221 150.074 278.781 150.074C278.919 150.072 279.057 150.052 279.19 150.016C277.887 148.233 278.687 145.007 281.579 145.007Z" fill="black"/>
<path opacity="0.2" d="M291.802 145.449C291.93 145.449 292.059 145.449 292.176 145.449V144.867C292.176 144.638 292.084 144.419 291.922 144.258C291.76 144.096 291.54 144.005 291.311 144.005H286.982C286.753 144.005 286.533 144.096 286.371 144.258C286.209 144.419 286.118 144.638 286.118 144.867V145.974C286.118 147.75 287.584 150.05 289.15 150.05C288.244 148.245 289.12 145.449 291.802 145.449Z" fill="black"/>
<path opacity="0.2" d="M172.776 134.576H172.852V134.291C172.85 134.061 172.758 133.842 172.595 133.681C172.432 133.519 172.211 133.429 171.981 133.429H167.664C167.435 133.429 167.215 133.519 167.053 133.681C166.891 133.843 166.8 134.062 166.8 134.291V135.397C166.8 137.173 168.266 139.474 169.832 139.474C169.982 139.47 170.131 139.447 170.276 139.404C169.154 137.587 170.001 134.576 172.776 134.576Z" fill="black"/>
<path opacity="0.2" d="M182.935 134.576H183.227V134.279C183.225 134.05 183.133 133.83 182.97 133.669C182.807 133.507 182.586 133.417 182.356 133.417H178.028C177.799 133.418 177.58 133.51 177.418 133.671C177.256 133.832 177.165 134.051 177.163 134.279V135.385C177.163 137.162 178.635 139.462 180.195 139.462C180.281 139.468 180.366 139.468 180.452 139.462C179.301 137.639 180.131 134.576 182.935 134.576Z" fill="black"/>
<path opacity="0.2" d="M193.549 134.576H193.602V134.291C193.6 134.062 193.509 133.844 193.347 133.683C193.185 133.521 192.966 133.43 192.737 133.429H188.408C188.294 133.427 188.18 133.448 188.073 133.491C187.967 133.533 187.869 133.597 187.787 133.677C187.706 133.757 187.64 133.852 187.595 133.958C187.551 134.063 187.527 134.176 187.526 134.291V135.397C187.526 137.174 188.998 139.474 190.558 139.474C190.715 139.472 190.871 139.447 191.02 139.398C189.927 137.587 190.763 134.576 193.549 134.576Z" fill="black"/>
<path opacity="0.2" d="M203.708 134.524H203.976V134.302C203.976 134.074 203.885 133.854 203.723 133.693C203.561 133.531 203.341 133.44 203.112 133.44H198.783C198.554 133.44 198.334 133.531 198.172 133.693C198.01 133.854 197.918 134.074 197.918 134.302V135.409C197.918 137.185 199.385 139.486 200.944 139.486C201.05 139.483 201.156 139.472 201.26 139.451C200.051 137.639 200.869 134.524 203.708 134.524Z" fill="black"/>
<path opacity="0.2" d="M213.814 134.576C214 134.576 214.186 134.592 214.369 134.623V134.291C214.369 134.062 214.278 133.843 214.116 133.681C213.954 133.519 213.734 133.429 213.505 133.429H209.141C208.912 133.429 208.692 133.519 208.53 133.681C208.367 133.843 208.276 134.062 208.276 134.291V135.397C208.276 137.173 209.743 139.474 211.308 139.474C210.152 137.663 210.975 134.576 213.814 134.576Z" fill="black"/>
<path opacity="0.2" d="M224.259 134.203C224.415 134.204 224.571 134.214 224.726 134.232C224.71 134.014 224.612 133.811 224.452 133.662C224.292 133.513 224.081 133.429 223.862 133.429H219.533C219.304 133.43 219.085 133.521 218.923 133.683C218.762 133.844 218.67 134.062 218.668 134.291V135.397C218.668 137.173 220.141 139.474 221.7 139.474C221.812 139.472 221.924 139.458 222.033 139.433C220.514 137.703 221.256 134.203 224.259 134.203Z" fill="black"/>
<path opacity="0.2" d="M234.716 134.646C234.85 134.646 234.985 134.646 235.107 134.646V134.267C235.106 134.039 235.014 133.821 234.852 133.659C234.69 133.498 234.471 133.407 234.243 133.405H229.914C229.684 133.405 229.464 133.496 229.3 133.657C229.137 133.819 229.045 134.038 229.043 134.267V135.374C229.043 137.15 230.516 139.451 232.075 139.451H232.192C231.1 137.645 231.923 134.646 234.716 134.646Z" fill="black"/>
<path opacity="0.2" d="M245.482 134.291C245.482 134.062 245.391 133.843 245.229 133.681C245.067 133.519 244.847 133.429 244.618 133.429H240.289C240.175 133.429 240.063 133.451 239.958 133.494C239.853 133.538 239.758 133.601 239.678 133.681C239.597 133.761 239.534 133.856 239.49 133.961C239.447 134.065 239.424 134.177 239.424 134.291V135.397C239.424 137.173 240.891 139.474 242.45 139.474C242.762 139.466 243.067 139.382 243.338 139.229C242.158 137.494 242.871 134.524 245.482 134.291Z" fill="black"/>
<path opacity="0.2" d="M255.875 134.524V134.302C255.875 134.074 255.784 133.854 255.622 133.693C255.459 133.531 255.24 133.44 255.01 133.44H250.681C250.452 133.44 250.232 133.531 250.07 133.693C249.908 133.854 249.817 134.074 249.817 134.302V135.409C249.817 137.185 251.283 139.486 252.849 139.486C253.1 139.482 253.347 139.424 253.573 139.317C252.504 137.54 253.269 134.669 255.875 134.524Z" fill="black"/>
<path opacity="0.2" d="M265.876 134.349C265.999 134.349 266.121 134.349 266.238 134.349V134.273C266.237 134.044 266.144 133.825 265.981 133.663C265.818 133.502 265.598 133.411 265.368 133.411H261.039C260.81 133.413 260.591 133.504 260.429 133.665C260.267 133.826 260.176 134.045 260.174 134.273V135.38C260.174 137.156 261.646 139.456 263.206 139.456C263.316 139.455 263.426 139.441 263.533 139.416C262.178 137.663 262.955 134.349 265.876 134.349Z" fill="black"/>
<path opacity="0.2" d="M276.613 134.727V134.291C276.612 134.062 276.52 133.844 276.358 133.683C276.196 133.521 275.977 133.43 275.748 133.429H271.42C271.19 133.429 270.969 133.519 270.806 133.681C270.643 133.842 270.551 134.061 270.549 134.291V135.397C270.549 137.173 272.021 139.474 273.581 139.474C273.758 139.471 273.933 139.442 274.101 139.387C273.149 137.581 273.984 134.797 276.613 134.727Z" fill="black"/>
<path opacity="0.2" d="M286.498 134.424C286.662 134.427 286.826 134.438 286.989 134.459V134.291C286.989 134.062 286.897 133.843 286.735 133.681C286.573 133.519 286.353 133.429 286.124 133.429H281.795C281.682 133.429 281.569 133.451 281.464 133.494C281.359 133.538 281.264 133.601 281.184 133.681C281.104 133.761 281.04 133.856 280.996 133.961C280.953 134.065 280.931 134.177 280.931 134.291V135.397C280.931 137.173 282.397 139.474 283.957 139.474C284.011 139.477 284.066 139.477 284.12 139.474C282.812 137.674 283.606 134.424 286.498 134.424Z" fill="black"/>
<path opacity="0.2" d="M296.96 134.873C297.094 134.864 297.229 134.864 297.363 134.873V134.291C297.363 134.062 297.272 133.843 297.11 133.681C296.948 133.519 296.728 133.429 296.499 133.429H292.17C291.94 133.429 291.721 133.519 291.558 133.681C291.396 133.843 291.305 134.062 291.305 134.291V135.397C291.305 137.144 292.76 139.474 294.32 139.474C293.408 137.639 294.29 134.873 296.96 134.873Z" fill="black"/>
<path opacity="0.2" d="M272.448 161.524V155.781C272.448 155.392 272.132 155.077 271.741 155.077H192.41C192.02 155.077 191.703 155.392 191.703 155.781V161.524C191.703 161.913 192.02 162.229 192.41 162.229H271.741C272.132 162.229 272.448 161.913 272.448 161.524Z" fill="black"/>
<path opacity="0.2" d="M283.185 157.069V156.486C283.185 156.373 283.163 156.261 283.12 156.156C283.076 156.052 283.012 155.957 282.932 155.877C282.852 155.797 282.757 155.733 282.652 155.69C282.547 155.646 282.434 155.624 282.321 155.624H277.992C277.878 155.624 277.766 155.646 277.661 155.69C277.556 155.733 277.461 155.797 277.381 155.877C277.3 155.957 277.237 156.052 277.193 156.156C277.15 156.261 277.127 156.373 277.127 156.486V157.593C277.127 159.369 278.594 161.67 280.159 161.67C280.289 161.666 280.419 161.649 280.545 161.617C279.68 159.8 280.562 157.086 283.185 157.069Z" fill="black"/>
<path opacity="0.2" d="M186.521 156.696C186.692 156.697 186.861 156.711 187.03 156.737V156.492C187.028 156.263 186.936 156.044 186.773 155.882C186.61 155.721 186.389 155.63 186.159 155.63H181.83C181.602 155.632 181.383 155.723 181.221 155.884C181.059 156.045 180.967 156.264 180.966 156.492V157.599C180.966 159.375 182.438 161.675 183.998 161.675H184.097C182.853 159.87 183.671 156.696 186.521 156.696Z" fill="black"/>
<path opacity="0.2" d="M160.479 35.2235H303.672C304.656 35.2235 305.599 35.6131 306.295 36.3067C306.991 37.0003 307.382 37.9409 307.382 38.9218V71.5365H156.769V38.9218C156.769 37.9409 157.16 37.0003 157.856 36.3067C158.551 35.6131 159.495 35.2235 160.479 35.2235Z" fill="black"/>
<path d="M291.966 41.3736H172.209C171.211 33.1055 169.451 24.9465 166.952 17H297.247C294.708 24.9374 292.94 33.0994 291.966 41.3736Z" fill="white"/>
<path opacity="0.2" d="M293.145 33.517C292.275 38.2577 291.977 41.3736 291.977 41.3736H172.221C172.221 41.3736 171.917 38.316 171.023 33.517H293.145Z" fill="black"/>
<path d="M291.966 41.3736H172.209C171.211 33.1055 169.451 24.9465 166.952 17H297.247C294.708 24.9374 292.94 33.0994 291.966 41.3736V41.3736Z" stroke="#263238" stroke-linecap="round" stroke-linejoin="round"/>
<path d="M290.335 61.8977H172.852V110.086H290.335V61.8977Z" fill="#263238"/>
<g opacity="0.4">
<path opacity="0.4" d="M228.664 105.823L229.283 105.852C230.062 93.8347 230.841 81.7983 231.619 69.7426C230.626 81.8022 229.641 93.8289 228.664 105.823Z" fill="white"/>
<path opacity="0.4" d="M226.666 105.671L227.285 105.724C228.636 93.7843 229.986 81.7925 231.333 69.7484C229.779 81.8003 228.223 93.7746 226.666 105.671Z" fill="white"/>
<path opacity="0.4" d="M224.721 105.45C224.925 105.45 225.135 105.496 225.34 105.52C227.256 93.7085 229.184 81.7828 231.123 69.7426C228.981 81.7945 226.847 93.6969 224.721 105.45Z" fill="white"/>
<path opacity="0.4" d="M222.751 105.153L223.377 105.252C225.861 93.6037 228.365 81.7615 230.889 69.7251C228.163 81.7731 225.45 93.5823 222.751 105.153Z" fill="white"/>
<path opacity="0.4" d="M220.789 104.786L221.42 104.914C224.458 93.4873 227.536 81.7615 230.656 69.7368C227.338 81.7654 224.049 93.4485 220.789 104.786Z" fill="white"/>
<path opacity="0.4" d="M218.838 104.343L219.469 104.501C223.05 93.33 226.73 81.746 230.422 69.731C226.514 81.746 222.618 93.2776 218.838 104.343Z" fill="white"/>
<path opacity="0.4" d="M216.893 103.819L217.529 104.005C221.619 93.1494 225.901 81.7226 230.188 69.7192C225.684 81.7226 221.198 93.0853 216.893 103.819Z" fill="white"/>
<path opacity="0.4" d="M214.982 103.225L215.619 103.429C220.24 92.9455 225.089 81.6993 229.972 69.7134C224.849 81.6993 219.779 92.864 214.982 103.225Z" fill="white"/>
<path opacity="0.4" d="M213.042 102.544L213.685 102.777C218.802 92.6893 224.241 81.6702 229.721 69.7018C224.013 81.6702 218.347 92.5903 213.042 102.544Z" fill="white"/>
<path opacity="0.4" d="M211.15 101.775L211.792 102.043C217.377 92.4098 223.406 81.6586 229.487 69.6902C223.161 81.6353 216.916 92.3283 211.15 101.775Z" fill="white"/>
<path opacity="0.4" d="M209.275 100.913L209.918 101.222C215.946 92.1069 222.565 81.5945 229.254 69.6785C222.325 81.5945 215.479 92.0079 209.275 100.913Z" fill="white"/>
<path opacity="0.4" d="M207.429 99.9577L208.071 100.307C214.497 91.7633 221.724 81.5479 229.02 69.661C222.365 80.1335 215.158 90.2466 207.429 99.9577Z" fill="white"/>
<path opacity="0.4" d="M205.636 98.9094C205.846 99.0434 206.068 99.1657 206.284 99.2938C214.392 89.8792 221.914 79.9793 228.81 69.6494C221.753 79.9105 214.011 89.686 205.636 98.9094Z" fill="white"/>
<path opacity="0.4" d="M203.842 97.7505L204.479 98.1873C213.227 89.3057 221.276 79.7648 228.552 69.6494C221.124 79.6938 212.858 89.0943 203.842 97.7505Z" fill="white"/>
<path opacity="0.4" d="M228.319 69.6145C218.92 81.35 209.725 90.3015 202.13 96.4867L202.755 96.9701C212.131 88.6842 220.691 79.524 228.319 69.6145Z" fill="white"/>
<path opacity="0.4" d="M228.086 69.5969C218.073 81.245 208.288 89.7598 200.466 95.1179L201.085 95.6479C208.802 89.952 218.336 81.2741 228.086 69.5969Z" fill="white"/>
<path opacity="0.4" d="M227.834 69.5795C217.22 81.1402 206.88 89.1541 198.882 93.627C199.075 93.825 199.268 94.023 199.467 94.2094C207.388 89.3754 217.5 81.1693 227.834 69.5795Z" fill="white"/>
<path opacity="0.4" d="M227.618 69.5562C216.425 81.0004 205.548 88.4843 197.422 92.037L198.006 92.6718C206.05 88.7289 216.682 81.0354 227.618 69.5562Z" fill="white"/>
<path opacity="0.4" d="M196.079 90.3364C196.248 90.5693 196.423 90.8023 196.599 91.0294C204.748 88.0301 215.876 80.8723 227.391 69.5387C215.643 80.8199 204.275 87.7447 196.079 90.3364Z" fill="white"/>
<path opacity="0.4" d="M194.886 88.566C195.038 88.8106 195.196 89.0552 195.354 89.2998C203.532 87.2498 215.145 80.6628 227.156 69.498C214.912 80.5987 203.094 86.9411 194.886 88.566Z" fill="white"/>
<path opacity="0.4" d="M193.87 86.7663C193.999 87.0225 194.133 87.273 194.267 87.5292C202.446 86.4227 214.457 80.4181 226.923 69.5038C214.252 80.3132 202.049 86.0674 193.87 86.7663Z" fill="white"/>
<path opacity="0.4" d="M193.041 84.9259C193.146 85.1821 193.257 85.4442 193.368 85.7005C201.499 85.5025 213.814 80.0919 226.666 69.463C213.668 79.9812 201.161 85.1297 193.041 84.9259Z" fill="white"/>
<path opacity="0.4" d="M230.644 105.904H231.257C231.444 93.8677 231.639 81.8158 231.842 69.7484C231.433 81.8081 231.033 93.86 230.644 105.904Z" fill="white"/>
<path opacity="0.4" d="M232.619 105.916H233.238C232.849 93.8794 232.459 81.8274 232.07 69.76L232.619 105.916Z" fill="white"/>
<path opacity="0.4" d="M234.593 105.863H235.212C234.239 93.8657 233.265 81.8293 232.292 69.7542C233.059 81.8138 233.826 93.8502 234.593 105.863Z" fill="white"/>
<path opacity="0.4" d="M236.597 105.741L237.216 105.694C235.659 93.7862 234.101 81.8042 232.543 69.7484C233.883 81.8042 235.234 93.8017 236.597 105.741Z" fill="white"/>
<path opacity="0.4" d="M238.542 105.555L239.161 105.479C237.043 93.7105 234.901 81.7983 232.735 69.7426C234.687 81.7983 236.622 93.7357 238.542 105.555Z" fill="white"/>
<path opacity="0.4" d="M240.511 105.293L241.136 105.199C238.449 93.6095 235.732 81.7906 232.987 69.7426C235.51 81.7945 238.019 93.6445 240.511 105.293Z" fill="white"/>
<path opacity="0.4" d="M242.474 104.961L243.099 104.844C239.855 93.4834 236.562 81.781 233.22 69.7368C236.328 81.781 239.412 93.5222 242.474 104.961Z" fill="white"/>
<path opacity="0.4" d="M244.425 104.553L245.062 104.407C241.276 93.3417 237.374 81.7693 233.454 69.731C237.158 81.7712 240.815 93.3785 244.425 104.553Z" fill="white"/>
<path opacity="0.4" d="M246.376 104.075L247.007 103.895C242.696 93.1378 238.203 81.7634 233.688 69.7192C237.981 81.7517 242.257 93.1727 246.376 104.075Z" fill="white"/>
<path opacity="0.4" d="M248.31 103.51L248.952 103.301C244.121 92.9222 239.021 81.7517 233.921 69.7134C238.817 81.7284 243.677 92.9863 248.31 103.51Z" fill="white"/>
<path opacity="0.4" d="M250.231 102.864L250.874 102.625C245.558 92.6718 239.88 81.7051 234.155 69.7018C239.652 81.7051 245.102 92.7475 250.231 102.864Z" fill="white"/>
<path opacity="0.4" d="M252.136 102.136C252.352 102.043 252.574 101.961 252.784 101.868C247.001 92.3982 240.727 81.6761 234.389 69.6902C240.493 81.6761 246.528 92.4797 252.136 102.136Z" fill="white"/>
<path opacity="0.4" d="M254.023 101.326L254.671 101.018C248.45 92.0895 241.574 81.6469 234.622 69.6843C241.334 81.6353 247.971 92.1826 254.023 101.326Z" fill="white"/>
<path opacity="0.4" d="M255.875 100.412C256.091 100.301 256.307 100.179 256.517 100.063C248.759 90.3175 241.525 80.1694 234.844 69.661C242.182 81.6003 249.449 91.8448 255.875 100.412Z" fill="white"/>
<path opacity="0.4" d="M257.709 99.4045L258.363 99.0201C249.951 89.7628 242.176 79.9503 235.089 69.6494C242.011 80.02 249.565 89.9571 257.709 99.4045Z" fill="white"/>
<path opacity="0.4" d="M235.323 69.632C242.629 79.7947 250.713 89.3786 259.502 98.2979L260.151 97.8611C251.089 89.1681 242.784 79.7245 235.323 69.632Z" fill="white"/>
<path opacity="0.4" d="M235.557 69.6145C243.22 79.5716 251.828 88.7695 261.26 97.0807C261.477 96.9235 261.681 96.7604 261.891 96.5973C254.274 90.4122 245.009 81.4199 235.557 69.6145Z" fill="white"/>
<path opacity="0.4" d="M235.791 69.5969C245.605 81.344 255.197 90.0568 262.937 95.7527C263.148 95.578 263.364 95.4033 263.568 95.2227C255.717 89.8763 245.868 81.3382 235.791 69.5969Z" fill="white"/>
<path opacity="0.4" d="M236.012 69.5795C246.44 81.2276 256.604 89.4919 264.549 94.32C264.754 94.1278 264.947 93.924 265.133 93.7376C257.13 89.2706 246.714 81.2276 236.012 69.5795Z" fill="white"/>
<path opacity="0.4" d="M236.258 69.5562C247.281 81.1227 257.995 88.8512 266.051 92.765L266.635 92.1243C258.509 88.6124 247.544 81.0994 236.258 69.5562Z" fill="white"/>
<path opacity="0.4" d="M267.494 91.111C267.675 90.878 267.844 90.6451 268.02 90.4063C259.812 87.8728 248.339 80.9247 236.474 69.5387C248.088 80.9713 259.327 88.1524 267.494 91.111Z" fill="white"/>
<path opacity="0.4" d="M268.762 89.3579L269.241 88.6124C261.021 87.0691 249.093 80.7092 236.72 69.5154C248.865 80.7733 260.548 87.3777 268.762 89.3579Z" fill="white"/>
<path opacity="0.4" d="M269.895 87.5467C270.035 87.2905 270.17 87.0342 270.304 86.7721C262.125 86.1897 249.793 80.4298 237.006 69.4922C249.554 80.5229 261.717 86.5392 269.895 87.5467Z" fill="white"/>
<path opacity="0.4" d="M237.181 69.463C250.173 80.2142 262.651 85.6247 270.771 85.7063C270.888 85.4442 270.999 85.1821 271.11 84.92C263.002 85.252 250.36 80.0977 237.181 69.463Z" fill="white"/>
</g>
<path opacity="0.2" d="M214.982 70.6162C212.768 76.2772 215.163 92.7476 231.141 92.7476C247.118 92.7476 252.919 81.1752 252.27 74.0233L273.599 70.5988C273.599 70.5988 280.136 88.6067 266.256 101.204C252.375 113.802 204.263 112.986 194.092 103.411C183.922 93.8367 189.565 74.9202 189.565 74.9202L214.982 70.6162Z" fill="black"/>
<path d="M308.591 46.1901V42.2181C308.591 42.0711 308.638 41.9279 308.725 41.8095C308.812 41.691 308.935 41.6036 309.076 41.56L311.997 40.6514V36.6794C311.997 36.2037 312.187 35.7474 312.524 35.411C312.861 35.0746 313.319 34.8856 313.796 34.8856H317.301C317.474 34.8824 317.641 34.9461 317.768 35.0635C317.894 35.1809 317.97 35.3426 317.979 35.5146V36.7959C317.979 36.971 317.91 37.139 317.786 37.2633C317.662 37.3877 317.495 37.4583 317.319 37.4598H312.862V41.3445C312.86 41.4616 312.828 41.5763 312.77 41.6781C312.712 41.7799 312.629 41.8654 312.529 41.9269L310.04 43.4295V46.1959L308.591 46.1901Z" fill="#999999" stroke="#263238" stroke-linecap="round" stroke-linejoin="round"/>
<path d="M312.435 46.1902H308.591V57.6519H312.435V46.1902Z" fill="#263238"/>
<path d="M317.243 45.2177H312.435V58.6246H317.243V45.2177Z" fill="#757575"/>
<path opacity="0.2" d="M317.231 53.3828H312.435V58.6244H317.231V53.3828Z" fill="black"/>
<path d="M317.243 45.2177H312.435V58.6246H317.243V45.2177Z" stroke="#263238" stroke-linecap="round" stroke-linejoin="round"/>
<path d="M151.716 57.6461H155.56V46.1844H151.716V57.6461Z" fill="#263238"/>
<path d="M146.908 58.6188H151.716V45.2118H146.908V58.6188Z" fill="#757575"/>
<path opacity="0.2" d="M151.722 53.3828H146.914V58.4963H151.722V53.3828Z" fill="black"/>
<path d="M146.908 58.6188H151.716V45.2118H146.908V58.6188Z" stroke="#263238" stroke-linecap="round" stroke-linejoin="round"/>
<path d="M154.982 52.6024C155.329 51.6945 155.382 50.7011 155.135 49.7612C154.888 48.8214 154.352 47.9821 153.603 47.3608L150.776 45.0311C150.596 44.88 150.387 44.7674 150.161 44.7005C149.936 44.6335 149.699 44.6137 149.465 44.6421C149.232 44.6705 149.006 44.7466 148.804 44.8657C148.601 44.9847 148.425 45.1441 148.287 45.334L137.077 60.7503C136.863 61.0387 136.749 61.3878 136.75 61.7462V78.304C136.749 78.5262 136.794 78.7462 136.88 78.9513C136.966 79.1563 137.092 79.3423 137.251 79.4983C137.409 79.6544 137.597 79.7774 137.804 79.8604C138.011 79.9433 138.232 79.9844 138.455 79.9813C138.902 79.9813 139.329 79.8046 139.645 79.49C139.96 79.1754 140.138 78.7488 140.138 78.304V64.8562C140.139 64.5243 140.243 64.2008 140.436 63.9302L148.819 52.2821C148.892 52.1798 148.986 52.0939 149.094 52.0296C149.203 51.9654 149.323 51.9243 149.449 51.909C149.574 51.8937 149.701 51.9044 149.822 51.9406C149.943 51.9767 150.054 52.0375 150.151 52.119L151.693 53.4236C152.075 53.7467 152.559 53.9241 153.06 53.9245C153.476 53.922 153.882 53.7946 154.225 53.5587C154.568 53.3229 154.832 52.9897 154.982 52.6024Z" fill="white" stroke="#263238" stroke-linecap="round" stroke-linejoin="round"/>
<path d="M152.668 51.0941C153.11 51.0941 153.468 50.7368 153.468 50.2962C153.468 49.8555 153.11 49.4983 152.668 49.4983C152.226 49.4983 151.868 49.8555 151.868 50.2962C151.868 50.7368 152.226 51.0941 152.668 51.0941Z" fill="#999999" stroke="#263238" stroke-linecap="round" stroke-linejoin="round"/>
<path d="M305.028 40.6515H159.129V63.1789H305.028V40.6515Z" fill="#263238"/>
<path opacity="0.2" d="M302.919 42.3462H161.18C160.734 42.3462 160.374 42.706 160.374 43.1499V46.7958C160.374 47.2396 160.734 47.5995 161.18 47.5995H302.919C303.364 47.5995 303.725 47.2396 303.725 46.7958V43.1499C303.725 42.706 303.364 42.3462 302.919 42.3462Z" fill="white"/>
<path d="M291.966 67.7101H172.209C168.834 60.0194 167.046 51.7303 166.952 43.3364H297.247C297.247 54.6234 291.966 67.7101 291.966 67.7101Z" fill="white"/>
<g opacity="0.7">
<path opacity="0.7" d="M181.895 65.8813C181.895 65.8813 184.518 65.7415 185.984 64.8621C187.451 63.9827 187.345 65.6542 188.187 65.7648C189.028 65.8755 191.014 65.1824 192.066 65.1824C193.117 65.1824 192.317 65.8231 193.503 65.7648C194.688 65.7066 194.052 65.8231 194.671 65.7066L199.747 64.8621C199.747 64.8621 202.324 64.3671 202.844 64.6175C203.364 64.8679 204.047 66.1026 204.806 65.7823C205.566 65.462 205.163 65.1999 206.308 65.1999C207.016 65.2032 207.72 65.3051 208.399 65.5027C208.399 65.5027 208.504 65.2057 209.03 65.1999H209.971C209.971 65.1999 211.963 65.7241 212.278 65.7241C212.594 65.7241 214.948 65.2057 215.03 65.1999C215.111 65.1941 217.366 64.6175 217.366 64.6175C217.845 65.116 218.451 65.4745 219.119 65.6542C219.972 65.7648 220.871 65.5377 221.514 65.8231C222.157 66.1084 224.271 65.7066 224.271 65.7066C224.776 65.7099 225.279 65.7488 225.778 65.8231C226.433 65.972 227.114 65.952 227.759 65.7648C228.943 65.4526 230.187 65.4326 231.381 65.7066C233.279 66.0502 235.026 65.1882 235.832 65.1824C236.638 65.1766 239.863 65.5377 240.973 65.5377C242.083 65.5377 245.021 65.9337 247.066 65.7066C249.11 65.4794 250.448 65.992 251.821 65.992C253.194 65.992 254.66 65.9337 254.976 65.9337C255.291 65.9337 256.81 64.9436 258.983 65.1824C261.156 65.4212 259.223 64.8854 260.56 65.1824C261.898 65.4794 262.955 65.7648 263.522 65.8231C263.977 65.8495 264.433 65.83 264.883 65.7648L267.22 65.5959H278.868" stroke="#263238" stroke-linecap="round" stroke-linejoin="round"/>
<path opacity="0.7" d="M179.47 61.3851C179.47 61.3851 186.685 61.3851 187.988 61.2686C189.29 61.1521 189.985 60.4882 190.681 60.4882C191.376 60.4882 194.887 61.1521 194.887 61.1521C194.989 60.9349 195.156 60.7546 195.365 60.6358C195.575 60.5169 195.815 60.4654 196.055 60.4882C197.007 60.4882 196.522 60.5755 197.399 60.925C198.275 61.2744 197.819 60.925 198.281 61.2686C198.969 61.5766 199.696 61.7883 200.442 61.8976C200.442 61.8976 203.696 62.049 203.819 61.2686C203.941 60.4882 205.571 61.8976 205.571 61.8976C205.571 61.8976 209.988 61.2686 211.693 61.2686C213.399 61.2686 217.675 60.925 217.675 60.925C217.675 60.925 221.18 61.3851 221.344 61.3851C221.508 61.3851 222.086 62.2995 222.711 61.8976C223.336 61.4957 223.938 61.0356 224.68 61.1521C225.369 61.3225 226.035 61.5727 226.666 61.8976L228.296 61.0356L230.165 61.1521C230.165 61.1521 232.07 62.4159 233.431 61.8976C234.467 61.4847 235.479 61.0141 236.463 60.4882L238.139 61.8976H239.237L242.491 61.2686C242.742 61.5755 243.079 61.7997 243.46 61.912C243.84 62.0242 244.246 62.0192 244.623 61.8976C246.002 61.5016 259.175 61.8976 262.529 61.8976C265.882 61.8976 266.618 61.0356 266.618 61.0356L269.2 61.8976H282.052" stroke="#263238" stroke-linecap="round" stroke-linejoin="round"/>
</g>
<path opacity="0.2" d="M293.187 64.3438C292.48 66.4404 291.966 67.71 291.966 67.71H172.21C172.21 67.71 171.626 66.487 170.825 64.3438H293.187Z" fill="black"/>
<path opacity="0.2" d="M295.681 55.5261C295.278 57.2733 294.834 58.9798 294.396 60.4882H169.522C169.09 59.0089 168.646 57.3374 168.26 55.5261H295.681Z" fill="black"/>
<path d="M291.966 67.7101H172.209C168.834 60.0194 167.046 51.7303 166.952 43.3364H297.247C297.247 54.6234 291.966 67.7101 291.966 67.7101Z" stroke="#263238" stroke-linecap="round" stroke-linejoin="round"/>
<path d="M159.1 39.4924H155.531V64.3495H159.1V39.4924Z" fill="#757575"/>
<path opacity="0.2" d="M159.03 56.9763H155.554V64.3496H159.03V56.9763Z" fill="black"/>
<path d="M159.1 39.4924H155.531V64.3495H159.1V39.4924Z" stroke="#263238" stroke-linecap="round" stroke-linejoin="round"/>
<path d="M308.62 39.4924H305.051V64.3495H308.62V39.4924Z" fill="#757575"/>
<path opacity="0.2" d="M308.621 56.9763H305.022V64.3496H308.621V56.9763Z" fill="black"/>
<path d="M308.62 39.4924H305.051V64.3495H308.62V39.4924Z" stroke="#263238" stroke-linecap="round" stroke-linejoin="round"/>
<path d="M305.08 38.45V56.5802H159.071V38.45H157.669V57.7974H306.482V38.45H305.08Z" fill="#999999" stroke="#263238" stroke-linecap="round" stroke-linejoin="round"/>
<path d="M313.709 68.9913V109.649C313.709 110.335 313.435 110.992 312.949 111.477C312.463 111.962 311.803 112.235 311.115 112.235H153.019C152.331 112.235 151.671 111.962 151.185 111.477C150.699 110.992 150.425 110.335 150.425 109.649V68.9913C150.425 68.3054 150.699 67.6477 151.185 67.1628C151.671 66.6778 152.331 66.4054 153.019 66.4054H225.866V68.9913C225.866 68.9913 213.429 79.7483 191.984 83.7144C195.056 97.5815 211.846 108.175 232.105 108.175C252.364 108.175 269.153 97.5699 272.232 83.7144C250.758 79.7483 238.321 68.9913 238.321 68.9913V66.3821H311.132C311.474 66.3844 311.811 66.4537 312.125 66.5861C312.439 66.7186 312.724 66.9115 312.963 67.1539C313.203 67.3962 313.392 67.6833 313.52 67.9986C313.648 68.3138 313.712 68.6512 313.709 68.9913Z" fill="white" stroke="#263238" stroke-linecap="round" stroke-linejoin="round"/>
<path d="M313.709 68.9913V109.649C313.709 109.989 313.641 110.326 313.511 110.64C313.38 110.954 313.188 111.239 312.947 111.479C312.705 111.72 312.419 111.91 312.103 112.04C311.788 112.169 311.45 112.236 311.109 112.235H153.019C152.678 112.236 152.34 112.169 152.025 112.04C151.709 111.91 151.423 111.72 151.181 111.479C150.94 111.239 150.748 110.954 150.617 110.64C150.487 110.326 150.419 109.989 150.419 109.649V68.9913C150.421 68.3044 150.695 67.646 151.183 67.1603C151.67 66.6746 152.33 66.4011 153.019 66.3996H225.866V68.9913C225.866 68.9913 213.423 79.7424 191.984 83.7144C195.056 97.5815 211.846 108.175 232.111 108.175C252.376 108.175 269.153 97.5699 272.232 83.7144C250.758 79.7424 238.321 68.9913 238.321 68.9913V66.3821H311.132C311.821 66.3882 312.479 66.6664 312.962 67.1556C313.445 67.6447 313.713 68.3049 313.709 68.9913Z" fill="white"/>
<path opacity="0.2" d="M310.203 69.6145V107.151C310.203 107.4 310.154 107.647 310.057 107.878C309.961 108.108 309.82 108.317 309.643 108.493C309.465 108.669 309.255 108.808 309.023 108.903C308.791 108.997 308.543 109.045 308.293 109.043H154.572C154.323 109.044 154.076 108.996 153.845 108.901C153.614 108.806 153.405 108.667 153.228 108.491C153.052 108.315 152.912 108.106 152.817 107.876C152.722 107.646 152.673 107.399 152.674 107.151V69.6145C152.673 69.3652 152.722 69.1182 152.817 68.8875C152.912 68.6569 153.051 68.4471 153.227 68.2703C153.404 68.0935 153.613 67.953 153.844 67.8568C154.075 67.7607 154.322 67.7108 154.572 67.7101H225.842V68.9914C225.842 68.9914 213.399 79.7426 191.96 83.7146C195.033 97.5816 211.822 108.176 232.087 108.176C252.352 108.176 269.13 97.57 272.208 83.7146C250.734 79.7426 238.297 68.9914 238.297 68.9914V67.7101H308.31C308.814 67.7147 309.295 67.9174 309.65 68.274C310.004 68.6307 310.203 69.1125 310.203 69.6145Z" fill="white"/>
<path d="M313.709 68.9913V109.649C313.709 109.989 313.641 110.326 313.511 110.64C313.38 110.954 313.188 111.239 312.947 111.479C312.705 111.72 312.419 111.91 312.103 112.04C311.788 112.169 311.45 112.236 311.109 112.235H153.019C152.678 112.236 152.34 112.169 152.025 112.04C151.709 111.91 151.423 111.72 151.181 111.479C150.94 111.239 150.748 110.954 150.617 110.64C150.487 110.326 150.419 109.989 150.419 109.649V68.9913C150.421 68.3044 150.695 67.646 151.183 67.1603C151.67 66.6746 152.33 66.4011 153.019 66.3996H225.866V68.9913C225.866 68.9913 213.423 79.7424 191.984 83.7144C195.056 97.5815 211.846 108.175 232.111 108.175C252.376 108.175 269.153 97.5699 272.232 83.7144C250.758 79.7424 238.321 68.9913 238.321 68.9913V66.3821H311.132C311.821 66.3882 312.479 66.6664 312.962 67.1556C313.445 67.6447 313.713 68.3049 313.709 68.9913V68.9913Z" stroke="#263238" stroke-linecap="round" stroke-linejoin="round"/>
<path opacity="0.2" d="M261.483 124.285L269.247 145.875C269.247 145.875 272.606 122.113 274.61 122.113C276.613 122.113 280.93 135.106 280.93 135.106C280.93 135.106 283.594 128.327 286.118 128.082C288.641 127.838 290.926 144.727 290.926 144.727L291.317 182.217L288.133 238.914C288.133 238.914 267.821 216.608 261.898 210.86C255.974 205.111 250.314 192.461 248.678 189.893C247.042 187.325 246.627 173.877 246.627 173.877C248.698 171.235 249.781 167.956 249.689 164.605C249.689 164.605 254.455 156.649 254.163 150.779C253.871 144.908 253.135 122.095 261.483 124.285Z" fill="black" fill-opacity="0.7"/>
<path d="M322.594 228.873L291.843 245C291.843 244.837 287.801 238.308 282.917 230.923C280.709 227.58 278.325 224.068 276.064 220.889C272.361 215.688 267.652 211.197 267.249 210.219C266.081 207.307 257.073 196.404 255.057 192.164C253.042 187.924 252.58 174.733 251.693 171.629C250.805 168.524 253.352 165.56 255.396 164.116C257.441 162.671 259.585 158.874 259.585 158.874C259.585 158.874 257.324 150.091 257.301 145.624C257.277 141.157 255.753 125.566 257.575 124.11C259.398 122.654 261.028 123.266 261.483 124.267C262.979 127.57 264.322 135.875 265.473 139.701C266.624 143.528 268.786 154.628 269.849 155.426C270.912 156.224 272.805 153.23 272.805 153.23C272.805 153.23 272.986 143.912 273.389 140.051L272.805 127.82C272.805 127.82 271.712 120.47 274.253 119.771C277.758 118.81 279.038 121.006 279.435 121.932C279.832 122.858 281.468 128.193 281.468 128.193L281.561 128.56C281.561 128.595 281.561 128.63 281.561 128.67V128.735C281.589 128.835 281.618 128.946 281.649 129.067C281.713 129.311 281.789 129.602 281.871 129.934C282.648 132.969 284.144 139.043 284.079 140.54C283.992 142.561 283.285 153.755 284.284 156.078L285.838 140.616C285.838 140.616 283.332 128.7 284.062 126.981C284.792 125.263 288.233 127.162 288.642 127.838C289.051 128.513 292.392 132.602 292.988 134.163L293.572 135.723C293.572 135.723 294.396 132.031 296.329 132.992C298.263 133.953 298.503 138.647 298.637 140.697C298.771 142.747 300.173 155.933 300.39 155.956C300.606 155.979 302.837 162.829 302.533 167.354C301.897 177.039 303.579 184.244 303.638 187.959C303.696 191.675 300.886 200.283 300.886 200.283C300.985 200.452 302.82 203.562 303.322 206.293C303.69 208.297 310.239 215.536 315.59 221.296C319.311 225.268 322.431 228.518 322.594 228.873Z" fill="white"/>
<path opacity="0.4" d="M282.923 230.935C280.714 227.592 278.331 224.08 276.07 220.9C272.367 215.699 267.658 211.209 267.255 210.23C266.087 207.318 257.079 196.416 255.063 192.176C253.048 187.936 252.586 174.744 251.698 171.64C250.81 168.536 253.357 165.572 255.402 164.127C257.447 162.683 259.591 158.886 259.591 158.886C259.591 158.886 257.33 150.103 257.306 145.636C257.283 141.169 255.758 125.578 257.581 124.122C259.404 122.666 261.034 123.277 261.489 124.279C262.985 127.581 264.328 135.886 265.479 139.713C266.63 143.539 268.791 154.64 269.855 155.438C270.918 156.236 272.811 153.242 272.811 153.242C272.811 153.242 272.992 143.924 273.395 140.062L272.811 127.832C272.811 127.832 271.718 120.482 274.259 119.783C277.764 118.822 279.044 121.018 279.441 121.944C279.838 122.87 281.474 128.204 281.474 128.204L281.567 128.571C281.567 128.606 281.567 128.641 281.567 128.682V128.746C281.591 128.847 281.62 128.958 281.655 129.078C281.719 129.323 281.795 129.614 281.877 129.946C280.971 128.519 279.727 127.302 278.062 126.981C273.389 126.073 274.399 131.256 274.843 134.366C275.095 136.43 275.046 138.519 274.697 140.569L275.866 139.899C275.025 141.396 273.821 153.836 273.821 156.603C273.821 159.369 271.625 160.289 269.656 159.48C267.687 158.67 266.986 145.974 265.491 143.696C263.995 141.419 259.836 145.77 259.649 149.748C259.462 153.725 263.183 165.589 262.301 168.385C261.419 171.18 261.431 181.78 261.431 181.78L260.356 179.048C260.426 179.421 260.356 180.673 258.107 184.36C257.262 185.694 256.716 187.195 256.505 188.758C256.294 190.322 256.424 191.913 256.886 193.422C258.259 196.445 265.222 204.412 266.39 205.233C266.39 205.233 267.237 201.774 269.895 202.694C268.99 204.129 268.331 205.703 267.944 207.353C267.395 209.893 272.939 211.518 274.674 213.935C275.737 215.408 276.45 219.898 282.923 230.935Z" fill="white"/>
<path opacity="0.4" d="M315.625 221.302C310.157 215.81 300.535 210.58 301.119 209.211C301.902 207.371 300.909 203.451 299.227 200.271C297.544 197.091 299.811 191.931 299.811 191.931L300.851 194.931C301.683 191.471 301.78 187.877 301.137 184.378C300.074 178.431 299.244 180.522 299.244 180.522C299.244 180.522 299.46 175.164 300.413 172.24C301.365 169.317 302.165 162.217 300.851 158.018C299.536 153.819 296.761 154.611 296.02 156.055C295.278 157.5 296.072 163.131 296.685 164.978C297.299 166.824 294.688 169.928 294.635 167.622C294.582 165.315 293.595 158.886 293.595 158.886L295.576 145.974L293.595 135.718C293.595 135.718 294.419 132.025 296.353 132.986C298.286 133.947 298.526 138.641 298.66 140.691C298.794 142.741 300.196 155.927 300.413 155.95C300.629 155.974 302.86 162.823 302.556 167.348C301.92 177.033 303.602 184.238 303.661 187.954C303.719 191.669 300.909 200.277 300.909 200.277C301.008 200.446 302.843 203.556 303.345 206.288C303.713 208.291 310.262 215.53 315.613 221.29L315.625 221.302Z" fill="white"/>
<path opacity="0.4" d="M292.988 134.163C293.099 134.454 293.192 134.693 293.262 134.885C291.405 130.581 288.238 131.915 287.678 133.138C287.117 134.361 289.004 141.949 289.43 143.126C289.857 144.302 287.736 153.696 287.426 156.807C287.117 159.917 286.293 160.551 286.293 160.551C284.196 160.709 283.956 154.937 283.956 154.145C283.997 154.808 284.127 155.462 284.342 156.09L285.896 140.627C285.896 140.627 283.331 128.7 284.061 126.982C284.792 125.263 288.233 127.162 288.641 127.838C289.05 128.513 292.392 132.602 292.988 134.163Z" fill="white"/>
<path d="M322.594 228.873C322.197 227.976 303.953 209.654 303.316 206.288C302.802 203.48 300.874 200.271 300.874 200.271C300.874 200.271 303.684 191.681 303.626 187.948C303.567 184.214 301.873 177.028 302.522 167.342C302.826 162.817 300.6 155.968 300.378 155.945C300.156 155.921 298.754 142.736 298.625 140.686C298.497 138.635 298.257 133.941 296.318 132.98C294.378 132.019 293.561 135.712 293.561 135.712L292.976 134.151C292.392 132.59 289.039 128.502 288.63 127.826C288.221 127.15 284.786 125.246 284.05 126.97C283.314 128.694 285.879 140.592 285.879 140.592L284.336 156.073C283.337 153.743 284.044 142.555 284.132 140.534C284.22 138.513 281.474 128.187 281.474 128.187C281.474 128.187 279.826 122.876 279.441 121.92C279.055 120.965 277.764 118.799 274.259 119.76C271.718 120.459 272.811 127.809 272.811 127.809L273.395 140.039C273.003 143.918 272.811 153.219 272.811 153.219C272.811 153.219 270.918 156.207 269.855 155.415C268.791 154.622 266.63 143.528 265.479 139.69C264.328 135.852 262.985 127.558 261.489 124.256C261.034 123.254 259.404 122.643 257.581 124.099C255.758 125.555 257.277 141.14 257.306 145.613C257.336 150.086 259.591 158.862 259.591 158.862C259.591 158.862 257.447 162.636 255.402 164.104C253.357 165.572 250.81 168.507 251.698 171.617C252.586 174.727 253.048 187.924 255.063 192.153C257.079 196.381 266.063 207.295 267.255 210.207C267.658 211.186 272.367 215.676 276.07 220.877C283.343 231.086 291.843 244.755 291.843 244.988" stroke="#263238" stroke-linecap="round" stroke-linejoin="round"/>
<path d="M259.585 158.891C259.585 158.891 261.034 166.049 260.981 167.249C260.981 167.249 259.713 172.776 259.702 176.358C258.815 177.707 258.018 179.114 257.318 180.569C256.828 181.862 255.951 185.041 256.313 186.812" stroke="#263238" stroke-linecap="round" stroke-linejoin="round"/>
<path d="M256.938 169.468C256.938 169.468 260.49 169.497 260.262 170.988" stroke="#263238" stroke-linecap="round" stroke-linejoin="round"/>
<path d="M259.701 176.358C259.701 176.358 257.423 175.374 256.623 176.696" stroke="#263238" stroke-linecap="round" stroke-linejoin="round"/>
<path d="M272.816 153.242C272.816 153.242 272.652 158.728 271.204 158.292" stroke="#263238" stroke-linecap="round" stroke-linejoin="round"/>
<path d="M284.336 156.073C284.336 156.073 283.916 159.072 285.049 159.998" stroke="#263238" stroke-linecap="round" stroke-linejoin="round"/>
<path d="M293.578 135.724C293.578 135.724 295.155 143.295 295.517 145.089C295.879 146.882 293.724 156.038 293.765 158.42C293.805 160.802 294.828 164.209 294.688 165.811" stroke="#263238" stroke-linecap="round" stroke-linejoin="round"/>
<path d="M299.875 193.224C299.875 193.224 299.367 198.169 300.892 200.283" stroke="#263238" stroke-linecap="round" stroke-linejoin="round"/>
<path d="M269.247 203.009C269.247 203.009 265.847 206.095 267.091 209.893" stroke="#263238" stroke-linecap="round" stroke-linejoin="round"/>
<path d="M291.592 164.523C291.644 166.702 290.365 169.241 290.23 172.252" stroke="#263238" stroke-linecap="round" stroke-linejoin="round"/>
<path d="M280.761 162.578C281.485 164.36 279.908 168.239 279.669 169.695C279.573 170.834 279.698 171.981 280.037 173.073" stroke="#263238" stroke-linecap="round" stroke-linejoin="round"/>
<path d="M301.119 168.717C300.827 170.609 299.484 171.961 299.227 177.785" stroke="#263238" stroke-linecap="round" stroke-linejoin="round"/>
<path d="M267.95 162.025C268.932 163.091 268.272 168.181 268.534 169.014" stroke="#263238" stroke-linecap="round" stroke-linejoin="round"/>
<path d="M286.252 132.701C286.252 132.701 289.594 130.26 292.468 133.138" stroke="#263238" stroke-linecap="round" stroke-linejoin="round"/>
<path d="M274.744 127.092C274.744 127.092 275.328 126.12 278.149 126.358C280.971 126.597 281.473 128.181 281.473 128.181" stroke="#263238" stroke-linecap="round" stroke-linejoin="round"/>
<path d="M266.501 143.72C266.501 143.72 265.555 142.328 263.06 142.788C260.566 143.248 259.456 146.766 259.456 146.766" fill="white"/>
<path d="M266.501 143.72C266.501 143.72 265.555 142.328 263.06 142.788C260.566 143.248 259.456 146.766 259.456 146.766" stroke="#263238" stroke-linecap="round" stroke-linejoin="round"/>
<path d="M300.395 155.956C300.395 155.956 298.316 152.951 295.815 154.238" stroke="#263238" stroke-linecap="round" stroke-linejoin="round"/>
<path opacity="0.2" d="M211.799 133.941C215.304 136.649 212.348 153.271 212.348 153.271L212.658 158.682L218.669 156.073L221.409 167.633C221.409 167.633 221.339 171.867 223.565 173.457C223.565 173.457 224.114 182.956 223.565 189.899C223.015 196.841 211.881 205 208.043 212.286C204.205 219.572 179.173 240.987 179.173 240.987L157.979 230.935L173.302 169.235L187.03 151.64L195.168 131.402C195.168 131.402 196.564 144.622 195.752 153.533L211.799 133.941Z" fill="black" fill-opacity="0.7"/>
<path d="M217.699 170.866C217.168 173.417 218.447 187.4 218.225 189.287C218.003 191.174 206.845 203.847 206.285 204.808C205.724 205.769 198.264 210.05 196.529 212.094C188.42 221.523 183.992 230.207 180.435 238.914C179.751 240.591 179.097 242.275 178.454 243.963L146.278 225.327C148.983 221.984 151.535 219.013 153.872 216.311C158.546 210.83 162.267 206.445 164.089 202.304C164.649 201.247 165.289 200.234 166.006 199.276C166.73 198.251 167.378 197.406 167.378 197.406C167.378 197.406 165.042 190.842 165.585 188.781C166.128 186.719 164.913 169.771 164.913 169.771C164.913 169.771 163.33 158.233 161.77 155.321C161.387 154.561 161.214 153.713 161.268 152.864C161.344 150.202 162.892 146.847 163.651 142.963C164.668 137.721 164.177 135.129 167.367 136.941C170.556 138.752 169.067 149.754 169.067 149.754L173.886 160.4C175.154 157.826 173.886 150.313 173.822 148.536C173.822 148.245 173.822 147.762 173.775 147.133C173.676 144.069 173.471 137.692 173.734 135.176C173.734 135.036 173.734 134.908 173.781 134.792C174.172 132.194 175.568 123.93 176.456 123.01C177.777 121.647 179.874 120.499 181.848 123.592C182.952 125.339 182.479 139.195 182.479 139.195C182.479 139.195 187.059 133.685 188.45 132.34C189.84 130.994 194.058 128.537 195.185 131.385C196.313 134.233 192.153 143.033 192.153 143.033C193.024 145.071 193.129 150.715 193.129 150.715C193.129 150.715 195.098 157.768 196.307 157.703H196.359C196.71 157.628 197.095 156.346 197.498 154.547C198.492 150.138 199.572 142.596 200.419 141.938L201.004 141.472C201.03 141.438 201.062 141.409 201.097 141.384L201.313 141.192C203.381 139.358 207.739 135.281 207.739 135.281C207.739 135.281 208.049 133.33 211.863 133.93C215.678 134.53 210.169 145.753 210.169 145.753C209.404 149.323 208.23 158.507 208.23 158.507C207.873 162.328 208.084 172.596 208.084 172.596C208.084 172.596 209.889 166.62 209.772 164.442C209.655 162.264 213.359 156.929 214.445 155.554C215.532 154.18 220.381 154.663 219.031 157.302C217.682 159.94 218.231 168.303 217.699 170.866Z" fill="white"/>
<path opacity="0.4" d="M164.072 202.327C164.631 201.27 165.272 200.257 165.988 199.299C165.988 199.299 164.089 204.54 163.902 207.33C163.78 209.17 158.919 212.356 153.854 216.334C158.557 210.854 162.249 206.468 164.072 202.327Z" fill="white"/>
<path opacity="0.4" d="M165.988 199.299C166.712 198.274 167.361 197.429 167.361 197.429C167.361 197.429 165.024 190.866 165.567 188.804C166.11 186.742 164.895 169.794 164.895 169.794C164.895 169.794 163.312 158.257 161.752 155.345L165.386 161.675C165.386 161.675 165.03 166.678 166.064 169.421C167.098 172.164 168.4 180.534 168.4 180.534C168.4 180.534 166.87 187.569 167.39 190.103C167.91 192.636 170.252 191.716 170.252 191.716C170.252 191.716 171.403 196.352 165.988 199.299Z" fill="white"/>
<path opacity="0.4" d="M174.464 151.64C176.97 166.27 172.653 162.223 171.093 159.066C169.534 155.909 165.871 149.934 163.114 151.209C162.339 151.572 161.691 152.156 161.25 152.887C161.326 150.225 162.874 146.87 163.633 142.986C164.65 137.744 164.159 135.153 167.349 136.964C170.538 138.775 169.049 149.777 169.049 149.777L173.868 160.423C175.136 157.849 173.868 150.336 173.804 148.559C173.804 148.268 173.804 147.785 173.757 147.156C173.95 148.501 174.184 149.998 174.464 151.64Z" fill="white"/>
<path opacity="0.4" d="M180.598 137.185C180.598 137.185 177.893 133.656 175.545 133.836C175.142 133.858 174.753 133.997 174.429 134.236C174.104 134.475 173.856 134.804 173.716 135.182C173.716 135.042 173.716 134.914 173.763 134.797C174.154 132.2 175.551 123.935 176.439 123.015C177.759 121.652 179.856 120.505 181.831 123.598C182.935 125.345 182.461 139.2 182.461 139.2C182.461 139.2 187.041 133.691 188.432 132.345C189.822 131 194.04 128.542 195.167 131.39C196.295 134.238 192.135 143.038 192.135 143.038C193.006 145.077 193.111 150.72 193.111 150.72C193.111 150.72 195.08 157.773 196.289 157.709C193.625 162.706 191.849 151.658 191.849 151.658C192.246 149.375 190.833 144.424 190.973 143.12C191.113 141.815 188.519 137.203 184.15 138.461C179.78 139.719 182.935 156.934 182.935 156.934C182.071 158.306 181.569 159.872 181.474 161.489C180.125 159.829 181.474 155.082 181.474 155.082C180.277 150.54 180.598 137.185 180.598 137.185Z" fill="white"/>
<path opacity="0.4" d="M200.963 141.454C199.099 143.405 199.356 148.338 197.458 154.529C198.451 150.12 199.531 142.578 200.378 141.92L200.963 141.454Z" fill="white"/>
<path opacity="0.4" d="M217.699 170.866C217.168 173.417 218.447 187.4 218.225 189.287C218.003 191.174 206.845 203.847 206.284 204.808C205.724 205.769 198.264 210.05 196.529 212.094C188.42 221.523 183.992 230.207 180.435 238.914C181.775 234.4 183.392 229.974 185.277 225.658C189.115 217.056 190.681 215.524 192.983 213.067C195.284 210.609 195.033 205.385 195.033 205.385C196.732 204.977 198.473 204.772 200.221 204.773C203.142 204.773 211.787 192.484 214.761 190.33C217.734 188.175 218.266 188.175 214.761 183.422C211.256 178.67 212.249 184.185 211.197 184.005C210.146 183.824 209.573 186.119 209.573 186.119C209.205 181.273 206.068 175.635 205.408 174.226C204.748 172.817 207.009 164.552 206.541 162.252C206.074 159.951 208.551 145.944 208.551 145.944C208.551 145.944 208.241 140.569 203.358 140.551C202.608 140.51 201.868 140.733 201.266 141.18C203.334 139.346 207.692 135.269 207.692 135.269C207.692 135.269 208.002 133.318 211.817 133.918C215.631 134.518 210.122 145.741 210.122 145.741C209.357 149.311 208.183 158.495 208.183 158.495C207.827 162.316 208.037 172.584 208.037 172.584C208.037 172.584 209.842 166.608 209.725 164.43C209.608 162.252 213.312 156.917 214.399 155.543C215.485 154.168 220.334 154.651 218.984 157.29C217.635 159.928 218.231 168.303 217.699 170.866Z" fill="white"/>
<path d="M178.448 244.016C182.415 233.573 186.849 223.381 196.529 212.123C198.281 210.108 205.718 205.827 206.284 204.837C206.851 203.847 218.009 191.197 218.225 189.316C218.441 187.435 217.168 173.446 217.699 170.895C218.231 168.344 217.612 159.934 218.955 157.313C220.299 154.692 215.45 154.215 214.369 155.566C213.289 156.917 209.597 162.298 209.696 164.453C209.795 166.608 208.008 172.607 208.008 172.607C208.008 172.607 207.797 162.339 208.154 158.519C208.154 158.519 209.322 149.334 210.093 145.764C210.093 145.764 215.596 134.535 211.787 133.941C207.979 133.347 207.663 135.292 207.663 135.292C207.663 135.292 201.582 140.988 200.378 141.92C199.175 142.852 197.533 157.412 196.324 157.686C195.115 157.96 193.094 150.697 193.094 150.697C193.094 150.697 192.989 145.053 192.118 143.015C192.118 143.015 196.272 134.238 195.15 131.367C194.028 128.496 189.811 130.983 188.414 132.322C187.018 133.662 182.444 139.177 182.444 139.177C182.444 139.177 182.917 125.31 181.813 123.574C179.839 120.47 177.724 121.617 176.421 122.992C175.533 123.912 174.137 132.176 173.746 134.774C173.354 137.371 173.746 146.737 173.787 148.519C173.828 150.301 175.119 157.808 173.851 160.382L169.032 149.736C169.032 149.736 170.527 138.723 167.332 136.923C164.136 135.123 164.633 137.721 163.616 142.945C162.6 148.169 160.181 152.415 161.735 155.333C163.289 158.251 164.878 169.782 164.878 169.782C164.878 169.782 166.081 186.73 165.55 188.792C165.018 190.854 167.361 197.423 167.361 197.423C167.361 197.423 164.662 200.97 164.072 202.321C161.35 208.489 154.462 215.233 146.272 225.379" stroke="#263238" stroke-linecap="round" stroke-linejoin="round"/>
<path d="M182.462 139.212C181.783 140.212 181.44 141.401 181.48 142.607C181.48 144.82 182.935 156.935 182.935 156.935C182.935 156.935 181.878 158.181 181.825 159.264" stroke="#263238" stroke-linecap="round" stroke-linejoin="round"/>
<path d="M208.02 172.578C208.179 174.624 208.708 176.624 209.579 178.483C210.946 181.174 210.502 182.659 210.035 184.249C209.722 185.643 209.555 187.066 209.538 188.495" stroke="#263238" stroke-linecap="round" stroke-linejoin="round"/>
<path d="M174.383 158.012C174.383 158.012 175.399 161.227 173.512 162.753" stroke="#263238" stroke-linecap="round" stroke-linejoin="round"/>
<path d="M196.342 157.686C196.342 157.686 196.541 158.95 194.747 159.066" stroke="#263238" stroke-linecap="round" stroke-linejoin="round"/>
<path d="M208.388 143.126C208.388 143.126 203.889 138.233 200.396 141.92" stroke="#263238" stroke-linecap="round" stroke-linejoin="round"/>
<path d="M190.161 140.377C190.161 140.377 188.087 137.762 186.288 137.919C184.489 138.076 182.059 139.171 181.784 140.61" stroke="#263238" stroke-linecap="round" stroke-linejoin="round"/>
<path d="M210.42 182.677C211.146 183.711 211.675 184.87 211.98 186.095" stroke="#263238" stroke-linecap="round" stroke-linejoin="round"/>
<path d="M198.737 162.793C197.341 165.385 198.007 169.782 197.493 170.988" stroke="#263238" stroke-linecap="round" stroke-linejoin="round"/>
<path d="M183.946 158.489C184.273 159.98 183.239 162.409 183.081 164.197C182.924 165.985 184.39 168.746 184.121 171.256" stroke="#263238" stroke-linecap="round" stroke-linejoin="round"/>
<path d="M174.464 164.593C174.464 164.593 173.244 167.4 173.296 169.252C173.349 171.104 174.009 175.164 174.009 175.164" stroke="#263238" stroke-linecap="round" stroke-linejoin="round"/>
<path d="M165.485 164.459C165.485 164.459 165.042 167.371 166.07 169.421C167.098 171.471 168.097 175.828 168.097 175.828" stroke="#263238" stroke-linecap="round" stroke-linejoin="round"/>
<path d="M167.361 197.423C167.899 197.275 168.381 196.968 168.742 196.543C169.104 196.118 169.329 195.595 169.388 195.041" stroke="#263238" stroke-linecap="round" stroke-linejoin="round"/>
<path d="M196.727 206.299C196.727 206.299 197.843 210.417 195.705 213.067" stroke="#263238" stroke-linecap="round" stroke-linejoin="round"/>
<path d="M161.279 152.398C161.279 152.398 164.422 149.34 166.8 151.92" stroke="#263238" stroke-linecap="round" stroke-linejoin="round"/>
<path d="M173.763 134.797C173.763 134.797 176.1 132.357 178.834 134.966" stroke="#263238" stroke-linecap="round" stroke-linejoin="round"/>
</svg>
