<svg width="540" height="540" viewBox="0 0 540 540" fill="none" xmlns="http://www.w3.org/2000/svg">
<path d="M347.868 105.127C346.747 106.027 345.442 106.669 344.045 107.006C340.211 107.86 330.005 107.428 328.277 112.115C327.724 113.521 326.864 114.786 325.76 115.818C324.656 116.849 323.335 117.621 321.894 118.076C321.894 118.076 313.805 118.508 313.373 120.236C312.941 121.964 309.971 124.924 309.971 124.924H449.28C449.28 124.924 453.967 117.688 446.299 110.884C439.592 104.922 427.334 113.951 425.779 106.564" stroke="#263238" stroke-linecap="round" stroke-linejoin="round"/>
<path d="M424.516 95.7204C422.96 90.1151 419.688 82.5551 413.046 79.7471C401.965 75.0599 392.602 81.4536 390.042 87.8364C387.482 94.2192 385.787 98.4852 376.002 92.9447C366.217 87.4043 357.642 87.8363 354.704 95.1048C353.857 97.209 352.797 99.2211 351.54 101.11" stroke="#263238" stroke-linecap="round" stroke-linejoin="round"/>
<path d="M111.293 179.388H159.667C159.667 179.388 162.496 175.068 157.863 170.888C153.23 166.709 144.201 174.496 145.497 165.737C145.497 165.737 144.417 154.937 137.764 152.086C136.052 151.301 134.164 150.978 132.289 151.149C130.413 151.319 128.615 151.977 127.072 153.058" stroke="#263238" stroke-linecap="round" stroke-linejoin="round"/>
<path d="M123.854 156.978C122.31 160.844 121.273 163.458 115.355 160.067C109.436 156.676 104.274 156.978 102.47 161.363C100.667 165.748 98.3446 168.059 95.9902 168.566C93.6358 169.074 87.4906 168.826 86.4538 171.666C86.1172 172.516 85.5956 173.281 84.9269 173.905C84.2582 174.529 83.4591 174.996 82.5874 175.273C82.5874 175.273 77.695 175.522 77.4358 176.558C76.9206 177.616 76.2222 178.574 75.373 179.388H103.68" stroke="#263238" stroke-linecap="round" stroke-linejoin="round"/>
<path d="M353.43 179.388H376.272C376.272 179.388 379.101 175.068 374.468 170.888C369.835 166.709 360.817 174.496 362.102 165.737C362.102 165.737 361.076 154.937 354.369 152.086C347.663 149.234 342.014 153.166 340.459 156.978C338.904 160.79 337.889 163.458 331.959 160.067C326.03 156.676 320.879 156.978 319.086 161.363C317.293 165.748 314.96 168.059 312.606 168.566C310.252 169.074 304.106 168.826 303.08 171.666C302.742 172.516 302.22 173.28 301.552 173.903C300.883 174.527 300.085 174.995 299.214 175.273C299.214 175.273 294.322 175.522 294.062 176.558C293.547 177.616 292.849 178.574 292 179.388H345.805" stroke="#263238" stroke-linecap="round" stroke-linejoin="round"/>
<g opacity="0.1">
<path opacity="0.1" d="M25.0883 250.744C29.3435 251.586 38.7935 249.307 38.7935 249.307C38.7935 249.307 35.4023 243.529 35.1431 243.194C32.1083 239.285 23.9435 233.474 18.7487 235.418C17.8941 235.758 17.1203 236.274 16.4776 236.932C15.8349 237.59 15.3376 238.375 15.0179 239.238C14.6982 240.1 14.5632 241.02 14.6217 241.938C14.6802 242.856 14.9309 243.751 15.3575 244.566C17.0531 248.087 21.4703 250.02 25.0883 250.744Z" fill="black"/>
<path opacity="0.1" d="M34.3658 277.56C38.513 277.268 46.451 272.97 47.0882 272.624C49.5415 277.169 52.2944 281.546 55.3286 285.725C57.0782 288.166 58.925 290.574 60.8042 292.961C59.7782 292 58.8602 291.146 58.7198 291.038C54.767 288.079 45.371 284.677 40.8566 287.874C40.1219 288.428 39.5117 289.129 39.0656 289.934C38.6195 290.738 38.3474 291.628 38.2669 292.544C38.1865 293.461 38.2995 294.384 38.5987 295.254C38.8978 296.124 39.3764 296.921 40.0034 297.594C42.5738 300.532 47.3366 301.234 51.0194 300.974C54.7022 300.715 61.6034 297.173 63.3962 296.222C64.1306 297.13 64.8434 298.048 65.5562 298.955C69.077 303.275 72.6086 307.595 75.9458 311.98C77.123 313.513 78.2138 315.068 79.3262 316.613C78.419 315.76 77.6522 315.047 77.5226 314.95C73.559 311.98 64.1738 308.578 59.6594 311.785C58.9219 312.337 58.309 313.038 57.8609 313.842C57.4128 314.647 57.1396 315.537 57.059 316.454C56.9785 317.372 57.0925 318.296 57.3936 319.166C57.6947 320.037 58.176 320.834 58.8062 321.505C61.3766 324.454 66.1394 325.145 69.8222 324.886C73.505 324.626 79.7366 321.43 81.875 320.306C82.955 321.926 84.035 323.546 85.0286 325.166C85.6766 326.246 86.3678 327.326 86.951 328.482L88.7438 331.862C89.8238 334.022 90.9038 336.312 91.8866 338.472C92.5778 339.973 93.215 341.41 93.8522 342.868C92.6966 341.323 90.3854 338.353 90.1586 338.126C86.7026 334.606 77.933 329.821 72.9758 332.294C72.1659 332.73 71.4565 333.33 70.8938 334.057C70.3312 334.785 69.9277 335.622 69.7098 336.515C69.4918 337.408 69.4642 338.338 69.6287 339.242C69.7932 340.147 70.1461 341.007 70.6646 341.766C72.7598 345.071 77.3606 346.475 81.0434 346.777C85.0934 347.112 93.2798 344.218 94.295 343.85C95.375 346.259 96.347 348.602 97.2542 350.838C97.9382 352.48 98.5754 354.067 99.1658 355.601L102.535 354.866C101.815 353.174 101.063 351.403 100.278 349.553C99.1982 347.112 98.0426 344.52 96.8006 341.874C99.1151 340.31 101.333 338.608 103.443 336.776C106.866 339.174 114.729 341.096 115.744 341.388C115.29 343.969 114.837 346.475 114.361 348.84C114.113 350.093 113.865 351.27 113.616 352.447L117.18 351.67C117.321 350.935 117.45 350.212 117.58 349.445C118.055 346.82 118.498 344.045 118.93 341.118C120.01 341.118 128.65 340.978 132.376 339.26C135.724 337.694 139.547 334.778 140.368 330.955C140.59 330.063 140.622 329.133 140.462 328.227C140.301 327.322 139.952 326.46 139.436 325.698C138.921 324.936 138.251 324.291 137.47 323.805C136.689 323.319 135.814 323.003 134.903 322.877C129.406 322.272 122.839 329.8 120.863 334.314C120.744 334.584 119.783 337.619 119.2 339.541C119.362 338.353 119.545 337.208 119.697 335.988C120.031 333.58 120.291 331.171 120.582 328.568C120.679 327.316 120.777 326.041 120.874 324.756C120.971 323.471 120.971 322.132 121.025 320.803C121.025 317.714 121.025 314.593 120.831 311.45C122.991 311.731 130.453 312.638 134.007 311.602C137.56 310.565 141.783 308.254 143.165 304.603C143.522 303.755 143.696 302.842 143.676 301.922C143.656 301.002 143.442 300.097 143.049 299.266C142.656 298.434 142.091 297.695 141.393 297.096C140.695 296.497 139.878 296.052 138.996 295.79C133.596 294.354 126.036 300.802 123.336 304.96C123.174 305.219 121.587 308.416 120.744 310.187C120.636 308.297 120.528 306.418 120.355 304.506C119.848 298.998 119.167 293.436 118.519 287.885C118.314 286.178 118.131 284.483 117.947 282.787C118.692 282.895 127.602 284.17 131.587 283.003C135.13 281.923 139.353 279.655 140.746 276.005C141.101 275.156 141.273 274.242 141.252 273.322C141.23 272.403 141.015 271.498 140.621 270.667C140.227 269.835 139.662 269.096 138.963 268.498C138.265 267.899 137.448 267.454 136.566 267.192C131.166 265.756 123.606 272.214 120.917 276.361C120.712 276.674 118.433 281.286 117.915 282.485C117.504 278.737 117.126 275.011 116.91 271.318C116.586 266.333 116.586 261.333 116.91 256.349C117.256 256.403 126.544 257.774 130.626 256.576C134.169 255.496 138.402 253.238 139.785 249.577C140.14 248.729 140.312 247.816 140.292 246.897C140.271 245.978 140.057 245.073 139.664 244.242C139.271 243.411 138.707 242.672 138.01 242.073C137.312 241.474 136.497 241.028 135.616 240.764C130.216 239.339 122.656 245.786 119.956 249.944C119.751 250.268 117.299 255.215 116.921 256.154C116.921 255.863 116.921 255.56 116.921 255.269C117.384 250.28 118.291 245.343 119.632 240.516C120.334 237.838 121.165 235.321 122.019 232.891C123.725 233.323 131.533 235.213 135.324 234.544C139.115 233.874 143.413 232.07 145.195 228.593C145.64 227.788 145.911 226.9 145.99 225.984C146.069 225.068 145.955 224.146 145.655 223.277C145.354 222.408 144.874 221.612 144.246 220.941C143.618 220.27 142.856 219.738 142.009 219.38C136.847 217.361 128.563 222.944 125.442 226.778C125.28 226.984 123.79 229.295 122.721 230.99C123.131 229.91 123.52 228.766 123.93 227.75C125.453 223.852 127.084 220.374 128.553 217.296C129.406 215.557 130.205 214.056 130.972 212.555C132.862 212.112 140.476 210.211 143.478 207.911C146.481 205.61 149.515 201.992 149.494 198.083C149.519 197.163 149.351 196.248 149 195.398C148.649 194.547 148.122 193.78 147.455 193.146C146.788 192.513 145.995 192.027 145.127 191.72C144.26 191.413 143.337 191.292 142.42 191.365C136.912 191.959 132.127 200.718 131.134 205.567C131.047 205.978 130.443 212.684 130.54 212.663H130.648C129.881 214.045 129.082 215.525 128.229 217.166C126.695 220.212 124.989 223.646 123.369 227.545C121.601 231.679 120.076 235.913 118.8 240.224C117.335 245.084 116.309 250.064 115.733 255.107C115.728 255.168 115.728 255.229 115.733 255.29C115.409 253.703 114.372 249.286 114.253 248.951C112.59 244.296 106.639 236.282 101.099 236.455C100.183 236.512 99.2885 236.761 98.4745 237.186C97.6604 237.61 96.9446 238.201 96.3734 238.92C95.8023 239.639 95.3884 240.469 95.1588 241.358C94.9291 242.247 94.8887 243.174 95.0402 244.08C95.5586 247.946 99.1442 251.154 102.363 252.979C105.991 255.02 114.988 255.809 115.701 255.874C115.239 261.019 115.12 266.189 115.344 271.35C115.463 274.352 115.668 277.376 115.917 280.411C115.603 279.04 115.301 277.819 115.247 277.657C113.584 273.002 107.622 264.989 102.093 265.162C101.175 265.216 100.278 265.462 99.4623 265.886C98.6461 266.309 97.9283 266.9 97.3557 267.619C96.783 268.338 96.3684 269.17 96.1388 270.061C95.9092 270.951 95.8697 271.88 96.023 272.786C96.5414 276.664 100.127 279.871 103.345 281.686C106.564 283.5 114.264 284.364 116.305 284.558C116.413 285.714 116.5 286.88 116.619 288.036C117.148 293.609 117.699 299.16 118.087 304.636C118.228 306.558 118.282 308.459 118.357 310.36C118.066 309.15 117.817 308.135 117.763 307.984C116.1 303.318 110.203 295.304 104.609 295.477C103.691 295.533 102.794 295.781 101.978 296.205C101.162 296.63 100.444 297.221 99.8717 297.942C99.2992 298.662 98.8847 299.494 98.6552 300.385C98.4256 301.276 98.3862 302.206 98.5394 303.113C99.0578 306.99 102.654 310.198 105.862 312.012C109.069 313.826 116.035 314.604 118.444 314.842C118.444 316.786 118.444 318.74 118.444 320.63C118.357 321.926 118.368 323.168 118.217 324.464C118.066 325.76 117.969 327.013 117.85 328.266C117.515 330.685 117.202 333.169 116.77 335.513C116.521 337.144 116.251 338.699 115.981 340.265C115.873 338.342 115.571 334.584 115.517 334.282C114.516 330.042 112.445 326.13 109.501 322.92C109.416 322.443 109.282 321.976 109.102 321.527C108.796 320.659 108.312 319.866 107.679 319.198C107.046 318.531 106.28 318.004 105.43 317.653C104.58 317.301 103.666 317.132 102.747 317.158C101.827 317.184 100.924 317.403 100.095 317.801C95.1698 320.328 93.8522 330.232 94.6946 335.081C94.6946 335.362 95.6126 338.429 96.185 340.351C95.6774 339.271 95.1914 338.191 94.6514 337.111C93.5714 334.951 92.4914 332.791 91.2926 330.437L89.435 327.1C88.8302 326.02 88.0634 324.853 87.3722 323.719C85.7198 321.116 83.9162 318.557 82.0478 316.03C83.9702 315.101 90.6878 311.71 93.1286 308.88C95.5694 306.05 97.7618 301.806 96.9086 297.994C96.7322 297.093 96.3687 296.239 95.8418 295.487C95.3149 294.735 94.6362 294.102 93.8495 293.629C93.0628 293.156 92.1856 292.853 91.2745 292.74C90.3635 292.626 89.4388 292.705 88.5602 292.972C83.3114 294.732 80.5142 304.322 80.5682 309.258C80.5682 309.571 81.011 313.114 81.281 315.058C80.201 313.546 79.0238 312.023 77.825 310.522C74.369 306.202 70.7294 301.946 67.1222 297.68C66.0422 296.374 64.9622 295.056 63.8822 293.749C64.5626 293.425 72.695 289.57 75.3734 286.394C77.7602 283.576 80.0066 279.32 79.1534 275.508C78.9827 274.604 78.623 273.745 78.098 272.989C77.573 272.233 76.8944 271.596 76.1065 271.12C75.3187 270.644 74.4393 270.34 73.5257 270.227C72.6122 270.114 71.6851 270.195 70.805 270.464C65.5562 272.214 62.759 281.804 62.813 286.751C62.813 287.118 63.461 292.216 63.677 293.501C61.2794 290.617 58.9034 287.712 56.6894 284.753C53.674 280.773 50.9179 276.602 48.4382 272.268C48.7514 272.117 57.251 268.132 59.9942 264.881C62.381 262.062 64.6382 257.807 63.7742 253.994C63.6032 253.091 63.2439 252.234 62.7196 251.479C62.1953 250.724 61.5177 250.088 60.7311 249.612C59.9445 249.136 59.0665 248.831 58.1543 248.717C57.242 248.603 56.3161 248.683 55.4366 248.951C50.177 250.7 47.3798 260.291 47.4338 265.237C47.4338 265.626 48.1358 271.112 48.3302 272.095C48.1898 271.836 48.0062 271.598 47.8658 271.339C45.5073 266.919 43.5414 262.301 41.9906 257.537C41.105 254.923 40.403 252.364 39.8306 249.858C41.4938 249.286 49.043 246.553 51.8402 243.896C54.6374 241.24 57.2402 237.416 56.7866 233.496C56.7174 232.578 56.4554 231.686 56.0179 230.876C55.5803 230.067 54.977 229.359 54.2473 228.798C53.5176 228.238 52.6779 227.837 51.783 227.623C50.8882 227.409 49.9582 227.386 49.0538 227.556C43.6538 228.722 39.809 237.946 39.3338 242.87C39.3338 243.14 39.3338 245.884 39.3986 247.892C39.1286 246.758 38.837 245.592 38.5994 244.501C37.7138 240.408 37.1522 236.606 36.6878 233.237C36.4394 231.314 36.2558 229.576 36.0938 227.945C37.4222 226.53 42.7142 220.741 43.9562 217.145C45.1982 213.548 45.7274 208.872 43.5566 205.632C43.07 204.851 42.4244 204.18 41.6619 203.665C40.8994 203.149 40.037 202.799 39.1306 202.638C38.2243 202.477 37.2942 202.509 36.4008 202.731C35.5073 202.952 34.6705 203.359 33.9446 203.926C29.6894 207.457 30.5318 217.415 32.3678 222.005C32.519 222.404 35.7158 228.323 35.7806 228.247L35.867 228.161C35.9858 229.738 36.137 231.401 36.3314 233.258C36.731 236.639 37.2062 240.462 38.0054 244.598C38.8288 249.057 39.9106 253.463 41.2454 257.796C42.7046 262.653 44.5949 267.37 46.8938 271.89C46.8938 271.89 46.9586 271.998 46.9802 272.052C45.9002 270.896 42.5414 267.786 42.2606 267.581C38.297 264.611 28.9118 261.209 24.3974 264.416C23.6599 264.968 23.047 265.669 22.5989 266.473C22.1508 267.278 21.8776 268.168 21.797 269.086C21.7165 270.003 21.8305 270.927 22.1316 271.797C22.4327 272.668 22.914 273.465 23.5442 274.136C25.9202 277.096 30.683 277.787 34.3658 277.56Z" fill="black"/>
<path opacity="0.1" d="M121.587 231.887C121.684 231.887 121.943 225.202 121.911 224.78C121.533 219.845 117.904 210.546 112.525 209.25C111.625 209.061 110.695 209.063 109.796 209.256C108.897 209.449 108.048 209.83 107.305 210.373C106.563 210.916 105.943 211.609 105.486 212.407C105.029 213.206 104.745 214.091 104.652 215.006C104.134 218.884 106.747 222.923 109.361 225.526C112.439 228.582 121.587 231.887 121.587 231.887Z" fill="black"/>
</g>
<g opacity="0.1">
<path opacity="0.1" d="M506.584 343.753C502.934 343.883 495.385 340.729 495.385 340.729C495.385 340.729 498.97 336.409 499.24 336.139C502.275 333.299 509.824 329.605 513.896 331.819C514.561 332.216 515.135 332.748 515.582 333.38C516.028 334.013 516.336 334.732 516.487 335.492C516.638 336.251 516.627 337.034 516.456 337.789C516.285 338.545 515.958 339.255 515.494 339.876C513.604 342.619 509.684 343.634 506.584 343.753Z" fill="black"/>
<path opacity="0.1" d="M495.298 364.77C491.886 363.982 485.87 359.37 485.384 358.97C482.728 362.423 479.842 365.692 476.744 368.755C474.962 370.559 473.115 372.308 471.236 374.047C472.208 373.378 473.083 372.794 473.223 372.73C476.906 370.786 485.157 369.22 488.484 372.481C489.021 373.038 489.435 373.702 489.699 374.43C489.963 375.157 490.071 375.932 490.016 376.704C489.961 377.476 489.744 378.228 489.38 378.911C489.015 379.594 488.511 380.192 487.9 380.668C485.373 382.774 481.323 382.709 478.299 382.007C475.275 381.305 470.005 377.438 468.644 376.402C467.91 377.06 467.197 377.73 466.484 378.378C462.985 381.532 459.475 384.653 456.116 387.828C454.939 388.908 453.816 390.085 452.692 391.219C453.556 390.636 454.291 390.139 454.41 390.074C458.092 388.141 466.354 386.575 469.681 389.837C470.218 390.393 470.632 391.056 470.896 391.783C471.16 392.509 471.268 393.283 471.213 394.055C471.158 394.826 470.941 395.577 470.576 396.259C470.212 396.941 469.708 397.538 469.098 398.012C466.57 400.172 462.52 400.064 459.486 399.362C456.451 398.66 451.71 395.161 450.079 393.962C448.999 395.161 447.843 396.371 446.839 397.58C446.148 398.423 445.435 399.19 444.798 400.086L442.854 402.656C441.687 404.33 440.467 406.058 439.365 407.722C438.588 408.877 437.875 409.99 437.14 411.113C438.307 409.979 440.629 407.873 440.845 407.668C444.193 405.194 452.109 402.397 455.9 405.108C456.515 405.579 457.024 406.173 457.394 406.853C457.764 407.533 457.988 408.283 458.05 409.055C458.112 409.826 458.011 410.602 457.755 411.333C457.498 412.063 457.09 412.731 456.559 413.294C454.399 415.757 450.36 416.318 447.26 416.07C443.858 415.811 437.443 412.312 436.644 411.869C435.445 413.726 434.3 415.541 433.252 417.269C432.475 418.543 431.73 419.785 431.028 420.973L428.328 419.893C429.138 418.576 430.002 417.215 430.909 415.778C432.118 413.888 433.447 411.901 434.829 409.86C433.114 408.253 431.498 406.544 429.991 404.741C426.826 406.274 420.033 406.901 419.191 406.901C419.191 409.061 419.266 411.221 419.353 413.273C419.353 414.353 419.439 415.368 419.482 416.372L416.631 415.292C416.631 414.655 416.631 414.04 416.631 413.381C416.631 411.134 416.631 408.737 416.631 406.285C415.746 406.134 408.531 404.87 405.702 402.948C403.131 401.198 400.302 398.261 400.172 394.978C400.105 394.206 400.201 393.429 400.455 392.698C400.708 391.966 401.113 391.296 401.643 390.731C402.173 390.167 402.816 389.72 403.53 389.421C404.245 389.122 405.014 388.976 405.788 388.994C410.432 389.232 414.882 396.36 415.962 400.378C416.026 400.615 416.426 403.261 416.653 404.946C416.653 403.931 416.653 402.959 416.707 401.922C416.707 399.881 416.858 397.84 416.955 395.647C417.052 394.567 417.139 393.487 417.225 392.407C417.312 391.327 417.495 390.247 417.636 389.102C417.992 386.532 418.489 383.951 419.04 381.359C417.247 381.359 410.886 381.067 408.067 379.728C405.248 378.389 402.062 375.916 401.392 372.686C401.212 371.934 401.191 371.153 401.332 370.392C401.473 369.632 401.772 368.91 402.209 368.272C402.647 367.635 403.214 367.096 403.874 366.692C404.533 366.288 405.27 366.027 406.036 365.926C410.67 365.45 416.145 371.822 417.819 375.646C417.927 375.883 418.824 378.756 419.277 380.333C419.623 378.778 419.958 377.222 420.357 375.667C421.513 371.153 422.82 366.628 424.105 362.102C424.504 360.709 424.872 359.327 425.26 357.944C424.623 357.944 417.052 357.804 413.899 356.303C411.091 354.964 407.883 352.48 407.224 349.261C407.04 348.509 407.017 347.726 407.156 346.965C407.296 346.203 407.594 345.479 408.033 344.841C408.471 344.203 409.039 343.664 409.7 343.261C410.361 342.857 411.1 342.598 411.868 342.5C416.502 342.025 421.977 348.397 423.651 352.22C423.77 352.501 425.055 356.638 425.325 357.696C426.168 354.65 426.978 351.594 427.647 348.559C428.583 344.463 429.251 340.311 429.645 336.128C429.343 336.128 421.448 336.02 418.219 334.476C415.411 333.148 412.203 330.664 411.534 327.445C411.351 326.692 411.329 325.91 411.469 325.148C411.609 324.386 411.908 323.663 412.346 323.024C412.784 322.385 413.351 321.846 414.012 321.441C414.672 321.036 415.41 320.775 416.178 320.674C420.822 320.198 426.286 326.581 427.96 330.394C428.101 330.696 429.472 335.146 429.667 335.966C429.667 335.718 429.732 335.47 429.753 335.232C430.033 331.023 429.936 326.798 429.462 322.607C429.235 320.296 428.889 318.092 428.5 315.954C427.032 316.084 420.292 316.613 417.225 315.554C414.158 314.496 410.832 312.422 409.816 309.29C409.553 308.562 409.446 307.787 409.502 307.015C409.559 306.242 409.777 305.491 410.142 304.808C410.508 304.126 411.013 303.528 411.625 303.053C412.237 302.579 412.942 302.239 413.694 302.054C418.24 301.072 424.386 306.806 426.47 310.414C426.578 310.608 427.55 312.725 428.166 314.28C427.982 313.319 427.798 312.325 427.604 311.407C426.859 307.962 425.962 304.852 425.152 302.108C424.677 300.553 424.213 299.149 423.77 297.788C422.258 297.162 416.21 294.548 414.05 292.259C411.89 289.969 409.816 286.535 410.356 283.295C410.456 282.526 410.716 281.787 411.121 281.126C411.525 280.465 412.065 279.897 412.704 279.459C413.343 279.02 414.067 278.722 414.83 278.582C415.592 278.443 416.375 278.467 417.128 278.651C421.621 279.882 424.429 287.798 424.623 291.956C424.623 292.324 424.245 297.961 424.17 297.929H424.072C424.526 299.182 425.001 300.521 425.487 302C426.362 304.733 427.323 307.832 428.144 311.267C429.08 314.966 429.801 318.716 430.304 322.499C430.87 326.732 431.062 331.008 430.876 335.275C430.87 335.325 430.87 335.376 430.876 335.426C431.352 334.141 432.81 330.61 432.95 330.35C434.948 326.711 440.964 320.836 445.543 321.71C446.298 321.879 447.01 322.204 447.631 322.665C448.252 323.127 448.77 323.714 449.15 324.388C449.53 325.062 449.764 325.809 449.836 326.579C449.909 327.349 449.818 328.127 449.571 328.86C448.621 332.014 445.251 334.26 442.303 335.34C439.009 336.56 431.427 336.01 430.833 335.966C430.462 340.296 429.806 344.597 428.868 348.84C428.371 351.324 427.788 353.808 427.183 356.292C427.626 355.212 428.036 354.229 428.112 354.132C430.12 350.482 436.136 344.617 440.704 345.492C441.461 345.659 442.173 345.983 442.795 346.444C443.418 346.905 443.936 347.492 444.316 348.167C444.696 348.841 444.93 349.589 445.002 350.36C445.073 351.131 444.982 351.908 444.733 352.642C443.782 355.784 440.413 357.977 437.464 359.057C434.516 360.137 428.036 359.824 426.319 359.705C426.081 360.655 425.844 361.616 425.595 362.556C424.407 367.114 423.208 371.66 422.161 376.153C421.794 377.741 421.48 379.307 421.178 380.884C421.578 379.912 421.912 379.102 421.977 378.983C423.986 375.332 430.002 369.468 434.581 370.343C435.336 370.511 436.048 370.837 436.669 371.298C437.29 371.759 437.808 372.346 438.188 373.02C438.568 373.694 438.801 374.441 438.874 375.211C438.947 375.982 438.856 376.759 438.609 377.492C437.659 380.635 434.289 382.828 431.33 383.908C428.371 384.988 422.539 384.696 420.53 384.577C420.26 386.197 419.99 387.817 419.796 389.405C419.698 390.485 419.526 391.565 419.472 392.645L419.277 395.885C419.223 397.937 419.158 400.043 419.158 402.041C419.158 403.434 419.158 404.762 419.158 406.091C419.504 404.514 420.238 401.436 420.346 401.188C421.732 397.801 423.963 394.826 426.826 392.548C426.964 392.171 427.137 391.81 427.345 391.468C427.716 390.789 428.226 390.196 428.841 389.727C429.456 389.259 430.162 388.924 430.915 388.746C431.667 388.568 432.449 388.55 433.209 388.693C433.969 388.836 434.69 389.138 435.326 389.578C439.084 392.342 438.858 400.745 437.486 404.698C437.41 404.924 436.287 407.365 435.553 408.888C436.125 408.056 436.633 407.246 437.259 406.393C438.426 404.719 439.635 403.067 440.942 401.296L442.929 398.768C443.577 397.915 444.366 397.084 445.089 396.23C446.817 394.297 448.653 392.407 450.543 390.55C449.064 389.524 443.901 385.808 442.292 383.141C440.683 380.473 439.376 376.661 440.607 373.583C440.871 372.86 441.282 372.201 441.816 371.648C442.349 371.094 442.993 370.658 443.705 370.368C444.417 370.078 445.182 369.941 445.951 369.964C446.719 369.988 447.474 370.172 448.167 370.505C452.293 372.665 453.34 381.002 452.638 385.106C452.638 385.355 451.753 388.249 451.267 389.815C452.412 388.735 453.546 387.601 454.744 386.521C458.2 383.389 461.786 380.333 465.35 377.276L468.59 374.436C468.061 374.08 461.818 369.792 460.015 366.8C458.406 364.144 457.11 360.32 458.33 357.253C458.594 356.531 459.005 355.872 459.539 355.318C460.072 354.764 460.715 354.328 461.427 354.037C462.139 353.746 462.903 353.607 463.672 353.629C464.441 353.651 465.196 353.833 465.89 354.164C470.016 356.324 471.063 364.662 470.361 368.766C470.361 369.079 469.098 373.226 468.741 374.263C471.128 372.19 473.482 370.084 475.718 367.924C478.81 364.998 481.703 361.87 484.38 358.56C484.131 358.387 477.608 353.948 475.74 350.881C474.13 348.214 472.824 344.401 474.044 341.323C474.309 340.596 474.724 339.932 475.262 339.376C475.8 338.819 476.449 338.381 477.167 338.091C477.884 337.801 478.655 337.665 479.429 337.691C480.202 337.718 480.962 337.906 481.658 338.245C485.784 340.405 486.831 348.743 486.129 352.847C486.075 353.171 484.768 357.631 484.477 358.42C484.628 358.236 484.801 358.052 484.952 357.858C487.506 354.504 489.758 350.929 491.68 347.177C492.76 345.114 493.689 343.084 494.542 341.096C493.236 340.394 487.328 337.111 485.362 334.541C483.397 331.97 481.755 328.396 482.63 325.231C482.81 324.478 483.148 323.771 483.62 323.156C484.092 322.542 484.689 322.034 485.371 321.666C486.053 321.298 486.805 321.078 487.577 321.021C488.35 320.963 489.126 321.069 489.855 321.332C494.175 323.028 496.152 331.193 495.903 335.372C495.903 335.599 495.493 337.878 495.19 339.53C495.558 338.634 495.957 337.705 496.27 336.83C497.545 333.59 498.517 330.458 499.359 327.715C499.824 326.16 500.212 324.734 500.558 323.395C499.64 322.034 496.011 316.526 495.46 313.394C494.91 310.262 495.093 306.277 497.329 303.88C497.836 303.295 498.461 302.824 499.163 302.496C499.865 302.169 500.627 301.993 501.402 301.98C502.176 301.967 502.944 302.116 503.656 302.42C504.369 302.723 505.01 303.172 505.537 303.739C508.615 307.249 506.617 315.403 504.457 318.967C504.273 319.28 500.828 323.773 500.785 323.708L500.72 323.622C500.418 324.918 500.061 326.29 499.64 327.791C498.96 330.48 498.009 333.634 496.8 336.96C495.531 340.557 494.052 344.077 492.372 347.501C490.512 351.344 488.311 355.013 485.794 358.463C485.765 358.505 485.733 358.545 485.697 358.582C486.777 357.782 489.963 355.633 490.222 355.493C493.905 353.56 502.167 351.983 505.494 355.244C506.031 355.801 506.445 356.465 506.709 357.193C506.973 357.921 507.081 358.695 507.026 359.467C506.971 360.24 506.754 360.991 506.39 361.674C506.025 362.357 505.521 362.955 504.91 363.431C502.383 365.537 498.322 365.483 495.298 364.77Z" fill="black"/>
<path opacity="0.1" d="M428.911 315.219C428.824 315.219 429.505 309.614 429.591 309.258C430.563 305.219 434.818 297.972 439.462 297.615C440.235 297.578 441.008 297.703 441.729 297.984C442.45 298.264 443.104 298.694 443.648 299.244C444.192 299.794 444.614 300.453 444.887 301.177C445.159 301.901 445.276 302.675 445.23 303.447C445.154 306.687 442.443 309.744 439.916 311.558C436.946 313.686 428.911 315.209 428.911 315.219Z" fill="black"/>
</g>
<path d="M225.342 36.0288L238.842 164.322" stroke="#263238" stroke-linecap="round" stroke-linejoin="round"/>
<path d="M265.831 63.2881L255.765 65.5993L246.553 83.8189L231.962 79.6501L231.552 83.6245L249.696 91.1521L256.187 82.1449V97.8589L275.67 98.7013L279.655 80.8921L286.772 87.1777V103.723H290.963L293.479 82.9873L282.377 64.9729L265.831 63.2881Z" fill="white" stroke="#263238" stroke-linecap="round" stroke-linejoin="round"/>
<path d="M256.186 82.1449L256.035 73.2781" stroke="#263238" stroke-linecap="round" stroke-linejoin="round"/>
<path d="M265.68 69.12L268.412 74.25C268.412 74.25 275.972 76.6476 277.311 76.9824C278.65 77.3172 282.787 75.9564 286.2 75.276C289.613 74.5956 300.575 80.0604 300.575 80.0604L310.154 80.406L305.024 74.25L286.545 71.5068L276.966 74.5956L270.486 72.8784L271.868 70.2L268.79 65.4048L265.68 69.12Z" fill="black" stroke="#263238" stroke-linecap="round" stroke-linejoin="round"/>
<path d="M266.663 61.8193C266.106 61.7141 265.531 61.8317 265.06 62.1469C264.589 62.462 264.261 62.9494 264.147 63.5041C263.736 65.5993 263.315 70.8373 263.315 70.8373L268.337 69.3685L274.212 71.8849C274.212 71.8849 276.091 66.4309 275.044 64.5517C273.996 62.6725 269.179 60.1453 266.663 61.8193Z" fill="white" stroke="#263238" stroke-linecap="round" stroke-linejoin="round"/>
<path d="M265.615 58.8923C265.615 58.8923 266.241 64.7567 266.457 66.8519C266.673 68.9471 267.926 72.0899 268.758 71.4635C269.589 70.8371 272.527 64.9835 272.527 64.9835L273.996 61.0091L265.615 58.8923Z" fill="white" stroke="#263238" stroke-linecap="round" stroke-linejoin="round"/>
<path d="M265.68 50.328C265.68 50.328 263.844 50.166 263.844 53.1684C263.844 56.1708 265.172 56.3328 265.172 56.3328L265.68 50.328Z" fill="white" stroke="#263238" stroke-linecap="round" stroke-linejoin="round"/>
<path d="M277.959 52.8337C278.197 52.8465 278.43 52.9112 278.64 53.0233C278.85 53.1354 279.033 53.2922 279.176 53.4826C279.319 53.6731 279.419 53.8925 279.468 54.1256C279.517 54.3587 279.515 54.5997 279.461 54.8317C279.126 56.6677 275.961 59.1517 275.961 59.1517L277.959 52.8337Z" fill="white" stroke="#263238" stroke-linecap="round" stroke-linejoin="round"/>
<path d="M271.9 44.2799C271.9 44.2799 268.552 43.4375 266.662 47.4227C264.772 51.4079 265.194 56.2247 265.582 58.9464C265.971 61.6679 268.52 62.9207 271.036 62.9207C273.553 62.9207 277.311 57.6935 278.154 53.7083C278.996 49.7231 278.391 44.2799 271.9 44.2799Z" fill="white" stroke="#263238" stroke-linecap="round" stroke-linejoin="round"/>
<path d="M227.912 77.3279L228.744 83.6135L232.513 84.0347L231.887 76.9067L227.912 77.3279Z" fill="white" stroke="#263238" stroke-linecap="round" stroke-linejoin="round"/>
<path d="M231.962 77.2308L233.485 77.0256L233.787 80.3736L232.264 80.5788L231.962 77.2308Z" fill="white" stroke="#263238" stroke-linecap="round" stroke-linejoin="round"/>
<path d="M286.772 103.723L284.482 107.309L285.076 110.905L287.074 110.711L290.476 109.512L290.962 103.723H286.772Z" fill="white" stroke="#263238" stroke-linecap="round" stroke-linejoin="round"/>
<path d="M256.187 97.8589L254.707 104.317L238.312 125.896L249.307 156.881L252.104 156.276L249.707 126.695L263.098 112.504L264.697 113.508L264.74 129.341L280.087 155.282L283.284 154.472L276.091 129.492L276.491 102.913L275.67 98.7013L256.187 97.8589Z" fill="#263238" stroke="#263238" stroke-linecap="round" stroke-linejoin="round"/>
<path d="M249.307 156.881L246.91 160.272C246.91 160.272 243.108 162.076 242.514 163.069C241.92 164.063 245.754 163.869 245.754 163.869L250.15 163.469L254.751 160.477L252.148 156.276L249.307 156.881Z" fill="white" stroke="#263238" stroke-linecap="round" stroke-linejoin="round"/>
<path d="M225.914 40.5972C225.914 40.5972 223.905 45.1764 215.611 48.3192C207.317 51.462 195.307 53.1792 192.164 59.7564C189.021 66.3336 189.021 65.772 188.449 69.4764C188.143 71.6418 187.138 73.648 185.587 75.1896C185.587 75.1896 188.449 75.4812 189.907 73.4832C191.365 71.4852 191.916 65.7612 194.227 64.8972C196.538 64.0332 200.739 62.64 200.739 62.64C200.739 62.64 196.743 66.0744 196.419 67.7916C196.095 69.5088 195.847 73.5156 195.275 76.086C195.025 77.4913 194.341 78.783 193.32 79.7796C193.32 79.7796 197.035 79.7796 198.18 77.2092C199.325 74.6388 198.18 71.2044 201.895 68.6232C205.61 66.042 209.617 67.1976 215.935 67.4784C222.253 67.7592 228.236 64.0548 228.236 64.0548L225.914 40.5972Z" fill="black" stroke="#263238" stroke-linecap="round" stroke-linejoin="round"/>
<path d="M280.087 155.282L277.333 164.43L284.169 164.16L283.284 154.472L280.087 155.282Z" fill="white" stroke="#263238" stroke-linecap="round" stroke-linejoin="round"/>
<path d="M269.611 52.3044C269.492 52.8444 269.114 53.2224 268.747 53.1468C268.379 53.0712 268.185 52.5636 268.304 52.0668C268.423 51.57 268.801 51.1488 269.168 51.2244C269.535 51.3 269.719 51.7644 269.611 52.3044Z" fill="#263238"/>
<path d="M274.612 53.4709C274.493 54.0109 274.115 54.3889 273.748 54.3133C273.38 54.2377 273.186 53.7301 273.305 53.2333C273.424 52.7365 273.802 52.3153 274.169 52.3909C274.536 52.4665 274.72 52.9201 274.612 53.4709Z" fill="#263238"/>
<path d="M271.285 52.9956L269.957 57.0024H272.127" stroke="#263238" stroke-linecap="round" stroke-linejoin="round"/>
<path d="M268.293 58.1687C268.293 58.1687 269.46 60.1667 272.462 59.0003" stroke="#263238" stroke-linecap="round" stroke-linejoin="round"/>
<path d="M268.121 49.4963C268.555 49.2618 269.057 49.1832 269.542 49.2736C270.028 49.364 270.467 49.6179 270.788 49.9931" stroke="#263238" stroke-linecap="round" stroke-linejoin="round"/>
<path d="M273.294 50.6629C273.586 50.5027 273.909 50.406 274.241 50.3791C274.573 50.3522 274.907 50.3957 275.221 50.5068C275.535 50.618 275.822 50.7942 276.063 51.024C276.304 51.2537 276.494 51.5318 276.62 51.8401" stroke="#263238" stroke-linecap="round" stroke-linejoin="round"/>
<path d="M264.957 48.9998L276.955 47.5202C276.955 47.5202 276.459 49.5182 277.128 50.015C277.798 50.5118 277.96 52.8554 277.96 52.8554L277.463 55.523L280.131 50.8574C280.131 50.8574 280.962 47.1854 280.293 46.019C280.073 45.6669 279.782 45.3655 279.438 45.1346C279.093 44.9037 278.703 44.7487 278.295 44.6798C277.58 43.5993 276.574 42.7442 275.392 42.2145C274.21 41.6848 272.902 41.5022 271.62 41.6882C266.955 42.185 264.957 44.5178 264.957 46.3538V48.9998Z" fill="#263238" stroke="#263238" stroke-linecap="round" stroke-linejoin="round"/>
<path d="M256.1 502.416L277.268 380.949L197.37 307.627L226.368 208.829L195.328 209.52L182.217 221.249L154.818 220.58L151.113 233.939L143.596 233L141.004 237.687L128.185 263.283L121.521 288.846L96.6811 319.896L93.9595 393.163L53.9131 450.965L41.3203 502.416H256.1Z" fill="#808080" stroke="#39515E" stroke-linecap="round" stroke-linejoin="round"/>
<path d="M436.384 502.416L409.87 444.28L453.07 473.062V427L427.679 396.922L431.438 363.085L392.882 289.764L390.959 264.384L377.805 252.158L310.283 257.04L305.466 233.334L262.266 208.894L236.346 271.652L212.468 282.215L229.294 305.284L226.572 323.568L232.199 351.799L138.239 372.481C138.239 372.481 137.3 417.604 137.3 421.362C137.3 425.12 118.497 446.742 118.497 446.742L117.622 502.416H436.384Z" fill="#ABABAB" stroke="#39515E" stroke-linecap="round" stroke-linejoin="round"/>
<path d="M488.71 502.416L477.489 497.502L463.384 467.424L446.461 455.209L438.944 437.346L431.427 423.241L391.251 403.618L397.483 502.416H488.71Z" fill="#CCCCCC" stroke="#39515E" stroke-linecap="round" stroke-linejoin="round"/>
<path d="M68.2015 502.297H118.432L119.339 473.062L114.641 456.149V411.026L103.366 409.147L93.9595 419.483L78.9259 427.95L46.3423 502.416H68.2015V502.297Z" fill="#CCCCCC" stroke="#39515E" stroke-linecap="round" stroke-linejoin="round"/>
<path d="M85.5786 453.352L86.6802 448.665" stroke="#39515E" stroke-miterlimit="10"/>
<path d="M68.2017 502.416L74.8977 475.967L81.2157 471.949L84.9093 456.203" stroke="#39515E" stroke-miterlimit="10"/>
<path d="M57.3584 502.697L67.9964 472.522" stroke="#39515E" stroke-miterlimit="10"/>
<path d="M103.517 421.632L102.48 426.535" stroke="#39515E" stroke-miterlimit="10"/>
<path d="M105.926 410.163L103.96 419.526" stroke="#39515E" stroke-miterlimit="10"/>
<path d="M118.432 502.297L119.34 473.062L114.642 456.149V411.027L105.246 471.183L96.7784 474.001L93.9596 490.925L92.21 502.297H118.432Z" fill="white" stroke="#39515E" stroke-linecap="round" stroke-linejoin="round"/>
<path d="M279.299 468.958C284.642 468.234 289.868 466.811 294.84 464.724C298.81 463.105 302.303 460.503 304.992 457.164C305.305 456.743 305.597 456.3 305.878 455.857L298.458 422.377L283.824 409.612L281.383 398.66L267.343 387.709L262.483 404.752L254.567 415.703L253.962 455.868L261.522 470.318C267.472 470.268 273.411 469.814 279.299 468.958Z" fill="white" stroke="#39515E" stroke-linecap="round" stroke-linejoin="round"/>
<path d="M279.298 468.958L277.808 456.451L282.204 444.604V437.584L281.318 426.611" stroke="#39515E" stroke-miterlimit="10"/>
<path d="M288.208 430.942L290.541 444.161L294.926 445.036L294.051 456.008L295.801 461.722" stroke="#39515E" stroke-miterlimit="10"/>
<path d="M286.588 421.783L287.366 426.19" stroke="#39515E" stroke-miterlimit="10"/>
<path d="M272.105 393.692L275.615 429.678" stroke="#39515E" stroke-miterlimit="10"/>
<path d="M229.229 468.061C239.326 469.596 249.526 470.354 259.739 470.329C261.791 470.329 263.8 470.275 265.777 470.2L265.561 458.903L261.91 454.043V419.353L268.001 413.262L267.386 387.72L260.085 401.112L250.365 409.623L244.274 427.27L234.554 438.837L232.113 451.008L220.557 460.728L215.945 465.642C220.301 466.571 224.729 467.377 229.229 468.061Z" fill="#CCCCCC" stroke="#39515E" stroke-linecap="round" stroke-linejoin="round"/>
<path d="M405.108 502.416L456.138 502.319L390.063 462.726L374.09 424.181L360.925 422.302L349.65 407.268L344.001 412.906L347.76 445.803L333.666 469.303V484.348L327.088 501.261L358.884 502.416H405.108Z" fill="white" stroke="#39515E" stroke-linecap="round" stroke-linejoin="round"/>
<path d="M379.512 502.351L377.104 488.905L380.894 480.967L379.858 465.448L382.968 468.558L404.006 502.351H379.512Z" fill="#CCCCCC" stroke="#39515E" stroke-linecap="round" stroke-linejoin="round"/>
<path d="M379.857 465.448L394.696 472.695L400.55 479.931L417.452 488.56L429.181 495.807L436.384 502.416L404.006 502.351L379.857 465.448Z" fill="white" stroke="#39515E" stroke-linecap="round" stroke-linejoin="round"/>
<path d="M333.665 469.303V484.348L326.581 502.114L353.419 502.459L347.759 470.243L359.045 459.907L344.001 412.906L347.759 445.803L333.665 469.303Z" fill="#CCCCCC" stroke="#39515E" stroke-linecap="round" stroke-linejoin="round"/>
<path d="M360.925 422.302L370.85 443.286L375.235 443.729L378.745 454.259" stroke="#39515E" stroke-miterlimit="10"/>
<path d="M367.588 485.784L369.1 490.687" stroke="#39515E" stroke-miterlimit="10"/>
<path d="M361.637 447.671L364.704 459.529L369.975 468.299L363.83 473.569L366.486 482.198" stroke="#39515E" stroke-miterlimit="10"/>
<path d="M236.239 206.55L214.207 230.645L213.451 186.473L235.385 159.84L236.239 206.55Z" fill="#CCCCCC" stroke="#39515E" stroke-linecap="round" stroke-linejoin="round"/>
<path d="M220.946 303.016L243.475 283.133C245.091 281.731 246.889 280.554 248.821 279.634C251.244 278.484 253.777 277.58 256.381 276.934C259.718 276.122 263.112 275.559 266.533 275.249C270.841 274.852 275.167 274.693 279.493 274.774C289.951 274.912 300.384 275.833 310.705 277.528C319.283 278.948 327.763 280.907 336.095 283.392C343.591 285.628 350.135 288.025 355.784 290.239C361.432 292.453 366.098 294.484 369.878 295.974L340.642 314.928C337.067 313.524 332.629 311.613 327.304 309.528C321.98 307.444 315.77 305.208 308.674 303.048C300.793 300.707 292.77 298.871 284.655 297.551C274.883 295.963 265.006 295.111 255.106 295.002C251.004 294.932 246.901 295.09 242.816 295.477C239.58 295.775 236.371 296.313 233.215 297.087C230.732 297.696 228.318 298.557 226.011 299.657C224.179 300.543 222.475 301.673 220.946 303.016Z" fill="#CCCCCC" stroke="#39515E" stroke-linecap="round" stroke-linejoin="round"/>
<path d="M292.68 465.599L267.257 475.319C269.478 474.493 271.607 473.436 273.607 472.165C275.379 471.035 276.973 469.649 278.337 468.051C279.625 466.537 280.621 464.797 281.275 462.921C281.948 460.922 282.263 458.819 282.204 456.711C282.186 453.032 281.056 449.444 278.964 446.418C276.28 442.86 272.853 439.929 268.92 437.832C263.255 434.738 257.301 432.206 251.143 430.272C243.799 427.799 234.943 425.358 224.521 422.82C210.326 419.515 196.427 415.05 182.963 409.471C170.802 404.488 159.387 397.852 149.04 389.751C139.536 382.326 131.708 372.978 126.068 362.319C120.35 350.991 117.389 338.472 117.428 325.782C117.374 320.628 117.735 315.478 118.508 310.381C119.246 305.482 120.402 300.655 121.964 295.953C123.502 291.345 125.443 286.882 127.764 282.615C130.102 278.344 132.809 274.286 135.853 270.486L153.36 248.53C146.904 256.562 141.937 265.684 138.693 275.465C137.024 280.436 135.788 285.542 135 290.725C134.199 296.123 133.838 301.577 133.92 307.033C133.911 320.486 137.075 333.751 143.154 345.751C149.135 357.052 157.43 366.965 167.497 374.847C177.735 383.087 189.907 389.967 203.439 395.723C217.686 401.647 232.395 406.393 247.417 409.914C258.487 412.614 267.807 415.217 275.573 417.841C282.091 419.912 288.389 422.622 294.375 425.931C299.214 428.749 302.681 431.73 304.97 435.013C307.202 438.211 308.411 442.011 308.437 445.911C308.509 448.144 308.18 450.371 307.465 452.488C306.777 454.463 305.729 456.293 304.376 457.888C302.933 459.568 301.247 461.024 299.376 462.208C297.269 463.571 295.025 464.707 292.68 465.599Z" fill="#CCCCCC" stroke="#39515E" stroke-linecap="round" stroke-linejoin="round"/>
<path d="M167.497 374.846C177.735 383.087 189.907 389.967 203.439 395.723C217.686 401.647 232.395 406.393 247.417 409.914C258.487 412.614 267.807 415.217 275.573 417.841C282.091 419.912 288.389 422.622 294.375 425.931C299.214 428.749 302.681 431.73 304.97 435.013C307.202 438.211 308.411 442.011 308.437 445.91C308.616 449.958 307.387 453.942 304.959 457.186C302.27 460.525 298.777 463.126 294.807 464.746C289.845 466.829 284.631 468.253 279.299 468.979C272.822 469.916 266.284 470.375 259.74 470.351C249.527 470.376 239.327 469.618 229.23 468.083C219.534 466.613 209.936 464.553 200.491 461.916C191.311 459.357 182.574 456.397 174.431 453.276C166.287 450.155 158.727 446.796 151.913 443.556L138.11 502.2H386.175C393.905 493.59 399.953 483.608 404.006 472.77C408.254 461.223 410.227 448.963 409.817 436.666C409.449 423.522 407.451 411.826 403.531 401.339C399.631 390.856 393.558 381.316 385.711 373.345C377.643 365.072 367.351 357.783 354.542 351.281C341.733 344.779 326.311 339.023 308.102 333.828C296.381 330.415 286.131 327.139 277.355 324C269.861 321.407 262.551 318.311 255.474 314.734C249.642 311.677 245.268 308.642 242.352 305.532C239.436 302.422 237.945 299.257 237.881 295.931C237.798 293.21 238.384 290.51 239.587 288.069C241.086 285.23 243.325 282.849 246.067 281.178C250.006 278.804 254.348 277.175 258.876 276.372C265.699 275.095 272.64 274.556 279.579 274.763C290.037 274.901 300.471 275.822 310.791 277.517C319.37 278.937 327.85 280.896 336.182 283.381C343.677 285.617 350.222 288.015 355.871 290.229C361.519 292.443 366.185 294.473 369.965 295.963L386.035 223.603C380.981 221.443 375.548 219.283 369.597 217.231C363.647 215.179 357.167 213.257 350.049 211.518C342.932 209.779 335.156 208.278 326.603 206.971C318.049 205.664 308.685 204.736 298.425 204.131L297.486 161.341L235.44 159.84L236.293 206.55C221.204 208.632 206.481 212.816 192.553 218.981C180.56 224.28 169.613 231.683 160.229 240.84C151.643 249.318 144.893 259.472 140.4 270.67C135.867 282.246 133.665 294.604 133.92 307.033C133.911 320.486 137.075 333.751 143.154 345.751C149.135 357.051 157.43 366.965 167.497 374.846Z" fill="white" stroke="#39515E" stroke-linecap="round" stroke-linejoin="round"/>
<path d="M138.11 502.2L151.912 443.524L134.233 454.583L122.979 502.2H138.11Z" fill="#CCCCCC" stroke="#39515E" stroke-linecap="round" stroke-linejoin="round"/>
<path d="M436.483 488.041C435.395 487.836 434.27 488.056 433.34 488.657L438.178 491.562C438.307 491.22 438.365 490.855 438.349 490.491C438.333 490.126 438.243 489.768 438.084 489.438C437.926 489.109 437.702 488.816 437.427 488.576C437.151 488.335 436.83 488.154 436.483 488.041Z" fill="#263238"/>
<path d="M437.843 449.809C437.843 449.809 438.491 447.087 438.513 446.915C438.729 444.873 437.94 440.791 435.834 439.851C435.48 439.706 435.099 439.637 434.716 439.649C434.333 439.661 433.958 439.754 433.613 439.921C433.268 440.088 432.963 440.326 432.717 440.619C432.471 440.912 432.289 441.254 432.184 441.623C431.676 443.167 432.443 445.014 433.318 446.277C434.355 447.768 437.843 449.798 437.843 449.809Z" fill="#263238"/>
<path d="M469.865 466.42C471.183 464.832 472.77 461.02 471.528 459.054C471.314 458.736 471.036 458.467 470.71 458.265C470.385 458.063 470.02 457.932 469.641 457.881C469.261 457.83 468.875 457.86 468.508 457.969C468.141 458.078 467.801 458.264 467.511 458.514C466.927 459.102 466.479 459.811 466.199 460.591C465.919 461.371 465.814 462.203 465.891 463.028C465.891 464.832 467.716 468.428 467.727 468.428C467.737 468.428 469.8 466.56 469.865 466.42Z" fill="#263238"/>
<path d="M425.369 481.431C426.895 482.406 428.564 483.135 430.316 483.591C430.175 484.391 430.035 485.19 429.862 485.957C429.862 486.151 429.765 486.345 429.722 486.551L430.737 487.155C430.802 486.842 430.866 486.518 430.942 486.205C431.19 484.941 431.396 483.656 431.558 482.36C433.29 482.999 435.112 483.364 436.958 483.44C437.792 483.418 438.611 483.213 439.358 482.84C440.104 482.467 440.76 481.934 441.278 481.28C441.485 480.957 441.622 480.593 441.68 480.213C441.737 479.833 441.715 479.445 441.613 479.074C441.511 478.704 441.332 478.358 441.089 478.061C440.845 477.764 440.541 477.521 440.198 477.349C438.113 476.366 434.506 478.429 433.091 479.93C433.005 480.027 432.119 481.215 431.644 481.885C431.741 481.097 431.839 480.319 431.914 479.52C432.119 477.23 432.26 474.897 432.4 472.575C432.4 471.873 432.497 471.161 432.551 470.415C432.854 470.523 436.396 471.711 438.124 471.495C439.647 471.333 441.559 470.707 442.444 469.335C442.651 469.013 442.788 468.65 442.846 468.271C442.903 467.891 442.88 467.504 442.779 467.134C442.677 466.765 442.498 466.42 442.254 466.124C442.011 465.828 441.707 465.586 441.364 465.415C439.28 464.432 435.672 466.495 434.258 467.996C434.16 468.115 432.875 469.832 432.573 470.275C432.681 468.72 432.811 467.165 432.994 465.631C433.227 463.569 433.587 461.524 434.074 459.507C434.215 459.507 437.919 460.814 439.679 460.587C441.213 460.425 443.114 459.799 443.999 458.427C444.206 458.105 444.343 457.742 444.401 457.363C444.458 456.983 444.436 456.596 444.334 456.226C444.232 455.857 444.053 455.512 443.81 455.216C443.566 454.92 443.263 454.678 442.919 454.507C440.835 453.513 437.228 455.587 435.824 457.088C435.705 457.207 434.333 459.054 434.107 459.399C434.107 459.281 434.161 459.162 434.193 459.043C434.758 457.038 435.499 455.086 436.407 453.211C436.893 452.131 437.422 451.191 437.951 450.263C438.621 450.565 441.677 451.926 443.276 451.937C444.874 451.947 446.775 451.537 447.769 450.241C448.012 449.945 448.189 449.6 448.291 449.231C448.392 448.861 448.414 448.474 448.356 448.095C448.298 447.716 448.161 447.354 447.954 447.031C447.746 446.709 447.474 446.434 447.153 446.223C445.198 445.014 441.386 446.677 439.82 448.016C439.733 448.092 438.945 448.923 438.383 449.539C438.632 449.118 438.88 448.686 439.129 448.286C440.047 446.807 440.975 445.511 441.807 444.355C442.282 443.707 442.725 443.135 443.146 442.595C445.01 442.558 446.857 442.234 448.622 441.633C449.983 440.931 451.538 439.657 451.862 438.059C451.934 437.687 451.929 437.305 451.846 436.936C451.763 436.567 451.604 436.219 451.38 435.914C451.155 435.61 450.87 435.355 450.542 435.167C450.214 434.978 449.851 434.859 449.475 434.819C447.174 434.657 444.561 437.886 443.783 439.787C443.719 439.959 442.962 442.649 443.006 442.649H443.06C442.638 443.156 442.196 443.729 441.731 444.312C440.867 445.446 439.906 446.731 438.956 448.2C437.919 449.773 436.971 451.403 436.115 453.081C435.15 454.961 434.354 456.924 433.739 458.946C433.739 458.946 433.739 459 433.739 459.021C433.739 458.341 433.642 456.462 433.621 456.311C433.286 454.28 431.461 450.554 429.171 450.209C428.791 450.163 428.405 450.198 428.039 450.311C427.673 450.423 427.335 450.611 427.046 450.863C426.757 451.114 426.524 451.423 426.362 451.77C426.199 452.117 426.112 452.493 426.104 452.876C426.028 454.507 427.259 456.116 428.437 457.077C429.776 458.157 433.394 459.237 433.685 459.237C433.112 461.309 432.675 463.416 432.379 465.545C432.195 466.787 432.055 468.039 431.936 469.303C431.936 468.72 431.871 468.223 431.86 468.126C431.525 466.095 429.7 462.359 427.411 462.024C427.031 461.977 426.645 462.01 426.279 462.122C425.913 462.234 425.574 462.423 425.286 462.674C424.997 462.926 424.765 463.236 424.605 463.583C424.444 463.931 424.359 464.309 424.354 464.691C424.279 466.311 425.51 467.931 426.687 468.882C428.262 469.857 429.978 470.586 431.774 471.042C431.774 471.517 431.677 472.003 431.644 472.489C431.439 474.811 431.255 477.122 430.996 479.39C430.91 480.189 430.791 480.978 430.672 481.755C430.672 481.237 430.672 480.805 430.672 480.74C430.337 478.71 428.512 474.984 426.223 474.638C425.843 474.591 425.457 474.625 425.091 474.737C424.725 474.849 424.386 475.037 424.098 475.289C423.809 475.54 423.577 475.85 423.417 476.198C423.256 476.545 423.171 476.923 423.166 477.306C422.961 478.861 424.192 480.449 425.369 481.431Z" fill="#263238"/>
<path d="M485.687 462.294C483.862 460.879 479.898 462.132 478.203 463.298C478.051 463.396 475.935 465.232 475.978 465.253C475.351 465.437 474.682 465.653 473.947 465.901C472.608 466.376 471.096 466.916 469.498 467.618C467.759 468.348 466.068 469.185 464.433 470.124C462.591 471.159 460.846 472.355 459.216 473.699L459.162 473.753C459.519 473.18 460.491 471.593 460.545 471.431C461.387 469.552 461.916 465.426 460.199 463.871C459.908 463.623 459.568 463.438 459.201 463.33C458.834 463.222 458.449 463.193 458.07 463.244C457.691 463.295 457.326 463.425 457.001 463.626C456.676 463.827 456.397 464.095 456.181 464.411C455.22 465.718 455.371 467.716 455.803 469.195C456.311 470.858 458.773 473.688 458.979 473.915C457.35 475.316 455.823 476.832 454.41 478.451C453.568 479.39 452.758 480.352 451.959 481.334C452.261 480.838 452.52 480.384 452.553 480.319C453.395 478.44 453.924 474.314 452.207 472.759C451.916 472.511 451.576 472.327 451.209 472.219C450.842 472.111 450.457 472.081 450.078 472.132C449.699 472.183 449.334 472.313 449.009 472.514C448.684 472.715 448.404 472.983 448.189 473.299C447.228 474.606 447.379 476.615 447.822 478.084C448.599 479.762 449.63 481.31 450.879 482.674L449.971 483.754C448.524 485.59 447.088 487.415 445.651 489.154C445.144 489.769 444.571 490.363 444.085 490.946L444.593 490.061C445.435 488.192 445.965 484.067 444.247 482.501C443.957 482.253 443.617 482.068 443.25 481.96C442.883 481.852 442.497 481.823 442.118 481.874C441.739 481.925 441.375 482.055 441.05 482.256C440.724 482.457 440.445 482.725 440.23 483.041C439.269 484.348 439.42 486.346 439.863 487.825C440.584 489.525 441.576 491.097 442.8 492.48L441.72 493.646L442.671 494.219C443.329 493.538 443.967 492.826 444.604 492.059C445.702 493.534 447.02 494.831 448.513 495.904C449.222 496.336 450.016 496.609 450.841 496.702C451.665 496.795 452.5 496.707 453.287 496.444C453.638 496.292 453.953 496.068 454.212 495.786C454.471 495.504 454.667 495.171 454.788 494.808C454.91 494.446 454.953 494.061 454.916 493.681C454.879 493.3 454.762 492.931 454.572 492.599C453.373 490.622 449.172 490.363 447.228 490.838C447.099 490.838 445.705 491.368 444.939 491.659C445.446 491.054 445.965 490.46 446.461 489.834C447.898 488.041 449.302 486.173 450.706 484.315L452.002 482.63C452.196 482.879 454.507 485.87 456.041 486.626C456.748 487.057 457.54 487.328 458.363 487.421C459.185 487.514 460.018 487.428 460.804 487.166C461.155 487.015 461.47 486.791 461.729 486.509C461.988 486.227 462.184 485.894 462.305 485.531C462.426 485.168 462.47 484.784 462.433 484.403C462.395 484.023 462.278 483.654 462.089 483.322C460.901 481.345 456.754 481.075 454.745 481.55C454.594 481.55 452.585 482.317 452.088 482.522C453.039 481.28 454 480.06 455.004 478.883C456.341 477.29 457.785 475.789 459.324 474.39C459.411 474.509 461.797 477.63 463.374 478.418C464.735 479.131 466.668 479.66 468.137 478.958C468.489 478.808 468.805 478.584 469.065 478.303C469.325 478.022 469.523 477.689 469.645 477.326C469.767 476.963 469.812 476.578 469.775 476.197C469.739 475.816 469.622 475.447 469.433 475.114C468.234 473.137 464.087 472.878 462.089 473.342C461.927 473.342 459.767 474.163 459.378 474.336L459.648 474.077C461.226 472.716 462.921 471.498 464.713 470.437C465.696 469.832 466.668 469.357 467.629 468.839C468.018 469.454 469.789 472.273 471.15 473.159C472.511 474.044 474.293 474.746 475.827 474.239C476.192 474.126 476.53 473.937 476.818 473.686C477.106 473.434 477.338 473.124 477.499 472.777C477.66 472.43 477.746 472.053 477.752 471.67C477.758 471.288 477.683 470.908 477.533 470.556C476.561 468.461 472.468 467.748 470.427 467.996C470.308 467.996 469.195 468.277 468.385 468.482C468.828 468.266 469.271 468.04 469.692 467.845C471.28 467.111 472.77 466.538 474.099 466.042L476.194 465.318C477.768 466.309 479.483 467.056 481.281 467.532C482.097 467.68 482.936 467.647 483.738 467.437C484.54 467.226 485.287 466.842 485.925 466.312C486.191 466.041 486.397 465.718 486.531 465.363C486.664 465.008 486.721 464.629 486.699 464.25C486.676 463.871 486.575 463.502 486.4 463.165C486.226 462.828 485.983 462.531 485.687 462.294Z" fill="#263238"/>
<path d="M430.618 502.373L431.86 503.14L432.627 502.578L432.919 502.362L430.618 502.373Z" fill="#263238"/>
<path d="M72.8027 430.92C72.4821 431.128 72.2088 431.402 72.0005 431.723C71.7922 432.043 71.6535 432.404 71.5935 432.782C71.5334 433.159 71.5533 433.545 71.6518 433.915C71.7504 434.284 71.9254 434.629 72.1655 434.927C72.9376 435.82 74.0168 436.39 75.1895 436.525L77.5115 431.222C75.8807 430.488 74.0015 430.142 72.8027 430.92Z" fill="#263238"/>
<path d="M83.5489 423.954C82.8185 424.5 82.2996 425.283 82.0801 426.168L86.1517 423.889C85.7507 423.669 85.2987 423.56 84.8416 423.571C84.3844 423.582 83.9385 423.715 83.5489 423.954Z" fill="#263238"/>
<path d="M84.24 385.355C85.6224 386.521 89.5212 387.579 89.5212 387.579C89.5212 387.579 89.4456 384.793 89.4132 384.62C89.0892 382.59 87.2532 378.853 84.996 378.497C84.6158 378.446 84.2292 378.477 83.8618 378.587C83.4944 378.697 83.1545 378.884 82.8646 379.135C82.5747 379.386 82.3414 379.696 82.1801 380.044C82.0188 380.392 81.9331 380.77 81.9288 381.154C81.8856 382.774 83.16 384.361 84.24 385.355Z" fill="#263238"/>
<path d="M55.8038 397.602C55.8038 397.602 54.1946 395.323 54.0758 395.194C52.6934 393.682 49.1078 391.565 47.0126 392.526C46.6697 392.696 46.3665 392.937 46.1229 393.232C45.8793 393.527 45.7007 393.87 45.5987 394.239C45.4968 394.608 45.4739 394.995 45.5314 395.373C45.5889 395.752 45.7256 396.114 45.9326 396.436C46.7534 397.84 48.6434 398.488 50.177 398.671C51.959 398.876 55.8038 397.613 55.8038 397.602Z" fill="#263238"/>
<path d="M53.7732 388.984C53.8812 389.632 54 390.323 54.1404 391.079C54.4212 392.472 54.7452 394.038 55.2204 395.723C55.7016 397.557 56.293 399.36 56.9916 401.123C57.7627 403.089 58.706 404.982 59.8104 406.782V406.847C59.3028 406.415 57.8232 405.227 57.6504 405.151C55.9116 404.071 51.894 402.991 50.0904 404.438C49.8044 404.694 49.5755 405.007 49.4188 405.356C49.2622 405.706 49.1812 406.085 49.1812 406.469C49.1812 406.852 49.2622 407.231 49.4188 407.581C49.5755 407.931 49.8044 408.244 50.0904 408.499C51.2568 409.633 53.2548 409.763 54.7776 409.579C56.4948 409.32 59.6376 407.257 59.886 407.095C61.0637 408.897 62.3551 410.621 63.7524 412.258C64.5624 413.208 65.4048 414.148 66.2688 415.076L65.34 414.342C63.6012 413.262 59.5836 412.182 57.78 413.64C57.4955 413.896 57.268 414.209 57.1123 414.559C56.9566 414.909 56.8761 415.288 56.8761 415.67C56.8761 416.053 56.9566 416.432 57.1123 416.782C57.268 417.131 57.4955 417.445 57.78 417.701C58.4395 418.203 59.2006 418.555 60.0102 418.732C60.8198 418.909 61.6583 418.907 62.4672 418.727C64.238 418.188 65.9167 417.383 67.446 416.34C67.7808 416.686 68.1048 417.042 68.4396 417.42C70.0488 419.105 71.6796 420.779 73.1916 422.474C73.7316 423.068 74.2716 423.673 74.7576 424.278L73.9476 423.652C72.2088 422.572 68.1912 421.492 66.3876 422.939C66.1031 423.195 65.8756 423.508 65.7199 423.858C65.5642 424.208 65.4837 424.586 65.4837 424.969C65.4837 425.352 65.5642 425.731 65.7199 426.081C65.8756 426.43 66.1031 426.743 66.3876 427C67.554 428.134 69.5628 428.263 71.0748 428.08C72.8007 427.564 74.4365 426.784 75.924 425.768C76.4316 426.395 76.9392 427.032 77.4036 427.68C77.706 428.123 78.03 428.522 78.3108 428.987V429.052L78.7212 428.123L78.9588 427.982L78.2568 427.032C77.4792 426.006 76.6476 425.002 75.7836 424.019C77.3845 423.132 78.8412 422.007 80.1036 420.682C80.6296 420.039 81.0093 419.29 81.2164 418.486C81.4234 417.683 81.4528 416.843 81.3024 416.027C81.2005 415.658 81.0221 415.315 80.7789 415.021C80.5356 414.726 80.2329 414.485 79.8906 414.315C79.5482 414.145 79.1739 414.049 78.7919 414.033C78.4099 414.017 78.0289 414.082 77.6736 414.223C75.5136 415.13 74.7144 419.202 74.9088 421.243C74.9088 421.373 75.222 422.831 75.4056 423.63C74.8764 423.036 74.3256 422.442 73.818 421.859C72.2304 420.185 70.578 418.543 68.9364 416.891L67.446 415.379C67.716 415.217 70.956 413.348 71.9604 411.934C72.554 411.303 72.9958 410.545 73.2522 409.718C73.5086 408.891 73.5728 408.016 73.44 407.16C73.3378 406.792 73.1594 406.449 72.9164 406.153C72.6733 405.858 72.371 405.617 72.0289 405.446C71.6869 405.275 71.3128 405.178 70.9307 405.161C70.5487 405.143 70.1673 405.206 69.8112 405.346C67.6512 406.253 66.852 410.324 67.0464 412.376C67.0464 412.528 67.4892 414.623 67.6296 415.152C66.5496 414.072 65.4696 412.906 64.3896 411.761C63.0015 410.213 61.7171 408.575 60.5448 406.858C60.6744 406.782 64.0656 404.838 65.0916 403.402C65.6174 402.761 65.997 402.014 66.2041 401.212C66.4111 400.41 66.4406 399.572 66.2904 398.758C66.1936 398.383 66.0181 398.033 65.7756 397.73C65.5332 397.428 65.2293 397.181 64.8841 397.006C64.5389 396.83 64.1603 396.73 63.7734 396.712C63.3865 396.693 63.0002 396.758 62.64 396.9C60.48 397.807 59.6808 401.879 59.8752 403.931C59.8752 404.093 60.3612 406.339 60.4692 406.739L60.2532 406.447C59.1256 404.692 58.1535 402.842 57.348 400.918C56.8944 399.838 56.5164 398.822 56.1708 397.807C57.9051 397.099 59.519 396.126 60.9552 394.924C61.5454 394.344 62.0019 393.643 62.2929 392.869C62.5839 392.095 62.7024 391.266 62.64 390.442C62.5739 390.067 62.4304 389.711 62.2187 389.395C62.007 389.079 61.7317 388.811 61.4105 388.608C61.0893 388.405 60.7293 388.271 60.3533 388.215C59.9774 388.158 59.5938 388.181 59.2272 388.282C57.0672 388.951 55.7496 392.904 55.7064 394.967C55.7064 395.075 55.8144 396.22 55.9008 397.051C55.7604 396.587 55.5984 396.112 55.458 395.669C54.9504 394.006 54.594 392.429 54.2916 391.057C54.1188 390.269 53.9784 389.556 53.8596 388.897C55.0635 387.476 56.0398 385.876 56.754 384.156C57.0164 383.37 57.1031 382.536 57.0079 381.713C56.9127 380.89 56.638 380.098 56.2032 379.393C55.9756 379.085 55.6856 378.829 55.3522 378.641C55.0188 378.453 54.6493 378.337 54.2681 378.301C53.8869 378.265 53.5024 378.311 53.1399 378.434C52.7773 378.557 52.4448 378.755 52.164 379.015C50.5116 380.624 51.192 384.718 52.164 386.575C52.2288 386.64 53.7516 389.016 53.7732 388.984Z" fill="#263238"/>
<path d="M82.2854 396.986C83.8622 397.71 87.6206 397.732 87.923 397.742C87.8997 399.908 88.0224 402.073 88.2902 404.222C88.4414 405.464 88.6358 406.717 88.841 407.959C88.6574 407.408 88.4954 406.879 88.463 406.879C87.6206 405 84.8774 401.879 82.5878 402.138C82.2086 402.192 81.8449 402.324 81.5202 402.528C81.1956 402.731 80.9174 403 80.7035 403.318C80.4897 403.635 80.345 403.995 80.2789 404.372C80.2128 404.749 80.2267 405.136 80.3198 405.508C80.6654 407.095 82.2638 408.305 83.6678 408.953C85.4395 409.485 87.2829 409.74 89.1326 409.709C89.219 410.184 89.2946 410.659 89.381 411.134C89.7914 413.435 90.2126 415.714 90.5582 417.971C90.677 418.77 90.7634 419.558 90.8606 420.347L90.5366 419.375C89.6834 417.496 86.9402 414.374 84.6506 414.634C84.2763 414.688 83.9173 414.819 83.5967 415.02C83.276 415.221 83.0007 415.486 82.7884 415.799C82.576 416.112 82.4311 416.466 82.3631 416.838C82.2951 417.21 82.3055 417.592 82.3934 417.96C82.739 419.548 84.3374 420.757 85.7306 421.405C86.9189 421.823 88.1651 422.052 89.4242 422.086L91.9406 420.671L93.9278 419.591L99.3602 413.64C99.2373 413.594 99.1109 413.558 98.9822 413.532C96.7142 413.122 93.7658 416.048 92.7938 417.852C92.7938 417.971 92.189 419.353 91.8974 420.109C91.7894 419.332 91.6814 418.554 91.541 417.766C91.1522 415.498 90.677 413.219 90.2234 410.929C90.0722 410.238 89.9426 409.536 89.813 408.834C90.1262 408.834 93.863 409.082 95.4722 408.467C96.9086 407.916 98.5934 406.814 99.0362 405.227C99.1477 404.863 99.1816 404.479 99.1357 404.101C99.0897 403.723 98.965 403.359 98.7696 403.033C98.5742 402.706 98.3124 402.424 98.0011 402.205C97.6899 401.985 97.3361 401.834 96.9626 401.76C94.6946 401.35 91.757 404.276 90.785 406.08C90.7094 406.22 89.921 408.24 89.705 408.726C89.4134 407.182 89.1326 405.648 88.9166 404.125C88.6112 402.069 88.4416 399.994 88.409 397.915C88.5602 397.915 92.459 398.174 94.1114 397.548C94.9056 397.3 95.6359 396.881 96.2515 396.322C96.8671 395.762 97.3531 395.075 97.6754 394.308C97.7943 393.944 97.8352 393.56 97.7954 393.179C97.7556 392.798 97.636 392.431 97.4444 392.099C97.2528 391.768 96.9936 391.481 96.6835 391.257C96.3734 391.032 96.0196 390.876 95.645 390.798C93.377 390.377 90.4286 393.314 89.4566 395.118C89.381 395.258 88.5386 397.397 88.3766 397.796C88.3766 397.678 88.3766 397.548 88.3766 397.429C88.4088 395.345 88.6184 393.268 89.003 391.219C89.2082 390.085 89.4674 389.059 89.7374 387.979C90.461 388.098 93.7658 388.616 95.3102 388.206C96.8546 387.796 98.5502 386.91 99.209 385.409C99.366 385.06 99.4481 384.682 99.4499 384.3C99.4517 383.917 99.3732 383.539 99.2195 383.189C99.0658 382.838 98.8403 382.524 98.5576 382.267C98.2748 382.009 97.9412 381.814 97.5782 381.694C95.4182 381.035 92.1782 383.627 90.9578 385.322C90.893 385.409 90.353 386.402 89.9642 387.158C90.0938 386.694 90.2234 386.208 90.353 385.765C90.8606 384.102 91.433 382.601 91.919 381.272C92.2214 380.527 92.5022 379.858 92.7614 379.231C93.539 378.972 96.6278 377.935 97.7942 376.877C98.9606 375.818 100.105 374.209 99.9542 372.557C99.9334 372.174 99.8323 371.8 99.6575 371.459C99.4828 371.118 99.2383 370.818 98.9398 370.577C98.6414 370.337 98.2958 370.162 97.9254 370.064C97.555 369.966 97.1681 369.947 96.7898 370.008C94.5218 370.44 92.837 374.242 92.5778 376.283C92.5778 376.466 92.5778 379.264 92.5778 379.253C92.3078 379.858 92.027 380.495 91.7246 381.208C91.1954 382.525 90.6446 384.016 90.0614 385.679C89.4649 387.467 88.9709 389.288 88.5818 391.133C88.1741 393.211 87.9501 395.322 87.9122 397.44V397.516C87.7286 396.868 87.1454 395.064 87.0914 394.934C86.2382 393.055 83.495 389.934 81.2054 390.193C80.8264 390.246 80.4629 390.379 80.1387 390.583C79.8144 390.786 79.5367 391.055 79.3237 391.373C79.1107 391.691 78.9672 392.051 78.9025 392.428C78.8377 392.805 78.8533 393.192 78.9482 393.563C79.2938 395.129 80.8922 396.36 82.2854 396.986Z" fill="#263238"/>
<path d="M238.918 420.941C238.539 420.994 238.175 421.127 237.851 421.33C237.527 421.534 237.249 421.803 237.036 422.121C236.823 422.439 236.68 422.798 236.615 423.176C236.55 423.553 236.566 423.939 236.661 424.31C236.931 425.094 237.37 425.809 237.946 426.404C238.523 426.999 239.223 427.461 239.998 427.755C241.06 428.138 242.175 428.356 243.303 428.404L244.264 427.259L244.804 425.693C243.951 423.803 241.207 420.682 238.918 420.941Z" fill="#263238"/>
<path d="M227.07 437.259C226.75 437.468 226.476 437.741 226.268 438.062C226.06 438.383 225.921 438.744 225.861 439.121C225.801 439.499 225.821 439.885 225.919 440.255C226.018 440.624 226.193 440.969 226.433 441.266C227.405 442.573 229.371 442.994 230.904 442.994C231.908 442.921 232.895 442.695 233.831 442.325L234.458 439.171L234.393 439.106C232.838 437.756 229.036 436.071 227.07 437.259Z" fill="#263238"/>
<path d="M237.816 430.348C236.055 431.428 235.71 434.905 236.023 437.044L241.196 430.898C240.788 430.423 240.225 430.106 239.607 430.006C238.988 429.905 238.354 430.026 237.816 430.348Z" fill="#263238"/>
<path d="M221.865 422.626C222.199 422.971 222.523 423.328 222.858 423.706C224.467 425.39 226.098 427.064 227.61 428.76C228.15 429.354 228.69 429.959 229.176 430.564L228.366 429.937C226.627 428.857 222.61 427.777 220.806 429.224C220.522 429.481 220.294 429.794 220.139 430.144C219.983 430.493 219.902 430.872 219.902 431.255C219.902 431.638 219.983 432.016 220.139 432.366C220.294 432.716 220.522 433.029 220.806 433.285C221.973 434.419 223.981 434.549 225.493 434.365C227.219 433.849 228.855 433.07 230.343 432.054C230.85 432.691 231.358 433.318 231.822 433.966C232.125 434.408 232.449 434.808 232.729 435.272L233.583 436.612C233.971 437.281 234.371 437.951 234.749 438.61L235.581 437.627C235.257 437.087 234.922 436.547 234.565 435.974L233.68 434.646C233.399 434.203 233.043 433.76 232.719 433.318C231.941 432.238 231.109 431.287 230.245 430.304C231.846 429.417 233.303 428.292 234.565 426.967C235.091 426.325 235.471 425.576 235.678 424.772C235.885 423.968 235.915 423.129 235.764 422.312C235.668 421.946 235.497 421.604 235.261 421.307C235.025 421.011 234.73 420.767 234.395 420.591C234.059 420.415 233.691 420.311 233.313 420.286C232.935 420.261 232.556 420.314 232.2 420.444C230.04 421.351 229.241 425.423 229.435 427.464C229.435 427.594 229.749 429.052 229.932 429.851C229.403 429.257 228.852 428.663 228.345 428.09C226.757 426.416 225.105 424.764 223.463 423.112L221.973 421.6C222.243 421.438 225.483 419.569 226.487 418.154C227.013 417.515 227.393 416.767 227.601 415.965C227.808 415.163 227.837 414.325 227.686 413.51C227.584 413.142 227.405 412.799 227.162 412.504C226.919 412.208 226.617 411.968 226.275 411.797C225.933 411.626 225.559 411.528 225.177 411.511C224.795 411.494 224.413 411.557 224.057 411.696C221.897 412.603 221.098 416.675 221.292 418.727C221.292 418.878 221.735 420.973 221.875 421.502C220.795 420.422 219.715 419.256 218.635 418.111C217.247 416.563 215.963 414.925 214.791 413.208C214.92 413.132 218.311 411.188 219.337 409.752C219.863 409.112 220.243 408.365 220.45 407.562C220.657 406.76 220.686 405.923 220.536 405.108C220.434 404.74 220.256 404.397 220.013 404.101C219.77 403.806 219.467 403.565 219.125 403.394C218.783 403.223 218.409 403.126 218.027 403.109C217.645 403.091 217.264 403.154 216.907 403.294C214.747 404.201 213.948 408.272 214.143 410.324C214.143 410.486 214.629 412.733 214.737 413.132L214.521 412.841C213.393 411.086 212.421 409.236 211.615 407.311C211.162 406.231 210.784 405.216 210.438 404.201C212.17 403.493 213.784 402.524 215.223 401.328C216.249 400.172 217.231 398.434 216.918 396.835C216.852 396.461 216.709 396.104 216.497 395.789C216.285 395.473 216.01 395.205 215.689 395.002C215.368 394.798 215.007 394.664 214.632 394.608C214.256 394.552 213.872 394.575 213.505 394.675C211.345 395.345 210.028 399.308 209.985 401.36C209.985 401.468 210.093 402.613 210.179 403.445C210.039 402.98 209.877 402.505 209.736 402.062C209.229 400.399 208.872 398.822 208.57 397.451C208.397 396.662 208.257 395.95 208.138 395.291C209.342 393.869 210.318 392.27 211.032 390.55C211.295 389.764 211.381 388.93 211.286 388.107C211.191 387.284 210.916 386.492 210.481 385.787C210.254 385.479 209.964 385.222 209.63 385.034C209.297 384.846 208.928 384.73 208.546 384.695C208.165 384.659 207.781 384.704 207.418 384.827C207.056 384.95 206.723 385.148 206.442 385.409C204.79 387.018 205.47 391.122 206.442 392.969C206.529 393.131 208.051 395.474 208.073 395.442C208.181 396.09 208.3 396.781 208.44 397.537C208.721 398.93 209.045 400.496 209.52 402.181C210.001 404.015 210.593 405.819 211.291 407.581C212.065 409.549 213.008 411.447 214.11 413.251C214.115 413.269 214.115 413.287 214.11 413.305C213.603 412.873 212.123 411.685 212.004 411.61C210.265 410.53 206.248 409.45 204.444 410.908C204.16 411.163 203.933 411.475 203.777 411.824C203.621 412.173 203.541 412.551 203.541 412.933C203.541 413.315 203.621 413.692 203.777 414.041C203.933 414.39 204.16 414.702 204.444 414.958C205.611 416.102 207.609 416.221 209.131 416.038C210.849 415.778 213.991 413.716 214.24 413.554C215.418 415.355 216.709 417.079 218.106 418.716C218.916 419.666 219.759 420.606 220.623 421.535L219.694 420.8C217.955 419.72 213.937 418.64 212.134 420.098C211.848 420.354 211.619 420.667 211.462 421.016C211.306 421.366 211.225 421.745 211.225 422.129C211.225 422.512 211.306 422.891 211.462 423.241C211.619 423.591 211.848 423.904 212.134 424.159C213.289 425.293 215.298 425.423 216.81 425.185C218.618 424.6 220.323 423.736 221.865 422.626Z" fill="#263238"/>
<path d="M238.55 391.748C239.933 392.915 243.832 393.973 243.832 393.973C243.832 393.973 243.756 391.187 243.724 391.014C243.4 388.983 241.564 385.247 239.306 384.89C238.926 384.842 238.541 384.874 238.174 384.984C237.807 385.095 237.468 385.282 237.179 385.533C236.889 385.783 236.656 386.092 236.494 386.44C236.332 386.787 236.245 387.164 236.239 387.547C236.153 389.167 237.373 390.755 238.55 391.748Z" fill="#263238"/>
<path d="M210.071 404.007C210.071 404.007 208.462 401.717 208.343 401.587C206.961 400.075 203.375 397.959 201.28 398.92C200.937 399.09 200.634 399.33 200.39 399.626C200.146 399.921 199.968 400.264 199.866 400.633C199.764 401.002 199.741 401.388 199.798 401.767C199.856 402.145 199.993 402.507 200.2 402.829C201.02 404.233 202.91 404.881 204.444 405.065C206.28 405.27 210.071 404.007 210.071 404.007Z" fill="#263238"/>
<path d="M236.52 403.38C238.097 404.104 241.855 404.136 242.158 404.136C242.137 406.284 242.26 408.431 242.525 410.562C242.676 411.804 242.871 413.057 243.076 414.31C242.892 413.748 242.73 413.23 242.698 413.23C241.855 411.35 239.112 408.229 236.823 408.488C236.443 408.542 236.08 408.675 235.755 408.878C235.43 409.081 235.152 409.35 234.938 409.668C234.724 409.986 234.58 410.345 234.514 410.722C234.448 411.099 234.462 411.486 234.555 411.858C234.9 413.446 236.499 414.655 237.903 415.303C239.674 415.836 241.518 416.091 243.367 416.059C243.454 416.534 243.529 417.01 243.616 417.485C244.026 419.785 244.447 422.075 244.793 424.321C244.793 424.656 244.869 424.991 244.912 425.326L245.592 423.382C245.225 421.373 244.815 419.353 244.415 417.334C244.275 416.642 244.134 415.94 244.005 415.249C245.477 415.337 246.955 415.305 248.422 415.152L250.323 409.655L251.824 408.348C251.626 408.251 251.415 408.182 251.197 408.143C248.929 407.732 245.992 410.659 245.02 412.463C244.944 412.603 244.156 414.623 243.94 415.109C243.648 413.564 243.367 412.031 243.151 410.508C242.846 408.451 242.676 406.377 242.644 404.298C242.795 404.298 246.694 404.557 248.346 403.931C249.14 403.683 249.871 403.264 250.486 402.705C251.102 402.145 251.588 401.458 251.91 400.691C252.029 400.327 252.07 399.942 252.03 399.562C251.99 399.181 251.871 398.813 251.679 398.482C251.488 398.151 251.228 397.864 250.918 397.64C250.608 397.415 250.254 397.259 249.88 397.181C247.612 396.76 244.663 399.697 243.691 401.501C243.616 401.641 242.773 403.78 242.611 404.179C242.611 404.06 242.611 403.942 242.611 403.812C242.644 401.728 242.853 399.65 243.238 397.602C243.443 396.522 243.702 395.442 243.972 394.362C244.696 394.481 248.001 394.999 249.545 394.589C251.089 394.178 252.785 393.293 253.444 391.792C253.601 391.443 253.683 391.065 253.685 390.683C253.687 390.3 253.608 389.922 253.454 389.571C253.301 389.221 253.075 388.907 252.792 388.65C252.51 388.392 252.176 388.197 251.813 388.076C249.653 387.418 246.413 390.01 245.193 391.705C245.128 391.792 244.588 392.785 244.199 393.541C244.329 393.077 244.458 392.591 244.588 392.148C245.095 390.485 245.668 388.984 246.154 387.655C246.456 386.91 246.737 386.24 246.996 385.614C247.774 385.355 250.863 384.318 252.029 383.26C253.195 382.201 254.34 380.592 254.189 378.94C254.168 378.557 254.067 378.183 253.892 377.842C253.718 377.501 253.473 377.2 253.175 376.96C252.876 376.72 252.531 376.545 252.16 376.447C251.79 376.349 251.403 376.33 251.025 376.391C248.757 376.823 247.072 380.624 246.823 382.666C246.823 382.849 246.769 385.646 246.823 385.636C246.553 386.24 246.273 386.878 245.981 387.59C245.441 388.908 244.847 390.398 244.307 392.062C243.711 393.85 243.217 395.671 242.827 397.516C242.388 399.584 242.132 401.688 242.061 403.801V403.92C241.877 403.272 241.294 401.468 241.24 401.339C240.387 399.46 237.643 396.338 235.354 396.598C234.975 396.651 234.611 396.784 234.287 396.987C233.963 397.19 233.685 397.46 233.472 397.778C233.259 398.096 233.116 398.455 233.051 398.832C232.986 399.21 233.002 399.596 233.097 399.967C233.561 401.522 235.159 402.732 236.52 403.38Z" fill="#263238"/>
<path d="M400.292 309.053L395.982 303.707L399.86 300.65L402.462 303.901L401.577 305.964L402.311 307.605L400.788 308.696" fill="white"/>
<path d="M400.292 309.053L395.982 303.707L399.86 300.65L402.462 303.901L401.577 305.964L402.311 307.605L400.788 308.696" stroke="#263238" stroke-linecap="round" stroke-linejoin="round"/>
<path d="M435.24 318.33C435.24 318.33 432.292 315.695 431.19 315.867C430.089 316.04 415.638 318.459 415.638 318.459L402.343 307.605L400.313 309.053L413.035 325.015L426.859 324.151L423.889 339.271L411.307 348.84L431.827 361.098L435.964 348.051L452.304 331.959L445.954 324L435.24 318.33Z" fill="black" stroke="#263238" stroke-linecap="round" stroke-linejoin="round"/>
<path d="M439.452 314.842L437.13 319.723L436.277 318.946L434.646 330.815L445.965 323.957L444.831 322.164L445.09 318.46L439.452 314.842Z" fill="white" stroke="#263238" stroke-linecap="round" stroke-linejoin="round"/>
<path d="M434.646 330.815L441.267 326.797L435.737 322.909L434.646 330.815Z" fill="white" stroke="#263238" stroke-linecap="round" stroke-linejoin="round"/>
<path d="M452.52 303.21C452.52 303.21 457.52 297.356 462.607 301.05C467.694 304.744 466.29 308.351 469.919 306.374C473.548 304.398 480.362 299.376 484.466 305.77C488.571 312.163 485.406 318.859 482.825 320.393C480.244 321.926 480.924 319 480.978 317.585C481.032 316.17 476.798 314.345 475.859 317.261C474.919 320.177 469.984 324.67 463.72 324.248C457.456 323.827 456.246 316.127 456.386 311.602C456.377 310.243 456.015 308.911 455.335 307.735C454.656 306.559 453.682 305.58 452.509 304.895L452.52 303.21Z" fill="#263238" stroke="#263238" stroke-linecap="round" stroke-linejoin="round"/>
<path d="M440.532 302C440.532 302 437.4 308.977 438.048 313.092C438.696 317.207 438.351 320.371 440.446 321.17C442.541 321.97 449.485 317.768 451.019 314.993C452.553 312.217 454.745 308.21 454.14 304.366C453.535 300.521 446.17 294.926 440.532 302Z" fill="white" stroke="#263238" stroke-linecap="round" stroke-linejoin="round"/>
<path d="M441.72 309.323C441.558 309.863 441.213 310.23 440.943 310.143C440.673 310.057 440.586 309.56 440.748 309.063C440.91 308.567 441.256 308.156 441.526 308.243C441.796 308.329 441.839 308.783 441.72 309.323Z" fill="#263238"/>
<path d="M446.71 311.396C446.548 311.936 446.192 312.314 445.922 312.228C445.652 312.141 445.565 311.645 445.727 311.148C445.889 310.651 446.246 310.241 446.516 310.316C446.786 310.392 446.872 310.856 446.71 311.396Z" fill="#263238"/>
<path d="M442.984 310.219C442.984 310.219 443.308 310.457 442.854 311.299C442.4 312.142 441.31 311.839 441.428 312.563C441.547 313.286 442.919 313.643 442.919 313.643" stroke="#263238" stroke-linecap="round" stroke-linejoin="round"/>
<path d="M440.468 314.896C440.468 314.896 442.207 316.537 443.762 316.138" stroke="#263238" stroke-linecap="round" stroke-linejoin="round"/>
<path d="M448.352 309.668L445.123 308.848" stroke="#263238" stroke-linecap="round" stroke-linejoin="round"/>
<path d="M442.574 307.627L441.029 306.245" stroke="#263238" stroke-linecap="round" stroke-linejoin="round"/>
<path d="M440.532 302C440.532 302 440.068 303.08 439.528 304.56C441.353 303.61 444.496 302.54 447.369 304.312C450.241 306.083 451.689 310.154 452.272 312.649C453.492 310.176 454.583 307.249 454.14 304.366C453.535 300.521 446.17 294.926 440.532 302Z" fill="#263238" stroke="#263238" stroke-linecap="round" stroke-linejoin="round"/>
<path d="M451.526 312.541C451.526 312.541 453.773 310.478 453.686 312.358C453.6 314.237 451.019 315.349 450.446 315.436C449.874 315.522 449.917 314.798 449.917 314.798" fill="white"/>
<path d="M451.526 312.541C451.526 312.541 453.773 310.478 453.686 312.358C453.6 314.237 451.019 315.349 450.446 315.436C449.874 315.522 449.917 314.798 449.917 314.798" stroke="#263238" stroke-linecap="round" stroke-linejoin="round"/>
<path d="M452.293 331.97L448.837 356.605C448.762 357.13 448.504 357.611 448.109 357.964C447.714 358.318 447.207 358.521 446.677 358.538H445.932C445.357 358.56 444.796 358.36 444.364 357.981C443.932 357.601 443.662 357.07 443.61 356.497L442.26 341.679L452.293 331.97Z" fill="black" stroke="#263238" stroke-linecap="round" stroke-linejoin="round"/>
<path d="M446.04 353.225L434.949 343.44L432.465 345.524L443.114 357.847C443.347 358.099 443.634 358.294 443.954 358.418C444.274 358.542 444.619 358.59 444.96 358.56H445.835C446.171 358.546 446.499 358.458 446.795 358.301C447.092 358.144 447.35 357.924 447.551 357.655C447.752 357.386 447.89 357.075 447.956 356.746C448.021 356.417 448.013 356.077 447.93 355.752" fill="black"/>
<path d="M446.04 353.225L434.949 343.44L432.465 345.524L443.114 357.847C443.347 358.099 443.634 358.294 443.954 358.418C444.274 358.542 444.619 358.59 444.96 358.56H445.835C446.171 358.546 446.499 358.458 446.795 358.301C447.092 358.144 447.35 357.924 447.551 357.655C447.752 357.386 447.89 357.075 447.956 356.746C448.021 356.417 448.013 356.077 447.93 355.752V355.752" stroke="#263238" stroke-linecap="round" stroke-linejoin="round"/>
<path d="M434.949 343.429L432.346 339.271L426.493 338.623L426.525 342.112L429.333 344.455L431.115 344.704L432.465 345.514L434.949 343.429Z" fill="white" stroke="#263238" stroke-linecap="round" stroke-linejoin="round"/>
<path d="M403.607 356.4C403.607 356.4 391.382 372.308 392.051 374.944C392.721 377.579 410.584 405.475 410.584 405.475L413.068 403.833L403.251 373.183L422.983 365.331L403.607 356.4Z" fill="white" stroke="#263238" stroke-linecap="round" stroke-linejoin="round"/>
<path d="M413.457 362.297L414.904 368.658L421.438 366.152L413.457 362.297Z" fill="#263238" stroke="#263238" stroke-miterlimit="10"/>
<path d="M410.584 405.421L407.344 410.821C407.344 410.821 404.763 414.687 405.519 414.925C407.171 415.454 411.448 412.646 412.668 411.782C413.889 410.918 415.195 410.346 416.005 409.773C416.815 409.201 418.435 408.866 416.221 406.814C415.476 406.134 413.111 403.779 413.111 403.779L410.584 405.421Z" fill="white" stroke="#263238" stroke-linecap="round" stroke-linejoin="round"/>
<path d="M430.769 351.324C425.266 349.129 419.636 347.264 413.91 345.74C404.007 343.051 396.684 340.967 396.825 343.44C396.965 345.913 414.98 385.754 414.98 385.754L418.068 384.772L413.36 362.804C413.36 362.804 420.92 368.096 426.503 365.472C432.087 362.848 434.214 355.752 433.826 353.333" fill="#263238"/>
<path d="M430.769 351.324C425.266 349.129 419.636 347.264 413.91 345.74C404.007 343.051 396.684 340.967 396.825 343.44C396.965 345.913 414.98 385.754 414.98 385.754L418.068 384.772L413.36 362.804C413.36 362.804 420.92 368.096 426.503 365.472C432.087 362.848 434.214 355.752 433.826 353.333" stroke="#263238" stroke-linecap="round" stroke-linejoin="round"/>
<path d="M411.805 345.168C402.992 342.781 396.685 341.14 396.825 343.44C396.965 345.913 414.98 385.754 414.98 385.754L418.069 384.772L413.36 362.804C414.969 358.884 413.263 350.644 411.805 345.168Z" fill="white" stroke="#263238" stroke-linecap="round" stroke-linejoin="round"/>
<path d="M413.359 362.804L405.594 351.54" stroke="#263238" stroke-linecap="round" stroke-linejoin="round"/>
<path d="M414.979 385.754L412.085 391.208C412.085 391.208 406.242 396.868 407.538 397.159C408.834 397.451 419.818 392.731 420.639 391.608C421.459 390.485 418.068 384.771 418.068 384.771L414.979 385.754Z" fill="white" stroke="#263238" stroke-linecap="round" stroke-linejoin="round"/>
<path d="M401.544 306.417L428.782 338.85" stroke="#263238" stroke-miterlimit="10"/>
<path d="M317.736 205.978L397.667 301.622" stroke="#263238" stroke-miterlimit="10"/>
<path d="M431.115 344.693V502.373" stroke="#263238" stroke-miterlimit="10"/>
<path d="M170.997 300.877C170.997 300.877 176.742 334.498 170.5 345.157C164.258 355.817 148.598 348.149 148.598 348.149V501.293" stroke="#263238" stroke-miterlimit="10"/>
<path d="M136.501 313.459C136.501 313.459 141.588 312.876 141.977 314.053C142.19 315.017 142.19 316.016 141.977 316.98C141.977 316.98 144.904 320.112 144.904 322.261C144.904 324.41 141.782 325.393 141.782 325.393L141.199 330.469L133.38 330.858L132.397 324.799C132.397 324.799 129.46 313.265 136.501 313.459Z" fill="white" stroke="#263238" stroke-linecap="round" stroke-linejoin="round"/>
<path d="M138.067 321.84L135.907 318.708C136.632 317.53 137.035 316.182 137.074 314.799C137.074 312.639 136.879 308.74 132.386 308.74C127.894 308.74 124.956 312.261 123.984 319.885C123.012 327.51 127.494 331.225 133.952 329.854C140.411 328.482 138.067 321.84 138.067 321.84Z" fill="#263238" stroke="#263238" stroke-linecap="round" stroke-linejoin="round"/>
<path d="M137.873 320.501C137.873 320.501 134.547 320.112 134.741 322.661C134.792 323.209 135.009 323.728 135.361 324.15C135.714 324.573 136.186 324.879 136.716 325.027C137.246 325.176 137.808 325.16 138.329 324.983C138.85 324.805 139.305 324.474 139.634 324.032" fill="white"/>
<path d="M137.873 320.501C137.873 320.501 134.547 320.112 134.741 322.661C134.792 323.209 135.009 323.728 135.361 324.15C135.714 324.573 136.186 324.879 136.716 325.027C137.246 325.176 137.808 325.16 138.329 324.983C138.85 324.805 139.305 324.474 139.634 324.032" stroke="#263238" stroke-linecap="round" stroke-linejoin="round"/>
<path d="M133.24 332.77L126.036 334.8C126.036 334.8 125.475 336.204 124.632 338.04C123.498 340.535 120.377 345.6 120.377 345.6L105.959 349.715L101.326 364.651L100.3 370.829L108.529 366.703L109.048 352.296L122.008 350.298L127.57 336.258L133.24 332.77Z" fill="#263238" stroke="#263238" stroke-linecap="round" stroke-linejoin="round"/>
<path d="M144.72 330.664C144.72 330.664 139.05 328.126 134.752 328.709C130.453 329.292 130.842 331.452 130.842 331.452L131.037 334.379C131.037 334.379 138.24 332.23 144.72 330.664Z" fill="black" stroke="#263238" stroke-linecap="round" stroke-linejoin="round"/>
<path d="M125.356 344.941L129.406 363.669C129.437 363.893 129.521 364.107 129.651 364.293C129.781 364.479 129.954 364.631 130.154 364.736C130.355 364.842 130.578 364.898 130.805 364.9C131.031 364.902 131.255 364.85 131.458 364.749L140.606 360.18L125.356 344.941Z" fill="black" stroke="#263238" stroke-linecap="round" stroke-linejoin="round"/>
<path d="M135.529 354.91L133.38 359.208" stroke="#263238" stroke-linecap="round" stroke-linejoin="round"/>
<path d="M154.483 373.874L166.288 393.401L164.722 419.807L170.392 419.612L176.062 388.12L167.778 366.055L154.483 373.874Z" fill="#263238" stroke="#263238" stroke-linecap="round" stroke-linejoin="round"/>
<path d="M131.026 334.379C131.026 334.379 125.356 344.153 125.356 344.941C125.356 345.73 147.453 367.027 147.453 367.027L164.268 355.882L153.706 337.522L168.912 322.596L170.079 302.454L167.346 302.26L162.454 316.926L146.254 329.692L131.026 334.379Z" fill="black" stroke="#263238" stroke-linecap="round" stroke-linejoin="round"/>
<path d="M167.346 302.26L167.541 297.767L172.422 294.052L172.822 295.024V297.961L173.016 300.305L170.079 302.454L167.346 302.26Z" fill="white" stroke="#263238" stroke-linecap="round" stroke-linejoin="round"/>
<path d="M147.453 367.027C147.453 367.027 151.168 373.281 153.933 375.235C156.697 377.19 165.24 371.131 167.4 369.36C169.56 367.589 177.768 357.048 177.768 357.048L185.393 389.535L190.091 387.58C190.091 387.58 187.337 344.38 185.976 343.17C184.615 341.961 163.491 355.677 163.491 355.677L147.453 367.027Z" fill="#263238" stroke="#263238" stroke-linecap="round" stroke-linejoin="round"/>
<path d="M190.08 387.59H196.722C197.899 387.59 200.826 385.83 201.042 387.202C201.258 388.573 195.372 392.278 193.018 393.455C190.757 394.332 188.395 394.924 185.987 395.215L185.393 389.545L190.08 387.59Z" fill="white" stroke="#263238" stroke-linecap="round" stroke-linejoin="round"/>
<path d="M170.392 419.613L173.719 425.671C173.719 425.671 177.823 427.432 177.823 428.22C177.823 429.009 171.181 428.609 170.587 428.609C169.993 428.609 163.361 422.129 163.361 422.129L164.722 419.775L170.392 419.613Z" fill="white" stroke="#263238" stroke-linecap="round" stroke-linejoin="round"/>
<path d="M172.422 294.052L236.239 206.55" stroke="#263238" stroke-miterlimit="10"/>
<path d="M12.96 502.416H524.88" stroke="#263238" stroke-linecap="round" stroke-linejoin="round"/>
</svg>
