<svg width="425" height="430" viewBox="0 0 425 430" fill="none" xmlns="http://www.w3.org/2000/svg">
<path d="M199.53 222.145C190.93 222.717 182.569 219.047 179.464 217.141H178.03L176.597 225.004V233.583L180.18 242.876C180.18 242.876 183.047 246.45 183.763 246.45C184.48 246.45 173.73 268.611 173.73 268.611V308.643L171.58 327.944L174.447 335.808C171.819 335.093 170.577 334.95 186.63 340.097C202.683 345.244 210.041 329.374 211.713 320.796C212.43 311.264 213.863 292.773 213.863 295.061C213.863 297.348 223.896 301.733 228.913 303.639C240.857 307.452 265.892 315.077 270.479 315.077C275.066 315.077 280.512 313.171 282.662 312.217C289.829 305.784 285.529 287.912 284.812 285.768C284.239 284.052 280.751 281.24 279.079 280.049C276.766 278.726 275.041 277.949 270.479 276.474L251.129 271.47L249.696 275.045C249.623 274.389 249.175 273.916 247.546 272.9L244.679 267.896L241.813 271.47L238.946 272.9V270.756L240.379 266.466L238.946 264.322C238.468 264.083 237.369 263.464 236.796 262.892C236.223 262.32 235.602 261.224 235.363 260.747L234.646 254.314C236.387 251.012 240.008 242.761 242.529 237.157C245.069 231.514 245.396 220.239 244.679 214.996L238.946 207.133C215.296 223.575 210.28 221.43 199.53 222.145Z" fill="#263238"/>
<path d="M182.63 247.766C182.499 247.765 182.37 247.733 182.253 247.674C182.136 247.614 182.035 247.528 181.957 247.423C179.707 244.278 175.593 235.099 175.163 230.867C174.733 226.635 177.155 216.569 177.256 216.112C177.31 215.903 177.444 215.724 177.629 215.612C177.814 215.5 178.036 215.464 178.246 215.513C178.457 215.561 178.641 215.69 178.758 215.871C178.876 216.052 178.918 216.272 178.875 216.484C178.875 216.598 176.424 226.749 176.811 230.781C177.198 234.813 181.211 243.648 183.304 246.508C183.368 246.596 183.414 246.696 183.439 246.802C183.465 246.908 183.469 247.018 183.451 247.125C183.434 247.233 183.396 247.336 183.339 247.429C183.281 247.522 183.206 247.602 183.118 247.666C182.969 247.747 182.799 247.781 182.63 247.766Z" fill="#263238"/>
<path d="M194.427 341.226L188.966 340.84C194.885 339.253 198.555 329.746 200.848 323.212C201.278 321.982 201.694 320.81 202.109 319.738C204.145 314.433 204.331 297.92 204.216 291.572C203.371 288.584 201.092 281.307 199.486 278.948C199.152 278.47 198.918 277.93 198.8 277.36C198.682 276.789 198.681 276.201 198.798 275.631C199.3 273.229 201.765 271.67 203.93 270.312C204.661 269.88 205.365 269.403 206.037 268.882C206.524 265.823 210.093 264.865 212.745 264.164C213.576 263.936 214.364 263.721 214.98 263.492C217.546 261.148 228.783 239.73 231.249 228.221C233.341 218.513 229.815 215.082 229.815 215.053L233.055 211.279C233.657 211.779 238.888 216.569 236.165 229.265C234.044 239.13 221.76 266.152 217.087 268.025C216.103 268.392 215.098 268.702 214.077 268.954C213.006 269.19 211.964 269.54 210.967 269.998C210.652 271.999 208.703 273.229 206.667 274.53C205.661 275.085 204.71 275.736 203.829 276.474C206.18 280.277 208.803 289.456 209.104 290.528L209.19 291.143C209.19 293.488 209.563 314.219 206.753 321.51C206.366 322.54 205.965 323.655 205.549 324.827C202.984 332.233 202.898 338.967 194.427 341.226Z" fill="white"/>
<path d="M286.804 291.644C282.891 289.728 272.7 287.726 266.594 286.439C263.985 285.896 261.735 285.41 260.044 285.01C257.237 284.345 254.284 284.699 251.716 286.011C250.954 286.343 250.168 286.62 249.366 286.84C246.27 287.612 244.163 284.581 242.643 282.365C242.471 282.122 242.285 281.836 242.084 281.578C240.149 282.708 237.483 284.252 234.918 283.523C234.323 283.344 233.772 283.045 233.298 282.644C232.825 282.243 232.439 281.749 232.166 281.192C231.513 279.787 231.031 278.309 230.733 276.789C230.26 274.802 229.93 273.543 228.941 272.757C225.558 270.069 225.573 268.797 225.501 268.468L228.038 264.336C229.186 266.025 230.533 267.571 232.051 268.94C234.001 270.705 235.252 273.11 235.577 275.717C235.794 276.769 236.11 277.798 236.523 278.79C237.58 278.436 238.591 277.956 239.533 277.361C240.236 276.898 240.997 276.533 241.798 276.274C244.048 275.717 245.424 277.704 246.743 279.605C247.283 280.44 247.897 281.225 248.577 281.95C248.936 281.836 249.366 281.664 249.839 281.464C253.402 279.735 257.46 279.31 261.305 280.263C262.896 280.663 265.103 281.121 267.655 281.693C273.731 282.846 279.656 284.688 285.313 287.183L286.804 291.644Z" fill="white"/>
<path d="M315.041 318.551C314.879 318.551 314.72 318.507 314.582 318.423C305.323 312.404 284.483 310.702 284.253 310.688C284.137 310.691 284.021 310.67 283.913 310.626C283.805 310.581 283.708 310.515 283.628 310.43C283.547 310.346 283.486 310.246 283.447 310.136C283.408 310.027 283.392 309.91 283.401 309.794C283.411 309.678 283.444 309.566 283.5 309.463C283.555 309.361 283.632 309.272 283.724 309.201C283.817 309.13 283.923 309.08 284.036 309.053C284.15 309.026 284.268 309.023 284.382 309.044C285.257 309.044 305.882 310.788 315.485 317.036C315.578 317.094 315.658 317.17 315.72 317.259C315.783 317.349 315.827 317.45 315.849 317.556C315.872 317.663 315.873 317.773 315.852 317.88C315.832 317.987 315.79 318.089 315.729 318.18C315.654 318.293 315.551 318.387 315.431 318.451C315.311 318.516 315.177 318.551 315.041 318.551Z" fill="#263238"/>
<path d="M307.586 302.281C306.939 302.267 306.297 302.161 305.68 301.967C302.713 301.123 287.047 292.731 286.416 292.373C286.223 292.27 286.079 292.095 286.014 291.886C285.95 291.678 285.971 291.452 286.072 291.258C286.178 291.065 286.356 290.92 286.568 290.856C286.78 290.792 287.008 290.813 287.205 290.915C292.78 293.918 303.903 299.737 306.124 300.38C306.719 300.621 307.371 300.686 308.002 300.566C308.053 300.374 308.172 300.206 308.337 300.095C308.502 299.983 308.701 299.933 308.899 299.956C309.097 299.978 309.281 300.071 309.416 300.217C309.551 300.363 309.629 300.553 309.636 300.752C309.628 300.971 309.57 301.186 309.465 301.379C309.361 301.573 309.213 301.74 309.034 301.867C308.61 302.16 308.101 302.305 307.586 302.281Z" fill="#263238"/>
<path d="M316.344 291.23C316.344 291.23 308.461 298.893 308.461 299.722C308.461 300.551 314.065 305.513 314.481 307.171C314.897 308.829 318.637 306.756 319.669 307.171C320.701 307.586 320.501 310.488 317.591 311.103C314.682 311.718 314.897 319.181 315.928 320.21C316.96 321.239 325.962 325.8 330.878 330.976C335.794 336.151 338.56 341.327 340.624 342.156C342.688 342.986 344.781 343.586 345.397 339.468C346.014 335.351 346.644 326.429 341.255 320.01C335.866 313.59 333.573 312.961 331.91 312.961C330.247 312.961 327.61 313.176 328.599 310.903C329.588 308.629 331.91 306.613 331.079 304.683C330.247 302.753 323.754 290.615 316.344 291.23Z" fill="#263238"/>
<path d="M345.125 345.187C344.52 345.218 343.918 345.082 343.385 344.794C342.851 344.507 342.407 344.079 342.101 343.557C342.052 343.461 342.023 343.356 342.015 343.248C342.008 343.14 342.022 343.031 342.056 342.929C342.091 342.826 342.146 342.732 342.217 342.651C342.289 342.57 342.376 342.504 342.474 342.456C342.668 342.361 342.892 342.345 343.099 342.411C343.305 342.478 343.477 342.622 343.577 342.814C343.649 342.928 344.208 343.858 345.957 343.429C348.35 342.828 350.257 342.142 350.744 339.311C351.416 333.132 350.149 326.898 347.118 321.468C345.276 318.697 343.068 316.187 340.553 314.005C338.303 311.903 336.54 310.245 336.411 308.472C336.411 307.828 336.411 307.185 336.339 306.513C336.46 303.947 335.969 301.389 334.906 299.05C333.028 295.318 328.571 290.472 324.342 288.684C320.458 287.097 318.695 287.798 317.176 291.544C317.09 291.747 316.928 291.907 316.723 291.991C316.519 292.074 316.29 292.072 316.087 291.987C315.883 291.902 315.722 291.739 315.639 291.536C315.555 291.332 315.557 291.103 315.642 290.901C317.577 286.297 320.3 285.182 325.03 287.14C329.76 289.099 334.462 294.289 336.497 298.307C337.695 300.852 338.265 303.646 338.16 306.456C338.16 307.104 338.188 307.733 338.246 308.343C338.317 309.458 339.966 311.002 341.858 312.775C344.488 315.059 346.793 317.69 348.709 320.596C351.962 326.368 353.307 333.018 352.55 339.597C351.833 343.386 349.182 344.358 346.53 345.016C346.073 345.14 345.6 345.198 345.125 345.187Z" fill="#263238"/>
<path d="M197.379 215.483C193.294 215.483 185.912 214.954 182.057 211.379C180.515 209.959 179.165 208.344 178.044 206.575C177.301 205.352 176.4 204.232 175.363 203.244C174.441 202.451 173.776 201.402 173.452 200.232C173.128 199.061 173.159 197.82 173.543 196.667C173.626 196.465 173.785 196.304 173.986 196.218C174.187 196.133 174.414 196.13 174.618 196.21C174.721 196.248 174.815 196.306 174.895 196.381C174.974 196.456 175.038 196.546 175.082 196.646C175.126 196.746 175.15 196.854 175.151 196.963C175.153 197.072 175.132 197.181 175.091 197.282C174.834 198.126 174.833 199.027 175.088 199.872C175.343 200.716 175.843 201.467 176.524 202.029C177.631 203.112 178.594 204.333 179.391 205.66C180.437 207.321 181.7 208.835 183.146 210.164C187.131 213.853 196.046 213.896 198.597 213.81C198.818 213.81 199.029 213.897 199.185 214.053C199.341 214.208 199.429 214.419 199.429 214.639C199.429 214.859 199.341 215.07 199.185 215.225C199.029 215.381 198.818 215.468 198.597 215.468L197.379 215.483Z" fill="#263238"/>
<path d="M203.485 222.86C196.58 222.936 189.711 221.864 183.161 219.686C174.374 216.255 174.561 212.537 174.919 211.522C175.028 211.148 175.157 210.781 175.306 210.421C175.65 209.563 175.779 209.249 175.306 208.477C174.131 206.704 175.091 202.858 175.206 202.429C175.26 202.217 175.396 202.035 175.584 201.923C175.771 201.811 175.996 201.777 176.209 201.829C176.422 201.886 176.605 202.024 176.717 202.214C176.83 202.403 176.864 202.63 176.811 202.844C176.424 204.273 176.137 206.733 176.696 207.562C177.064 208.059 177.28 208.651 177.318 209.267C177.357 209.884 177.215 210.498 176.911 211.036C176.775 211.336 176.665 211.647 176.582 211.965C176.195 213.395 177.857 215.811 183.748 218.142C190.915 221.001 209.204 223.375 220.025 218.142C237.584 209.706 238.831 206.59 238.788 205.832C238.745 205.074 238.673 204.402 238.587 203.544C238.151 201.257 238.239 198.901 238.845 196.653C239.819 194.137 240.794 191.635 239.791 188.504C239.125 185.639 238.784 182.709 238.773 179.768C238.673 177.824 238.587 175.979 238.386 174.578C238.142 172.053 237.344 169.613 236.05 167.429C235.965 167.362 235.895 167.278 235.843 167.182C235.792 167.087 235.759 166.982 235.749 166.874C235.738 166.767 235.749 166.658 235.781 166.554C235.813 166.451 235.865 166.354 235.935 166.271C236.077 166.103 236.28 165.997 236.5 165.976C236.719 165.954 236.938 166.019 237.111 166.157C238.315 167.172 239.547 171.147 239.977 174.407C240.206 175.836 240.292 177.766 240.393 179.754C240.396 182.554 240.713 185.345 241.339 188.075C242.514 191.763 241.339 194.666 240.393 197.225C239.869 199.258 239.8 201.382 240.192 203.444C240.278 204.273 240.364 205.074 240.407 205.818C240.493 207.676 238.558 211.136 220.699 219.7C215.912 221.988 209.648 222.86 203.485 222.86Z" fill="#263238"/>
<path d="M278.175 224.29C274.452 224.194 270.749 223.715 267.124 222.86C263.785 222.088 263.125 217.728 262.638 214.539C262.553 213.431 262.287 212.345 261.85 211.323C259.872 210.007 259.556 208.849 259.556 205.818C259.391 204.257 258.704 202.797 257.607 201.672C256.908 200.778 256.293 199.82 255.772 198.812C254.611 196.496 250.584 185.173 251.558 181.913C252.246 179.64 249.466 174.493 244.879 172.72C239.891 170.776 229.93 164.628 229.514 164.37C229.421 164.313 229.34 164.238 229.275 164.15C229.211 164.062 229.165 163.961 229.14 163.855C229.114 163.749 229.11 163.638 229.128 163.531C229.145 163.423 229.184 163.32 229.242 163.227C229.36 163.041 229.546 162.909 229.76 162.859C229.974 162.808 230.199 162.843 230.388 162.955C230.489 162.955 240.637 169.289 245.481 171.176C250.713 173.206 254.081 179.139 253.149 182.385C252.447 184.758 255.801 195.167 257.249 198.112C257.758 199.025 258.348 199.891 259.012 200.7C260.33 202.111 261.133 203.924 261.291 205.847C261.291 208.706 261.563 209.121 262.853 209.979C263.77 210.593 264.014 212.152 264.286 214.268C264.731 217.127 265.275 220.702 267.497 221.216C275.179 222.975 283.865 223.432 284.783 220.316C285.557 217.699 285.227 213.553 284.926 209.893C284.649 207.621 284.591 205.327 284.754 203.044C285.112 200.514 280.454 182.914 277.587 172.405C276.226 167.287 275.151 163.255 274.807 161.654C273.803 156.936 244.822 136.005 237.397 133.059C231.005 130.472 221.459 127.069 212.286 127.341C212.164 127.351 212.042 127.332 211.929 127.285C211.817 127.238 211.718 127.163 211.641 127.069C210.271 125.467 208.744 124.007 207.083 122.708L206.581 123.252C204.603 125.382 199.973 130.4 193.337 129.542C189.689 129.153 186.116 128.238 182.731 126.826C182.755 127.586 182.488 128.327 181.985 128.899L181.856 128.999C181.713 129.099 178.316 131.215 168.957 130.429C159.927 129.614 154.967 129.171 146.31 120.535C143.888 118.119 141.079 115.174 138.083 112.043C131.174 104.651 123.291 96.4014 120.281 94.9002C116.841 93.1845 110.649 92.4982 108.413 92.2981C108.17 94.9144 106.894 102.549 100.416 105.166C100.416 106.195 100.874 109.226 104.844 114.416L107.037 117.275C113.731 126.111 129.426 146.799 134.399 148.929C136.005 149.616 138.699 150.574 141.767 151.674C150.152 154.677 160.6 158.408 163.711 161.525C166.348 164.142 168.613 174.135 170.619 182.971C171.795 188.118 173.013 193.451 173.73 194.309C175.201 195.701 176.909 196.819 178.775 197.612C180.023 198.082 181.153 198.818 182.086 199.77C182.205 199.954 182.246 200.178 182.2 200.392C182.155 200.607 182.026 200.794 181.842 200.914C181.658 201.031 181.436 201.072 181.223 201.029C181.009 200.987 180.82 200.864 180.695 200.685C179.882 200.036 178.985 199.498 178.029 199.084C175.956 198.2 174.065 196.94 172.454 195.367C171.522 194.266 170.591 190.277 169 183.343C167.28 175.537 164.829 164.957 162.535 162.655C159.669 159.795 149.005 155.978 141.208 153.19C138.097 152.075 135.474 151.117 133.74 150.331C128.365 148.029 113.057 127.855 105.719 118.162L103.526 115.302C98.0506 108.154 98.7242 104.622 98.8246 104.251C98.8533 104.115 98.9175 103.989 99.0106 103.886C99.1038 103.783 99.2225 103.707 99.3549 103.664C106.521 101.262 106.808 91.4116 106.822 91.3115C106.826 91.2014 106.852 91.093 106.898 90.9929C106.944 90.8927 107.01 90.8027 107.091 90.7281C107.173 90.6536 107.268 90.596 107.372 90.5587C107.476 90.5214 107.586 90.5051 107.697 90.5109C108.055 90.5109 116.497 91.0971 121.027 93.3703C124.28 95.0574 131.934 103.05 139.33 110.784C142.311 113.901 145.063 116.846 147.529 119.248C155.756 127.455 160.228 127.827 169.143 128.67C176.997 129.385 180.294 127.898 180.853 127.598C181.024 127.207 181.098 126.78 181.068 126.354C181.068 125.882 181.068 124.796 182.086 124.796C182.443 124.841 182.788 124.952 183.103 125.125C186.419 126.55 189.933 127.466 193.524 127.841C199.257 128.57 203.557 124.009 205.348 122.122C205.667 121.721 206.044 121.369 206.466 121.078C206.954 120.85 207.9 120.406 212.601 125.682C221.946 125.511 231.564 128.928 238.014 131.544C245.481 134.589 275.179 155.563 276.412 161.397C276.742 162.955 277.845 166.973 279.178 172.062C283.349 187.618 286.761 200.657 286.345 203.359C286.204 205.524 286.267 207.697 286.531 209.85C286.832 213.653 287.176 217.956 286.316 220.859C285.571 223.49 282.059 224.29 278.175 224.29Z" fill="#263238"/>
<path d="M193.209 136.462C190.651 136.475 188.108 136.064 185.684 135.247C177.4 132.387 177.486 129.599 177.586 129.07C177.62 128.852 177.74 128.657 177.919 128.527C178.097 128.397 178.321 128.343 178.539 128.377C178.758 128.411 178.954 128.53 179.084 128.709C179.214 128.887 179.268 129.11 179.234 129.328C179.234 129.471 179.564 131.386 186.229 133.617C190.744 135.06 195.593 135.093 200.127 133.71C204.661 132.328 208.664 129.596 211.598 125.882C211.665 125.797 211.749 125.725 211.844 125.672C211.939 125.619 212.044 125.586 212.152 125.574C212.26 125.562 212.369 125.572 212.474 125.603C212.578 125.633 212.675 125.685 212.759 125.753C212.93 125.893 213.039 126.094 213.063 126.313C213.088 126.532 213.025 126.752 212.888 126.926C210.537 129.888 207.547 132.283 204.14 133.934C200.733 135.585 196.997 136.449 193.209 136.462Z" fill="#263238"/>
<path d="M120.654 70.9801L18 53.0371L112.9 56.3541L120.654 70.9801Z" fill="#E8E8E8"/>
<path d="M103.755 56.0258V51.3792L18 53.0376L103.755 56.0258Z" fill="#D9D9D9"/>
<path d="M109.316 51.2789L91.6007 42L18 53.0375L109.316 51.2789Z" fill="#E8E8E8"/>
<path d="M99.6271 105.337C99.5069 105.341 99.3873 105.318 99.2779 105.268C99.1684 105.218 99.072 105.144 98.9964 105.051C98.8674 104.908 86.2686 90.3103 82.5133 87.3651C81.7393 86.7646 80.9366 86.107 80.1053 85.435C76.7608 82.4384 73.0239 79.9085 68.9971 77.9146C63.8372 75.7415 57.244 65.1615 56.9716 64.704C56.9152 64.6101 56.8778 64.5061 56.8616 64.3978C56.8455 64.2895 56.8509 64.1791 56.8775 64.0729C56.9041 63.9667 56.9514 63.8667 57.0168 63.7788C57.0821 63.6908 57.1642 63.6165 57.2583 63.5602C57.3524 63.5039 57.4567 63.4666 57.5653 63.4505C57.6738 63.4344 57.7845 63.4397 57.891 63.4663C57.9975 63.4929 58.0977 63.5401 58.1859 63.6052C58.274 63.6704 58.3485 63.7523 58.405 63.8462C58.405 63.9462 64.9982 74.4118 69.6851 76.3991C73.7844 78.1291 77.7117 81.3317 81.1516 84.1482L83.5309 86.0641C87.4296 89.1094 99.7274 103.364 100.258 103.979C100.329 104.06 100.384 104.154 100.418 104.257C100.452 104.359 100.466 104.468 100.458 104.576C100.45 104.683 100.42 104.788 100.371 104.885C100.322 104.981 100.254 105.067 100.172 105.137C100.022 105.269 99.8273 105.34 99.6271 105.337Z" fill="#263238"/>
<path d="M74.4733 62.7878L20.208 53.0371L76.4512 69.9078L74.4733 62.7878Z" fill="#9E9E9E"/>
<path d="M84.7209 72.3814L104.888 78.4291L106.321 68.4925L82.356 64.2034C82.356 64.2034 82.8863 67.3059 83.1873 68.4925C83.6058 69.8233 84.1183 71.1229 84.7209 72.3814Z" fill="#9E9E9E"/>
<path d="M185.913 127.912H185.684C185.578 127.883 185.479 127.832 185.393 127.765C185.307 127.697 185.235 127.612 185.182 127.517C185.129 127.421 185.095 127.316 185.083 127.207C185.07 127.098 185.08 126.988 185.11 126.883C185.11 126.883 186.673 121.378 185.11 117.59C185.055 117.487 185.023 117.374 185.014 117.258C185.006 117.141 185.022 117.025 185.062 116.915C185.102 116.806 185.165 116.706 185.246 116.622C185.327 116.539 185.425 116.473 185.534 116.429C185.642 116.386 185.758 116.366 185.875 116.37C185.992 116.375 186.106 116.403 186.211 116.455C186.316 116.506 186.409 116.579 186.483 116.669C186.558 116.758 186.613 116.863 186.644 116.975C188.408 121.264 186.745 127.097 186.644 127.34C186.593 127.497 186.497 127.636 186.366 127.738C186.236 127.84 186.078 127.9 185.913 127.912Z" fill="#263238"/>
<path d="M204.431 125.024C204.299 125.024 204.169 124.993 204.052 124.934C203.935 124.874 203.834 124.787 203.757 124.681C201.492 121.564 197.708 116.103 197.852 114.573C197.877 114.357 197.985 114.159 198.153 114.02C198.322 113.882 198.537 113.813 198.755 113.829C198.973 113.855 199.173 113.962 199.314 114.129C199.455 114.297 199.527 114.512 199.514 114.73C199.514 115.602 202.381 120.077 205.104 123.709C205.168 123.797 205.214 123.897 205.239 124.003C205.265 124.109 205.269 124.219 205.252 124.326C205.234 124.434 205.196 124.537 205.139 124.63C205.081 124.723 205.006 124.803 204.918 124.867C204.775 124.968 204.605 125.022 204.431 125.024Z" fill="#263238"/>
<path d="M297.181 253.814C296.983 253.81 296.786 253.786 296.593 253.742C294.3 253.242 285.327 244.077 283.693 241.847C282.43 240.254 280.817 238.972 278.978 238.101C278.064 239.365 277.492 240.842 277.315 242.39C277.143 244.506 276.814 246.579 275.581 247.423C275.286 247.617 274.95 247.74 274.599 247.782C274.248 247.824 273.893 247.784 273.56 247.666C271.009 246.894 271.396 244.535 271.94 241.275L272.127 240.117C272.695 237.565 273.662 235.119 274.993 232.868C275.223 232.439 275.466 231.967 275.595 231.681C274.936 230.581 272.241 226.148 270.392 223.103C270.28 222.915 270.245 222.69 270.296 222.476C270.347 222.263 270.479 222.077 270.665 221.959C270.758 221.902 270.861 221.863 270.969 221.846C271.078 221.828 271.188 221.832 271.295 221.857C271.401 221.883 271.502 221.929 271.59 221.993C271.679 222.057 271.754 222.138 271.811 222.231C272.686 223.661 277.014 230.709 277.215 231.124C277.416 231.538 277.215 232.11 276.455 233.583C275.215 235.68 274.311 237.956 273.775 240.331L273.574 241.489C273.015 244.892 272.987 245.707 274.033 246.022C274.434 246.15 274.578 246.022 274.649 246.022C275.395 245.521 275.595 243.048 275.667 242.233C275.819 240.09 276.716 238.067 278.204 236.514C278.353 236.412 278.522 236.343 278.701 236.313C278.879 236.284 279.062 236.294 279.236 236.342C281.486 237.323 283.456 238.846 284.969 240.774C287.176 243.634 295.547 251.755 296.937 252.055C297.095 252.055 297.367 252.126 297.439 251.983C297.511 251.841 297.439 250.697 296.206 249.539C294.558 248.109 289.126 240.96 289.599 239.316C289.648 239.137 289.747 238.975 289.884 238.849C290.021 238.723 290.19 238.637 290.373 238.601C291.147 238.444 291.921 239.002 296.35 242.89C298.629 244.906 302.083 247.937 302.943 248.109C303.275 248.174 303.609 248.222 303.946 248.252C303.766 247.934 303.565 247.628 303.344 247.337C302.656 246.379 301.295 244.892 299.976 243.448C298.365 241.828 296.901 240.067 295.604 238.187C295.503 237.993 295.482 237.767 295.546 237.559C295.611 237.35 295.755 237.175 295.948 237.071C296.143 236.968 296.37 236.945 296.581 237.007C296.793 237.068 296.972 237.209 297.081 237.4C298.315 239.153 299.691 240.803 301.194 242.333C302.628 243.877 303.946 245.335 304.691 246.365C305.437 247.394 306.125 248.466 305.537 249.224C304.95 249.982 303.789 249.91 302.671 249.667C301.553 249.424 299.073 247.394 295.303 244.077C294.3 243.191 293.096 242.118 292.121 241.318C293.605 243.817 295.364 246.143 297.367 248.252C298.958 249.682 299.603 251.454 298.973 252.67C298.823 253.018 298.573 253.313 298.253 253.517C297.934 253.721 297.56 253.824 297.181 253.814Z" fill="#263238"/>
<path d="M305.58 246.894C304.406 246.83 303.26 246.508 302.226 245.95C302.064 245.829 301.951 245.653 301.91 245.455C301.869 245.257 301.901 245.051 302.002 244.876C302.102 244.7 302.263 244.567 302.455 244.502C302.647 244.436 302.856 244.443 303.043 244.521C303.913 245.021 304.907 245.264 305.91 245.221L305.981 245.135C305.981 245.135 305.981 244.649 304.39 243.205C301.813 240.508 299.419 237.642 297.224 234.627C297.106 234.462 297.042 234.265 297.042 234.062C297.042 233.86 297.106 233.662 297.224 233.497C298.213 232.296 306.669 236.242 306.755 236.357C306.812 236.368 306.871 236.368 306.927 236.357C306.927 236.357 306.927 235.685 305.867 234.798C304.548 233.726 297.166 231.024 286.101 227.564L285.901 227.493C283.55 226.763 282.561 223.432 282.461 223.06C282.428 222.859 282.471 222.653 282.582 222.482C282.692 222.311 282.861 222.186 283.058 222.131C283.255 222.076 283.464 222.095 283.648 222.185C283.831 222.275 283.975 222.429 284.052 222.617C284.281 223.389 285.127 225.477 286.388 225.92H286.589C294.787 228.493 304.978 231.882 306.913 233.454C308.848 235.027 308.805 236.428 308.346 237.229C308.104 237.584 307.735 237.835 307.315 237.93C306.895 238.026 306.454 237.959 306.082 237.744C305.222 237.315 302.04 236.057 299.918 235.327C301.684 237.664 303.599 239.885 305.652 241.976C307.157 243.405 307.787 244.363 307.759 245.221C307.739 245.484 307.663 245.739 307.534 245.968C307.405 246.198 307.227 246.397 307.013 246.551C306.595 246.838 306.084 246.961 305.58 246.894Z" fill="#263238"/>
<path d="M174.074 56.0397C174.074 56.0397 163.811 58.6704 162.435 64.2749C161.059 69.8794 162.435 75.7127 166.864 75.1265C171.293 74.5403 177.098 70.7087 180.968 70.9803C184.838 71.252 184.021 72.7103 182.631 75.1551C181.24 77.5999 183.734 81.7461 190.657 79.816C197.58 77.8859 197.824 74.2973 202.826 75.6698C207.828 77.0424 203.27 88.3658 204.431 89.9671C205.592 91.5683 205.865 93.8273 208.473 89.9671C211.082 86.1068 215.009 80.8597 219.151 82.2465C223.294 83.6334 215.282 91.6255 211.139 93.284L206.983 94.9425C206.983 94.9425 205.32 106.523 202.826 108.182C202.826 108.182 219.438 105.98 225.759 100.175C232.08 94.3706 226.59 94.4564 227.694 91.3539C228.798 88.2514 235.162 88.0941 235.162 84.3339C235.162 80.5738 234.33 81.1314 228.525 78.372C222.72 75.6126 224.369 74.2401 225.2 72.8533C226.031 71.4664 226.863 68.993 222.161 67.6062C217.46 66.2193 206.395 62.9167 208.43 59.8857C210.466 56.8547 211.526 50.7783 204.388 51.3073C197.25 51.8363 190.428 56.4686 186.372 55.9682C182.315 55.4678 178.574 54.3955 174.074 56.0397Z" fill="#263238"/>
<path d="M187.618 118.447H187.418L185.554 118.033C180.724 116.975 170.677 114.787 165.316 110.999C158.766 106.366 159.955 94.8427 161.131 91.1683C162.306 87.4939 164.958 75.0696 164.986 74.8837C165.008 74.7746 165.053 74.6711 165.117 74.58C165.181 74.489 165.263 74.4122 165.359 74.3547C165.451 74.2934 165.554 74.2527 165.663 74.2354C165.772 74.2181 165.884 74.2247 165.99 74.2546C166.156 74.27 166.324 74.27 166.491 74.2546C166.577 74.2111 166.669 74.1821 166.764 74.1689C168.94 73.7494 171.058 73.0676 173.07 72.1387C175.937 70.9663 178.717 69.8511 181.025 70.0227C182.301 70.1227 183.892 70.3515 184.408 71.4524C184.924 72.5533 184.279 73.84 183.361 75.4556C183.155 75.8531 183.07 76.3025 183.119 76.7476C183.167 77.1928 183.346 77.6137 183.634 77.9576C184.78 79.3874 187.332 79.802 190.428 78.9298C192.528 78.3456 194.514 77.4128 196.304 76.1705C198.282 74.898 199.83 73.8972 203.055 74.7408C207.04 75.8559 206.122 81.5319 205.463 85.6924C205.173 86.9189 205.058 88.1798 205.119 89.4383C205.334 89.7386 205.52 90.0674 205.707 90.3819C205.852 90.6915 206.046 90.9762 206.28 91.2255C206.84 90.6951 207.323 90.0886 207.713 89.424C210.05 86.0356 214.393 79.7305 219.352 81.389C219.837 81.5139 220.268 81.794 220.579 82.1865C220.89 82.579 221.063 83.0622 221.072 83.5621C221.172 86.8362 215.009 92.5265 211.368 93.9705L207.613 95.4717C207.111 97.4734 204.961 105.852 203.485 108.511L203.198 109.054C202.281 110.856 200.332 114.63 196.648 116.574C196.454 116.676 196.228 116.696 196.018 116.632C195.809 116.568 195.634 116.424 195.53 116.231C195.428 116.036 195.407 115.808 195.471 115.597C195.535 115.385 195.68 115.208 195.874 115.102C199.113 113.4 200.876 109.955 201.722 108.296L202.037 107.71C203.557 104.937 206.079 94.8427 206.108 94.6711C206.137 94.5438 206.197 94.4254 206.282 94.3259C206.367 94.2263 206.474 94.1486 206.595 94.0992L210.752 92.4407C213.948 91.1683 219.481 85.8497 219.352 83.605C219.352 83.3906 219.352 83.1332 218.764 82.9474C215.453 81.8465 212.128 85.8068 209.032 90.3676C207.756 92.212 206.868 92.8982 206.008 92.8696C205.148 92.8411 204.574 91.9689 204.13 91.1969C203.972 90.9252 203.815 90.6393 203.628 90.3676C203.055 89.567 203.256 88.123 203.628 85.4208C204.202 81.8894 204.976 77.0569 202.424 76.342C199.873 75.6272 198.898 76.342 197.021 77.5144C195.162 78.8755 193.088 79.9191 190.886 80.6026C185.454 82.1181 183.089 80.0307 182.286 79.0585C181.799 78.4649 181.5 77.7405 181.426 76.9769C181.352 76.2133 181.507 75.445 181.871 74.7693C182.372 73.8686 183.06 72.6534 182.888 72.3388C182.888 72.3388 182.63 71.9528 180.867 71.8241C179.104 71.6954 176.252 72.7677 173.701 73.8257C171.597 74.7695 169.396 75.4791 167.136 75.9417C166.916 76.0227 166.683 76.0615 166.448 76.0561C165.832 78.9155 163.711 88.5519 162.707 91.6687C161.704 94.7855 160.557 105.594 166.276 109.655C171.35 113.243 181.183 115.373 185.898 116.417L187.805 116.832C187.911 116.857 188.011 116.903 188.1 116.967C188.189 117.031 188.264 117.112 188.321 117.205C188.378 117.298 188.417 117.401 188.434 117.509C188.451 117.616 188.447 117.727 188.421 117.833C188.376 118.01 188.272 118.167 188.127 118.279C187.981 118.39 187.802 118.45 187.618 118.447Z" fill="#263238"/>
<path d="M163.224 87.3081C163.088 87.3105 162.954 87.2759 162.837 87.208C160.943 86.1104 159.29 84.6432 157.978 82.8942C156.665 81.1452 155.72 79.1501 155.197 77.0283C154.767 75.7921 154.767 74.4472 155.197 73.211C155.418 72.89 155.724 72.6369 156.081 72.4803C156.438 72.3237 156.832 72.2697 157.218 72.3245C158.652 72.4532 160.515 73.7543 161.833 76.8282C162.579 78.7554 163.541 80.5924 164.7 82.304C164.835 82.4784 164.895 82.6992 164.867 82.9177C164.839 83.1362 164.724 83.3346 164.55 83.4692C164.375 83.6039 164.153 83.6637 163.934 83.6355C163.715 83.6074 163.516 83.4935 163.381 83.3191C162.106 81.5061 161.053 79.5478 160.243 77.4858C159.125 74.8409 157.677 74.0259 156.989 73.9687C156.659 73.9687 156.545 74.0831 156.516 74.126C156.043 75.1697 157.72 82.7043 163.568 85.7497C163.73 85.8371 163.858 85.9758 163.932 86.1439C164.007 86.3119 164.023 86.4999 163.979 86.6782C163.935 86.8566 163.832 87.0152 163.688 87.1292C163.543 87.2432 163.365 87.3061 163.181 87.3081H163.224Z" fill="#263238"/>
<path d="M197.064 85.0203H196.634C196.277 84.958 195.947 84.7873 195.691 84.5314C195.434 84.2756 195.263 83.947 195.201 83.5905C194.971 82.6183 192.907 81.2315 191.503 80.5595C191.403 80.5122 191.314 80.4456 191.241 80.3638C191.168 80.2819 191.112 80.1863 191.076 80.0826C191.04 79.9788 191.025 79.869 191.031 79.7594C191.038 79.6499 191.067 79.5428 191.116 79.4443C191.162 79.3458 191.227 79.2574 191.308 79.1844C191.388 79.1114 191.483 79.0553 191.586 79.0193C191.689 78.9834 191.798 78.9683 191.907 78.975C192.015 78.9817 192.122 79.01 192.219 79.0583C192.907 79.3871 196.333 81.1457 196.82 83.2188C196.82 83.3475 196.82 83.3475 196.935 83.3618C197.116 83.3676 197.296 83.3289 197.458 83.2491C197.621 83.1694 197.761 83.0509 197.867 82.9043C197.958 82.7693 198.007 82.6099 198.007 82.4468C198.007 82.2836 197.958 82.1242 197.867 81.9892C196.777 79.9733 196.032 78.8438 195.115 78.6008C195.002 78.5803 194.895 78.5369 194.8 78.4734C194.706 78.4098 194.625 78.3275 194.563 78.2314C194.502 78.1354 194.461 78.0277 194.443 77.9151C194.425 77.8026 194.431 77.6875 194.459 77.5772C194.488 77.4669 194.539 77.3636 194.609 77.2739C194.68 77.1841 194.768 77.1098 194.869 77.0556C194.969 77.0014 195.08 76.9684 195.194 76.9588C195.307 76.9491 195.422 76.963 195.53 76.9995C197.193 77.4284 198.196 79.0869 199.329 81.2172C199.569 81.633 199.679 82.1107 199.646 82.5894C199.613 83.0681 199.437 83.5261 199.142 83.9051C198.9 84.2331 198.588 84.5033 198.229 84.6962C197.87 84.889 197.472 84.9997 197.064 85.0203Z" fill="#263238"/>
<path d="M167.28 79.2587C167.189 79.2724 167.098 79.2724 167.007 79.2587C166.578 79.1647 166.181 78.9611 165.854 78.6679C165.527 78.3747 165.283 78.0018 165.144 77.5859C165.078 77.1687 165.105 76.742 165.224 76.3366C165.343 75.9311 165.551 75.557 165.832 75.2412C165.99 75.0892 166.2 75.0042 166.42 75.0042C166.639 75.0042 166.85 75.0892 167.007 75.2412C167.159 75.396 167.244 75.6038 167.244 75.8202C167.244 76.0366 167.159 76.2444 167.007 76.3992C166.864 76.5708 166.62 76.9854 166.692 77.2142C166.764 77.4429 166.907 77.5001 167.179 77.6288C168.706 76.9335 170.349 76.5263 172.024 76.4278C172.269 76.4185 172.505 76.3338 172.7 76.1854C172.895 76.0369 173.039 75.832 173.113 75.5986C173.329 75.1075 173.369 74.5575 173.228 74.0402C173.039 74.0687 172.847 74.0317 172.682 73.9353C172.518 73.839 172.392 73.6893 172.325 73.5112C172.249 73.3137 172.252 73.0944 172.335 72.8996C172.418 72.7048 172.574 72.5499 172.769 72.4675C173.03 72.358 173.318 72.3281 173.596 72.3815C173.874 72.435 174.13 72.5694 174.332 72.7677C174.686 73.245 174.906 73.8082 174.969 74.399C175.032 74.9897 174.936 75.5866 174.69 76.1276C174.507 76.6779 174.162 77.1599 173.698 77.5097C173.235 77.8595 172.676 78.0606 172.096 78.0863C170.537 78.179 169.013 78.5774 167.609 79.2587C167.501 79.2832 167.388 79.2832 167.28 79.2587Z" fill="#263238"/>
<path d="M169.358 84.1913C168.52 83.846 167.658 83.564 166.778 83.3477C166.395 83.2458 166.008 83.1647 165.617 83.1047C165.172 83.0189 164.699 82.976 164.083 82.8044C164.409 82.2949 164.888 81.9014 165.452 81.6805C166.016 81.4596 166.636 81.4226 167.222 81.5749C167.824 81.7022 168.364 82.0312 168.753 82.5072C169.141 82.9832 169.355 83.5775 169.358 84.1913Z" fill="#263238"/>
<path d="M184.479 86.4788C184.997 85.782 185.733 85.2786 186.572 85.0491C187.416 84.8059 188.307 84.7765 189.166 84.9633C190.013 85.1581 190.8 85.5555 191.459 86.1213C192.121 86.6656 192.618 87.3836 192.893 88.1944C192.076 87.9085 191.459 87.5797 190.743 87.3366C190.111 87.0846 189.459 86.8884 188.793 86.7504C188.136 86.5883 187.463 86.4925 186.787 86.4645C186.013 86.4645 185.282 86.4645 184.479 86.4788Z" fill="#263238"/>
<path d="M174.203 96.3294H174.045C172.575 96.0348 171.135 95.604 169.745 95.0426C169.488 94.9324 169.26 94.766 169.076 94.5556C168.893 94.3452 168.759 94.0963 168.685 93.8273C168.552 92.818 168.808 91.7961 169.401 90.9679L173.501 82.9185L173.644 82.7184C173.915 82.4004 174.258 82.1506 174.644 81.9891C175.03 81.8277 175.448 81.7591 175.866 81.7891C176.309 81.8801 176.729 82.0634 177.097 82.327C177.465 82.5906 177.773 82.9286 178.001 83.3189C178.091 83.485 178.126 83.6751 178.102 83.8622C178.102 83.8622 177.17 89.9528 177.07 92.4405C177.111 93.2841 176.878 94.1186 176.405 94.8194C175.933 95.5202 175.246 96.0498 174.447 96.3294H174.203ZM174.877 83.7478L170.792 91.7685C170.439 92.2285 170.248 92.791 170.247 93.3698C170.247 93.3698 170.247 93.4699 170.405 93.5271C171.608 94.0184 172.856 94.3918 174.131 94.6423C174.534 94.4176 174.864 94.083 175.082 93.6777C175.3 93.2725 175.398 92.8135 175.364 92.3547C175.464 90.0672 176.167 85.2061 176.367 83.9051C176.181 83.6576 175.92 83.477 175.622 83.3904C175.479 83.3972 175.338 83.4338 175.21 83.4978C175.082 83.5618 174.968 83.6518 174.877 83.7621V83.7478Z" fill="#263238"/>
<path d="M164.083 86.4356C164.406 86.3305 164.748 86.294 165.086 86.3285C165.424 86.363 165.751 86.4677 166.047 86.6358C166.958 87.1358 167.686 87.9129 168.124 88.8541C168.562 89.7952 168.688 90.8513 168.483 91.8686C168.025 93.041 166.534 91.7113 164.384 90.8678C163.682 90.5961 163.61 90.8678 162.951 90.639L164.083 86.4356Z" fill="#263238"/>
<path d="M181.068 94.4278C180.824 95.8575 183.476 95.5144 186.586 96.0148C189.696 96.5152 192.061 97.7304 192.319 96.2435C192.577 94.7566 190.571 91.0965 187.475 90.5961C184.379 90.0957 181.311 92.9409 181.068 94.4278Z" fill="#263238"/>
<path d="M173.314 102.578C175.192 102.006 176.783 101.72 178.302 101.248C179.064 101.03 179.811 100.763 180.538 100.447C181.298 100.147 181.971 99.7181 182.917 99.2749C182.727 100.259 182.224 101.156 181.484 101.834C180.746 102.503 179.863 102.992 178.904 103.264C177.974 103.532 177 103.615 176.037 103.507C175.065 103.433 174.128 103.113 173.314 102.578Z" fill="#263238"/>
<path d="M209.749 171.747C209.749 179.668 206.423 186.044 194.513 186.044C186.113 186.044 181.054 179.639 181.054 171.747C181.054 163.855 184.436 157.45 194.513 157.45C204.589 157.45 209.749 163.841 209.749 171.747Z" fill="#E8E8E8"/>
<path d="M193.079 173.535H192.807C192.348 173.535 191.474 173.535 191.216 172.748C190.958 171.962 191.546 171.59 191.947 171.319C192.15 171.156 192.338 170.974 192.506 170.775L192.377 170.69C191.302 169.946 184.107 170.175 177.771 170.832C177.663 170.846 177.553 170.838 177.447 170.809C177.342 170.78 177.244 170.73 177.158 170.662C177.073 170.594 177.002 170.509 176.949 170.413C176.897 170.317 176.865 170.212 176.854 170.103C176.834 169.884 176.901 169.665 177.04 169.494C177.179 169.323 177.38 169.214 177.599 169.188C179.85 168.96 191.202 167.859 193.366 169.331C193.616 169.48 193.824 169.689 193.972 169.938C194.12 170.188 194.202 170.471 194.212 170.761C194.218 170.987 194.179 171.212 194.098 171.423C194.017 171.634 193.895 171.827 193.739 171.991C194.427 171.991 195.373 171.833 196.462 171.705C201.263 171.133 209.362 170.175 216.385 172.048C216.592 172.11 216.767 172.25 216.872 172.438C216.977 172.626 217.005 172.848 216.949 173.057C216.893 173.265 216.758 173.443 216.572 173.554C216.387 173.664 216.165 173.699 215.955 173.649C209.175 171.862 201.349 172.791 196.663 173.349C195.029 173.377 193.839 173.535 193.079 173.535Z" fill="#263238"/>
<path d="M77.2106 76.7707C77.0485 76.7719 76.8897 76.7249 76.7544 76.6358C76.6191 76.5467 76.5135 76.4195 76.4509 76.2703C75.8424 74.245 75.5617 72.1359 75.6196 70.0224L73.6559 63.1311C73.6212 62.9961 73.6205 62.8546 73.654 62.7193C73.6875 62.584 73.7541 62.4591 73.8478 62.3557C73.9415 62.2523 74.0594 62.1737 74.191 62.1269C74.3226 62.0801 74.4638 62.0665 74.6019 62.0874L81.5392 63.3027C81.8832 63.3027 83.5458 63.846 83.8468 67.5919C83.9846 69.1792 84.5274 70.705 85.4235 72.024C85.4822 72.1161 85.5215 72.2191 85.5388 72.3268C85.5562 72.4346 85.5513 72.5447 85.5245 72.6505C85.4976 72.7562 85.4494 72.8554 85.3827 72.9419C85.3161 73.0284 85.2324 73.1004 85.1368 73.1535C85.0439 73.2101 84.9407 73.2476 84.8331 73.2638C84.7256 73.2801 84.6158 73.2747 84.5103 73.2481C84.4049 73.2215 84.3058 73.1741 84.2189 73.1087C84.1321 73.0434 84.0591 72.9614 84.0045 72.8676C82.9737 71.3382 82.352 69.5713 82.1985 67.7348C81.9978 65.2614 81.1952 64.8754 81.1808 64.8754L75.6196 63.9032L77.2536 69.6221C77.2605 69.7029 77.2605 69.7843 77.2536 69.8651C77.1895 71.7953 77.4215 73.7238 77.9416 75.584C78.0281 75.7851 78.0315 76.0121 77.9509 76.2157C77.8704 76.4192 77.7125 76.5827 77.5116 76.6706C77.4181 76.7217 77.3161 76.7556 77.2106 76.7707Z" fill="#263238"/>
<path d="M107.654 92.2263C107.502 92.2328 107.352 92.1929 107.224 92.112C105.332 90.9968 88.6769 81.0173 86.4409 76.8997C86.3667 76.7715 86.3276 76.626 86.3276 76.4779C86.3276 76.3299 86.3667 76.1844 86.4409 76.0562C86.9051 75.2195 87.1838 74.2931 87.2579 73.3397C87.2673 73.2308 87.2982 73.1248 87.3486 73.0278C87.3991 72.9308 87.4682 72.8446 87.5521 72.7743C87.6359 72.7039 87.7329 72.6507 87.8373 72.6177C87.9418 72.5847 88.0517 72.5725 88.1609 72.5819C88.2701 72.5913 88.3763 72.6221 88.4736 72.6724C88.5708 72.7228 88.6572 72.7917 88.7278 72.8754C88.7983 72.959 88.8516 73.0557 88.8847 73.1599C88.9178 73.2641 88.93 73.3738 88.9206 73.4827C88.8221 74.5181 88.5457 75.5289 88.1036 76.4708C90.5402 79.8592 103.196 87.8085 108.041 90.768C108.137 90.8211 108.22 90.8931 108.287 90.9796C108.354 91.0661 108.402 91.1653 108.429 91.2711C108.455 91.3768 108.46 91.487 108.443 91.5947C108.426 91.7024 108.386 91.8055 108.328 91.8975C108.249 92.0011 108.147 92.0849 108.03 92.142C107.913 92.1991 107.784 92.228 107.654 92.2263Z" fill="#263238"/>
<path d="M191.962 375.669C191.962 375.669 191.173 363.573 190.528 362.987C189.883 362.401 181.642 363.516 179.95 362.673C178.259 361.829 177.327 366.447 176.238 366.962C175.149 367.476 172.855 365.275 174.418 362.401C175.98 359.527 169.559 354.366 167.954 354.495C166.348 354.623 156.114 358.784 148.202 359.27C140.291 359.756 133.998 358.269 131.82 359.413C129.641 360.557 127.62 361.843 130.659 365.332C133.697 368.82 140.692 375.726 149.98 375.812C159.268 375.898 161.446 374.382 162.593 373.038C163.74 371.694 165.46 369.249 166.707 371.751C167.954 374.253 167.982 377.642 170.146 378.285C172.311 378.929 187.131 382.36 191.962 375.669Z" fill="#263238"/>
<path d="M178.115 387.993C175.945 388.01 173.781 387.775 171.665 387.292C168.682 386.465 165.937 384.946 163.653 382.86C163.109 382.417 162.564 381.974 162.019 381.574C160.987 380.816 158.493 381.087 155.627 381.402C151.828 381.964 147.97 382.003 144.16 381.516C137.008 380.109 130.486 376.481 125.527 371.151C122.876 367.877 123.965 365.003 125.298 362.329C125.607 361.503 126.191 360.808 126.953 360.36C127.715 359.912 128.609 359.739 129.483 359.87C129.674 359.941 129.833 360.079 129.929 360.258C130.025 360.437 130.051 360.645 130.004 360.843C129.956 361.04 129.837 361.213 129.67 361.329C129.502 361.445 129.298 361.496 129.096 361.472C128.953 361.472 127.663 361.243 126.774 363.073C125.556 365.518 124.782 367.591 126.774 370.107C131.494 375.116 137.661 378.534 144.418 379.886C148.077 380.337 151.779 380.293 155.426 379.758C158.766 379.386 161.417 379.1 162.965 380.244C163.539 380.659 164.098 381.116 164.671 381.574C166.765 383.509 169.29 384.92 172.038 385.691C176.539 386.806 183.892 386.578 188.392 384.261C192.563 382.117 193.237 380.115 191.259 376.041C191.219 375.861 191.24 375.674 191.319 375.508C191.398 375.342 191.529 375.207 191.693 375.123C191.857 375.04 192.044 375.013 192.225 375.047C192.406 375.081 192.57 375.174 192.692 375.311C195.129 380.172 194.126 383.189 189.166 385.72C185.704 387.305 181.924 388.082 178.115 387.993Z" fill="#263238"/>
<path d="M170.935 360.199C170.782 360.2 170.632 360.158 170.503 360.077C170.373 359.995 170.27 359.879 170.204 359.741C170.155 359.648 170.124 359.545 170.115 359.439C170.105 359.334 170.117 359.228 170.149 359.126C170.181 359.025 170.232 358.932 170.301 358.851C170.37 358.77 170.454 358.703 170.548 358.655C170.663 358.569 174.404 356.024 178.489 339.268C178.503 339.152 178.541 339.04 178.602 338.939C178.662 338.839 178.743 338.753 178.84 338.686C178.936 338.619 179.046 338.573 179.161 338.552C179.276 338.53 179.395 338.533 179.509 338.561C179.623 338.588 179.73 338.639 179.823 338.711C179.916 338.783 179.992 338.873 180.048 338.976C180.103 339.08 180.136 339.193 180.144 339.31C180.152 339.427 180.135 339.544 180.094 339.654C175.794 357.44 171.752 359.899 171.308 360.113C171.192 360.17 171.064 360.2 170.935 360.199Z" fill="#263238"/>
<path d="M187.776 365.975C187.567 365.976 187.365 365.896 187.213 365.752C187.061 365.608 186.971 365.412 186.959 365.203C186.558 358.97 194.814 341.699 195.172 340.969C195.294 340.835 195.457 340.743 195.635 340.71C195.814 340.676 195.999 340.702 196.162 340.783C196.324 340.864 196.456 340.996 196.536 341.159C196.616 341.322 196.641 341.506 196.606 341.684C196.52 341.856 188.192 359.298 188.55 365.089C188.558 365.198 188.544 365.307 188.51 365.411C188.475 365.514 188.42 365.61 188.348 365.693C188.276 365.775 188.189 365.842 188.091 365.891C187.992 365.939 187.886 365.968 187.776 365.975Z" fill="#263238"/>
<path d="M194.255 342.242C188.808 342.242 179.018 339.382 174.331 336.623C169.43 333.763 170.92 323.212 172.225 313.89C172.382 312.747 172.54 311.617 172.683 310.545C173.257 306.113 173.113 297.591 172.956 289.342C172.784 279.606 172.626 270.398 173.529 266.581C175.191 259.432 189.596 233.125 190.213 232.01C190.262 231.913 190.331 231.827 190.415 231.758C190.499 231.688 190.596 231.636 190.701 231.606C190.805 231.575 190.915 231.566 191.023 231.579C191.132 231.592 191.236 231.627 191.331 231.681C191.426 231.732 191.511 231.802 191.58 231.885C191.648 231.969 191.699 232.066 191.73 232.17C191.761 232.274 191.77 232.382 191.758 232.49C191.746 232.598 191.713 232.702 191.66 232.796C191.517 233.068 176.754 260.104 175.134 266.952C174.289 270.57 174.461 280.106 174.618 289.313C174.761 297.62 174.919 306.213 174.331 310.759C174.188 311.846 174.03 312.975 173.859 314.119C172.698 322.483 171.236 332.906 175.163 335.193C180.05 338.053 191.531 341.241 195.76 340.469C197.838 340.097 204.89 338.067 208.831 327.744C212.042 319.352 212.931 291.587 212.931 288.699C212.372 287.017 211.576 285.423 210.566 283.966C208.573 280.621 207.699 278.976 208.502 278.047C209.304 277.118 210.351 277.818 210.781 278.047C212.582 278.949 214.262 280.073 215.783 281.393L216.758 282.15C216.758 282.15 216.758 281.993 216.758 281.907C216.399 280.606 215.998 279.448 215.668 278.519C214.98 276.503 214.593 275.388 215.238 274.644C215.452 274.437 215.719 274.292 216.009 274.224C216.299 274.156 216.603 274.168 216.887 274.258C219.065 274.687 220.255 274.53 221.187 273.658C222.305 272.457 241.984 240.774 243.374 233.912C244.951 226.305 244.808 217.841 243.073 215.068C241.038 211.822 238.573 208.534 238.544 208.505C238.413 208.329 238.358 208.108 238.39 207.891C238.422 207.674 238.54 207.478 238.716 207.347C238.802 207.28 238.901 207.231 239.006 207.202C239.111 207.174 239.222 207.167 239.33 207.181C239.438 207.196 239.542 207.232 239.636 207.288C239.73 207.343 239.812 207.417 239.877 207.505C239.877 207.505 242.414 210.879 244.478 214.181C246.757 217.827 246.456 227.235 245.008 234.197C243.561 241.16 223.466 273.615 222.233 274.845C220.628 276.446 218.549 276.274 216.5 275.903C216.669 276.612 216.884 277.309 217.145 277.99C217.474 278.948 217.89 280.135 218.263 281.493C218.549 282.565 218.764 283.652 218.005 284.138C217.245 284.624 216.299 283.98 214.708 282.708C213.29 281.477 211.726 280.425 210.05 279.577H209.964C210.548 280.834 211.213 282.052 211.956 283.223C213.561 285.939 214.55 287.669 214.55 288.799C214.55 289.085 213.905 319.109 210.351 328.431C206.051 339.568 198.311 341.784 196.018 342.199C195.432 342.266 194.842 342.281 194.255 342.242Z" fill="#263238"/>
<path d="M269.646 316.15C268.915 316.15 268.213 316.15 267.654 316.064C264.214 315.806 252.26 311.889 241.711 308.443C235.375 306.37 229.399 304.412 226.417 303.625C221.239 302.122 216.616 299.14 213.116 295.047C213.033 294.964 212.968 294.865 212.926 294.756C212.884 294.647 212.866 294.531 212.872 294.414C212.879 294.297 212.91 294.183 212.963 294.08C213.017 293.976 213.092 293.884 213.183 293.811C213.275 293.738 213.38 293.686 213.494 293.656C213.607 293.627 213.725 293.622 213.841 293.641C213.956 293.661 214.066 293.704 214.164 293.769C214.261 293.834 214.344 293.919 214.406 294.017C217.705 297.802 222.015 300.574 226.833 302.01C229.872 302.81 235.877 304.769 242.227 306.856C252.174 310.102 264.543 314.162 267.783 314.405C272.627 314.777 280.84 313.748 283.549 309.401C286.258 305.055 286.688 294.461 285.943 291.859L285.842 291.501C284.954 288.37 282.876 281.007 276.096 278.762C267.611 275.903 252.805 271.885 251.228 272.157C250.898 272.157 250.54 273.043 250.325 273.515C249.995 274.259 249.651 275.016 248.892 275.031C248.132 275.045 247.63 274.159 247.458 273.787C247.157 273.186 246.856 272.486 246.555 271.757C246.097 270.656 245.122 268.368 244.592 268.239C243.908 268.868 243.289 269.562 242.743 270.313C241.424 272 240.535 273.172 239.532 272.757C238.529 272.343 238.643 271.328 238.643 270.927C238.672 269.926 238.797 268.931 239.016 267.954C239.475 265.637 239.489 264.837 237.941 264.251C234.272 262.821 233.455 256.802 233.455 254.586C233.455 254.366 233.542 254.155 233.698 253.999C233.854 253.844 234.066 253.756 234.286 253.756C234.507 253.756 234.718 253.844 234.874 253.999C235.03 254.155 235.118 254.366 235.118 254.586C235.118 256.015 235.705 261.648 238.529 262.706C241.352 263.764 241.051 266.181 240.65 268.268C240.497 269.089 240.406 269.921 240.378 270.756C240.736 270.355 241.166 269.798 241.496 269.326C242.105 268.466 242.812 267.679 243.603 266.981C243.803 266.825 244.035 266.715 244.283 266.661C244.532 266.606 244.789 266.608 245.036 266.667C246.355 267.024 247.157 268.94 248.089 271.142C248.347 271.757 248.605 272.371 248.849 272.9C249.236 272.043 249.766 270.884 250.884 270.599C253.005 270.084 271.079 275.388 276.684 277.247C284.28 279.777 286.616 288.013 287.491 291.115L287.591 291.458C288.451 294.432 288.136 305.441 285.011 310.345C282.044 314.963 274.519 316.15 269.646 316.15Z" fill="#263238"/>
<path d="M380.428 370.25C380.137 370.271 379.845 370.271 379.554 370.25C379.335 370.218 379.138 370.101 379.006 369.924C378.875 369.747 378.819 369.525 378.851 369.307C378.883 369.089 379.001 368.892 379.179 368.761C379.356 368.63 379.579 368.574 379.797 368.606C379.912 368.606 389.83 369.807 398.559 353.137C406.084 338.839 406.442 334.55 406.328 333.464C406.056 333.664 405.697 333.993 405.367 334.293C404.517 335.16 403.517 335.867 402.415 336.38C400.767 337.038 382.979 352.107 379.339 367.977C379.315 368.083 379.27 368.183 379.208 368.271C379.145 368.359 379.065 368.434 378.973 368.491C378.881 368.549 378.779 368.587 378.672 368.604C378.564 368.622 378.455 368.617 378.35 368.592C378.242 368.57 378.141 368.527 378.051 368.465C377.96 368.403 377.884 368.324 377.825 368.232C377.766 368.14 377.726 368.037 377.708 367.929C377.69 367.822 377.694 367.712 377.719 367.605C381.531 350.992 399.849 335.623 401.799 334.836C402.712 334.404 403.538 333.808 404.235 333.078C404.792 332.416 405.521 331.921 406.342 331.648C406.578 331.597 406.825 331.618 407.049 331.707C407.274 331.796 407.467 331.949 407.604 332.148C409.581 334.779 403.705 346.889 400.021 353.866C392.066 368.964 383.208 370.25 380.428 370.25Z" fill="#263238"/>
<path d="M381.689 368.306C381.568 368.305 381.449 368.277 381.34 368.226C381.232 368.174 381.135 368.099 381.058 368.006C380.987 367.923 380.934 367.826 380.9 367.722C380.867 367.618 380.855 367.508 380.864 367.399C380.873 367.29 380.904 367.184 380.955 367.087C381.005 366.99 381.075 366.904 381.159 366.834C381.273 366.748 392.496 357.24 397.355 346.946C397.454 346.758 397.623 346.614 397.825 346.546C398.028 346.478 398.249 346.491 398.442 346.581C398.636 346.671 398.788 346.832 398.865 347.03C398.943 347.229 398.941 347.45 398.86 347.647C393.843 358.284 382.707 367.663 382.234 368.106C382.081 368.235 381.888 368.306 381.689 368.306Z" fill="#263238"/>
<path d="M379.726 348.332H379.654C379.545 348.325 379.439 348.296 379.342 348.247C379.245 348.199 379.158 348.131 379.087 348.049C379.016 347.966 378.963 347.87 378.93 347.767C378.897 347.663 378.885 347.554 378.894 347.446C380.027 333.849 386.677 319.823 398.66 305.784C399.161 305.183 399.505 304.783 399.649 304.583C399.937 304.121 400.201 303.643 400.437 303.153C401.412 301.323 402.2 299.893 403.304 300.208C404.407 300.522 404.737 301.637 404.436 307.356C403.834 318.794 396.022 340.926 395.693 341.855C395.666 341.968 395.615 342.074 395.544 342.166C395.474 342.257 395.385 342.334 395.283 342.389C395.181 342.445 395.068 342.478 394.953 342.488C394.837 342.497 394.721 342.482 394.611 342.444C394.501 342.406 394.401 342.345 394.316 342.266C394.232 342.187 394.164 342.091 394.119 341.984C394.074 341.878 394.052 341.763 394.054 341.647C394.055 341.531 394.082 341.417 394.131 341.312C394.217 341.083 402.2 318.508 402.73 307.27C402.861 305.629 402.861 303.98 402.73 302.338C402.429 302.81 402.071 303.482 401.842 303.911C401.612 304.34 401.211 305.097 400.953 305.469C400.695 305.841 400.408 306.141 399.849 306.799C388.096 320.581 381.589 334.278 380.485 347.517C380.483 347.723 380.403 347.92 380.263 348.071C380.123 348.221 379.931 348.314 379.726 348.332Z" fill="#263238"/>
<path d="M380.142 356.539H379.912C379.702 356.476 379.524 356.333 379.42 356.14C379.315 355.947 379.291 355.72 379.353 355.51C384.184 339.011 395.449 318.337 395.564 318.08C395.615 317.984 395.685 317.9 395.769 317.831C395.853 317.763 395.95 317.712 396.054 317.681C396.158 317.651 396.267 317.641 396.375 317.653C396.483 317.665 396.587 317.698 396.682 317.751C396.778 317.802 396.863 317.871 396.931 317.955C397 318.039 397.051 318.135 397.081 318.239C397.112 318.343 397.122 318.452 397.11 318.56C397.098 318.667 397.065 318.771 397.012 318.866C396.897 319.08 385.732 339.654 380.944 356.039C380.879 356.195 380.767 356.327 380.623 356.417C380.479 356.506 380.311 356.549 380.142 356.539Z" fill="#263238"/>
<path d="M375.11 368.577C374.896 368.578 374.69 368.496 374.536 368.348C373.963 367.805 360.547 354.694 362.109 338.324C363.471 324.027 366.954 310.573 369.706 308.815C369.89 308.682 370.103 308.594 370.327 308.559C370.551 308.525 370.78 308.543 370.996 308.614C372.644 309.186 372.988 311.603 373.418 314.676C373.653 317.119 374.202 319.522 375.052 321.825C377.36 327.244 382.935 352.064 379.94 365.503C379.88 365.705 379.747 365.876 379.565 365.983C379.384 366.09 379.168 366.124 378.963 366.079C378.757 366.034 378.576 365.912 378.457 365.739C378.338 365.565 378.289 365.353 378.32 365.146C381.187 352.035 375.783 327.773 373.519 322.468C372.618 320.046 372.031 317.519 371.77 314.948C371.498 313.047 371.168 310.659 370.552 310.273C369.004 311.245 365.277 322.626 363.758 338.524C362.324 354.051 375.554 367.019 375.683 367.119C375.811 367.23 375.902 367.378 375.942 367.542C375.982 367.707 375.969 367.88 375.906 368.037C375.843 368.194 375.733 368.328 375.59 368.42C375.447 368.511 375.279 368.556 375.11 368.548V368.577Z" fill="#263238"/>
<path d="M376.257 366.618C376.098 366.617 375.941 366.571 375.807 366.485C375.673 366.399 375.565 366.277 375.498 366.132C368.331 350.32 367.17 328.116 367.17 327.902C367.162 327.793 367.176 327.685 367.211 327.582C367.246 327.479 367.301 327.384 367.373 327.303C367.445 327.222 367.533 327.156 367.631 327.109C367.729 327.062 367.835 327.035 367.944 327.029C368.158 327.026 368.366 327.106 368.521 327.253C368.677 327.4 368.768 327.602 368.775 327.816C368.775 328.03 369.994 349.934 376.974 365.46C377.061 365.66 377.067 365.885 376.989 366.089C376.911 366.292 376.757 366.456 376.558 366.547C376.464 366.592 376.362 366.616 376.257 366.618Z" fill="#263238"/>
<path d="M375.282 325.7C375.071 325.7 374.868 325.621 374.713 325.477C374.559 325.334 374.465 325.138 374.45 324.928C373.175 303.11 382.248 284.281 386.605 275.245C387.404 273.683 388.117 272.08 388.74 270.441C389.701 267.224 390.933 266.681 391.779 266.795C393.026 266.952 394.717 268.468 395.018 279.548C395.405 293.531 391.32 317.979 391.292 318.151C391.274 318.259 391.235 318.362 391.177 318.455C391.119 318.548 391.043 318.629 390.954 318.692C390.865 318.756 390.764 318.802 390.657 318.826C390.55 318.851 390.44 318.855 390.331 318.837C390.223 318.819 390.12 318.78 390.026 318.722C389.933 318.665 389.852 318.589 389.789 318.5C389.725 318.411 389.679 318.311 389.654 318.204C389.629 318.097 389.626 317.987 389.643 317.879C389.643 317.636 393.728 293.331 393.356 279.52C393.083 269.211 391.55 268.368 391.535 268.353C390.936 269.072 390.523 269.926 390.331 270.841C389.688 272.567 388.942 274.252 388.095 275.888C383.796 284.81 374.866 303.367 376.113 324.756C376.119 324.865 376.103 324.974 376.066 325.077C376.03 325.18 375.973 325.274 375.9 325.355C375.827 325.436 375.738 325.502 375.64 325.549C375.541 325.596 375.434 325.623 375.325 325.628L375.282 325.7Z" fill="#263238"/>
<path d="M379.41 344.801C379.205 344.799 379.007 344.722 378.854 344.586C378.701 344.449 378.603 344.261 378.579 344.058C378.307 341.584 379.195 337.81 380.829 330.947C381.646 327.487 382.649 323.184 383.796 317.865C386.191 305.572 387.957 293.165 389.085 280.692C389.11 280.475 389.218 280.275 389.386 280.135C389.554 279.994 389.769 279.922 389.988 279.934C390.097 279.943 390.203 279.974 390.299 280.024C390.396 280.075 390.482 280.144 390.551 280.228C390.621 280.312 390.673 280.409 390.704 280.513C390.735 280.617 390.745 280.727 390.733 280.835C389.603 293.375 387.833 305.848 385.43 318.208C384.269 323.541 383.251 327.845 382.434 331.304C380.858 337.996 379.984 341.67 380.227 343.872C380.251 344.09 380.188 344.308 380.051 344.48C379.914 344.651 379.715 344.762 379.496 344.787L379.41 344.801Z" fill="#263238"/>
<path d="M392.195 374.396C392.016 374.396 391.842 374.339 391.698 374.233C391.554 374.128 391.447 373.98 391.392 373.81C391.33 373.6 391.354 373.373 391.459 373.18C391.563 372.987 391.741 372.844 391.951 372.781L393.643 372.252C393.561 372.208 393.484 372.155 393.413 372.094C393.251 371.945 393.133 371.754 393.072 371.542C393.012 371.33 393.011 371.106 393.069 370.893C393.353 370.04 393.774 369.238 394.316 368.52L394.503 368.248C391.392 369.421 387.078 370.693 384.111 369.407C384.01 369.364 383.919 369.303 383.842 369.225C383.765 369.148 383.704 369.056 383.663 368.955C383.622 368.854 383.601 368.746 383.602 368.637C383.602 368.528 383.624 368.42 383.667 368.32C383.758 368.119 383.924 367.961 384.131 367.881C384.337 367.8 384.567 367.804 384.77 367.891C387.637 369.121 392.596 367.205 394.245 366.576C394.832 366.347 395.907 365.932 396.481 366.661C397.054 367.391 396.481 368.248 395.707 369.435C395.434 369.835 395.133 370.293 394.918 370.693C395.391 370.579 396.036 370.379 396.552 370.222C397.935 369.715 399.383 369.407 400.852 369.306C401.77 369.306 402.042 369.75 402.085 370.121C402.2 370.893 402.286 371.394 392.453 374.411L392.195 374.396Z" fill="#263238"/>
<path d="M372.386 368.091C372.251 368.094 372.117 368.059 371.999 367.991C369.735 366.755 367.676 365.178 365.893 363.316C364.532 361.886 363.528 361.5 363.027 361.629C362.934 361.667 362.854 361.729 362.796 361.81C362.738 361.891 362.703 361.987 362.697 362.087C362.673 362.301 362.591 362.505 362.46 362.676C362.328 362.847 362.153 362.98 361.952 363.059C361.164 363.359 360.39 362.73 359.487 362.001L359.257 361.829C359.257 361.929 359.257 362.029 359.257 362.115C359.401 363.788 359.63 366.304 357.824 367.134C357.724 367.179 357.616 367.204 357.507 367.207C357.398 367.211 357.288 367.193 357.186 367.154C357.083 367.116 356.99 367.057 356.91 366.983C356.83 366.908 356.765 366.818 356.72 366.719C356.675 366.619 356.65 366.512 356.646 366.403C356.643 366.294 356.661 366.185 356.7 366.083C356.738 365.98 356.797 365.887 356.871 365.807C356.946 365.727 357.036 365.663 357.136 365.618C357.867 365.289 357.695 363.388 357.595 362.258C357.494 361.129 357.423 360.214 358.111 359.828C358.799 359.442 359.616 360.014 360.504 360.714L361.192 361.257C361.312 360.967 361.495 360.708 361.728 360.497C361.961 360.287 362.238 360.132 362.539 360.042C363.27 359.828 364.818 359.828 367.026 362.187C368.684 363.889 370.587 365.334 372.673 366.476C372.772 366.526 372.859 366.595 372.931 366.679C373.003 366.763 373.057 366.86 373.09 366.965C373.123 367.071 373.135 367.181 373.125 367.291C373.115 367.401 373.083 367.508 373.031 367.605C372.973 367.734 372.883 367.845 372.771 367.93C372.658 368.015 372.526 368.071 372.386 368.091Z" fill="#263238"/>
<path d="M84.8932 367.076C83.4118 367.075 81.9322 366.975 80.4643 366.776C73.9571 365.904 64.4685 362.487 56.27 351.563C42.6678 333.363 42.1375 318.551 41.9368 312.217C41.9368 311.26 41.9368 310.516 41.8078 309.973C41.4495 307.113 41.8078 303.739 43.4848 303.039C43.9148 302.838 44.7891 302.695 45.7208 303.825C46.3242 304.664 46.6816 305.654 46.7528 306.684C47.0538 308.514 47.3978 310.602 51.454 312.961C59.9393 317.865 88.2042 335.965 96.0301 362.844C96.0721 362.951 96.0911 363.066 96.086 363.181C96.081 363.297 96.0519 363.409 96.0007 363.513C95.9495 363.616 95.8773 363.708 95.7886 363.781C95.6999 363.855 95.5968 363.91 95.4858 363.942C95.3748 363.974 95.2583 363.982 95.1438 363.967C95.0293 363.951 94.9193 363.912 94.8209 363.852C94.7224 363.792 94.6376 363.712 94.5718 363.617C94.5061 363.522 94.4609 363.415 94.4391 363.301C86.7852 337.023 58.9646 319.223 50.6227 314.391C45.8785 311.646 45.4341 308.929 45.1188 306.956C45.0754 306.232 44.8432 305.532 44.4451 304.926C44.3492 304.788 44.2214 304.675 44.0725 304.597C43.8001 304.769 43.0548 306.627 43.4562 309.816C43.4562 310.387 43.5565 311.245 43.5995 312.203C43.8145 318.38 44.3305 332.834 57.6173 350.62C65.4432 361.114 74.4444 364.317 80.622 365.174C84.5265 365.749 88.5077 365.515 92.3178 364.488C92.5269 364.42 92.7544 364.438 92.9505 364.537C93.1465 364.636 93.2953 364.809 93.3641 365.017C93.3998 365.12 93.4142 365.23 93.4067 365.338C93.3992 365.447 93.3699 365.554 93.3204 365.651C93.2709 365.748 93.2024 365.835 93.1188 365.905C93.0352 365.976 92.9383 366.029 92.8338 366.061C90.2523 366.791 87.576 367.133 84.8932 367.076Z" fill="#263238"/>
<path d="M92.7471 364.159H92.6038C92.0735 364.059 79.403 361.8 65.7435 349.648C57.2791 341.833 51.1224 331.855 47.9417 320.796C47.9163 320.69 47.9121 320.58 47.9293 320.472C47.9466 320.364 47.9849 320.261 48.0421 320.168C48.0993 320.075 48.1744 319.995 48.2629 319.931C48.3514 319.867 48.4517 319.821 48.5581 319.795C48.6644 319.77 48.7747 319.766 48.8827 319.783C48.9907 319.8 49.0942 319.838 49.1874 319.895C49.2805 319.952 49.3615 320.027 49.4257 320.116C49.4899 320.204 49.536 320.304 49.5614 320.41C52.6458 331.152 58.6245 340.844 66.8471 348.433C80.1196 360.256 92.7614 362.53 92.8904 362.544C93.1051 362.586 93.2952 362.709 93.4209 362.887C93.5465 363.066 93.5978 363.286 93.5641 363.502C93.5271 363.69 93.4249 363.859 93.2755 363.979C93.1261 364.099 92.9391 364.163 92.7471 364.159Z" fill="#263238"/>
<path d="M100.86 363.874C100.643 363.893 100.428 363.825 100.261 363.686C100.095 363.546 99.9903 363.347 99.9713 363.13C99.9523 362.914 100.02 362.7 100.16 362.533C100.3 362.367 100.5 362.263 100.717 362.244C100.874 362.244 116.483 358.97 117.071 330.104C117.787 298.264 111.338 283.009 107.339 279.02C106.507 278.176 105.776 277.776 105.418 277.919C103.884 278.519 103.755 285.539 103.684 289.728C103.569 295.333 100.817 300.723 97.119 308.201C95.8434 310.745 94.4101 313.633 92.9051 316.779C87.3008 328.803 90.3108 349.548 90.3395 349.748C90.3697 349.861 90.3757 349.979 90.357 350.094C90.3384 350.21 90.2955 350.32 90.2313 350.417C90.167 350.515 90.0828 350.598 89.9842 350.661C89.8856 350.724 89.7747 350.765 89.6589 350.782C89.5431 350.8 89.425 350.792 89.3122 350.761C89.1995 350.729 89.0947 350.674 89.0047 350.6C88.9147 350.525 88.8415 350.432 88.7899 350.327C88.7384 350.223 88.7096 350.108 88.7055 349.991C88.5765 349.133 85.5809 328.545 91.4001 316.078C92.8334 312.861 94.3671 309.973 95.7001 307.414C99.3407 300.137 101.978 294.89 102.078 289.657C102.207 282.222 102.48 277.276 104.859 276.332C106.479 275.689 108.055 277.29 108.571 277.762C114.118 283.352 119.421 301.695 118.791 330.047C118.103 360.357 101.763 363.645 101.075 363.774L100.86 363.874Z" fill="#263238"/>
<path d="M81.4958 371.252C76.6082 371.08 76.4362 370.222 76.3502 369.822C76.2642 369.422 76.6082 368.735 77.4539 368.392C78.6402 367.864 79.9467 367.661 81.2378 367.806C82.202 367.91 83.1772 367.817 84.1045 367.534C86.2974 366.862 86.6414 366.033 86.6414 366.033C86.6666 365.929 86.7122 365.831 86.7756 365.744C86.839 365.657 86.919 365.584 87.0109 365.528C87.1028 365.472 87.2048 365.435 87.3111 365.419C87.4174 365.402 87.5259 365.407 87.6304 365.433C87.8445 365.49 88.0281 365.628 88.1429 365.817C88.2578 366.006 88.295 366.232 88.2467 366.448C88.2467 366.719 87.7164 368.163 84.5918 369.121C83.4642 369.46 82.2811 369.577 81.1088 369.464C80.495 369.386 79.8737 369.386 79.2599 369.464C79.9335 369.55 80.6932 369.607 81.5102 369.636C81.7306 369.636 81.9421 369.723 82.098 369.879C82.2539 370.034 82.3415 370.245 82.3415 370.465C82.3415 370.685 82.2539 370.896 82.098 371.052C81.9421 371.207 81.7306 371.295 81.5102 371.295L81.4958 371.252Z" fill="#263238"/>
<path d="M106.621 366.548C106.509 366.548 106.397 366.525 106.294 366.481C106.19 366.437 106.097 366.372 106.019 366.29C105.864 366.135 105.776 365.924 105.776 365.704C105.776 365.484 105.864 365.274 106.019 365.118C106.544 364.639 107.024 364.112 107.453 363.545L107.367 363.631C106.779 364.332 105.933 365.375 104.744 364.789C104.278 364.51 103.872 364.141 103.549 363.704C103.227 363.267 102.995 362.771 102.866 362.244C102.815 362.03 102.851 361.804 102.966 361.617C103.082 361.429 103.268 361.295 103.482 361.244C103.697 361.192 103.924 361.228 104.112 361.344C104.3 361.459 104.434 361.644 104.486 361.858C104.641 362.446 105.008 362.955 105.518 363.288C105.69 363.018 105.887 362.764 106.105 362.53C106.707 361.83 107.725 360.643 108.972 361.472C109.149 361.594 109.296 361.753 109.402 361.939C109.509 362.124 109.573 362.331 109.588 362.545C109.674 363.874 107.954 365.618 107.209 366.305C107.05 366.455 106.841 366.542 106.621 366.548Z" fill="#263238"/>
<path d="M100.761 360.257C100.652 360.278 100.54 360.278 100.431 360.257C100.33 360.213 100.238 360.15 100.162 360.071C100.086 359.991 100.027 359.897 99.988 359.795C99.9491 359.692 99.9316 359.582 99.9363 359.472C99.941 359.362 99.968 359.255 100.016 359.156C108.061 339.064 111.082 317.321 108.816 295.805C108.792 295.585 108.855 295.365 108.991 295.191C109.128 295.017 109.327 294.904 109.547 294.875C109.656 294.861 109.766 294.869 109.871 294.899C109.976 294.928 110.075 294.978 110.16 295.046C110.246 295.114 110.317 295.199 110.369 295.295C110.421 295.39 110.454 295.496 110.464 295.604C114.592 330.461 101.649 359.542 101.52 359.842C101.444 359.974 101.333 360.083 101.199 360.156C101.065 360.229 100.913 360.264 100.761 360.257Z" fill="#263238"/>
<path d="M89.0065 346.617C88.8534 346.619 88.7028 346.578 88.5712 346.5C88.4397 346.422 88.3324 346.309 88.2611 346.174C88.1608 345.959 77.3106 324.456 80.8079 292.245C82.2141 278.241 85.4622 264.483 90.4684 251.326C92.1311 246.736 93.2204 243.705 92.9194 241.818C92.7617 240.846 91.4861 232.268 93.8511 231.21C94.3241 230.995 95.098 230.967 95.9867 232.053C98.4807 235.113 106.02 258.274 105.576 277.39C105.576 277.499 105.554 277.606 105.512 277.707C105.471 277.808 105.409 277.899 105.332 277.976C105.255 278.053 105.163 278.114 105.062 278.156C104.962 278.198 104.853 278.219 104.744 278.219C104.635 278.219 104.527 278.198 104.426 278.156C104.325 278.114 104.234 278.053 104.156 277.976C104.079 277.899 104.018 277.808 103.976 277.707C103.934 277.606 103.913 277.499 103.913 277.39C104.357 258.117 96.6174 235.485 94.6967 233.068L94.4674 232.825C94.0374 233.74 93.8797 237.229 94.5677 241.532C94.9261 243.834 93.7794 247.022 92.0308 251.855C87.0782 264.891 83.8593 278.517 82.4562 292.388C79.0163 324.085 89.6228 345.173 89.7375 345.387C89.7891 345.484 89.8209 345.589 89.8308 345.698C89.8407 345.807 89.8286 345.917 89.7952 346.021C89.7617 346.125 89.7077 346.221 89.6362 346.304C89.5647 346.387 89.4773 346.454 89.3791 346.503C89.2658 346.57 89.138 346.609 89.0065 346.617Z" fill="#263238"/>
<path d="M89.2789 328.03C89.0633 328.03 88.8561 327.947 88.7009 327.797C88.5458 327.648 88.455 327.444 88.4475 327.229C88.4475 326.929 88.2612 319.966 90.9702 304.897C93.6791 289.828 96.7034 254.156 96.7034 253.785C96.7287 253.567 96.8362 253.368 97.0041 253.227C97.172 253.086 97.3874 253.014 97.6064 253.027C97.7152 253.036 97.8211 253.066 97.9178 253.117C98.0146 253.167 98.1002 253.236 98.1697 253.32C98.2392 253.404 98.2911 253.501 98.3223 253.605C98.3536 253.71 98.3636 253.819 98.3518 253.927C98.3518 254.285 95.2701 290.185 92.6185 305.197C89.9669 320.209 90.1102 327.101 90.1245 327.172C90.1248 327.392 90.0401 327.604 89.888 327.764C89.7359 327.924 89.5281 328.019 89.3075 328.03H89.2789Z" fill="#263238"/>
<path d="M68.7827 326.929C68.6634 326.928 68.5458 326.902 68.4372 326.853C68.3286 326.803 68.2315 326.732 68.152 326.644C68.0373 326.501 56.1409 312.732 53.2312 294.246C50.3216 275.76 49.0889 269.598 47.2113 266.938C46.122 265.38 46.079 263.707 47.111 262.749C47.67 262.22 49.9776 260.819 55.0659 264.994C61.8168 270.498 77.7265 290.729 81.7398 303.925C81.7883 304.131 81.756 304.348 81.6496 304.531C81.5431 304.714 81.3707 304.849 81.1674 304.91C80.9641 304.97 80.7454 304.95 80.5561 304.855C80.3667 304.76 80.2211 304.596 80.1488 304.397C76.2932 291.715 60.4695 271.513 54.0052 266.281C50.7803 263.65 48.788 263.421 48.272 263.964C47.9566 264.265 47.9566 265.051 48.616 265.98C50.7086 268.94 51.8982 274.93 54.9082 293.989C57.7748 312.003 69.3417 325.443 69.4563 325.557C69.5281 325.639 69.5828 325.735 69.6174 325.839C69.6519 325.943 69.6656 326.052 69.6576 326.161C69.6496 326.27 69.6201 326.376 69.5708 326.474C69.5215 326.571 69.4534 326.658 69.3703 326.729C69.207 326.868 68.9969 326.94 68.7827 326.929Z" fill="#263238"/>
<path d="M87.0145 342.057C86.8914 342.057 86.7697 342.031 86.6582 341.979C86.5467 341.927 86.4481 341.851 86.3695 341.756C86.3695 341.671 79.375 333.321 70.1731 319.982C60.9712 306.642 55.969 282.423 55.754 281.379C55.7332 281.272 55.7337 281.162 55.7556 281.055C55.7775 280.948 55.8203 280.847 55.8815 280.757C55.9428 280.666 56.0212 280.589 56.1125 280.529C56.2037 280.469 56.306 280.427 56.4133 280.407C56.6275 280.368 56.8484 280.414 57.03 280.534C57.2115 280.653 57.3397 280.839 57.3879 281.05C57.3879 281.308 62.4762 305.87 71.5491 319.038C80.622 332.206 87.5879 340.598 87.6595 340.684C87.7975 340.856 87.8627 341.074 87.8413 341.294C87.8199 341.513 87.7135 341.715 87.5449 341.856C87.3971 341.983 87.2094 342.054 87.0145 342.057Z" fill="#263238"/>
<path d="M62.8205 275.259C62.6424 275.255 62.4703 275.194 62.3288 275.087C62.1872 274.979 62.0834 274.829 62.0321 274.659C62.0321 274.487 56.7576 256.959 55.1236 245.55C54.7366 242.79 54.3639 240.531 54.0629 238.673C53.2603 233.826 52.9593 231.996 53.9196 231.081C54.1767 230.868 54.4825 230.721 54.81 230.654C55.1375 230.586 55.4765 230.6 55.7972 230.695C58.4919 231.224 81.1812 248.495 86.6565 268.44C86.6884 268.546 86.6987 268.658 86.6867 268.768C86.6746 268.878 86.6405 268.985 86.5863 269.082C86.5321 269.179 86.4589 269.264 86.3712 269.332C86.2834 269.4 86.1828 269.45 86.0753 269.479C85.9678 269.508 85.8557 269.515 85.7455 269.499C85.6353 269.484 85.5293 269.447 85.4338 269.39C85.3383 269.333 85.2552 269.257 85.1895 269.168C85.1238 269.078 85.0767 268.977 85.0512 268.869C79.8482 249.968 57.9615 232.797 55.4819 232.311C55.335 232.284 55.1845 232.284 55.0376 232.311C54.7509 232.725 55.1952 235.37 55.6969 238.444C55.9979 240.288 56.3706 242.576 56.7719 245.35C58.3772 256.644 63.5658 274.044 63.6231 274.216C63.6854 274.426 63.6616 274.653 63.5568 274.846C63.4521 275.039 63.2749 275.182 63.0641 275.245C62.9845 275.265 62.9019 275.269 62.8205 275.259Z" fill="#263238"/>
<path d="M81.0948 299.98C80.9008 299.983 80.7121 299.917 80.5624 299.794C80.4127 299.67 80.3119 299.498 80.2778 299.308C78.7498 292.934 76.021 286.908 72.237 281.55C65.5864 271.886 61.5444 250.325 61.3868 249.41C61.366 249.303 61.3665 249.193 61.3884 249.086C61.4103 248.98 61.4531 248.878 61.5143 248.788C61.5756 248.697 61.6541 248.62 61.7453 248.56C61.8366 248.5 61.9388 248.459 62.0461 248.438C62.264 248.404 62.4866 248.455 62.6679 248.58C62.8493 248.705 62.9756 248.895 63.0208 249.11C63.0208 249.324 67.1487 271.242 73.5986 280.564C77.5389 286.102 80.3623 292.352 81.9118 298.964C81.9324 299.072 81.9312 299.182 81.9082 299.289C81.8853 299.395 81.8411 299.496 81.7782 299.586C81.7154 299.675 81.6352 299.751 81.5424 299.809C81.4497 299.867 81.3462 299.905 81.2382 299.922L81.0948 299.98Z" fill="#263238"/>
<path d="M90.8834 253.428C90.7743 253.424 90.6669 253.399 90.5674 253.354C90.468 253.309 90.3784 253.244 90.3039 253.165C90.2293 253.085 90.1712 252.991 90.133 252.889C90.0947 252.787 90.077 252.679 90.0808 252.57C90.3818 244.663 89.4071 239.445 86.5978 233.983L86.2682 233.369C80.7356 222.517 74.2427 209.478 73.2967 204.96C72.6804 202.1 71.72 200.942 71.2614 200.928C71.1611 200.928 69.9714 201.028 68.5238 205.818C66.0585 213.91 71.849 244.063 71.9207 244.42C71.9625 244.636 71.9166 244.86 71.7929 245.043C71.6693 245.225 71.4781 245.351 71.2614 245.393C71.0447 245.434 70.8203 245.388 70.6375 245.265C70.4547 245.142 70.3286 244.951 70.2867 244.735C70.0431 243.477 64.3528 213.867 66.9328 205.389C68.1654 201.3 69.5844 199.312 71.2327 199.312H71.2471C73.397 199.398 74.4147 202.701 74.8303 204.66C75.8623 209.535 84.4335 226.334 87.7302 232.654L88.0455 233.283C90.9981 239.002 92.0301 244.506 91.7148 252.713C91.6869 252.912 91.5872 253.095 91.4342 253.226C91.2812 253.358 91.0854 253.43 90.8834 253.428Z" fill="#263238"/>
<path d="M84.9499 266.667C84.7423 266.664 84.5427 266.586 84.3894 266.446C84.2361 266.306 84.1397 266.115 84.1186 265.909C84.1186 265.809 83.316 255.315 82.5276 248.623C81.7393 241.932 73.9278 229.608 73.8131 229.494C73.6953 229.304 73.6577 229.076 73.7088 228.858C73.7599 228.641 73.8954 228.453 74.0854 228.336C74.2755 228.218 74.5046 228.181 74.7223 228.232C74.94 228.283 75.1286 228.418 75.2464 228.607C75.5761 229.122 83.3876 241.475 84.2046 248.423C85.0216 255.372 85.7956 265.68 85.8099 265.78C85.8258 265.998 85.7549 266.213 85.6127 266.379C85.4705 266.545 85.2684 266.648 85.0503 266.667H84.9499Z" fill="#263238"/>
<ellipse cx="239.662" cy="272.901" rx="0.716829" ry="0.71484" fill="#263238"/>
<ellipse cx="248.979" cy="275.045" rx="1.43367" ry="1.42972" fill="#263238"/>
<ellipse cx="238.946" cy="272.186" rx="1.43364" ry="1.42972" fill="#263238"/>
<ellipse rx="1.07791" ry="5.3807" transform="matrix(0.895434 0.445195 -0.446986 0.894541 179.505 257.713)" fill="#263238"/>
</svg>
