<svg width="426" height="320" viewBox="0 0 426 320" fill="none" xmlns="http://www.w3.org/2000/svg">
<path d="M308.369 274.822C318.338 267.806 326.503 258.538 332.196 247.774C367.811 181.218 359.767 83.0759 291.179 40.9814C259.477 21.5284 213.849 9.21636 179.58 29.1977C151.791 45.4003 134.756 75.91 120.662 103.666C111.808 121.149 104.512 139.912 93.5953 156.246C79.4391 177.426 63.856 205.717 79.5886 230.329C101.029 263.853 141.522 279.16 178.24 289.241C218.079 300.173 262.879 301.727 299.677 280.397C302.656 278.669 305.553 276.811 308.369 274.822Z" fill="#C8C8C8"/>
<path opacity="0.7" d="M308.369 274.822C318.338 267.806 326.503 258.538 332.196 247.774C367.811 181.218 359.767 83.0759 291.179 40.9814C259.477 21.5284 213.849 9.21636 179.58 29.1977C151.791 45.4003 134.756 75.91 120.662 103.666C111.808 121.149 104.512 139.912 93.5953 156.246C79.4391 177.426 63.856 205.717 79.5886 230.329C101.029 263.853 141.522 279.16 178.24 289.241C218.079 300.173 262.879 301.727 299.677 280.397C302.656 278.669 305.553 276.811 308.369 274.822Z" fill="white"/>
<g opacity="0.3">
<path opacity="0.3" d="M339.71 54.9402H275.533V139.011H339.71V54.9402Z" stroke="black" stroke-miterlimit="10"/>
<path opacity="0.3" d="M327.934 70.3657H287.31V123.585H327.934V70.3657Z" stroke="black" stroke-miterlimit="10"/>
</g>
<path d="M260.498 45.5186H90.5859V196.382H260.498V45.5186Z" fill="#263238" stroke="#263238" stroke-miterlimit="10"/>
<path d="M257.277 41.8455H87.3647V192.709H257.277V41.8455Z" fill="white" stroke="#263238" stroke-linecap="round" stroke-linejoin="round"/>
<path d="M224.192 102.728H232.641V94.3004H224.192V102.728Z" fill="white" stroke="#263238" stroke-linecap="round" stroke-linejoin="round"/>
<path d="M235.251 102.728H243.7V94.3004H235.251V102.728Z" fill="white" stroke="#263238" stroke-linecap="round" stroke-linejoin="round"/>
<path d="M220.815 99.0239H177.892" stroke="#263238" stroke-linecap="round" stroke-linejoin="round"/>
<path d="M224.192 122.622H232.641V114.195H224.192V122.622Z" fill="white" stroke="#263238" stroke-linecap="round" stroke-linejoin="round"/>
<path d="M235.251 122.622H243.7V114.195H235.251V122.622Z" fill="white" stroke="#263238" stroke-linecap="round" stroke-linejoin="round"/>
<path d="M220.815 118.912H177.892" stroke="#263238" stroke-linecap="round" stroke-linejoin="round"/>
<path d="M224.192 142.517H232.641V134.089H224.192V142.517Z" fill="white" stroke="#263238" stroke-linecap="round" stroke-linejoin="round"/>
<path d="M235.251 142.517H243.7V134.089H235.251V142.517Z" fill="white" stroke="#263238" stroke-linecap="round" stroke-linejoin="round"/>
<path d="M220.815 138.806H177.892" stroke="#263238" stroke-linecap="round" stroke-linejoin="round"/>
<path d="M143.417 102.728H151.866V94.3004H143.417V102.728Z" fill="white" stroke="#263238" stroke-linecap="round" stroke-linejoin="round"/>
<path d="M154.482 102.728H162.931V94.3004H154.482V102.728Z" fill="white" stroke="#263238" stroke-linecap="round" stroke-linejoin="round"/>
<path d="M140.039 99.0239H97.1157" stroke="#263238" stroke-linecap="round" stroke-linejoin="round"/>
<path d="M143.417 122.622H151.866V114.195H143.417V122.622Z" fill="white" stroke="#263238" stroke-linecap="round" stroke-linejoin="round"/>
<path d="M154.482 122.622H162.931V114.195H154.482V122.622Z" fill="white" stroke="#263238" stroke-linecap="round" stroke-linejoin="round"/>
<path d="M140.039 118.912H97.1157" stroke="#263238" stroke-linecap="round" stroke-linejoin="round"/>
<path d="M143.417 142.517H151.866V134.089H143.417V142.517Z" fill="white" stroke="#263238" stroke-linecap="round" stroke-linejoin="round"/>
<path d="M154.482 142.517H162.931V134.089H154.482V142.517Z" fill="white" stroke="#263238" stroke-linecap="round" stroke-linejoin="round"/>
<path d="M140.039 138.806H97.1157" stroke="#263238" stroke-linecap="round" stroke-linejoin="round"/>
<path d="M109.091 171.491H99.7827V180.777H109.091V171.491Z" fill="white" stroke="#263238" stroke-linecap="round" stroke-linejoin="round"/>
<path d="M147.08 171.491H137.771V180.777H147.08V171.491Z" fill="white" stroke="#263238" stroke-linecap="round" stroke-linejoin="round"/>
<path d="M186.577 171.491H177.269V180.777H186.577V171.491Z" fill="white" stroke="#263238" stroke-linecap="round" stroke-linejoin="round"/>
<path d="M157.255 97.1218L158.694 100.006L165.666 93.2871" stroke="#263238" stroke-width="2" stroke-linecap="round" stroke-linejoin="round"/>
<path d="M157.255 116.793L158.694 119.67L165.666 112.952" stroke="#263238" stroke-width="2" stroke-linecap="round" stroke-linejoin="round"/>
<path d="M145.229 137.42L146.675 140.298L153.647 133.579" stroke="#263238" stroke-width="2" stroke-linecap="round" stroke-linejoin="round"/>
<path d="M237.563 96.8861L239.003 99.7636L245.975 93.0452" stroke="#263238" stroke-width="2" stroke-linecap="round" stroke-linejoin="round"/>
<path d="M225.924 117.029L227.364 119.906L234.336 113.194" stroke="#263238" stroke-width="2" stroke-linecap="round" stroke-linejoin="round"/>
<path d="M225.924 137.24L227.364 140.118L234.336 133.406" stroke="#263238" stroke-width="2" stroke-linecap="round" stroke-linejoin="round"/>
<path d="M257.277 41.8455H87.3647V65.4129H257.277V41.8455Z" fill="white" stroke="#263238" stroke-linecap="round" stroke-linejoin="round"/>
<path d="M257.277 41.8455H250.878V192.709H257.277V41.8455Z" fill="#DBDBDB" stroke="#263238" stroke-linecap="round" stroke-linejoin="round"/>
<path d="M257.277 64.5181H250.878V93.6355H257.277V64.5181Z" fill="#949494" stroke="#263238" stroke-linecap="round" stroke-linejoin="round"/>
<path d="M257.277 41.8455H87.3647V53.306H257.277V41.8455Z" fill="#DBDBDB" stroke="#263238" stroke-linecap="round" stroke-linejoin="round"/>
<path d="M162.987 45.1829H95.9814V49.956H162.987V45.1829Z" fill="white" stroke="#263238" stroke-linecap="round" stroke-linejoin="round"/>
<path d="M247.246 45.4065H253.127" stroke="#263238" stroke-linecap="round" stroke-linejoin="round"/>
<path d="M247.246 47.8865H253.127" stroke="#263238" stroke-linecap="round" stroke-linejoin="round"/>
<path d="M247.246 50.3726H253.127" stroke="#263238" stroke-linecap="round" stroke-linejoin="round"/>
<path d="M146.719 74.9468C146.719 73.4738 147.498 72.6348 148.919 72.6348C150.339 72.6348 151.112 73.4738 151.112 74.9468V79.7199C151.112 81.1867 150.339 82.0257 148.919 82.0257C147.498 82.0257 146.719 81.1867 146.719 79.7199V74.9468ZM148.171 79.8131C148.171 80.4657 148.458 80.7143 148.919 80.7143C149.38 80.7143 149.666 80.4657 149.666 79.8131V74.8411C149.666 74.1823 149.38 73.9337 148.919 73.9337C148.458 73.9337 148.171 74.1823 148.171 74.8411V79.8131Z" fill="#263238"/>
<path d="M153.335 75.2762V81.9201H152.033V72.7405H153.846L155.336 78.2346V72.7405H156.625V81.9201H155.136L153.335 75.2762Z" fill="#263238"/>
<path d="M157.66 72.7405H159.111V80.6087H161.51V81.9201H157.678L157.66 72.7405Z" fill="#263238"/>
<path d="M162.134 72.7405H163.579V81.9201H162.134V72.7405Z" fill="#263238"/>
<path d="M165.91 75.2762V81.9201H164.626V72.7405H166.439L167.928 78.2346V72.7405H169.212V81.9201H167.741L165.91 75.2762Z" fill="#263238"/>
<path d="M171.679 76.6124H173.667V77.9238H171.679V80.6087H174.172V81.9201H170.234V72.7405H174.178V74.0519H171.686L171.679 76.6124Z" fill="#263238"/>
<path d="M176.695 72.7405H181.163V74.0519H179.649V81.9201H178.203V74.0519H176.695V72.7405Z" fill="#263238"/>
<path d="M183.244 76.6124H185.225V77.9238H183.244V80.6087H185.736V81.9201H181.792V72.7405H185.736V74.0519H183.244V76.6124Z" fill="#263238"/>
<path d="M188.577 72.6348C189.985 72.6348 190.708 73.4738 190.708 74.9468V75.2327H189.343V74.8535C189.343 74.1947 189.082 73.9461 188.621 73.9461C188.16 73.9461 187.898 74.1947 187.898 74.8535C187.898 76.718 190.72 77.0972 190.72 79.7199C190.72 81.1867 189.985 82.0257 188.565 82.0257C187.144 82.0257 186.434 81.1867 186.434 79.7199V79.1543H187.804V79.8131C187.804 80.4657 188.091 80.7019 188.552 80.7019C189.013 80.7019 189.3 80.4657 189.3 79.8131C189.3 77.9486 186.477 77.5695 186.477 74.9468C186.434 73.4738 187.175 72.6348 188.577 72.6348Z" fill="#263238"/>
<path d="M191.132 72.7405H195.599V74.0519H194.091V81.9201H192.665V74.0519H191.151L191.132 72.7405Z" fill="#263238"/>
<path d="M107.029 169.254H105.565L105.316 167.588H103.565L103.315 169.254H101.963L103.434 160.074H105.552L107.029 169.254ZM103.727 166.339H105.122L104.425 161.696L103.727 166.339Z" fill="#263238"/>
<path d="M144.407 162.169V162.492C144.407 163.437 144.121 164.039 143.473 164.356C144.251 164.655 144.55 165.351 144.55 166.32V167.072C144.55 168.489 143.803 169.248 142.357 169.248H140.083V160.074H142.264C143.765 160.074 144.407 160.77 144.407 162.169ZM141.529 161.367V163.791H142.096C142.631 163.791 142.962 163.555 142.962 162.821V162.312C142.962 161.653 142.737 161.367 142.226 161.367H141.529ZM141.529 165.096V167.918H142.357C142.843 167.918 143.105 167.694 143.105 167.01V166.215C143.105 165.357 142.831 165.096 142.177 165.096H141.529Z" fill="#263238"/>
<path d="M184.277 165.829V167.072C184.277 168.545 183.542 169.384 182.122 169.384C180.701 169.384 179.966 168.545 179.966 167.072V162.299C179.966 160.832 180.701 159.993 182.122 159.993C183.542 159.993 184.277 160.832 184.277 162.299V163.194H182.913V162.169C182.913 161.51 182.62 161.261 182.159 161.261C181.698 161.261 181.411 161.51 181.411 162.169V167.141C181.411 167.799 181.704 168.036 182.159 168.036C182.614 168.036 182.913 167.799 182.913 167.141V165.829H184.277Z" fill="#263238"/>
<path d="M97.77 155.183H208.21" stroke="#263238" stroke-linecap="round" stroke-linejoin="round"/>
<path opacity="0.3" d="M279.166 42.585H291.36V30.4221H279.166V42.585Z" stroke="black" stroke-linecap="round" stroke-linejoin="round"/>
<path opacity="0.3" d="M295.135 42.585H307.329V30.4221H295.135V42.585Z" stroke="black" stroke-linecap="round" stroke-linejoin="round"/>
<path opacity="0.3" d="M281.789 35.2326L283.87 39.3842L289.988 32.6658" stroke="black" stroke-width="2" stroke-linecap="round" stroke-linejoin="round"/>
<path opacity="0.3" d="M94.5799 221.031H106.773V208.868H94.5799V221.031Z" stroke="black" stroke-linecap="round" stroke-linejoin="round"/>
<path opacity="0.3" d="M110.543 221.031H122.737V208.868H110.543V221.031Z" stroke="black" stroke-linecap="round" stroke-linejoin="round"/>
<path opacity="0.3" d="M97.1899 213.679L99.271 217.831L105.39 211.112" stroke="black" stroke-width="2" stroke-linecap="round" stroke-linejoin="round"/>
<path opacity="0.3" d="M152.345 221.031H164.538V208.868H152.345V221.031Z" stroke="black" stroke-linecap="round" stroke-linejoin="round"/>
<path opacity="0.3" d="M168.315 221.031H180.508V208.868H168.315V221.031Z" stroke="black" stroke-linecap="round" stroke-linejoin="round"/>
<path opacity="0.3" d="M154.962 213.679L157.043 217.831L163.162 211.112" stroke="black" stroke-width="2" stroke-linecap="round" stroke-linejoin="round"/>
<g opacity="0.3">
<path opacity="0.3" d="M171.256 36.5055C175.523 35.8177 178.422 31.81 177.733 27.554C177.043 23.2981 173.026 20.4055 168.759 21.0933C164.492 21.7811 161.592 25.7888 162.282 30.0447C162.971 34.3007 166.989 37.1933 171.256 36.5055Z" stroke="black" stroke-linecap="round" stroke-linejoin="round"/>
<path opacity="0.3" d="M172.196 31.6216L170.009 28.8V24.3562" stroke="black" stroke-linecap="round" stroke-linejoin="round"/>
</g>
<g opacity="0.3">
<path opacity="0.3" d="M316.083 178.526H314.924L314.725 177.209H313.316L313.117 178.526H312.064L313.235 171.249H314.911L316.083 178.526ZM313.466 176.221H314.569L314.014 172.535L313.466 176.221Z" fill="black"/>
<path opacity="0.3" d="M332.402 172.92V173.181C332.446 173.472 332.399 173.768 332.267 174.031C332.135 174.294 331.926 174.509 331.666 174.648C331.959 174.781 332.2 175.005 332.354 175.286C332.508 175.567 332.566 175.891 332.52 176.208V176.83C332.549 177.064 332.523 177.302 332.445 177.525C332.367 177.749 332.239 177.951 332.071 178.117C331.903 178.284 331.698 178.409 331.474 178.484C331.249 178.559 331.01 178.582 330.775 178.551H328.975V171.249H330.707C331.891 171.249 332.402 171.795 332.402 172.92ZM330.121 172.299V174.226H330.57C330.993 174.226 331.255 174.039 331.255 173.455V173.051C331.255 172.529 331.081 172.299 330.669 172.299H330.121ZM330.121 175.263V177.501H330.775C331.162 177.501 331.398 177.327 331.398 176.786V176.165C331.398 175.493 331.174 175.282 330.657 175.282L330.121 175.263Z" fill="black"/>
<path opacity="0.3" d="M348.925 175.842V176.805C348.925 177.973 348.346 178.638 347.218 178.638C346.09 178.638 345.504 177.973 345.504 176.805V173.02C345.504 171.852 346.09 171.187 347.218 171.187C348.346 171.187 348.925 171.852 348.925 173.02V173.728H347.841V172.921C347.841 172.398 347.61 172.206 347.249 172.206C346.888 172.206 346.626 172.398 346.626 172.921V176.855C346.626 177.377 346.856 177.563 347.249 177.563C347.642 177.563 347.841 177.377 347.841 176.855V175.842H348.925Z" fill="black"/>
<path opacity="0.3" d="M318.363 182.498H309.497V191.342H318.363V182.498Z" stroke="black" stroke-miterlimit="10"/>
<path opacity="0.3" d="M334.856 182.498H325.99V191.342H334.856V182.498Z" stroke="black" stroke-miterlimit="10"/>
<path opacity="0.3" d="M351.349 182.498H342.483V191.342H351.349V182.498Z" stroke="black" stroke-miterlimit="10"/>
</g>
<path d="M108.2 284.953H89.4395" stroke="#263238" stroke-miterlimit="10"/>
<path d="M353 284.953H114.312" stroke="#263238" stroke-miterlimit="10"/>
<path d="M280.916 284.742L284.929 223.959L287.882 195.059L279.782 186.041L275.72 183.095C275.72 183.095 270 188.067 265.944 189.167C261.888 190.267 257.987 191.379 257.987 191.379C257.987 191.379 244.149 217.333 243.033 229.111C241.918 240.888 240.08 284.518 240.08 284.518L241.619 284.742H280.916Z" fill="#9E9E9E" stroke="#263238" stroke-miterlimit="10"/>
<path d="M261.894 234.63C261.894 234.63 261.202 234.275 262.586 230.72" stroke="#263238" stroke-miterlimit="10"/>
<path d="M260.268 190.758C260.956 195.668 261.336 200.617 261.408 205.574C261.408 205.574 265.564 203.915 268.885 198.116C270.719 195.004 272.299 191.749 273.608 188.384L260.268 190.758Z" fill="#263238" stroke="#263238" stroke-miterlimit="10"/>
<path d="M280.917 284.742L284.524 230.093C280.985 231.895 274.001 234.872 266.293 235.003C257.059 235.158 245.626 228.004 245.626 228.004L243.052 229.011C243.052 229.042 243.052 229.08 243.052 229.111C241.943 240.919 240.099 284.518 240.099 284.518L241.638 284.742H280.917Z" fill="white" stroke="#263238" stroke-miterlimit="10"/>
<path d="M274.91 254.151C274.91 268.228 275.396 281.771 275.533 284.729H302.73C303.104 280.341 305.447 253.032 306.65 243.244C307.964 232.548 316.588 216.625 316.588 210.925C316.588 205.226 318.338 206.127 310.463 201.982C302.587 197.836 285.216 188.887 282.811 187.793C280.406 186.699 277.776 184.064 277.776 184.064C277.776 184.064 278.649 189.521 278.399 204.356C278.15 219.191 274.91 238.234 274.91 254.151Z" fill="white"/>
<g opacity="0.2">
<path opacity="0.2" d="M277.776 184.12C278.101 186.702 278.288 189.299 278.337 191.901V184.648C277.988 184.331 277.776 184.12 277.776 184.12Z" fill="black"/>
<path opacity="0.2" d="M313.541 219.639V221.503C313.753 220.938 313.964 220.391 314.164 219.85V219.627H314.245C314.326 219.421 314.401 219.21 314.475 219.005H314.164V211.267H316.575C316.575 211.174 316.575 211.075 316.575 210.981C316.575 210.888 316.575 210.758 316.575 210.646H314.164V204.021C313.971 203.902 313.765 203.791 313.541 203.666V210.646H306.998V202.877H312.058L310.886 202.255H306.998V200.205L306.375 199.875V202.237H299.833V196.482L299.21 196.159V202.237H292.668V194.487H295.926L294.718 193.865H292.668V192.815L292.045 192.492V193.865H285.502V189.173C285.284 189.061 285.079 188.955 284.879 188.862V193.865H278.399C278.399 194.07 278.399 194.275 278.399 194.487H284.879V202.255H278.455C278.455 202.461 278.455 202.666 278.455 202.877H284.879V210.646H278.337V207.694C278.212 210.727 277.988 213.909 277.714 217.147V219.011H277.552L277.496 219.633H277.714V227.426H276.779L276.717 228.048H277.745V235.817H275.976L275.919 236.438H277.745V244.207H275.315L275.278 244.828H277.77V252.597H275.01C275.01 252.809 275.01 253.014 275.01 253.219H277.776V260.988H275.028C275.028 261.199 275.028 261.404 275.028 261.609H277.77V269.378H275.153C275.153 269.589 275.153 269.794 275.153 269.999H277.758V284.76H278.381V269.981H284.879V284.741H285.502V269.981H292.045V284.741H292.668V269.981H299.21V284.741H299.833V269.981H304.026C304.026 269.776 304.026 269.571 304.082 269.359H299.833V261.609H304.818C304.818 261.404 304.861 261.199 304.88 260.988H299.833V253.219H305.59C305.59 253.007 305.628 252.809 305.653 252.597H299.833V244.828H306.375V245.655L306.65 243.275C306.737 242.579 306.855 241.858 306.998 241.118V236.438H308.164L308.351 235.817H306.998V228.048H311.048C311.129 227.843 311.204 227.631 311.285 227.426H306.998V219.658L313.541 219.639ZM306.998 211.267H313.541V219.036H306.998V211.267ZM284.879 269.359H278.337V261.609H284.879V269.359ZM284.879 260.969H278.337V253.2H284.879V260.969ZM284.879 252.579H278.337V244.828H284.879V252.579ZM284.879 244.188H278.337V236.42H284.879V244.188ZM284.879 235.798H278.337V228.048H284.879V235.798ZM284.879 227.408H278.337V219.639H284.879V227.408ZM284.879 219.017H278.337V211.267H284.879V219.017ZM292.045 269.359H285.502V261.609H292.045V269.359ZM292.045 260.969H285.502V253.2H292.045V260.969ZM292.045 252.579H285.502V244.828H292.045V252.579ZM292.045 244.188H285.502V236.42H292.045V244.188ZM292.045 235.798H285.502V228.048H292.045V235.798ZM292.045 227.408H285.502V219.639H292.045V227.408ZM292.045 219.017H285.502V211.267H292.045V219.017ZM292.045 210.627H285.502V202.858H292.045V210.627ZM292.045 202.237H285.502V194.487H292.045V202.237ZM299.21 269.359H292.668V261.609H299.21V269.359ZM299.21 260.969H292.668V253.2H299.21V260.969ZM299.21 252.579H292.668V244.828H299.21V252.579ZM299.21 244.188H292.668V236.42H299.21V244.188ZM299.21 235.798H292.668V228.048H299.21V235.798ZM299.21 227.408H292.668V219.639H299.21V227.408ZM299.21 219.017H292.668V211.267H299.21V219.017ZM299.21 210.627H292.668V202.858H299.21V210.627ZM306.375 244.188H299.833V236.42H306.375V244.188ZM306.375 235.798H299.833V228.048H306.375V235.798ZM306.375 227.408H299.833V219.639H306.375V227.408ZM306.375 219.017H299.833V211.267H306.375V219.017ZM306.375 210.627H299.833V202.858H306.375V210.627Z" fill="black"/>
</g>
<path d="M274.91 254.151C274.91 268.228 275.396 281.771 275.533 284.729H302.73C303.104 280.341 305.447 253.032 306.65 243.244C307.964 232.548 316.588 216.625 316.588 210.925C316.588 205.226 318.338 206.127 310.463 201.982C302.587 197.836 285.216 188.887 282.811 187.793C280.406 186.699 277.776 184.064 277.776 184.064C277.776 184.064 278.649 189.521 278.399 204.356C278.15 219.191 274.91 238.234 274.91 254.151Z" stroke="#263238" stroke-miterlimit="10"/>
<path d="M277.776 184.12C277.776 184.12 278.649 189.577 278.399 204.412C278.35 208.141 278.094 212.169 277.776 216.32C278.524 215.295 280.935 212.019 281.515 211.833C282.169 211.615 285.671 214.891 288.512 215.326C291.353 215.761 292.45 215.761 289.39 212.486C286.331 209.21 285.029 199.614 283.92 192.411C283.709 190.869 283.369 189.347 282.904 187.862H282.829C280.4 186.743 277.776 184.12 277.776 184.12Z" fill="#263238" stroke="#263238" stroke-miterlimit="10"/>
<path d="M295.727 251.615C297.74 250.702 299.322 249.912 299.322 249.912L300.064 255.618C300.064 255.618 289.172 260.403 283.085 260.77C276.997 261.137 276.443 261.323 276.443 261.323L276.624 255.804" stroke="#263238" stroke-miterlimit="10"/>
<path d="M290.275 253.847C291.39 253.474 292.699 252.945 293.976 252.392" stroke="#263238" stroke-miterlimit="10"/>
<path d="M278.648 255.251C281.833 255.17 285.009 254.882 288.157 254.387" stroke="#263238" stroke-miterlimit="10"/>
<path d="M300.063 255.618L300.431 260.037" stroke="#263238" stroke-miterlimit="10"/>
<path d="M216.584 284.742H247.189C247.258 282.349 248.143 251.939 248.741 236.42C249.364 220.261 260.355 195.748 260.355 195.748C260.355 195.748 261.825 192.293 260.268 190.739C258.71 189.185 254.971 189.807 252.168 191.982C249.364 194.157 223.506 205.344 221.949 206.898C220.391 208.452 220.702 213.735 220.079 219.95C219.456 226.165 209.176 269.049 209.176 269.049C209.176 269.049 206.372 269.67 205.437 270.292C204.502 270.913 204.502 272.778 204.502 272.778C204.502 272.778 205.749 273.088 209.487 274.953C212.926 276.668 216.098 283.629 216.584 284.742Z" fill="white"/>
<path opacity="0.2" d="M256.218 202.858V206.034C256.43 205.462 256.635 204.909 256.841 204.375V202.858H257.426L257.669 202.237H256.841V194.487H260.766C260.81 194.294 260.86 194.083 260.891 193.865H256.841V189.962C256.635 189.993 256.43 190.024 256.218 190.074V193.865H249.675V193.443L249.052 193.76V193.865H248.841L247.594 194.487H249.052V202.256H242.51V196.911L241.887 197.203V202.237H235.345V200.254L234.722 200.546V202.237H231.102L229.781 202.858H234.722V210.646H228.179V203.623L227.556 203.921V210.646H221.014V209.08C220.664 211.343 220.456 213.627 220.391 215.916V219.024H220.167L220.111 219.645H220.391V227.426H218.715L218.584 228.048H220.391V235.817H216.895C216.852 236.022 216.802 236.233 216.758 236.438H220.391V244.207H215.001C214.951 244.418 214.908 244.623 214.858 244.829H220.391V252.597H213.849V249.179L213.226 251.864V252.566H213.064L212.92 253.188H213.226V260.988H211.095L210.945 261.609H213.226V269.378H207.936C207.301 269.547 206.676 269.755 206.066 269.999V273.38C206.253 273.455 206.459 273.542 206.689 273.648V269.999H213.226V278.701C213.444 279.011 213.649 279.322 213.849 279.639V270.006H220.391V284.766H221.014V269.981H227.556V284.742H228.179V269.981H234.722V284.742H235.345V269.981H241.887V284.742H242.51V269.981H247.626V269.359H242.51V261.609H247.887V260.988H242.51V253.219H248.155V252.597H242.51V244.829H248.436C248.436 244.623 248.436 244.412 248.436 244.207H242.51V236.438H248.741C248.741 236.233 248.741 236.028 248.772 235.817H242.51V228.048H249.052V232.641C249.214 231.317 249.42 229.956 249.675 228.576V228.048H249.775C249.813 227.843 249.856 227.638 249.894 227.426H249.675V219.658H251.763C251.819 219.453 251.881 219.247 251.937 219.036H249.675V211.267H254.349C254.423 211.062 254.492 210.851 254.56 210.646H249.675V202.877L256.218 202.858ZM249.675 194.487H256.218V202.256H249.675V194.487ZM220.391 269.378H213.849V261.609H220.391V269.378ZM220.391 260.988H213.849V253.219H220.391V260.988ZM227.556 269.378H221.014V261.609H227.556V269.378ZM227.556 260.988H221.014V253.219H227.556V260.988ZM227.556 252.597H221.014V244.829H227.556V252.597ZM227.556 244.207H221.014V236.438H227.556V244.207ZM227.556 235.817H221.014V228.048H227.556V235.817ZM227.556 227.426H221.014V219.658H227.556V227.426ZM227.556 219.036H221.014V211.267H227.556V219.036ZM234.722 269.378H228.179V261.609H234.722V269.378ZM234.722 260.988H228.179V253.219H234.722V260.988ZM234.722 252.597H228.179V244.829H234.722V252.597ZM234.722 244.207H228.179V236.438H234.722V244.207ZM234.722 235.817H228.179V228.048H234.722V235.817ZM234.722 227.426H228.179V219.658H234.722V227.426ZM234.722 219.036H228.179V211.267H234.722V219.036ZM241.887 269.378H235.345V261.609H241.887V269.378ZM241.887 260.988H235.345V253.219H241.887V260.988ZM241.887 252.597H235.345V244.829H241.887V252.597ZM241.887 244.207H235.345V236.438H241.887V244.207ZM241.887 235.817H235.345V228.048H241.887V235.817ZM241.887 227.426H235.345V219.658H241.887V227.426ZM241.887 219.036H235.345V211.267H241.887V219.036ZM241.887 210.646H235.345V202.877H241.887V210.646ZM249.052 227.426H242.51V219.658H249.052V227.426ZM249.052 219.036H242.51V211.267H249.052V219.036ZM249.052 210.646H242.51V202.877H249.052V210.646Z" fill="black"/>
<path d="M216.584 284.742H247.189C247.258 282.349 248.143 251.939 248.741 236.42C249.364 220.261 260.355 195.748 260.355 195.748C260.355 195.748 261.825 192.293 260.268 190.739C258.71 189.185 254.971 189.807 252.168 191.982C249.364 194.157 223.506 205.344 221.949 206.898C220.391 208.452 220.702 213.735 220.079 219.95C219.456 226.165 209.176 269.049 209.176 269.049C209.176 269.049 206.372 269.67 205.437 270.292C204.502 270.913 204.502 272.778 204.502 272.778C204.502 272.778 205.749 273.088 209.487 274.953C212.926 276.668 216.098 283.629 216.584 284.742Z" stroke="#263238" stroke-miterlimit="10"/>
<path d="M204.502 272.796C204.502 272.796 205.749 273.107 209.487 274.972C213.225 276.836 216.652 284.916 216.652 284.916H222.69C223.07 283.784 223.998 279.67 219.768 274.661C214.783 268.757 209.176 269.067 209.176 269.067C209.176 269.067 206.372 269.689 205.437 270.31C204.502 270.932 204.502 272.796 204.502 272.796Z" fill="#263238" stroke="#263238" stroke-miterlimit="10"/>
<path d="M256.504 189.999C255.165 193.536 251.993 201.535 249.364 205.344C245.937 210.316 239.706 214.356 241.887 216.221C244.068 218.085 250.298 212.181 250.298 212.181C250.298 212.181 251.856 216.532 252.168 217.775C252.185 217.831 252.212 217.884 252.249 217.93C254.498 210.38 257.203 202.973 260.349 195.748C260.349 195.748 261.819 192.293 260.261 190.739C259.458 189.931 258.087 189.72 256.504 189.999Z" fill="#263238" stroke="#263238" stroke-miterlimit="10"/>
<path d="M233.75 219.999C233.928 218.85 234.045 217.693 234.098 216.531" stroke="#263238" stroke-miterlimit="10"/>
<path d="M228.802 285.518C228.802 285.518 229.737 265.63 229.737 254.132C229.737 245.848 231.999 231.914 233.27 223.38" stroke="#263238" stroke-miterlimit="10"/>
<path d="M230.36 249.801C230.36 249.801 235.344 251.354 237.837 251.665L245.314 252.597L244.747 259.639C244.747 259.639 244.379 259.434 238.771 257.569C233.164 255.705 229.737 254.151 229.737 254.151" stroke="#263238" stroke-miterlimit="10"/>
<path d="M244.747 259.62C244.747 259.62 244.379 273.418 244.379 275.282C244.379 277.147 238.771 275.904 238.771 275.904" stroke="#263238" stroke-miterlimit="10"/>
<path d="M249.22 183.436C249.22 183.436 255.096 191.864 260.355 195.748C265.613 199.633 270.1 194.195 273.607 188.365C277.115 182.535 279.452 178.259 281.203 173.206C282.954 168.154 281.203 159.801 274.193 153.194C267.184 146.587 250.809 136.867 246.722 141.92C242.634 146.973 238.734 158.079 241.457 167.569C243.083 173.275 245.712 178.647 249.22 183.436Z" fill="#9E9E9E" stroke="#263238" stroke-miterlimit="10"/>
<path d="M246.747 165.307C248.964 164.644 251.328 164.644 253.545 165.307" stroke="#263238" stroke-width="2" stroke-miterlimit="10" stroke-linecap="round"/>
<path d="M251.775 170.509C251.962 171.516 251.725 172.405 251.246 172.492C250.766 172.579 250.236 171.833 250.049 170.82C249.862 169.807 250.099 168.924 250.579 168.837C251.059 168.75 251.588 169.496 251.775 170.509Z" fill="#263238"/>
<path d="M269.109 170.776C269.29 171.783 269.053 172.641 268.58 172.759C268.106 172.877 267.57 172.1 267.383 171.087C267.196 170.074 267.433 169.191 267.913 169.104C268.393 169.017 268.922 169.763 269.109 170.776Z" fill="#263238"/>
<path d="M256.268 184.481C258.519 185.254 260.9 185.584 263.277 185.45C267.371 185.257 270.879 182.343 270.879 182.343" stroke="#263238" stroke-miterlimit="10"/>
<path d="M247.327 146.215C247.327 146.215 255.981 165.904 257.065 166.444C258.149 166.985 260.312 160.509 260.312 160.509C260.312 160.509 263.284 165.898 266.81 167.52C270.337 169.142 271.408 166.444 271.408 166.444C273.175 167.437 274.891 168.518 276.549 169.683L277.901 170.758L279.253 175.612C279.253 175.612 275.197 188.831 276.549 190.453C277.901 192.075 285.471 189.912 285.471 189.912C285.471 189.912 283.602 192.61 286.013 192.61C288.425 192.61 292.774 193.151 298.992 184.785C305.21 176.42 305.752 162.939 305.752 162.939C305.752 162.939 308.724 166.171 308.999 162.125C309.273 158.079 305.484 151.336 305.484 151.336C305.484 151.336 311.429 157.271 310.893 151.068C310.357 144.866 306.837 137.849 305.484 136.233C304.132 134.617 296.014 130.018 296.014 130.018C296.014 130.018 299.26 129.477 296.83 125.699C294.4 121.92 285.471 120.845 282.225 120.845C278.979 120.845 272.218 121.926 272.218 121.926C272.218 121.926 276.549 113.561 271.951 113.02C267.352 112.479 259.24 121.385 259.24 121.385C259.24 121.385 251.14 114.909 248.691 116.258C246.242 117.607 247.881 119.496 247.881 119.496C247.881 119.496 237.339 120.304 234.36 124.891C231.382 129.477 234.903 132.175 234.903 132.175C234.903 132.175 215.973 145.121 218.946 149.975C221.918 154.829 227.332 150.248 227.332 150.248C227.332 150.248 219.756 169.67 220.84 171.019C221.924 172.367 227.07 170.478 227.07 170.478C227.07 170.478 226.803 186.121 230.859 187.743C234.915 189.366 235.725 186.395 235.725 186.395C235.725 186.395 237.887 188.551 242.759 188.819C247.632 189.086 249.246 183.424 249.246 183.424C249.246 183.424 243.837 170.745 244.112 160.229C244.386 149.714 247.327 146.215 247.327 146.215Z" fill="#263238" stroke="#263238" stroke-miterlimit="10"/>
<path d="M258.218 168.93C258.218 168.93 256.267 179.036 257.825 181.174C259.383 183.312 264.841 181.174 265.227 180.012" fill="#9E9E9E"/>
<path d="M258.218 168.93C258.218 168.93 256.267 179.036 257.825 181.174C259.383 183.312 264.841 181.174 265.227 180.012" stroke="#263238" stroke-miterlimit="10"/>
<path d="M250.13 175.152C254.38 175.152 257.825 172.628 257.825 169.514C257.825 166.401 254.38 163.877 250.13 163.877C245.88 163.877 242.435 166.401 242.435 169.514C242.435 172.628 245.88 175.152 250.13 175.152Z" stroke="#263238" stroke-miterlimit="10"/>
<path d="M268.635 174.766C272.885 174.766 276.33 172.243 276.33 169.129C276.33 166.016 272.885 163.492 268.635 163.492C264.386 163.492 260.94 166.016 260.94 169.129C260.94 172.243 264.386 174.766 268.635 174.766Z" stroke="#263238" stroke-miterlimit="10"/>
<path d="M258.218 168.931C258.218 168.931 259.775 167.768 260.941 169.129" stroke="#263238" stroke-miterlimit="10"/>
<path d="M194.103 276.469C194.103 276.469 203.885 273.716 206.895 273.219C209.904 272.722 215.929 278.222 216.932 281.224C217.936 284.226 216.652 284.897 216.652 284.897L196.608 284.232L194.103 276.469Z" fill="#9E9E9E" stroke="#263238" stroke-miterlimit="10"/>
<path d="M197.649 275.5C197.649 275.5 205.032 278.259 206.876 279.365C208.721 280.472 208.166 282.678 207.063 283.778C205.733 284.887 204.146 285.648 202.446 285.991C200.726 286.088 199.001 286.088 197.281 285.991C195.069 285.804 193.038 286.177 191.194 286.177C189.349 286.177 183.81 285.624 183.81 285.624L182.147 284.518C182.147 284.518 179.031 285.438 176.614 286.382C174.196 287.327 174.95 285.276 176.794 283.803C178.639 282.33 183.256 278.651 183.997 278.284C184.739 277.917 194.147 275.177 194.147 275.177L197.649 275.5Z" fill="#9E9E9E" stroke="#263238" stroke-miterlimit="10"/>
<path d="M200.415 276.233C200.415 276.233 195.611 274.027 194.321 274.027C193.032 274.027 183.804 277.134 182.514 278.073C181.224 279.011 179.928 287.83 180.851 288.384C181.773 288.937 182.514 287.277 182.72 286.177C182.925 285.077 185.492 279.179 185.492 279.179L183.623 288.57C183.623 288.57 184.365 290.037 185.1 288.75C185.835 287.464 190.452 278.626 190.82 278.073C191.303 277.56 191.865 277.126 192.483 276.786C192.483 276.786 191.561 280.839 190.82 284.704C190.078 288.57 190.639 289.676 191.748 289.857C192.857 290.037 193.406 287.464 193.96 286.177C194.515 284.891 196.913 277.52 196.913 277.52" fill="#9E9E9E"/>
<path d="M200.415 276.233C200.415 276.233 195.611 274.027 194.321 274.027C193.032 274.027 183.804 277.134 182.514 278.073C181.224 279.011 179.928 287.83 180.851 288.384C181.773 288.937 182.514 287.277 182.72 286.177C182.925 285.077 185.492 279.179 185.492 279.179L183.623 288.57C183.623 288.57 184.365 290.037 185.1 288.75C185.835 287.464 190.452 278.626 190.82 278.073C191.303 277.56 191.865 277.126 192.483 276.786C192.483 276.786 191.561 280.839 190.82 284.704C190.078 288.57 190.639 289.676 191.748 289.857C192.857 290.037 193.406 287.464 193.96 286.177C194.515 284.891 196.913 277.52 196.913 277.52" stroke="#263238" stroke-miterlimit="10"/>
<path d="M205.749 279.919C205.749 279.919 200.216 285.624 199.474 286.911C198.733 288.197 198.739 288.384 200.77 288.384C202.802 288.384 209.076 284.331 209.624 283.778C210.172 283.225 209.998 281.572 208.702 280.466C208.289 280.146 207.806 279.929 207.292 279.834C206.778 279.739 206.249 279.768 205.749 279.919Z" fill="#9E9E9E" stroke="#263238" stroke-miterlimit="10"/>
<path d="M240.304 279.285C240.304 279.285 232.921 281.665 231.108 283.014C229.295 284.362 226.678 285.848 227.245 286.301C227.812 286.755 229.631 286.301 230.198 285.848C230.765 285.394 233.376 284.94 233.376 284.94C233.376 284.94 236.441 283.126 238.828 281.659C241.214 280.192 243.027 278.601 240.304 279.285Z" fill="#9E9E9E" stroke="#263238" stroke-miterlimit="10"/>
<path d="M281.059 266.817C281.059 266.817 260.498 270.546 253.058 273.151C245.619 275.755 242.659 277.569 238.939 280.192C235.22 282.815 227.68 287.768 228.802 288.638C229.924 289.509 233.83 286.457 234.491 285.804C235.151 285.152 239.955 283.188 239.955 283.188L243.17 281.547C243.17 281.547 238.329 287.495 236.584 289.005C234.84 290.515 236.017 291.46 237.332 291.025C238.647 290.59 241.126 287.986 241.126 287.986L249.12 282.74C249.12 282.74 245.837 287.327 244.304 288.632C242.771 289.937 246.055 291.037 246.715 289.944C247.376 288.85 250.653 286.016 250.653 286.016C250.653 286.016 256.118 283.182 257.432 282.088C258.747 280.994 262.024 277.942 262.024 277.942L286.524 279.906C286.524 279.906 288.056 279.036 287.184 274.014C286.312 268.993 281.059 266.817 281.059 266.817Z" fill="#9E9E9E" stroke="#263238" stroke-miterlimit="10"/>
<path d="M297.683 228.197L309.715 257.88L290.244 264.642L295.714 280.571C295.714 280.571 309.696 280.609 320.637 279.95C331.578 279.291 339.255 272.709 337.504 264.86C335.753 257.01 329.192 245.655 323.94 232.125C318.687 218.595 320.313 210.528 317.908 206.382C315.503 202.237 308.718 201.143 308.718 201.143L304.979 200.521" fill="white"/>
<path opacity="0.2" d="M335.66 273.114V270.006H337.286C337.354 269.801 337.411 269.596 337.46 269.384H335.66V261.609H336.594C336.526 261.411 336.451 261.199 336.382 260.988H335.66V259.092C335.46 258.577 335.255 258.048 335.037 257.52V260.988H328.494V253.219H333.192C333.099 253.014 333.012 252.809 332.918 252.598H328.494V244.829H329.367C329.267 244.624 329.174 244.419 329.08 244.207H328.494V242.908C328.289 242.449 328.077 241.989 327.871 241.522V244.207H321.329V236.439H325.691C325.603 236.233 325.516 236.028 325.435 235.817H321.329V228.048H322.494C322.426 227.843 322.363 227.632 322.301 227.427H321.329V223.884C321.092 222.902 320.887 221.964 320.706 221.063V227.427H314.164V219.658H320.444L320.332 219.036H314.164V211.268H319.279L319.186 210.646H314.164V203.027C313.617 202.734 313.056 202.471 312.481 202.237H306.998V200.845L306.375 200.733V202.237H304.537L304.369 202.859H306.375V210.646H302.325L302.163 211.268H306.381V219.036H300.107L299.939 219.658H306.375V227.427H299.833V220.056L299.21 222.411V227.383H297.889L297.727 228.005H299.21V231.939L299.833 233.474V228.048H306.375V235.817H300.768L301.017 236.439H306.375V244.207H304.194L304.45 244.829H306.406V249.658L307.029 251.193V244.829H313.541V252.598H307.565L307.821 253.219H313.541V260.988H306.998V258.838L306.375 259.055V260.988H300.805L299.01 261.609H299.21V269.378H292.668V263.785L292.044 264.002V269.347H291.864L292.668 271.684V269.969H299.21V280.534H299.833V269.969H306.375V280.453H306.998V269.981H313.541V280.255H314.164V269.981H320.706V279.925L321.329 279.875V269.981H327.871V278.508L328.494 278.272V269.981H335.037V273.884C335.255 273.629 335.467 273.375 335.66 273.114ZM306.375 269.384H299.833V261.609H306.375V269.384ZM313.541 269.384H306.998V261.609H313.541V269.384ZM313.541 244.214H306.998V236.445H313.541V244.214ZM313.541 235.823H306.998V228.048H313.541V235.823ZM313.541 227.433H306.998V219.664H313.541V227.433ZM313.541 219.043H306.998V211.268H313.541V219.043ZM313.541 210.652H306.998V202.884H313.541V210.652ZM320.706 269.384H314.164V261.609H320.706V269.384ZM320.706 260.994H314.164V253.225H320.706V260.994ZM320.706 252.604H314.164V244.829H320.706V252.604ZM320.706 244.214H314.164V236.445H320.706V244.214ZM320.706 235.823H314.164V228.048H320.706V235.823ZM327.871 269.384H321.329V261.609H327.871V269.384ZM327.871 260.994H321.329V253.225H327.871V260.994ZM327.871 252.604H321.329V244.829H327.871V252.604ZM328.494 269.384V261.609H335.037V269.378L328.494 269.384Z" fill="#263238"/>
<path d="M297.683 228.197L309.715 257.88L290.244 264.642L295.714 280.571C295.714 280.571 309.696 280.609 320.637 279.95C331.578 279.291 339.255 272.709 337.504 264.86C335.753 257.01 329.192 245.655 323.94 232.125C318.687 218.595 320.313 210.528 317.908 206.382C315.503 202.237 308.718 201.143 308.718 201.143L304.979 200.521" stroke="#263238" stroke-miterlimit="10"/>
<path d="M321.429 254.86C317.459 255.593 313.545 256.6 309.715 257.874C309.715 257.874 318.027 252.417 322.619 251.982" stroke="#263238" stroke-miterlimit="10"/>
<path d="M326.999 254.599C326.137 254.475 325.264 254.446 324.395 254.511" stroke="#263238" stroke-miterlimit="10"/>
<path d="M295.932 262.231C295.932 262.231 300.356 266.451 301.665 269.72C302.973 272.989 302.493 281.87 301.621 282.74C300.749 283.61 284.468 283.505 281.789 280.167C281.091 279.297 285.87 277.29 283.465 272.485C281.06 267.681 279.963 267.252 279.963 267.252C279.963 267.252 277.994 266.158 281.714 263.759C285.434 261.36 293.964 259.62 295.932 262.231Z" fill="#263238" stroke="#263238" stroke-miterlimit="10"/>
<path d="M334.72 295.879H318.57L316.551 264.033H336.738L334.72 295.879Z" fill="#263238" stroke="#263238" stroke-linejoin="round"/>
<path d="M337.636 264.083H315.66V268.719H337.636V264.083Z" fill="white" stroke="#263238" stroke-linejoin="round"/>
<path d="M337.636 264.257H315.66L317.853 261.51H335.436L337.636 264.257Z" fill="white" stroke="#263238" stroke-linejoin="round"/>
<path d="M335.311 286.538L336.115 273.853H317.173L317.977 286.538H335.311Z" fill="white" stroke="#263238" stroke-linejoin="round"/>
<path d="M241.65 297.998L261.551 292.752V295.437L241.65 301V297.998Z" fill="#263238" stroke="#263238" stroke-linejoin="round"/>
<path d="M261.551 292.752H157.504L137.391 297.998H241.65L261.551 292.752Z" fill="white" stroke="#263238" stroke-linejoin="round"/>
<path d="M241.65 238.023H137.391V301H241.65V238.023Z" fill="white" stroke="#263238" stroke-linejoin="round"/>
<path d="M241.65 247.134C218.97 248.209 205.462 269.061 185.393 283.032C167.099 295.773 144.507 297.948 137.416 298.29V301H241.65V247.134Z" fill="#263238" stroke="#263238" stroke-linejoin="round"/>
<path d="M241.65 297.998H137.391V301H241.65V297.998Z" fill="white" stroke="#263238" stroke-miterlimit="10"/>
<path d="M106.524 277.221C106.524 277.221 97.8383 263.362 104.81 255.562C111.783 247.762 123.048 251.516 125.372 258.738C127.696 265.96 122.767 278.092 122.767 278.092L106.524 277.221Z" fill="white" stroke="#263238" stroke-linecap="round" stroke-linejoin="round"/>
<path d="M106.811 261.336C105.365 261.336 99.8635 259.316 98.1251 256.718C96.3867 254.12 96.0876 248.34 101.022 248.34C105.957 248.34 107.683 257.004 107.683 257.004L107.97 260.18" fill="white"/>
<path d="M106.811 261.336C105.365 261.336 99.8635 259.316 98.1251 256.718C96.3867 254.12 96.0876 248.34 101.022 248.34C105.957 248.34 107.683 257.004 107.683 257.004L107.97 260.18" stroke="#263238" stroke-linecap="round" stroke-linejoin="round"/>
<path d="M111.266 255.941C109.97 255.32 105.951 251.044 105.558 247.943C105.166 244.841 107.496 239.546 111.901 241.728C116.306 243.909 113.982 252.448 113.982 252.448L112.817 255.419" fill="white"/>
<path d="M111.266 255.941C109.97 255.32 105.951 251.044 105.558 247.943C105.166 244.841 107.496 239.546 111.901 241.728C116.306 243.909 113.982 252.448 113.982 252.448L112.817 255.419" stroke="#263238" stroke-linecap="round" stroke-linejoin="round"/>
<path d="M116.525 257.396C115.802 256.153 114.83 250.379 116.225 247.582C117.621 244.785 122.506 241.665 124.949 245.929C127.391 250.192 120.718 255.997 120.718 255.997L118.095 257.824" fill="white"/>
<path d="M116.525 257.396C115.802 256.153 114.83 250.379 116.225 247.582C117.621 244.785 122.506 241.665 124.949 245.929C127.391 250.192 120.718 255.997 120.718 255.997L118.095 257.824" stroke="#263238" stroke-linecap="round" stroke-linejoin="round"/>
<path d="M118.25 267.75C118.013 266.321 119.098 260.578 121.366 258.427C123.634 256.277 129.31 255.04 130.126 259.882C130.942 264.723 122.649 267.874 122.649 267.874L119.534 268.682" fill="white"/>
<path d="M118.25 267.75C118.013 266.321 119.098 260.578 121.366 258.427C123.634 256.277 129.31 255.04 130.126 259.882C130.942 264.723 122.649 267.874 122.649 267.874L119.534 268.682" stroke="#263238" stroke-linecap="round" stroke-linejoin="round"/>
<path d="M98.7603 253.232L99.7385 254.767" stroke="white" stroke-linecap="round" stroke-linejoin="round"/>
<path d="M101.558 256.998L103.091 258.247" stroke="white" stroke-linecap="round" stroke-linejoin="round"/>
<path d="M99.8818 250.304L101.415 252.535" stroke="white" stroke-linecap="round" stroke-linejoin="round"/>
<path d="M103.515 254.35L105.191 257.414" stroke="white" stroke-linecap="round" stroke-linejoin="round"/>
<path d="M107.421 246.961L107.982 248.633" stroke="white" stroke-linecap="round" stroke-linejoin="round"/>
<path d="M109.378 251.696L110.356 253.095" stroke="white" stroke-linecap="round" stroke-linejoin="round"/>
<path d="M108.96 243.617L110.219 246.401" stroke="white" stroke-linecap="round" stroke-linejoin="round"/>
<path d="M104.069 263.269L104.493 265.773" stroke="white" stroke-linecap="round" stroke-linejoin="round"/>
<path d="M105.328 268.141L105.889 270.236" stroke="white" stroke-linecap="round" stroke-linejoin="round"/>
<path d="M106.723 263.406L107.284 266.19" stroke="white" stroke-linecap="round" stroke-linejoin="round"/>
<path d="M108.543 268.141L108.96 270.236" stroke="white" stroke-linecap="round" stroke-linejoin="round"/>
<path d="M109.521 259.782L110.356 263.686" stroke="white" stroke-linecap="round" stroke-linejoin="round"/>
<path d="M111.478 267.445L111.615 269.26" stroke="white" stroke-linecap="round" stroke-linejoin="round"/>
<path d="M113.011 258.527L113.709 262.15" stroke="white" stroke-linecap="round" stroke-linejoin="round"/>
<path d="M113.708 265.916L113.988 269.676" stroke="white" stroke-linecap="round" stroke-linejoin="round"/>
<path d="M117.066 259.919V262.989" stroke="white" stroke-linecap="round" stroke-linejoin="round"/>
<path d="M116.643 266.892L116.786 269.26" stroke="white" stroke-linecap="round" stroke-linejoin="round"/>
<path d="M120.556 245.425L119.858 247.103" stroke="white" stroke-linecap="round" stroke-linejoin="round"/>
<path d="M119.577 249.049L118.879 251.423" stroke="white" stroke-linecap="round" stroke-linejoin="round"/>
<path d="M123.628 248.633L122.512 250.864" stroke="white" stroke-linecap="round" stroke-linejoin="round"/>
<path d="M120.138 253.375L118.879 254.767" stroke="white" stroke-linecap="round" stroke-linejoin="round"/>
<path d="M117.484 248.496L117.066 250.304" stroke="white" stroke-linecap="round" stroke-linejoin="round"/>
<path d="M123.627 258.527L122.095 261.038" stroke="white" stroke-linecap="round" stroke-linejoin="round"/>
<path d="M121.117 262.566L120.275 264.798" stroke="white" stroke-linecap="round" stroke-linejoin="round"/>
<path d="M122.375 265.916L124.886 264.518" stroke="white" stroke-linecap="round" stroke-linejoin="round"/>
<path d="M126.425 258.527L125.167 260.621" stroke="white" stroke-linecap="round" stroke-linejoin="round"/>
<path d="M127.684 260.895L126.008 262.15" stroke="white" stroke-linecap="round" stroke-linejoin="round"/>
<path d="M125.877 272.386H102.125V296.078H125.877V272.386Z" fill="#263238" stroke="#263238" stroke-linecap="round" stroke-linejoin="round"/>
</svg>
