<svg width="426" height="320" viewBox="0 0 426 320" fill="none" xmlns="http://www.w3.org/2000/svg">
<path d="M366.837 151.846C363.283 134.424 357.043 117.418 349.624 101.784C336.832 74.8122 315.875 52.4151 289.064 39.1196C223.275 6.49262 175.799 20.0872 150.026 46.5966C124.253 73.1061 131.714 118.648 103.906 138.36C76.0983 158.072 56.4295 166.909 55.073 202.934C53.7166 238.96 71.3507 266.149 99.8365 274.986C128.322 283.822 171.051 312.371 256.509 296.057C341.966 279.744 362.991 234.202 368.417 201.575C371.13 185.159 370.194 168.316 366.837 151.846Z" fill="#CBCBCB"/>
<path opacity="0.7" d="M366.837 151.846C363.283 134.424 357.043 117.418 349.624 101.784C336.832 74.8122 315.875 52.4151 289.064 39.1196C223.275 6.49262 175.799 20.0872 150.026 46.5966C124.253 73.1061 131.714 118.648 103.906 138.36C76.0983 158.072 56.4295 166.909 55.073 202.934C53.7166 238.96 71.3507 266.149 99.8365 274.986C128.322 283.822 171.051 312.371 256.509 296.057C341.966 279.744 362.991 234.202 368.417 201.575C371.13 185.159 370.194 168.316 366.837 151.846Z" fill="white"/>
<path d="M166.52 52.3879H160.375V79.6791H166.52V52.3879Z" fill="#C9C9C9" stroke="#263238" stroke-linecap="round" stroke-linejoin="round"/>
<path d="M166.52 56.4937H160.375V59.1582H166.52V56.4937Z" fill="white" stroke="#263238" stroke-linecap="round" stroke-linejoin="round"/>
<path d="M166.52 73.4255H160.375V76.0901H166.52V73.4255Z" fill="white" stroke="#263238" stroke-linecap="round" stroke-linejoin="round"/>
<path d="M173.689 52.3879H165.089V79.6791H173.689V52.3879Z" fill="#878787" stroke="#263238" stroke-linecap="round" stroke-linejoin="round"/>
<path d="M173.079 52.3879H166.934V79.6791H173.079V52.3879Z" fill="#C9C9C9" stroke="#263238" stroke-linecap="round" stroke-linejoin="round"/>
<path d="M173.079 56.4937H166.934V59.1582H173.079V56.4937Z" fill="white" stroke="#263238" stroke-linecap="round" stroke-linejoin="round"/>
<path d="M173.079 73.4255H166.934V76.0901H173.079V73.4255Z" fill="white" stroke="#263238" stroke-linecap="round" stroke-linejoin="round"/>
<path d="M180.241 52.3879H171.641V79.6791H180.241V52.3879Z" fill="#878787" stroke="#263238" stroke-linecap="round" stroke-linejoin="round"/>
<path d="M179.631 52.3879H173.486V79.6791H179.631V52.3879Z" fill="#C9C9C9" stroke="#263238" stroke-linecap="round" stroke-linejoin="round"/>
<path d="M179.631 56.4937H173.486V59.1582H179.631V56.4937Z" fill="white" stroke="#263238" stroke-linecap="round" stroke-linejoin="round"/>
<path d="M179.631 73.4255H173.486V76.0901H179.631V73.4255Z" fill="white" stroke="#263238" stroke-linecap="round" stroke-linejoin="round"/>
<path d="M186.793 52.3879H178.193V79.6791H186.793V52.3879Z" fill="#C9C9C9" stroke="#263238" stroke-linecap="round" stroke-linejoin="round"/>
<path d="M192.396 79.9578H206.828L210.667 76.4775H192.396V79.9578Z" fill="white" stroke="#263238" stroke-linecap="round" stroke-linejoin="round"/>
<path d="M209.032 80.1344L208.571 79.3392L192.097 79.3052L192.571 80.1344H209.032Z" fill="white" stroke="#263238" stroke-linecap="round" stroke-linejoin="round"/>
<path d="M184.039 52.9564L178.72 56.0393L192.352 79.6646L197.671 76.5817L184.039 52.9564Z" fill="#C9C9C9" stroke="#263238" stroke-linecap="round" stroke-linejoin="round"/>
<path d="M186.092 56.5008L180.772 59.5837L182.103 61.8904L187.423 58.8075L186.092 56.5008Z" fill="white" stroke="#263238" stroke-linecap="round" stroke-linejoin="round"/>
<path d="M194.554 71.1568L189.235 74.2397L190.566 76.5464L195.885 73.4635L194.554 71.1568Z" fill="white" stroke="#263238" stroke-linecap="round" stroke-linejoin="round"/>
<path d="M210.572 76.7153L197.529 76.6813L183.897 53.054L196.939 53.0879L210.572 76.7153Z" fill="#C9C9C9" stroke="#263238" stroke-linecap="round" stroke-linejoin="round"/>
<path d="M217.68 66.1388C217.68 66.1388 215.306 65.2891 214.627 61.5506C213.949 57.8121 212.762 52.5442 214.119 51.3546C215.475 50.1651 218.019 49.4854 218.358 51.8644C218.697 54.2435 218.188 58.8317 218.697 59.8513C219.206 60.8708 220.901 60.1911 220.901 58.1519C220.901 54.7941 219.545 51.3546 220.026 47.956C220.704 43.2591 225.452 42.7425 225.961 47.956C226.246 50.8381 226.327 53.7813 226.327 56.6769C226.327 57.8664 228.362 58.5462 228.192 55.6573C228.07 53.6181 229.549 51.2391 231.583 51.9188C233.618 52.5985 231.922 61.605 231.244 63.1343C230.566 64.6637 226.327 64.9492 226.327 64.9492V68.8577L221.24 69.0276L221.071 65.1192C220.035 65.7192 218.874 66.0683 217.68 66.1388Z" fill="#CBCBCB" stroke="#263238" stroke-linecap="round" stroke-linejoin="round"/>
<path d="M222.258 58.6887C222.319 59.5384 222.36 60.0482 222.36 60.0482" stroke="#263238" stroke-linecap="round" stroke-linejoin="round"/>
<path d="M222.597 45.5093C222.597 45.5093 221.484 46.2842 221.566 48.6088C221.62 50.0227 221.891 53.9379 222.102 56.7996" stroke="#263238" stroke-linecap="round" stroke-linejoin="round"/>
<path d="M224.509 53.5229L224.686 59.2123" stroke="#263238" stroke-linecap="round" stroke-linejoin="round"/>
<path d="M226.992 62.9102C226.599 62.9713 226.202 63.0053 225.805 63.0119" stroke="#263238" stroke-linecap="round" stroke-linejoin="round"/>
<path d="M230.532 53.353C230.141 54.0971 229.934 54.9248 229.929 55.7661C229.929 57.1255 230.017 60.9388 229.156 61.972C228.945 62.204 228.689 62.3892 228.403 62.5158" stroke="#263238" stroke-linecap="round" stroke-linejoin="round"/>
<path d="M215.815 61C216.019 62.022 216.508 62.9649 217.226 63.7189C217.65 64.0594 218.174 64.2516 218.718 64.2664C219.261 64.2811 219.795 64.1175 220.237 63.8005" stroke="#263238" stroke-linecap="round" stroke-linejoin="round"/>
<path d="M215.652 51.8035C215.652 51.8035 213.936 51.8035 214.533 54.8147C214.791 56.0858 215.028 57.6491 215.333 59.1241" stroke="#263238" stroke-linecap="round" stroke-linejoin="round"/>
<path d="M222.102 63.2637L222.447 66.9682" stroke="#263238" stroke-linecap="round" stroke-linejoin="round"/>
<path d="M230.905 67.3281L230.288 72.3989L229.868 75.8519L229.379 79.8691H217.178L216.69 75.8519L216.269 72.3989L215.652 67.3281H230.905Z" fill="white" stroke="#263238" stroke-linecap="round" stroke-linejoin="round"/>
<path d="M230.288 72.3992L229.868 75.8522H216.69L216.269 72.3992H230.288Z" fill="#CBCBCB" stroke="#263238" stroke-linecap="round" stroke-linejoin="round"/>
<path d="M237.606 79.8694H159.291V85.0693H237.606V79.8694Z" fill="white" stroke="#263238" stroke-linecap="round" stroke-linejoin="round"/>
<path d="M237.606 79.8694H219.552V85.0693H237.606V79.8694Z" fill="white" stroke="#263238" stroke-linecap="round" stroke-linejoin="round"/>
<path d="M217.795 85.0898C226.185 88.1894 224.672 94.0487 224.672 94.0487H232.614V85.0898H217.795Z" fill="#919191" stroke="#263238" stroke-linecap="round" stroke-linejoin="round"/>
<path d="M220.474 85.0898C228.857 88.1894 227.345 94.0487 227.345 94.0487H235.294V85.0898H220.474Z" fill="white" stroke="#263238" stroke-linecap="round" stroke-linejoin="round"/>
<path d="M164.045 85.0898C172.435 88.1894 170.922 94.0487 170.922 94.0487H178.864V85.0898H164.045Z" fill="#919191" stroke="#263238" stroke-linecap="round" stroke-linejoin="round"/>
<path d="M166.724 85.0898C175.107 88.1894 173.594 94.0487 173.594 94.0487H181.543V85.0898H166.724Z" fill="white" stroke="#263238" stroke-linecap="round" stroke-linejoin="round"/>
<path d="M346.741 53.3601H276.503V151.078H346.741V53.3601Z" fill="#919191" stroke="#263238" stroke-linecap="round" stroke-linejoin="round"/>
<path d="M343.696 57.6016H279.555V146.836H343.696V57.6016Z" fill="#CBCBCB"/>
<path opacity="0.5" d="M343.696 57.6016H279.555V146.836H343.696V57.6016Z" fill="white"/>
<path d="M293.655 140.06C291.936 142.689 289.763 144.99 287.239 146.857H343.695V57.6016H333.291L331.935 58.0298C321.761 61.2449 311.249 70.5504 305.287 87.4621" stroke="#263238" stroke-linecap="round" stroke-linejoin="round"/>
<path d="M304.297 90.4258C301.928 98.491 300.62 106.831 300.404 115.236C300.031 125.323 297.888 132.576 295.025 137.789" stroke="#263238" stroke-linecap="round" stroke-linejoin="round"/>
<path d="M337.422 80.2502C328.096 85.6881 317.238 94.8236 313.182 108.833C311.005 116.31 313.046 123.053 317.082 128.824" stroke="#263238" stroke-linecap="round" stroke-linejoin="round"/>
<path d="M319.266 131.638C324.861 138.204 332.83 143.37 339.28 146.843H343.696V76.9536C342.434 77.545 341.091 78.2111 339.694 78.9928" stroke="#263238" stroke-linecap="round" stroke-linejoin="round"/>
<path d="M290.217 80.8687C295.128 70.8359 295.643 62.8763 295.08 57.6016H279.569V98.4261C281.861 95.1566 284.669 90.7859 288.06 84.9267C288.271 84.5664 288.467 84.2469 288.664 83.8663" stroke="#263238" stroke-linecap="round" stroke-linejoin="round"/>
<path d="M296.294 119.511C295.541 124.453 293.276 128.042 290.604 128.042C287.314 128.042 284.642 122.604 284.642 115.875C284.642 109.145 287.314 103.708 290.604 103.708C293.893 103.708 296.565 109.145 296.565 115.875" stroke="#263238" stroke-linecap="round" stroke-linejoin="round"/>
<path d="M299.122 90.9018C299.122 93.4915 297.983 95.5987 296.565 95.5987C295.148 95.5987 294.015 93.4915 294.015 90.9018C294.015 88.312 295.155 86.2048 296.565 86.2048C297.976 86.2048 299.122 88.3052 299.122 90.9018Z" stroke="#263238" stroke-linecap="round" stroke-linejoin="round"/>
<path d="M331.664 110.743C334.126 111.919 335.733 113.971 335.733 116.303C335.733 119.953 331.732 122.917 326.787 122.917C321.843 122.917 317.848 119.953 317.848 116.303C317.848 112.653 321.85 109.682 326.787 109.682C327.575 109.682 328.361 109.759 329.134 109.913" stroke="#263238" stroke-linecap="round" stroke-linejoin="round"/>
<path d="M330.558 116.303C330.558 117.832 328.883 119.076 326.808 119.076C324.732 119.076 323.057 117.832 323.057 116.303C323.057 114.774 324.739 113.523 326.808 113.523C328.876 113.523 330.558 114.767 330.558 116.303Z" stroke="#263238" stroke-linecap="round" stroke-linejoin="round"/>
<path d="M336.608 99.4389C336.608 101.56 334.512 103.279 331.921 103.279C329.331 103.279 327.235 101.56 327.235 99.4389C327.235 97.3181 329.331 95.5984 331.921 95.5984C334.512 95.5984 336.608 97.3181 336.608 99.4389Z" stroke="#263238" stroke-linecap="round" stroke-linejoin="round"/>
<path d="M302.744 78.0955C304.508 78.0955 305.938 74.5592 305.938 70.197C305.938 65.8348 304.508 62.2986 302.744 62.2986C300.98 62.2986 299.549 65.8348 299.549 70.197C299.549 74.5592 300.98 78.0955 302.744 78.0955Z" stroke="#263238" stroke-linecap="round" stroke-linejoin="round"/>
<path d="M311.48 138.075C311.48 138.962 311.217 139.83 310.725 140.567C310.233 141.305 309.534 141.88 308.716 142.22C307.898 142.559 306.998 142.648 306.13 142.475C305.262 142.302 304.464 141.875 303.838 141.247C303.212 140.62 302.786 139.821 302.613 138.95C302.44 138.08 302.529 137.178 302.868 136.358C303.206 135.539 303.78 134.838 304.516 134.345C305.252 133.852 306.118 133.589 307.003 133.589C308.19 133.589 309.329 134.062 310.168 134.903C311.008 135.744 311.48 136.885 311.48 138.075Z" stroke="#263238" stroke-linecap="round" stroke-linejoin="round"/>
<path d="M332.349 71.475C332.35 72.0254 332.188 72.5638 331.884 73.0221C331.58 73.4803 331.147 73.8377 330.639 74.0489C330.132 74.2602 329.574 74.3158 329.035 74.2088C328.497 74.1017 328.002 73.8368 327.613 73.4476C327.225 73.0584 326.961 72.5624 326.854 72.0225C326.747 71.4825 326.802 70.923 327.013 70.4147C327.224 69.9065 327.581 69.4723 328.038 69.1674C328.495 68.8624 329.032 68.7003 329.582 68.7017C330.315 68.7035 331.018 68.9962 331.536 69.5159C332.055 70.0356 332.347 70.74 332.349 71.475Z" stroke="#263238" stroke-linecap="round" stroke-linejoin="round"/>
<path d="M314.884 91.1124C314.885 91.4085 314.799 91.6982 314.636 91.9451C314.473 92.1919 314.24 92.3846 313.968 92.4988C313.695 92.613 313.395 92.6436 313.105 92.5867C312.815 92.5298 312.549 92.3879 312.339 92.179C312.13 91.9702 311.987 91.7037 311.929 91.4135C311.871 91.1232 311.9 90.8222 312.013 90.5485C312.126 90.2749 312.317 90.0409 312.562 89.8763C312.808 89.7117 313.097 89.6238 313.392 89.6238C313.588 89.6229 313.782 89.6607 313.962 89.7351C314.143 89.8096 314.308 89.9191 314.447 90.0574C314.585 90.1957 314.695 90.3601 314.77 90.5412C314.845 90.7222 314.884 90.9163 314.884 91.1124V91.1124Z" stroke="#263238" stroke-linecap="round" stroke-linejoin="round"/>
<path d="M343.696 57.6016H279.555V146.836H343.696V57.6016Z" stroke="#263238" stroke-linecap="round" stroke-linejoin="round"/>
<path d="M238.867 184.847H221.443V191.42H238.867V184.847Z" fill="#263238" stroke="#263238" stroke-linecap="round" stroke-linejoin="round"/>
<path d="M262.246 185.839H192.896L196.179 131.964H265.535L262.246 185.839Z" fill="#919191" stroke="#263238" stroke-linecap="round" stroke-linejoin="round"/>
<path d="M260.259 185.839H190.91L194.192 131.964H263.542L260.259 185.839Z" fill="#263238" stroke="#263238" stroke-linecap="round" stroke-linejoin="round"/>
<path d="M256.59 182.842H194.945L197.861 134.955H259.506L256.59 182.842Z" fill="white" stroke="#263238" stroke-linecap="round" stroke-linejoin="round"/>
<path d="M238.657 175.705H196.783L199.028 138.802H240.909L238.657 175.705Z" fill="#919191" stroke="#263238" stroke-linecap="round" stroke-linejoin="round"/>
<path d="M213.305 159.853C213.305 159.853 204.583 163.313 204.529 164.244C204.474 165.176 202.765 175.705 202.765 175.705H228.701L226.517 163.578L216.92 159.582L213.305 159.853Z" fill="white" stroke="#263238" stroke-linecap="round" stroke-linejoin="round"/>
<path d="M213.563 157.719C212.906 157.892 212.297 158.211 211.779 158.65C211.101 159.33 210.273 161.58 210.273 161.58L210.239 164.244L213.678 162.382L217.171 162.151L220.44 165.216L220.86 160.554C220.86 160.554 220.359 157.889 219.3 157.753C218.242 157.617 213.563 157.719 213.563 157.719Z" fill="white" stroke="#263238" stroke-linecap="round" stroke-linejoin="round"/>
<path d="M213.454 155.19L213.305 159.853L215.36 163.184L218.758 159.717L219.287 155.456L213.454 155.19Z" fill="white" stroke="#263238" stroke-linecap="round" stroke-linejoin="round"/>
<path d="M221.837 149.739C221.593 153.647 219.002 158.385 216.16 158.385C213.318 158.385 211.304 153.627 211.541 149.739C211.779 145.851 214.254 142.663 217.117 142.663C219.979 142.663 222.074 145.837 221.837 149.739Z" fill="white" stroke="#263238" stroke-linecap="round" stroke-linejoin="round"/>
<path d="M211.494 150.256C211.494 150.256 210.578 147.863 210.198 149.726C209.819 151.588 211.69 153.587 211.69 153.587L211.494 150.256Z" fill="white" stroke="#263238" stroke-linecap="round" stroke-linejoin="round"/>
<path d="M221.837 149.739C221.837 149.739 224.082 148.794 223.424 150.793C223.257 151.358 222.966 151.879 222.572 152.316C222.177 152.754 221.69 153.097 221.146 153.321L221.837 149.739Z" fill="white" stroke="#263238" stroke-linecap="round" stroke-linejoin="round"/>
<path d="M215.882 150.255C215.9 150.015 215.868 149.774 215.788 149.548C215.708 149.321 215.581 149.113 215.417 148.938C215.252 148.763 215.053 148.624 214.832 148.53C214.611 148.436 214.372 148.39 214.132 148.393C213.632 148.406 213.155 148.603 212.791 148.947C212.427 149.29 212.202 149.756 212.159 150.255C212.141 150.496 212.173 150.737 212.253 150.964C212.333 151.192 212.459 151.4 212.624 151.575C212.788 151.751 212.987 151.891 213.209 151.985C213.43 152.08 213.668 152.127 213.908 152.125C214.409 152.111 214.888 151.913 215.252 151.568C215.616 151.223 215.841 150.756 215.882 150.255Z" fill="white" stroke="#263238" stroke-linecap="round" stroke-linejoin="round"/>
<path d="M220.399 150.256L222.427 149.725" stroke="#263238" stroke-linecap="round" stroke-linejoin="round"/>
<path d="M220.399 150.256C220.417 150.016 220.385 149.776 220.305 149.549C220.226 149.323 220.1 149.116 219.936 148.941C219.772 148.765 219.574 148.626 219.353 148.532C219.133 148.438 218.896 148.391 218.656 148.393C218.155 148.405 217.676 148.601 217.311 148.945C216.945 149.288 216.719 149.755 216.676 150.256C216.658 150.496 216.69 150.737 216.77 150.964C216.85 151.192 216.976 151.4 217.141 151.575C217.305 151.751 217.505 151.891 217.726 151.985C217.947 152.08 218.185 152.127 218.426 152.125C218.926 152.112 219.405 151.913 219.769 151.569C220.133 151.224 220.358 150.756 220.399 150.256Z" fill="white" stroke="#263238" stroke-linecap="round" stroke-linejoin="round"/>
<path d="M216.655 141.861C216.655 141.861 214.62 140.8 213.094 141.467C211.568 142.133 210.443 145.729 210.517 146.66C210.756 147.88 211.083 149.082 211.494 150.256L213.108 145.593L217.34 143.73L216.655 141.861Z" fill="#263238" stroke="#263238" stroke-linecap="round" stroke-linejoin="round"/>
<path d="M214.607 142.799C214.607 142.799 217.958 140.134 220.671 141.439C221.501 141.801 222.187 142.43 222.621 143.227C223.055 144.023 223.211 144.942 223.065 145.837C223.024 146.517 222.97 149.562 222.97 149.562L221.356 149.834L220.562 147.326C219.645 146.962 218.753 146.54 217.89 146.062C217.89 146.062 214.302 145.593 214.607 142.799Z" fill="#263238" stroke="#263238" stroke-linecap="round" stroke-linejoin="round"/>
<path d="M215.882 150.256L215.645 154.123H216.574" fill="white"/>
<path d="M215.882 150.256L215.645 154.123H216.574" stroke="#263238" stroke-linecap="round" stroke-linejoin="round"/>
<path d="M215.157 155.585H217.151" stroke="#263238" stroke-linecap="round" stroke-linejoin="round"/>
<path d="M215.36 163.184L214.621 175.304" stroke="#263238" stroke-linecap="round" stroke-linejoin="round"/>
<path d="M226.503 163.578C226.503 163.578 223.729 169.845 223.648 171.178C223.566 172.51 223.254 175.44 223.254 175.44" stroke="#263238" stroke-linecap="round" stroke-linejoin="round"/>
<path d="M204.528 164.245C204.528 164.245 207.289 169.044 207.648 169.682C208.008 170.321 207.567 175.413 207.567 175.413" stroke="#263238" stroke-linecap="round" stroke-linejoin="round"/>
<path d="M228.354 168.112L229.27 163.979L230.83 162.382L232.302 159.982H232.967L232.153 162.518L234.214 161.315L235.544 159.187L236.317 159.581L234.418 164.516L231.407 165.978L230.884 167.976L228.354 168.112Z" fill="white" stroke="#263238" stroke-linecap="round" stroke-linejoin="round"/>
<path d="M230.932 175.705L231.183 167.446L228.158 166.909L225.771 175.705H230.932Z" fill="white" stroke="#263238" stroke-linecap="round" stroke-linejoin="round"/>
<path d="M238.474 178.77H196.593L196.783 175.705H238.657L238.474 178.77Z" fill="white" stroke="#263238" stroke-linecap="round" stroke-linejoin="round"/>
<path d="M198.302 176.908H236.724" stroke="#263238" stroke-linecap="round" stroke-linejoin="round"/>
<path d="M256.658 148.651H242.564L243.161 138.925H257.255L256.658 148.651Z" fill="#CBCBCB" stroke="#263238" stroke-linecap="round" stroke-linejoin="round"/>
<path d="M256.658 148.651H242.564L242.666 147.054H256.759L256.658 148.651Z" fill="white" stroke="#263238" stroke-linecap="round" stroke-linejoin="round"/>
<path d="M252.107 143.221L248.444 141.025L248.18 145.416L252.107 143.221Z" fill="white" stroke="#263238" stroke-linecap="round" stroke-linejoin="round"/>
<path d="M255.742 163.707H241.648L242.238 153.987H256.332L255.742 163.707Z" fill="#CBCBCB" stroke="#263238" stroke-linecap="round" stroke-linejoin="round"/>
<path d="M255.742 163.707H241.648L241.75 162.11H255.837L255.742 163.707Z" fill="white" stroke="#263238" stroke-linecap="round" stroke-linejoin="round"/>
<path d="M251.191 158.283L247.528 156.088L247.264 160.479L251.191 158.283Z" fill="white" stroke="#263238" stroke-linecap="round" stroke-linejoin="round"/>
<path d="M254.819 178.77H240.732L241.322 169.043H255.416L254.819 178.77Z" fill="#CBCBCB" stroke="#263238" stroke-linecap="round" stroke-linejoin="round"/>
<path d="M254.819 178.77H240.732L240.827 177.173H254.921L254.819 178.77Z" fill="white" stroke="#263238" stroke-linecap="round" stroke-linejoin="round"/>
<path d="M250.268 173.339L246.613 171.144L246.341 175.535L250.268 173.339Z" fill="white" stroke="#263238" stroke-linecap="round" stroke-linejoin="round"/>
<path d="M242.604 150.256H256.291" stroke="#263238" stroke-linecap="round" stroke-linejoin="round"/>
<path d="M242.503 151.86H256.196" stroke="#263238" stroke-linecap="round" stroke-linejoin="round"/>
<path d="M241.675 165.448H255.369" stroke="#263238" stroke-linecap="round" stroke-linejoin="round"/>
<path d="M241.581 167.045H255.274" stroke="#263238" stroke-linecap="round" stroke-linejoin="round"/>
<path d="M235.606 191.42H225.31C225.31 190.391 225.718 189.404 226.444 188.676C227.171 187.948 228.156 187.539 229.183 187.539H231.719C232.746 187.539 233.732 187.948 234.458 188.676C235.184 189.404 235.592 190.391 235.592 191.42H235.606Z" fill="white" stroke="#263238" stroke-linecap="round" stroke-linejoin="round"/>
<path d="M220.406 189.306H170.067V191.42H220.406V189.306Z" fill="#919191" stroke="#263238" stroke-linecap="round" stroke-linejoin="round"/>
<path d="M220.392 189.306H207.743V191.42H220.392V189.306Z" fill="white" stroke="#263238" stroke-linecap="round" stroke-linejoin="round"/>
<path d="M149.436 87.8088V47.6436" stroke="#263238" stroke-linecap="round" stroke-linejoin="round"/>
<path d="M149.436 288.825V91.8057" stroke="#263238" stroke-linecap="round" stroke-linejoin="round"/>
<path d="M240.957 205.517L247.061 287.989C247.092 288.29 247.237 288.567 247.466 288.765C247.695 288.963 247.99 289.065 248.292 289.052C248.594 289.039 248.879 288.912 249.09 288.695C249.301 288.479 249.422 288.19 249.428 287.887L248.512 205.517H240.957Z" fill="#919191" stroke="#263238" stroke-linecap="round" stroke-linejoin="round"/>
<path d="M245.562 205.517L248.784 288.94C248.974 288.839 249.132 288.687 249.242 288.501C249.352 288.315 249.41 288.103 249.408 287.887L248.512 205.517H245.562Z" fill="white" stroke="#263238" stroke-linecap="round" stroke-linejoin="round"/>
<path d="M279.325 205.517L285.429 287.989C285.461 288.29 285.606 288.567 285.834 288.765C286.063 288.963 286.358 289.065 286.66 289.052C286.962 289.039 287.247 288.912 287.458 288.695C287.669 288.479 287.79 288.19 287.796 287.887L286.88 205.517H279.325Z" fill="#919191" stroke="#263238" stroke-linecap="round" stroke-linejoin="round"/>
<path d="M283.57 205.517L287.328 288.818C287.469 288.708 287.582 288.566 287.66 288.405C287.737 288.243 287.777 288.066 287.775 287.887L286.88 205.517H283.57Z" fill="white" stroke="#263238" stroke-linecap="round" stroke-linejoin="round"/>
<path d="M178.186 206.415L172.082 287.982C172.061 288.282 171.928 288.562 171.709 288.766C171.489 288.971 171.201 289.084 170.902 289.083C170.745 289.086 170.589 289.058 170.443 288.999C170.297 288.941 170.164 288.855 170.052 288.745C169.939 288.635 169.85 288.504 169.789 288.359C169.727 288.214 169.695 288.058 169.694 287.901L170.596 206.197L178.186 206.415Z" fill="#263238" stroke="#263238" stroke-linecap="round" stroke-linejoin="round"/>
<path d="M139.852 206.415L133.748 287.982C133.727 288.282 133.594 288.562 133.375 288.766C133.156 288.971 132.867 289.084 132.568 289.083C132.411 289.082 132.257 289.051 132.113 288.99C131.969 288.929 131.838 288.84 131.728 288.728C131.619 288.616 131.532 288.484 131.474 288.338C131.415 288.193 131.386 288.037 131.388 287.88L132.29 206.177L139.852 206.415Z" fill="#263238" stroke="#263238" stroke-linecap="round" stroke-linejoin="round"/>
<path d="M289.125 193.336H129.991V206.183H289.125V193.336Z" fill="#919191" stroke="#263238" stroke-linecap="round" stroke-linejoin="round"/>
<path d="M289.125 193.336H243.521V206.183H289.125V193.336Z" fill="white" stroke="#263238" stroke-linecap="round" stroke-linejoin="round"/>
<path d="M289.125 195.376H129.991V198.917H289.125V195.376Z" fill="#263238" stroke="#263238" stroke-linecap="round" stroke-linejoin="round"/>
<path d="M291.417 191.495H127.698V195.79H291.417V191.495Z" fill="#919191" stroke="#263238" stroke-linecap="round" stroke-linejoin="round"/>
<path d="M291.41 191.495H246.45V195.79H291.41V191.495Z" fill="white" stroke="#263238" stroke-linecap="round" stroke-linejoin="round"/>
<path d="M243.141 111.851H221.044C219.893 111.851 218.789 112.309 217.974 113.125C217.16 113.941 216.703 115.047 216.703 116.201V124.358C216.702 124.929 216.814 125.495 217.032 126.023C217.25 126.552 217.569 127.032 217.973 127.436C218.376 127.84 218.855 128.16 219.382 128.379C219.909 128.597 220.474 128.709 221.044 128.708H232.615L228.281 140.841L236.582 128.708H243.141C243.711 128.709 244.276 128.597 244.803 128.379C245.33 128.16 245.809 127.84 246.212 127.436C246.615 127.032 246.935 126.552 247.153 126.023C247.371 125.495 247.482 124.929 247.481 124.358V116.201C247.481 115.047 247.024 113.941 246.21 113.125C245.396 112.309 244.292 111.851 243.141 111.851Z" fill="white" stroke="#263238" stroke-linecap="round" stroke-linejoin="round"/>
<path d="M226.171 122.135C227.044 122.135 227.751 121.426 227.751 120.551C227.751 119.676 227.044 118.967 226.171 118.967C225.298 118.967 224.591 119.676 224.591 120.551C224.591 121.426 225.298 122.135 226.171 122.135Z" fill="#263238"/>
<path d="M232.092 122.135C232.965 122.135 233.672 121.426 233.672 120.551C233.672 119.676 232.965 118.967 232.092 118.967C231.219 118.967 230.512 119.676 230.512 120.551C230.512 121.426 231.219 122.135 232.092 122.135Z" fill="#263238"/>
<path d="M239.587 120.551C239.587 120.238 239.494 119.931 239.32 119.67C239.146 119.41 238.899 119.207 238.61 119.087C238.321 118.968 238.002 118.937 237.696 118.998C237.389 119.06 237.107 119.211 236.887 119.434C236.666 119.656 236.516 119.939 236.456 120.246C236.396 120.554 236.428 120.873 236.549 121.162C236.669 121.451 236.873 121.698 237.134 121.871C237.394 122.044 237.701 122.136 238.013 122.135C238.221 122.135 238.426 122.094 238.617 122.014C238.808 121.934 238.982 121.818 239.128 121.671C239.275 121.523 239.39 121.349 239.469 121.157C239.548 120.964 239.588 120.759 239.587 120.551Z" fill="#263238"/>
<path d="M348.07 289.26H366.383" stroke="#263238" stroke-linecap="round" stroke-linejoin="round"/>
<path d="M59.1421 289.26H338.575" stroke="#263238" stroke-linecap="round" stroke-linejoin="round"/>
<path d="M166.738 169.139C164.75 165.74 158.904 152.655 158.904 152.655C159.08 151.257 159.366 149.875 159.759 148.522C160.24 147.163 161.454 143.044 161.21 142.187C160.966 141.331 157.446 139.754 157.086 139.632C156.727 139.509 157.568 137.443 156.232 136.953C154.896 136.464 154.414 137.198 154.414 137.198L153.905 140.597L152.345 143.044C151.696 142.549 151.016 142.095 150.311 141.684C149.219 141.073 146.669 140.828 146.546 141.807C146.424 142.785 148.581 143.628 149.334 144.24C150.087 144.852 151.036 147.768 151.891 148.624C152.667 149.474 153.397 150.366 154.075 151.296L154.563 152.879C154.563 152.879 156.225 168.914 156.422 172.904C156.618 176.894 157.215 187.45 158.409 189.041C159.603 190.632 159.806 191.638 163.156 190.441C166.507 189.245 167.131 187.648 167.904 184.059C168.677 180.47 168.725 172.524 166.738 169.139Z" fill="white" stroke="#263238" stroke-linecap="round" stroke-linejoin="round"/>
<path d="M167.931 184.079C168.724 180.496 168.724 172.523 166.737 169.125C166.52 168.751 166.256 168.268 165.957 167.697C161.461 166.385 157.188 168.526 157.188 168.526L156.103 169.002C156.245 170.668 156.353 172.061 156.394 172.911C156.598 176.894 157.188 187.457 158.381 189.047C159.575 190.638 159.779 191.644 163.129 190.448C166.48 189.251 167.131 187.668 167.931 184.079Z" fill="#CBCBCB" stroke="#263238" stroke-linecap="round" stroke-linejoin="round"/>
<path d="M152.237 115.25C152.727 117.053 153 118.908 153.051 120.776C153.051 123.433 152.237 125.072 153.464 125.887C154.692 126.703 155.709 126.71 155.499 128.348C155.419 129.252 155.061 130.109 154.475 130.802C154.475 130.802 154.068 139.19 153.661 140.012C153.254 140.835 147.944 139.808 146.716 139.597C145.488 139.387 142.023 141.032 139.771 136.532C137.519 132.032 139.364 125.276 143.447 121.795C146.255 119.454 149.19 117.269 152.237 115.25Z" fill="white" stroke="#263238" stroke-linecap="round" stroke-linejoin="round"/>
<path d="M153.051 120.742C153.051 120.742 151.945 119.912 151.362 121.367" stroke="#263238" stroke-linecap="round" stroke-linejoin="round"/>
<path d="M152.06 124.127C151.902 124.951 151.953 125.802 152.21 126.601" stroke="#263238" stroke-linecap="round" stroke-linejoin="round"/>
<path d="M154.095 133.738C153.914 133.796 153.722 133.816 153.533 133.795C153.344 133.774 153.161 133.714 152.997 133.618C152.832 133.522 152.69 133.392 152.579 133.237C152.468 133.082 152.391 132.905 152.352 132.719" stroke="#263238" stroke-linecap="round" stroke-linejoin="round"/>
<path d="M156.408 172.211C156.408 172.211 155.73 175.324 155.126 176.969C154.523 178.614 143.698 181.632 138.984 182.257C135.879 182.646 132.754 182.852 129.625 182.876L129.923 191.481C129.923 191.481 139.052 191.665 139.696 191.481C140.341 191.297 155.709 184.412 155.709 184.412L162.343 183.542C162.343 183.542 165.13 182.862 165.239 180.694C165.347 178.525 162.885 172.36 161.766 171.402C160.647 170.443 158.287 167.901 156.869 169.465C155.452 171.028 156.408 172.211 156.408 172.211Z" fill="white" stroke="#263238" stroke-linecap="round" stroke-linejoin="round"/>
<path d="M136.054 187.661C136.054 183.943 137.004 183.848 138.089 182.373C135.285 182.687 132.466 182.854 129.645 182.876L129.421 190.774C129.421 190.774 134.419 191.236 137.465 191.454C137.214 191.841 136.054 190.053 136.054 187.661Z" fill="#CBCBCB" stroke="#263238" stroke-linecap="round" stroke-linejoin="round"/>
<path d="M165.53 204.382C161.918 200.315 157.328 197.242 152.196 195.457L140.286 200.548C139.361 198.273 138.134 196.133 136.637 194.186L134.412 191.467L135.843 183.671C135.843 183.671 144.416 177.784 145.522 175.235L145.563 175.154C147.285 177.825 154.759 189.387 156.163 190.509C157.75 191.787 162.512 191.943 164.573 190.033C166.635 188.123 167.592 186.852 167.117 183.99C167.117 183.99 163.943 177.145 162.193 174.121C160.443 171.096 156.638 160.281 154.732 156.937C153.376 154.544 152.813 152.859 151.85 151.73C151.181 150.576 150.392 149.496 149.496 148.508C147.591 146.469 142.348 145.959 141.235 145.484C140.123 145.008 139.967 144.845 133.619 142.941C127.271 141.038 120.122 139.917 115.042 143.893C115.042 143.893 108.219 152.009 105.547 165.373C102.875 178.736 102.685 192.263 102.373 194.648C102.061 197.034 99.3545 208.651 98.5609 215.333C97.7674 222.014 104.726 228.723 109.013 230.803C113.299 232.883 131.713 233.189 142.511 230.803C153.308 228.417 170.454 217.596 170.454 217.596C170.454 217.596 171.085 210.908 165.53 204.382Z" fill="#CBCBCB" stroke="#263238" stroke-linecap="round" stroke-linejoin="round"/>
<path d="M137.458 174.984L135.281 174.909" stroke="#263238" stroke-linecap="round" stroke-linejoin="round"/>
<path d="M136.637 171.51C139.687 172.54 142.657 173.794 145.522 175.263L139.933 175.072" stroke="#263238" stroke-linecap="round" stroke-linejoin="round"/>
<path d="M166.134 175.528C166.76 176.514 167.146 177.634 167.26 178.797C167.26 180.299 167.511 182.311 166.887 181.686C166.263 181.061 166.005 178.919 166.005 178.919L166.134 175.528Z" fill="white" stroke="#263238" stroke-linecap="round" stroke-linejoin="round"/>
<path d="M162.376 173.774C162.376 173.774 164.723 172.496 165.768 174.032C166.812 175.568 166.534 178.634 165.768 180.15C165.001 181.666 164.126 180.218 164.235 178.872C164.343 177.526 162.376 173.774 162.376 173.774Z" fill="white" stroke="#263238" stroke-linecap="round" stroke-linejoin="round"/>
<path d="M161.495 172.143C161.495 172.143 163.848 170.865 164.886 172.401C165.924 173.937 165.645 176.996 164.886 178.519C164.126 180.041 163.244 178.587 163.353 177.241C163.462 175.895 161.495 172.143 161.495 172.143Z" fill="white" stroke="#263238" stroke-linecap="round" stroke-linejoin="round"/>
<path d="M160.416 170.382C160.416 170.382 162.769 169.104 163.807 170.64C164.845 172.177 164.574 175.242 163.807 176.758C163.041 178.274 162.166 176.826 162.274 175.48C162.383 174.134 160.416 170.382 160.416 170.382Z" fill="white" stroke="#263238" stroke-linecap="round" stroke-linejoin="round"/>
<path d="M154.461 108.867C154.5 111.31 153.872 113.717 152.644 115.827C149.171 121.149 145.909 120.531 144.505 124.834C143.101 129.136 141.005 133.602 143.243 136.09C145.482 138.578 147.313 137.11 147.313 137.11C147.313 137.11 148.744 140.794 145.068 144.478C141.392 148.162 135.064 146.728 133.429 146.116C132.4 145.718 131.437 145.166 130.574 144.478C130.574 144.478 129.55 147.346 124.47 147.346C119.39 147.346 113.618 143.866 113.618 137.517C113.618 131.169 117.084 126.88 117.905 124.419C118.725 121.958 116.474 114.393 119.939 109.689C123.405 104.985 128.756 101.532 132.826 101.532C136.895 101.532 144.837 103.769 144.871 103.782C145.407 104.075 148.839 102.674 149.768 102.736C153.18 102.926 154.421 105.733 154.461 108.867Z" fill="#263238" stroke="#263238" stroke-linecap="round" stroke-linejoin="round"/>
<path d="M141.208 137.98C141.949 138.078 142.699 138.078 143.44 137.98" stroke="#919191" stroke-linecap="round" stroke-linejoin="round"/>
<path d="M151.518 112.436C151.196 114.258 150.526 116 149.544 117.568C146.37 122.564 142.762 124.365 138.441 129.123C135.667 132.202 136.19 135.274 138.441 136.885" stroke="#919191" stroke-linecap="round" stroke-linejoin="round"/>
<path d="M151.579 107.127C151.711 107.876 151.777 108.636 151.775 109.397" stroke="#919191" stroke-linecap="round" stroke-linejoin="round"/>
<path d="M147.313 111.892C147.313 111.892 146.634 118.927 143.691 123.012C140.747 127.097 134.874 129.13 135.084 133.453" stroke="#919191" stroke-linecap="round" stroke-linejoin="round"/>
<path d="M174.645 229.655C174.645 229.655 178.877 251.447 182.499 262.037C186.121 272.627 189.743 282.313 190.638 283.224C191.533 284.135 193.961 287.459 193.961 287.459C192.839 288.357 191.468 288.886 190.034 288.975C187.918 288.975 185.205 286.256 182.784 284.733C180.363 283.211 180.071 282.313 175.235 280.498C170.399 278.684 174.333 273.844 175.54 271.417C176.239 270.108 176.65 268.664 176.748 267.183C174.828 260.367 171.426 254.062 166.784 248.721C159.249 240.252 157.737 220.608 157.737 220.608L172.231 215.17L174.645 229.655Z" fill="white" stroke="#263238" stroke-linecap="round" stroke-linejoin="round"/>
<path d="M190.042 282.136L189.167 282.313C189.167 282.313 184.032 275.353 180.112 272.933C178.776 272.008 177.204 271.485 175.582 271.424C174.368 273.844 170.447 278.683 175.276 280.498C180.105 282.313 180.411 283.217 182.825 284.733C185.24 286.249 187.959 288.974 190.075 288.974C191.509 288.886 192.88 288.357 194.002 287.459C194.002 287.459 191.581 284.128 190.679 283.224C190.422 282.889 190.208 282.524 190.042 282.136Z" fill="#CBCBCB" stroke="#263238" stroke-linecap="round" stroke-linejoin="round"/>
<path d="M187.607 288.112C185.219 286.46 183.063 282.789 179.176 280.499C175.643 278.419 173.825 278.337 173.072 278.493C173.257 278.979 173.553 279.414 173.937 279.762C174.322 280.111 174.783 280.363 175.283 280.499C180.119 282.313 180.418 283.218 182.832 284.733C184.358 285.712 186.04 287.221 187.607 288.112Z" fill="#CBCBCB" stroke="#263238" stroke-linecap="round" stroke-linejoin="round"/>
<path d="M190.042 288.974C189.887 288.969 189.733 288.953 189.581 288.927C189.733 288.956 189.887 288.972 190.042 288.974Z" fill="#CBCBCB" stroke="#263238" stroke-linecap="round" stroke-linejoin="round"/>
<path d="M147.733 196.817C147.733 196.817 162.247 191.665 163.604 195.063C164.96 198.462 171.173 211.139 168.908 216.346C166.642 221.552 150.717 201.391 148.452 200.956C146.187 200.521 147.469 198.339 147.733 196.817Z" fill="white" stroke="#263238" stroke-linecap="round" stroke-linejoin="round"/>
<path d="M161.956 203.458C161.956 203.458 178.457 202.099 181.624 205.049C184.792 207.999 173.94 243.338 168.06 254.438C158.842 271.798 161.63 276.345 161.63 276.345C161.63 276.345 162.308 279.064 166.832 283.374C171.356 287.683 172.712 288.356 171.125 289.036C169.538 289.716 162.763 289.036 162.084 288.58C161.406 288.125 156.435 284.053 151.911 282.694C147.387 281.335 148.065 280.424 150.1 276.345C152.135 272.267 151.911 275.666 154.169 268.644C156.877 259.991 159.016 251.17 160.572 242.237C161.772 234.957 163.604 226.963 163.088 219.561L161.956 203.458Z" fill="white" stroke="#263238" stroke-linecap="round" stroke-linejoin="round"/>
<path d="M174.042 214.524C172.314 210.346 169.341 206.804 165.53 204.382C158.314 199.767 152.196 195.457 152.196 195.457L140.286 200.548C140.286 200.548 143.189 205.483 128.268 207.978C116.779 209.895 106.232 207.115 100.542 203.764C99.7482 207.713 98.9207 212.104 98.507 215.319C97.7135 222.001 104.699 228.682 108.986 230.756C113.272 232.829 147.808 237.118 157.106 231.129C174.042 220.274 174.042 214.524 174.042 214.524Z" fill="#263238" stroke="#263238" stroke-linecap="round" stroke-linejoin="round"/>
<path d="M138.936 204.294C137.343 205.606 134.236 207.013 128.268 207.985C116.778 209.902 106.232 207.122 100.542 203.771C100.338 204.783 100.135 205.81 99.9312 206.863C103.831 209.215 112.024 213.198 121.262 212.063C132.283 210.711 137.18 207.693 138.936 204.294Z" fill="#CBCBCB" stroke="#263238" stroke-linecap="round" stroke-linejoin="round"/>
<path d="M130.133 218.854C129.604 219.533 129.055 220.213 128.499 220.893" stroke="white" stroke-linecap="round" stroke-linejoin="round"/>
<path d="M138.441 205.953C136.354 209.799 134.025 213.509 131.469 217.059" stroke="white" stroke-linecap="round" stroke-linejoin="round"/>
<path d="M133.47 210.255C133.47 210.255 129.401 215.693 125.107 218.867" stroke="white" stroke-linecap="round" stroke-linejoin="round"/>
<path d="M166.832 283.36C162.308 279.064 161.63 276.345 161.63 276.345C161.478 276.204 161.358 276.033 161.277 275.842C160.972 276.162 160.05 276.767 157.791 275.897C155.831 275.142 153.973 273.858 152.013 272.994C151.545 273.83 151.09 274.354 150.1 276.345C148.065 280.424 147.387 281.335 151.911 282.694C156.435 284.054 161.406 288.132 162.084 288.581C162.763 289.029 169.545 289.716 171.125 289.036C172.706 288.356 171.356 287.663 166.832 283.36Z" fill="#CBCBCB" stroke="#263238" stroke-linecap="round" stroke-linejoin="round"/>
<path d="M170.997 216.828L178.688 212.07" stroke="#263238" stroke-linecap="round" stroke-linejoin="round"/>
<path d="M79.1162 173.747C79.1162 173.747 103.614 170.674 119.268 175.106L121.648 234.793H84.9151C84.9151 234.793 87.2822 202.73 79.1162 173.747Z" fill="#919191" stroke="#263238" stroke-linecap="round" stroke-linejoin="round"/>
<path d="M119.268 175.106C103.614 170.674 79.1162 173.747 79.1162 173.747C81.7378 183.407 83.479 193.285 84.3183 203.261C97.9975 210.106 110.526 219.05 121.452 229.77L119.268 175.106Z" fill="#757575" stroke="#263238" stroke-linecap="round" stroke-linejoin="round"/>
<path d="M165.462 290.62C165.185 290.621 164.914 290.536 164.686 290.378C164.459 290.22 164.284 289.996 164.187 289.736C158.761 275.081 157.405 237.037 157.324 235.426C157.311 235.065 157.442 234.714 157.687 234.45C157.933 234.187 158.273 234.031 158.633 234.019C158.992 234.006 159.342 234.137 159.606 234.383C159.869 234.629 160.024 234.97 160.037 235.331C160.037 235.725 161.447 274.544 166.731 288.784C166.856 289.122 166.842 289.496 166.691 289.824C166.541 290.152 166.268 290.406 165.93 290.531C165.781 290.591 165.623 290.621 165.462 290.62Z" fill="white" stroke="#263238" stroke-linecap="round" stroke-linejoin="round"/>
<path d="M135.925 290.62C135.649 290.619 135.38 290.534 135.153 290.376C134.927 290.219 134.754 289.995 134.657 289.736C129.231 275.081 127.875 237.037 127.786 235.426C127.774 235.065 127.905 234.714 128.15 234.45C128.396 234.187 128.736 234.031 129.095 234.019C129.455 234.006 129.805 234.137 130.069 234.383C130.332 234.629 130.487 234.97 130.499 235.331C130.499 235.725 131.91 274.544 137.2 288.784C137.325 289.122 137.311 289.496 137.161 289.824C137.011 290.152 136.737 290.406 136.4 290.531C136.249 290.591 136.088 290.621 135.925 290.62Z" fill="white" stroke="#263238" stroke-linecap="round" stroke-linejoin="round"/>
<path d="M165.096 234.766H84.271V232.047H162.397C163.116 232.047 163.806 232.334 164.315 232.844C164.824 233.354 165.11 234.045 165.11 234.766H165.096Z" fill="#919191" stroke="#263238" stroke-linecap="round" stroke-linejoin="round"/>
<path d="M165.089 234.107H84.271V236.805H165.089V234.107Z" fill="white" stroke="#263238" stroke-linecap="round" stroke-linejoin="round"/>
<path d="M118.664 290.619C118.46 290.624 118.258 290.582 118.072 290.497C117.886 290.412 117.722 290.286 117.591 290.129C117.461 289.971 117.368 289.786 117.319 289.587C117.27 289.389 117.266 289.182 117.308 288.981C124.979 252.561 117.986 175.976 117.891 175.208C117.874 175.03 117.893 174.85 117.946 174.678C117.999 174.507 118.085 174.348 118.2 174.21C118.314 174.072 118.454 173.958 118.612 173.875C118.771 173.791 118.944 173.74 119.122 173.723C119.482 173.69 119.84 173.801 120.118 174.032C120.396 174.264 120.571 174.596 120.604 174.957C120.679 175.732 127.725 252.718 119.973 289.539C119.91 289.841 119.746 290.113 119.508 290.309C119.27 290.506 118.972 290.615 118.664 290.619Z" fill="white" stroke="#263238" stroke-linecap="round" stroke-linejoin="round"/>
<path d="M76.6135 289.627C76.4871 289.629 76.3613 289.61 76.2405 289.573C75.8957 289.475 75.6037 289.244 75.4283 288.93C75.2529 288.617 75.2084 288.247 75.3045 287.901C92.9386 225.162 77.97 174.644 77.8208 174.141C77.7353 173.803 77.7829 173.445 77.9538 173.141C78.1246 172.836 78.4056 172.61 78.7385 172.508C79.0715 172.405 79.4309 172.435 79.7423 172.591C80.0538 172.748 80.2934 173.018 80.4116 173.346C80.5676 173.856 95.794 225.094 77.9157 288.635C77.836 288.92 77.6657 289.171 77.4307 289.35C77.1957 289.529 76.9088 289.626 76.6135 289.627Z" fill="white" stroke="#263238" stroke-linecap="round" stroke-linejoin="round"/>
<path d="M324.589 177.547C324.589 177.547 316.254 172.904 315.637 183.426C315.02 193.949 313.48 262.336 313.48 262.336" stroke="#263238" stroke-width="2" stroke-linecap="round" stroke-linejoin="round"/>
<path d="M311.31 184.351C311.31 184.351 318.092 199.515 315.02 261.411" stroke="#263238" stroke-width="2" stroke-linecap="round" stroke-linejoin="round"/>
<path d="M317.99 179.667C317.99 179.667 314.796 181.706 312.985 179.368C311.174 177.03 314.213 172.734 311.534 170.899C308.855 169.063 304.222 171.864 304.222 171.864C304.222 171.864 307.783 172.911 307.668 174.862C307.552 176.812 305.837 177.546 305.633 176.697C305.43 175.847 303.7 171.551 300.811 173.339C299.976 173.832 299.25 174.49 298.676 175.273C298.102 176.056 297.693 176.947 297.474 177.893C297.474 177.893 304.209 177.173 304.616 179.708C305.023 182.243 301.855 179.266 299.075 179.103C296.294 178.94 293.757 179.348 293.94 181.033C294.002 182.525 293.913 184.019 293.676 185.492C295.198 184.225 297.123 183.545 299.102 183.576C302.16 183.759 302.045 185.71 299.264 185.547C296.484 185.384 294.096 188.035 294.096 188.035C294.096 188.035 296.633 192.378 299.855 194.526C303.076 196.674 304.236 195.886 304.602 194.247C304.968 192.609 304.114 188.347 306.06 188.463C308.007 188.578 302.839 195.818 305.321 196.246C307.803 196.674 309.804 195.953 310.455 194.315L311.134 192.677C311.134 192.677 310.265 188.429 310.645 186.777C311.025 185.125 311.479 186.825 311.92 188.816C312.361 190.808 312.639 195.566 313.487 195.335C314.335 195.104 317.055 191.637 317.692 190.271C318.33 188.905 314.111 184.752 314.158 183.915C314.206 183.079 317.461 184.67 317.97 185.54C318.34 186.201 318.672 186.882 318.967 187.579C318.967 187.579 321.002 186.301 320.948 182.386C320.893 178.471 317.99 179.667 317.99 179.667Z" fill="#CBCBCB"/>
<path opacity="0.3" d="M317.99 179.667C317.99 179.667 314.796 181.706 312.985 179.368C311.174 177.03 314.213 172.734 311.534 170.899C308.855 169.063 304.222 171.864 304.222 171.864C304.222 171.864 307.783 172.911 307.668 174.862C307.552 176.812 305.837 177.546 305.633 176.697C305.43 175.847 303.7 171.551 300.811 173.339C299.976 173.832 299.25 174.49 298.676 175.273C298.102 176.056 297.693 176.947 297.474 177.893C297.474 177.893 304.209 177.173 304.616 179.708C305.023 182.243 301.855 179.266 299.075 179.103C296.294 178.94 293.757 179.348 293.94 181.033C294.002 182.525 293.913 184.019 293.676 185.492C295.198 184.225 297.123 183.545 299.102 183.576C302.16 183.759 302.045 185.71 299.264 185.547C296.484 185.384 294.096 188.035 294.096 188.035C294.096 188.035 296.633 192.378 299.855 194.526C303.076 196.674 304.236 195.886 304.602 194.247C304.968 192.609 304.114 188.347 306.06 188.463C308.007 188.578 302.839 195.818 305.321 196.246C307.803 196.674 309.804 195.953 310.455 194.315L311.134 192.677C311.134 192.677 310.265 188.429 310.645 186.777C311.025 185.125 311.479 186.825 311.92 188.816C312.361 190.808 312.639 195.566 313.487 195.335C314.335 195.104 317.055 191.637 317.692 190.271C318.33 188.905 314.111 184.752 314.158 183.915C314.206 183.079 317.461 184.67 317.97 185.54C318.34 186.201 318.672 186.882 318.967 187.579C318.967 187.579 321.002 186.301 320.948 182.386C320.893 178.471 317.99 179.667 317.99 179.667Z" fill="#263238"/>
<path d="M301.821 188.85C303.903 186.274 306.962 182.787 309.533 181.122" stroke="#263238" stroke-linecap="round" stroke-linejoin="round"/>
<path d="M299.414 191.984C299.414 191.984 299.943 191.243 300.811 190.128" stroke="#263238" stroke-linecap="round" stroke-linejoin="round"/>
<path d="M310.889 181.761C310.889 181.761 313.982 186.138 314.552 190.645" stroke="#263238" stroke-linecap="round" stroke-linejoin="round"/>
<path d="M307.376 184.351C307.376 184.351 308.245 183.841 307.919 189.415" stroke="#263238" stroke-linecap="round" stroke-linejoin="round"/>
<path d="M309.648 179.144C309.648 179.144 311.418 177.574 310.482 174.44" stroke="#263238" stroke-linecap="round" stroke-linejoin="round"/>
<path d="M307.261 181.829L306 179.518" stroke="#263238" stroke-linecap="round" stroke-linejoin="round"/>
<path d="M304.609 184.187C304.609 184.187 300.607 181.156 298.104 181.006" stroke="#263238" stroke-linecap="round" stroke-linejoin="round"/>
<path d="M329.358 171.409C329.358 171.409 329.229 176.004 325.648 176.228C322.067 176.452 319.855 170.471 316.193 171.912C312.531 173.353 312.178 179.905 312.178 179.905C312.178 179.905 315.65 177.043 317.522 178.485C319.394 179.926 318.96 182.155 317.95 181.802C316.939 181.448 311.5 180.231 311.31 184.351C311.234 185.525 311.396 186.702 311.786 187.812C312.177 188.922 312.788 189.941 313.582 190.808C313.582 190.808 317.455 183.555 320.276 184.874C323.097 186.193 317.95 187.348 315.888 190.026C313.826 192.704 312.497 195.525 314.321 196.497C315.853 197.448 317.285 198.553 318.594 199.794C318.594 199.794 318.106 196.001 320.371 193.058C322.636 190.115 324.501 191.556 322.446 194.234C320.391 196.912 321.409 201.119 321.409 201.119C321.409 201.119 327.472 201.534 331.813 199.76C336.153 197.986 336.181 196.3 334.783 194.798C333.386 193.296 328.557 191.27 329.995 189.36C331.433 187.45 335.15 197.605 337.273 195.403C339.395 193.201 340.033 190.706 338.839 188.932L337.646 187.165C337.646 187.165 332.817 185.125 331.419 183.63C330.022 182.135 332.037 182.828 334.322 183.739C336.608 184.65 341.552 187.62 341.905 186.607C342.258 185.594 340.637 180.49 339.714 178.94C338.792 177.39 331.752 178.77 330.951 178.151C330.151 177.533 333.956 175.351 335.17 175.433C336.08 175.508 336.986 175.633 337.883 175.806C337.883 175.806 337.991 172.897 334.044 170.28C330.097 167.663 329.358 171.409 329.358 171.409Z" fill="#CBCBCB"/>
<path opacity="0.2" d="M329.358 171.409C329.358 171.409 329.229 176.004 325.648 176.228C322.067 176.452 319.855 170.471 316.193 171.912C312.531 173.353 312.178 179.905 312.178 179.905C312.178 179.905 315.65 177.043 317.522 178.485C319.394 179.926 318.96 182.155 317.95 181.802C316.939 181.448 311.5 180.231 311.31 184.351C311.234 185.525 311.396 186.702 311.786 187.812C312.177 188.922 312.788 189.941 313.582 190.808C313.582 190.808 317.455 183.555 320.276 184.874C323.097 186.193 317.95 187.348 315.888 190.026C313.826 192.704 312.497 195.525 314.321 196.497C315.853 197.448 317.285 198.553 318.594 199.794C318.594 199.794 318.106 196.001 320.371 193.058C322.636 190.115 324.501 191.556 322.446 194.234C320.391 196.912 321.409 201.119 321.409 201.119C321.409 201.119 327.472 201.534 331.813 199.76C336.153 197.986 336.181 196.3 334.783 194.798C333.386 193.296 328.557 191.27 329.995 189.36C331.433 187.45 335.15 197.605 337.273 195.403C339.395 193.201 340.033 190.706 338.839 188.932L337.646 187.165C337.646 187.165 332.817 185.125 331.419 183.63C330.022 182.135 332.037 182.828 334.322 183.739C336.608 184.65 341.552 187.62 341.905 186.607C342.258 185.594 340.637 180.49 339.714 178.94C338.792 177.39 331.752 178.77 330.951 178.151C330.151 177.533 333.956 175.351 335.17 175.433C336.08 175.508 336.986 175.633 337.883 175.806C337.883 175.806 337.991 172.897 334.044 170.28C330.097 167.663 329.358 171.409 329.358 171.409Z" fill="#263238"/>
<path d="M327.512 193.887C326.366 190.02 324.955 184.582 325.05 180.884" stroke="#263238" stroke-linecap="round" stroke-linejoin="round"/>
<path d="M328.998 198.448C328.998 198.448 328.618 197.401 328.096 195.777" stroke="#263238" stroke-linecap="round" stroke-linejoin="round"/>
<path d="M326.611 179.96C326.611 179.96 333.088 179.837 337.978 182.339" stroke="#263238" stroke-linecap="round" stroke-linejoin="round"/>
<path d="M326.814 185.262C326.814 185.262 326.896 184.045 332.24 188.171" stroke="#263238" stroke-linecap="round" stroke-linejoin="round"/>
<path d="M323.179 179.436C323.179 179.436 322.813 176.595 319.048 175.399" stroke="#263238" stroke-linecap="round" stroke-linejoin="round"/>
<path d="M324.203 183.643L321.036 183.331" stroke="#263238" stroke-linecap="round" stroke-linejoin="round"/>
<path d="M324.753 187.912C324.753 187.912 318.995 189.863 317.143 192.276" stroke="#263238" stroke-linecap="round" stroke-linejoin="round"/>
<path d="M290.936 201.996C290.936 201.996 309.153 214.062 308.848 260.793" stroke="#263238" stroke-width="2" stroke-linecap="round" stroke-linejoin="round"/>
<path d="M313.399 198.808C313.399 198.808 312.816 204.097 308.651 204.015C304.487 203.934 302.547 196.824 298.152 198.142C293.757 199.461 292.76 206.979 292.76 206.979C292.76 206.979 297.047 204.002 299.068 205.85C301.089 207.699 300.377 210.221 299.244 209.718C298.112 209.215 291.947 207.291 291.343 212.029C291.147 213.378 291.226 214.752 291.576 216.069C291.925 217.386 292.538 218.618 293.378 219.69C293.378 219.69 298.532 211.689 301.659 213.484C304.786 215.278 298.742 216.114 296.111 219.01C293.479 221.906 291.696 225.032 293.69 226.324C295.371 227.567 296.921 228.979 298.315 230.538C298.315 230.538 298.105 226.12 300.994 222.932C303.883 219.744 305.911 221.573 303.28 224.489C300.648 227.405 301.435 232.333 301.435 232.333C301.435 232.333 308.401 233.386 313.575 231.755C318.75 230.124 318.934 228.18 317.462 226.317C315.99 224.455 310.612 221.654 312.45 219.629C314.288 217.603 317.618 229.634 320.276 227.289C322.935 224.944 323.898 222.137 322.691 219.975L321.484 217.814C321.484 217.814 316.105 215.02 314.633 213.151C313.162 211.281 315.42 212.287 317.97 213.552C320.521 214.816 325.953 218.711 326.448 217.583C326.943 216.454 325.56 210.418 324.644 208.522C323.729 206.625 315.475 207.57 314.606 206.782C313.738 205.993 318.343 203.838 319.734 204.063C320.769 204.236 321.795 204.462 322.806 204.742C322.806 204.742 323.2 201.398 318.893 198C314.586 194.601 313.399 198.808 313.399 198.808Z" fill="#CBCBCB"/>
<path opacity="0.3" d="M313.399 198.808C313.399 198.808 312.816 204.097 308.651 204.015C304.487 203.934 302.547 196.824 298.152 198.142C293.757 199.461 292.76 206.979 292.76 206.979C292.76 206.979 297.047 204.002 299.068 205.85C301.089 207.699 300.377 210.221 299.244 209.718C298.112 209.215 291.947 207.291 291.343 212.029C291.147 213.378 291.226 214.752 291.576 216.069C291.925 217.386 292.538 218.618 293.378 219.69C293.378 219.69 298.532 211.689 301.659 213.484C304.786 215.278 298.742 216.114 296.111 219.01C293.479 221.906 291.696 225.032 293.69 226.324C295.371 227.567 296.921 228.979 298.315 230.538C298.315 230.538 298.105 226.12 300.994 222.932C303.883 219.744 305.911 221.573 303.28 224.489C300.648 227.405 301.435 232.333 301.435 232.333C301.435 232.333 308.401 233.386 313.575 231.755C318.75 230.124 318.934 228.18 317.462 226.317C315.99 224.455 310.612 221.654 312.45 219.629C314.288 217.603 317.618 229.634 320.276 227.289C322.935 224.944 323.898 222.137 322.691 219.975L321.484 217.814C321.484 217.814 316.105 215.02 314.633 213.151C313.162 211.281 315.42 212.287 317.97 213.552C320.521 214.816 325.953 218.711 326.448 217.583C326.943 216.454 325.56 210.418 324.644 208.522C323.729 206.625 315.475 207.57 314.606 206.782C313.738 205.993 318.343 203.838 319.734 204.063C320.769 204.236 321.795 204.462 322.806 204.742C322.806 204.742 323.2 201.398 318.893 198C314.586 194.601 313.399 198.808 313.399 198.808Z" fill="#263238"/>
<path d="M309.153 224.57C308.176 220.03 307.084 213.606 307.532 209.331" stroke="#263238" stroke-linecap="round" stroke-linejoin="round"/>
<path d="M310.441 229.974C310.441 229.974 310.102 228.73 309.648 226.807" stroke="#263238" stroke-linecap="round" stroke-linejoin="round"/>
<path d="M309.411 208.413C309.411 208.413 316.871 208.889 322.297 212.233" stroke="#263238" stroke-linecap="round" stroke-linejoin="round"/>
<path d="M309.16 214.49C309.16 214.49 309.37 213.096 315.148 218.364" stroke="#263238" stroke-linecap="round" stroke-linejoin="round"/>
<path d="M305.511 207.489C305.511 207.489 305.355 204.172 301.129 202.431" stroke="#263238" stroke-linecap="round" stroke-linejoin="round"/>
<path d="M306.298 212.437L302.676 211.778" stroke="#263238" stroke-linecap="round" stroke-linejoin="round"/>
<path d="M306.535 217.413C306.535 217.413 299.705 219.126 297.338 221.729" stroke="#263238" stroke-linecap="round" stroke-linejoin="round"/>
<path d="M298.037 238.817C298.037 238.817 309.77 247.79 311.004 261.099L308.536 216.529" stroke="#263238" stroke-width="2" stroke-linecap="round" stroke-linejoin="round"/>
<path d="M326.441 232.319C311.004 229.532 311.004 261.099 311.004 261.099" stroke="#263238" stroke-width="2" stroke-linecap="round" stroke-linejoin="round"/>
<path d="M312.856 260.793C312.856 260.793 303.903 195.498 329.812 195.498" stroke="#263238" stroke-width="2" stroke-linecap="round" stroke-linejoin="round"/>
<path d="M320.561 230.443C318.452 228.064 313.969 228.064 311.337 234.141C308.705 240.218 311.073 239.164 311.073 239.164C311.073 239.164 316.078 237.573 319.245 236.52C322.413 235.466 326.624 232.822 326.889 234.406C327.153 235.99 324.78 237.573 321.877 238.104C318.974 238.634 311.337 240.748 312.124 242.359C312.911 243.97 314.762 248.701 314.762 248.701C317.014 246.783 319.391 245.019 321.877 243.419C325.309 241.305 327.418 242.094 325.573 244.473C323.728 246.852 318.452 249.489 319.51 252.663C320.568 255.838 326.889 259.794 326.889 259.794C326.889 259.794 327.683 253.194 329.527 251.08C331.372 248.966 331.372 251.345 330.843 255.042C330.578 256.617 330.402 258.206 330.314 259.801L337.693 262.445C338.9 260.603 340.221 258.839 341.647 257.163L343.004 255.804C343.004 255.804 337.205 250.787 336.94 247.647C336.676 244.507 340.895 247.647 342.21 248.177C343.526 248.707 345.635 252.405 345.635 252.405C345.635 252.405 346.958 246.328 347.222 244.214L347.487 242.1C347.487 242.1 341.946 239.986 339.836 239.986C337.727 239.986 336.676 241.57 336.676 239.463C336.676 237.356 338.785 236.024 341.159 236.289C343.307 236.649 345.423 237.178 347.487 237.872C347.487 237.872 349.067 236.554 348.538 232.591C348.009 228.628 346.693 228.628 343.533 229.682C340.372 230.735 338.256 233.121 335.882 233.121C333.509 233.121 334.831 230.212 336.411 229.423C337.992 228.635 341.946 227.044 342.739 226.779C343.533 226.514 338.521 222.816 335.882 222.286C333.244 221.756 329.833 223.646 330.083 226.249C330.579 231.762 322.67 232.842 320.561 230.443Z" fill="#CBCBCB"/>
<path d="M337.53 257.646C337.612 258.439 337.666 259.234 337.693 260.032" stroke="#263238" stroke-linecap="round" stroke-linejoin="round"/>
<path d="M332.233 238.682C334.557 243.913 336.231 249.41 337.218 255.05" stroke="#263238" stroke-linecap="round" stroke-linejoin="round"/>
<path d="M331.284 236.561C329.981 233.747 328.998 232.027 328.998 232.027C330.437 231.348 331.632 230.242 332.423 228.859C333.04 227.607 333.944 226.519 335.061 225.685" stroke="#263238" stroke-linecap="round" stroke-linejoin="round"/>
<path d="M319.774 240.999C319.774 240.999 329.27 237.036 329.27 237.825" stroke="#263238" stroke-linecap="round" stroke-linejoin="round"/>
<path d="M334.505 235.99C334.505 235.99 338.724 233.876 342.414 233.876" stroke="#263238" stroke-linecap="round" stroke-linejoin="round"/>
<path d="M332.952 242.359C331.123 243.866 329.444 245.548 327.94 247.382C326.402 249.2 325.157 251.248 324.25 253.452" stroke="#263238" stroke-linecap="round" stroke-linejoin="round"/>
<path d="M335.862 243.392C335.862 243.392 341.403 241.801 344.3 244.445" stroke="#263238" stroke-linecap="round" stroke-linejoin="round"/>
<path d="M345.879 207.693C343.01 205.993 339.836 205.953 338.276 204.158C336.716 202.364 339.775 201.439 341.41 202.119C343.044 202.799 346.836 204.749 347.548 205.171C348.26 205.592 347.772 199.386 346.442 197.014C345.113 194.642 341.471 193.31 339.66 195.226C335.828 199.257 329.846 193.969 330.253 190.815C330.66 187.661 327.723 184.269 321.436 186.254C315.149 188.239 317.482 189.347 317.482 189.347C317.482 189.347 321.958 192.1 324.834 193.799C327.709 195.498 332.457 196.96 331.433 198.197C330.409 199.434 327.662 198.68 325.363 196.837C323.063 194.995 316.464 190.591 315.786 192.229C315.108 193.867 312.734 198.38 312.734 198.38C315.656 198.829 318.545 199.472 321.381 200.304C325.22 201.514 326.007 203.628 323.009 203.791C320.011 203.954 314.558 201.698 312.836 204.573C311.113 207.448 312.3 214.83 312.3 214.83C312.3 214.83 317.794 211.105 320.595 211.112C323.396 211.119 321.605 212.682 318.472 214.708C317.113 215.539 315.802 216.447 314.545 217.426L317.393 224.747C319.572 224.451 321.767 224.293 323.966 224.271L325.824 224.407C325.824 224.407 325.824 216.726 328.021 214.449C330.219 212.172 330.612 217.44 331.08 218.786C331.548 220.132 330.144 224.149 330.144 224.149C330.144 224.149 335.57 221.165 337.347 219.975L339.117 218.793C339.117 218.793 337.083 213.212 335.692 211.622C334.302 210.031 332.43 210.262 334.017 208.903C335.604 207.543 337.991 208.223 339.348 210.221C340.485 212.081 341.472 214.029 342.298 216.047C342.298 216.047 344.333 216.38 346.971 213.382C349.61 210.384 348.748 209.392 345.879 207.693ZM320.941 216.149C318.831 215.088 323.837 212.974 323.837 212.974C325.688 212.716 323.043 217.209 320.941 216.149ZM324.488 206.286C323.593 205.837 326.285 204.926 326.285 204.926C330.178 205.654 325.383 206.734 324.481 206.286H324.488Z" fill="#CBCBCB"/>
<path d="M320.873 221.532C320.33 222.11 319.761 222.674 319.184 223.217" stroke="#263238" stroke-linecap="round" stroke-linejoin="round"/>
<path d="M331.69 205.089C329.268 210.273 326.218 215.138 322.609 219.574" stroke="#263238" stroke-linecap="round" stroke-linejoin="round"/>
<path d="M332.667 202.982C333.936 200.148 334.58 198.278 334.58 198.278C336.038 198.919 337.656 199.1 339.219 198.795C340.565 198.438 341.976 198.408 343.336 198.707" stroke="#263238" stroke-linecap="round" stroke-linejoin="round"/>
<path d="M330.375 202.289C330.972 201.765 321.768 197.184 321.768 197.184" stroke="#263238" stroke-linecap="round" stroke-linejoin="round"/>
<path d="M335.224 205.062C335.224 205.062 339.585 206.87 342.007 209.664" stroke="#263238" stroke-linecap="round" stroke-linejoin="round"/>
<path d="M329.412 208.026C327.078 207.629 324.711 207.46 322.345 207.523C319.964 207.552 317.603 207.954 315.345 208.712" stroke="#263238" stroke-linecap="round" stroke-linejoin="round"/>
<path d="M330.517 210.915C330.517 210.915 335.339 214.062 335.265 217.991" stroke="#263238" stroke-linecap="round" stroke-linejoin="round"/>
<path d="M304.914 244.296C302.608 242.937 300.051 242.903 298.81 241.455C297.569 240.007 300.01 239.28 301.326 239.823C302.642 240.367 305.694 241.944 306.27 242.284C306.847 242.624 306.447 237.621 305.375 235.738C304.303 233.855 301.373 232.761 299.915 234.297C296.829 237.546 292.014 233.284 292.346 230.749C292.678 228.214 290.311 225.481 285.231 227.079C280.151 228.676 282.051 229.566 282.051 229.566C282.051 229.566 285.652 231.782 287.965 233.149C290.278 234.515 294.103 235.698 293.275 236.69C292.448 237.682 290.244 237.084 288.392 235.596C286.54 234.107 281.23 230.566 280.687 231.884C280.145 233.203 278.232 236.833 278.232 236.833C280.583 237.196 282.908 237.714 285.191 238.382C288.277 239.354 288.907 241.054 286.493 241.183C284.078 241.312 279.711 239.497 278.354 241.815C276.998 244.133 277.92 250.074 277.92 250.074C277.92 250.074 282.342 247.069 284.594 247.076C286.846 247.083 285.408 248.34 282.892 249.972C281.798 250.641 280.742 251.372 279.731 252.161L282.017 258.047C283.77 257.811 285.537 257.686 287.307 257.673L288.806 257.775C288.806 257.775 288.806 251.596 290.576 249.761C292.346 247.926 292.658 252.167 293.031 253.255C293.404 254.342 292.278 257.571 292.278 257.571C292.278 257.571 296.66 255.165 298.077 254.213L299.502 253.255C299.502 253.255 297.86 248.769 296.748 247.484C295.636 246.199 294.116 246.396 295.391 245.282C296.666 244.167 298.586 244.752 299.678 246.335C300.594 247.833 301.39 249.402 302.058 251.025C302.058 251.025 303.693 251.291 305.816 248.884C307.939 246.478 307.227 245.669 304.914 244.296ZM284.838 251.093C283.142 250.244 287.171 248.544 287.171 248.544C288.657 248.34 286.534 251.957 284.838 251.1V251.093ZM287.707 243.168C286.981 242.801 289.152 242.08 289.152 242.08C292.278 242.685 288.419 243.528 287.707 243.168Z" fill="#CBCBCB"/>
<path d="M284.797 255.437C284.357 255.899 283.902 256.354 283.441 256.796" stroke="#263238" stroke-linecap="round" stroke-linejoin="round"/>
<path d="M293.499 242.202C291.552 246.374 289.098 250.289 286.195 253.86" stroke="#263238" stroke-linecap="round" stroke-linejoin="round"/>
<path d="M294.286 240.503C295.303 238.226 295.826 236.724 295.826 236.724C296.998 237.238 298.299 237.383 299.556 237.138C300.638 236.851 301.773 236.828 302.866 237.07" stroke="#263238" stroke-linecap="round" stroke-linejoin="round"/>
<path d="M285.51 235.84C285.51 235.84 292.923 239.531 292.441 239.918" stroke="#263238" stroke-linecap="round" stroke-linejoin="round"/>
<path d="M296.341 242.182C296.341 242.182 299.847 243.637 301.767 245.886" stroke="#263238" stroke-linecap="round" stroke-linejoin="round"/>
<path d="M291.662 244.568C289.785 244.249 287.881 244.115 285.978 244.167C284.063 244.185 282.163 244.509 280.349 245.125" stroke="#263238" stroke-linecap="round" stroke-linejoin="round"/>
<path d="M292.557 246.893C292.557 246.893 296.436 249.428 296.362 252.582" stroke="#263238" stroke-linecap="round" stroke-linejoin="round"/>
<path d="M295.5 200.671C295.5 200.671 292.597 202.785 290.753 200.671C288.908 198.557 291.546 194.329 288.908 192.745C286.269 191.162 282.058 194.064 282.058 194.064C282.058 194.064 285.483 194.859 285.483 196.708C285.483 198.557 283.902 199.352 283.638 198.557C283.373 197.762 281.529 193.799 278.89 195.655C278.13 196.167 277.482 196.829 276.984 197.6C276.486 198.372 276.15 199.236 275.994 200.141C275.994 200.141 282.315 199.087 282.844 201.466C283.373 203.845 280.213 201.201 277.574 201.201C274.936 201.201 272.562 201.731 272.827 203.315C272.97 204.721 272.97 206.137 272.827 207.543C274.192 206.262 275.97 205.512 277.839 205.429C280.735 205.429 280.735 207.278 278.104 207.278C275.472 207.278 273.356 209.922 273.356 209.922C273.356 209.922 275.994 213.885 279.155 215.734C282.315 217.583 283.373 216.787 283.638 215.204C283.902 213.62 282.844 209.657 284.689 209.657C286.534 209.657 282.058 216.787 284.425 217.052C286.792 217.317 288.643 216.522 289.172 214.938L289.701 213.355C289.701 213.355 288.643 209.392 288.908 207.808C289.172 206.224 289.701 207.808 290.224 209.657C290.746 211.506 291.282 215.992 292.075 215.734C292.869 215.475 295.236 212.029 295.765 210.711C296.294 209.392 292.075 205.694 292.075 204.899C292.075 204.104 295.236 205.429 295.765 206.218C296.294 207.006 296.816 208.066 296.816 208.066C296.816 208.066 298.661 206.748 298.396 203.05C298.132 199.352 295.5 200.671 295.5 200.671Z" fill="#CBCBCB"/>
<path d="M280.729 210.255C282.553 207.706 285.259 204.239 287.592 202.52" stroke="#263238" stroke-linecap="round" stroke-linejoin="round"/>
<path d="M278.626 213.355C278.626 213.355 279.094 212.621 279.847 211.52" stroke="#263238" stroke-linecap="round" stroke-linejoin="round"/>
<path d="M288.908 203.05C288.908 203.05 292.075 207.013 292.862 211.241" stroke="#263238" stroke-linecap="round" stroke-linejoin="round"/>
<path d="M285.747 205.694C285.747 205.694 286.534 205.164 286.534 210.452" stroke="#263238" stroke-linecap="round" stroke-linejoin="round"/>
<path d="M287.592 200.671C287.592 200.671 289.172 199.087 288.121 196.178" stroke="#263238" stroke-linecap="round" stroke-linejoin="round"/>
<path d="M285.482 203.315L284.167 201.201" stroke="#263238" stroke-linecap="round" stroke-linejoin="round"/>
<path d="M283.109 205.694C283.109 205.694 279.155 203.05 276.781 203.05" stroke="#263238" stroke-linecap="round" stroke-linejoin="round"/>
<path d="M322.121 259.862H301.74V289.26H322.121V259.862Z" fill="#263238" stroke="#263238" stroke-width="2" stroke-linecap="round" stroke-linejoin="round"/>
</svg>
